<svg width="180" height="180" viewBox="0 0 180 180" fill="none" xmlns="http://www.w3.org/2000/svg">
<rect width="180" height="180" rx="90" fill="#242424"/>
<path d="M56.293 76.0049C53.0406 76.3505 51.6849 74.6407 50.1954 72.9581C49.0667 71.6802 47.1641 71.6621 45.4187 71.8985C39.6004 72.7353 34.364 74.5543 30.3902 78.1604C27.2425 81.0117 24.153 83.9039 22.7276 87.6465C22.0119 89.5519 22.1458 91.2436 23.9436 92.7033C25.7414 94.1631 27.7429 94.1085 30.0062 93.6538C32.38 93.149 34.5968 92.4987 36.1851 90.9253C37.4826 89.6565 37.4244 87.4919 36.3539 86.1458C35.8676 85.5376 35.7028 84.8055 35.8942 84.104C36.0397 83.7448 37.3313 83.4583 38.0819 83.4946C41.1772 83.6538 44.255 83.9494 47.3387 84.1995C49.0842 84.3496 50.0965 85.2091 50.0674 86.3778C50.0674 87.3782 48.6769 88.415 47.2922 88.6515C46.7852 88.7701 46.3522 89.0308 46.0761 89.3837C44.767 91.1344 43.5627 92.9307 42.2536 94.6769C41.9051 95.0873 41.4562 95.4396 40.9328 95.7138C39.2052 96.785 37.4006 97.778 35.5277 98.6878C34.1935 99.2848 32.7231 99.6725 31.1989 99.8293C29.2207 99.9657 27.2309 99.9657 25.2527 99.8293C23.8432 99.7902 22.4701 99.4696 21.2641 98.898C20.0582 98.3265 19.0597 97.523 18.3639 96.5642C16.9966 94.7997 15.4548 93.0398 14.5995 91.1072C13.3544 88.3787 14.198 85.7366 15.7631 83.1081C19.5334 76.7871 25.9683 72.5897 33.2993 68.9881C36.5284 67.401 39.9146 66.0595 43.615 65.532C46.9949 65.0745 50.4292 64.9113 53.8551 65.0454C57.8813 65.1864 62.0996 69.0472 59.2719 73.3128C58.7773 74.0631 58.1664 74.7725 57.6137 75.4956C58.632 75.9781 59.6042 76.5177 60.5228 77.11C62.6639 78.697 63.3097 80.8162 61.2792 82.8762C60.1621 84.0085 59.0566 85.1499 57.9861 86.3095C57.4391 86.9053 57.2413 87.4055 58.5213 87.7238C59.7376 88.0615 60.9071 88.4942 62.0123 89.0153C63.1061 89.4701 63.2225 90.2295 62.6348 91.0526C62.0472 91.8757 61.2617 92.4168 59.941 92.1804C58.8588 91.9894 57.7475 91.862 56.6828 91.6165C55.3679 91.3163 54.9373 91.8211 54.7337 92.7079C54.402 94.2404 53.9715 95.7593 53.7038 97.2918C53.0638 100.93 50.7947 104.058 48.8282 107.296C47.6645 109.211 46.4078 111.075 45.1627 112.949C44.8889 113.472 44.4944 113.951 43.999 114.363C43.5219 114.677 42.6201 115.009 42.1837 114.854C41.9099 114.699 41.6895 114.493 41.5423 114.255C41.3951 114.017 41.3256 113.754 41.3401 113.49C41.5552 112.642 41.901 111.817 42.3699 111.034C44.1154 107.596 45.9074 104.172 47.6529 100.73C47.9309 100.167 48.1261 99.5809 48.2347 98.9834C48.9096 95.4728 49.4274 91.9439 50.178 88.4423C50.7598 85.7138 51.6093 82.9853 52.3424 80.2568C52.8311 78.4151 54.6348 77.3464 56.293 76.0049ZM56.6595 79.361C56.0079 80.2204 55.2631 80.7843 55.2806 81.3391C55.2806 81.7302 56.5199 82.5033 56.8748 82.3987C57.269 82.2785 57.6237 82.0906 57.9127 81.849C58.2018 81.6074 58.4177 81.3182 58.5446 81.0026C58.6202 80.6252 57.5613 80.1068 56.6595 79.361Z" fill="#F9F7F2"/>
<path d="M148.123 91.5983C146.092 91.7029 144.05 91.7802 142.037 91.9166C139.558 92.0849 138.546 92.9989 138.464 94.9316C138.383 97.2327 138.534 99.5928 137.12 101.712C136.353 102.879 135.416 103.973 134.328 104.972C133.251 105.946 131.96 105.882 130.738 105.05C126.613 102.226 126.764 99.1062 129.318 95.6001C129.375 95.5394 129.437 95.4817 129.504 95.4273C131.616 93.1854 131.564 91.43 127.293 90.6479C124.675 90.1433 122.138 89.4096 119.73 88.4605C118.386 87.9421 117.303 86.9007 116.303 85.9685C115.517 85.2273 116.163 84.4997 117.6 84.4724C120.073 84.4269 122.546 84.4133 125.018 84.4724C131.209 84.5906 137.405 84.8635 143.602 84.8589C149.42 84.8589 155.238 84.6179 161.016 84.4042C163.25 84.3132 164.548 85.1545 165.473 86.5551C166.776 88.5287 165.589 90.4933 162.75 90.7843C157.909 91.28 153.045 91.6256 148.204 92.0349L148.123 91.5983Z" fill="#F9F7F2"/>
<path d="M106.749 80.5793C107.507 80.0258 108.309 79.5108 109.152 79.0377C110.042 78.6102 110.897 77.8736 112.136 78.583C113.376 79.2924 114.056 80.0245 113.754 81.2478C113.451 82.4711 113.248 83.6352 113.003 84.8312C112.358 88.0145 111.752 91.175 111.066 94.3401C110.799 95.3777 110.463 96.4038 110.059 97.4142C109.85 97.8806 109.454 98.282 108.93 98.5588C108.406 98.8356 107.782 98.9732 107.15 98.9512C105.824 98.9512 105.312 98.2327 104.997 97.4005C104.311 95.5815 104.963 93.7943 105.475 92.0254C105.899 90.552 106.376 89.0877 106.871 87.6279C107.191 86.7184 106.766 86.1727 105.579 85.9863C105.295 85.936 105.017 85.8676 104.747 85.7817C101.431 84.8267 102.059 84.9813 101.123 87.3324C99.7494 90.7885 98.9 94.3719 97.684 97.8735C96.6018 100.998 95.3567 104.094 94.1057 107.182C93.6636 108.274 92.7326 109.156 91.0686 109.106C89.6897 109.06 87.7522 107.641 87.374 106.505C86.3384 103.376 86.6991 100.434 89.3232 97.8143C91.4643 95.6861 92.3661 93.1577 93.3959 90.6247C94.4374 88.0099 95.7581 85.4542 97.073 82.894C98.1785 80.7612 99.4585 78.6876 100.64 76.5821C101.064 75.8226 101.344 74.9222 102.676 74.9268C104.212 74.9268 106.039 76.1 106.266 77.2005C106.458 78.1919 106.551 79.206 106.749 80.5793Z" fill="#F9F7F2"/>
<path d="M76.0053 88.7296C75.7959 85.4645 77.5122 82.5723 79.6708 79.8757C81.3867 77.7029 83.3705 75.6665 85.5938 73.7956C86.8098 72.7816 88.7123 72.2177 90.4171 71.6401C91.8614 71.2077 93.3532 70.8789 94.8738 70.6579C95.5054 70.5036 96.1879 70.5394 96.7874 70.7581C97.387 70.9768 97.8603 71.3628 98.1146 71.8402C99.0513 73.2454 99.4179 74.6961 98.7662 76.2058C96.6949 80.9943 94.3618 85.701 90.3996 89.771C89.7347 90.4639 88.8773 91.0299 87.892 91.4263C85.9949 92.1713 84.0262 92.7993 82.0039 93.3044C78.9144 94.0502 76.2962 92.5677 75.9995 90.0348C75.9646 89.6209 76.0053 89.2026 76.0053 88.7296ZM93.46 75.601L92.756 74.9416C92.3953 75.2372 91.8193 75.4919 91.7087 75.8511C91.4702 76.6151 91.5865 77.4473 91.3422 78.2067C90.8942 79.571 90.26 79.7529 88.6367 79.2208C88.4205 79.1833 88.1957 79.189 87.9831 79.2375C87.7706 79.286 87.5771 79.3757 87.4207 79.4982C85.7276 81.731 84.0286 83.973 82.5217 86.2831C82.1494 86.8606 82.4635 87.7064 82.4577 88.4295C83.3654 88.2749 84.4243 88.3067 85.1574 87.9384C90.7371 85.1371 92.5465 80.7078 93.4367 75.601H93.46Z" fill="#F9F7F2"/>
<path d="M63.543 86.5863C63.8572 84.1033 65.9808 81.584 68.7387 80.6745C69.5158 80.4512 70.3608 80.415 71.1645 80.5706C71.9683 80.7262 72.6939 81.0666 73.2478 81.5476C73.8358 82.0478 74.2774 82.6422 74.5416 83.2893C74.8059 83.9364 74.8866 84.6208 74.778 85.2948C74.458 87.3048 73.7656 89.0647 71.5779 90.4107C69.3903 91.7568 66.1903 90.9792 65.015 89.4557C64.4202 88.5339 63.9277 87.5739 63.543 86.5863ZM69.2739 87.9141C70.4376 87.9141 71.6652 86.9319 71.7467 85.8723C71.7252 85.4958 71.5239 85.1393 71.1824 84.8732C70.8409 84.6071 70.3841 84.4509 69.9023 84.4353C68.6921 84.4353 67.8543 85.3675 67.767 86.7409C67.703 87.6095 68.3314 87.8641 69.2739 87.9141Z" fill="#F9F7F2"/>
<path d="M118.984 96.7961C118.926 97.7784 118.862 98.7606 118.804 99.7383C118.796 100.102 118.628 100.453 118.326 100.731C118.025 101.009 117.61 101.197 117.151 101.262C116.215 101.471 115.691 101.125 115.144 100.521C113.934 99.1835 114.079 97.6874 114.702 96.3914C115.54 94.6406 114.702 93.2081 113.986 91.7256C113.346 90.4114 113.404 89.7884 114.568 89.4155C114.862 89.326 115.177 89.2859 115.492 89.298C115.807 89.3101 116.115 89.374 116.396 89.4856C116.677 89.5973 116.925 89.754 117.123 89.9457C117.322 90.1374 117.466 90.3596 117.547 90.5979C118.233 92.6215 118.711 94.6906 119.292 96.737L118.984 96.7961Z" fill="#F9F7F2"/>
<path d="M142.827 98.7747C144.829 98.8247 145.859 99.5796 145.771 100.935C145.684 102.413 144.567 103.513 143.177 103.504C141.559 103.504 139.86 102.103 139.895 100.812C139.93 99.5205 141.006 98.7247 142.827 98.7747Z" fill="#F9F7F2"/>
<path d="M122.359 82.0302C122.33 83.158 121.486 83.8492 120.148 83.8492C119.798 83.8437 119.454 83.7817 119.137 83.6669C118.819 83.5522 118.536 83.3873 118.304 83.1826C118.072 82.978 117.897 82.738 117.79 82.4778C117.683 82.2176 117.646 81.9429 117.681 81.671C117.728 80.575 118.769 79.6837 119.962 79.7292C121.265 79.761 122.388 80.8433 122.359 82.0302Z" fill="#F9F7F2"/>
</svg>
