<svg width="152" height="51" viewBox="0 0 152 51" fill="none" xmlns="http://www.w3.org/2000/svg">
<path d="M42.293 11.5581C39.0406 11.9037 37.6849 10.1939 36.1954 8.51131C35.0667 7.23347 33.1641 7.21528 31.4187 7.45175C25.6004 8.28849 20.364 10.1075 16.3902 13.7137C13.2425 16.5649 10.153 19.4571 8.72757 23.1997C8.01193 25.1051 8.14575 26.7968 9.94358 28.2566C11.7414 29.7163 13.7429 29.6617 16.0062 29.207C18.38 28.7022 20.5968 28.0519 22.1851 26.4785C23.4826 25.2097 23.4244 23.0451 22.3539 21.6991C21.8676 21.0908 21.7028 20.3587 21.8942 19.6572C22.0397 19.298 23.3313 19.0115 24.0819 19.0479C27.1772 19.207 30.255 19.5026 33.3387 19.7527C35.0842 19.9028 36.0965 20.7623 36.0674 21.931C36.0674 22.9314 34.6769 23.9683 33.2921 24.2047C32.7852 24.3233 32.3522 24.584 32.0761 24.9369C30.767 26.6877 29.5627 28.4839 28.2536 30.2302C27.9051 30.6405 27.4562 30.9929 26.9328 31.267C25.2052 32.3382 23.4006 33.3312 21.5277 34.2411C20.1935 34.838 18.7231 35.2257 17.1989 35.3825C15.2207 35.5189 13.2309 35.5189 11.2527 35.3825C9.84323 35.3434 8.47007 35.0228 7.26415 34.4513C6.05822 33.8797 5.05973 33.0762 4.3639 32.1174C2.99661 30.353 1.45478 28.5931 0.599503 26.6604C-0.645599 23.9319 0.198045 21.2898 1.76315 18.6613C5.53336 12.3403 11.9683 8.14297 19.2993 4.54135C22.5284 2.95427 25.9146 1.61276 29.615 1.08525C32.9949 0.627678 36.4292 0.464487 39.8551 0.598664C43.8813 0.739637 48.0996 4.60046 45.2719 8.86602C44.7773 9.61635 44.1664 10.3258 43.6137 11.0488C44.632 11.5314 45.6042 12.0709 46.5228 12.6632C48.6639 14.2503 49.3097 16.3694 47.2792 18.4294C46.1621 19.5617 45.0566 20.7032 43.9861 21.8628C43.4391 22.4585 43.2413 22.9587 44.5213 23.277C45.7376 23.6147 46.9071 24.0474 48.0123 24.5685C49.1061 25.0233 49.2225 25.7827 48.6348 26.6058C48.0472 27.4289 47.2617 27.9701 45.941 27.7336C44.8588 27.5426 43.7475 27.4153 42.6828 27.1697C41.3679 26.8696 40.9373 27.3743 40.7337 28.2611C40.402 29.7936 39.9715 31.3125 39.7038 32.845C39.0638 36.483 36.7947 39.6117 34.8282 42.8495C33.6645 44.764 32.4078 46.6284 31.1627 48.502C30.8889 49.0252 30.4944 49.5045 29.999 49.9163C29.5219 50.2301 28.6201 50.562 28.1837 50.4074C27.9099 50.2522 27.6895 50.0463 27.5423 49.8083C27.3951 49.5702 27.3256 49.3073 27.3401 49.0432C27.5552 48.1951 27.901 47.3706 28.3699 46.5875C30.1154 43.1496 31.9074 39.7253 33.6529 36.2829C33.9309 35.7199 34.1261 35.1341 34.2347 34.5367C34.9096 31.026 35.4274 27.4971 36.178 23.9955C36.7598 21.267 37.6093 18.5385 38.3424 15.81C38.8311 13.9683 40.6348 12.8996 42.293 11.5581ZM42.6595 14.9142C42.0079 15.7737 41.2631 16.3376 41.2806 16.8924C41.2806 17.2834 42.5199 18.0565 42.8748 17.9519C43.269 17.8317 43.6237 17.6439 43.9127 17.4022C44.2018 17.1606 44.4177 16.8714 44.5446 16.5558C44.6202 16.1784 43.5613 15.66 42.6595 14.9142Z" fill="#F9F7F2"/>
<path d="M134.123 27.1513C132.092 27.2559 130.05 27.3332 128.037 27.4696C125.558 27.6379 124.546 28.5519 124.464 30.4846C124.383 32.7856 124.534 35.1458 123.12 37.2649C122.353 38.432 121.416 39.5261 120.328 40.5255C119.251 41.4986 117.96 41.435 116.738 40.6028C112.613 37.7788 112.764 34.6592 115.318 31.1531C115.375 31.0924 115.437 31.0346 115.504 30.9803C117.616 28.7384 117.564 26.983 113.293 26.2009C110.675 25.6963 108.138 24.9625 105.73 24.0135C104.386 23.4951 103.303 22.4537 102.303 21.5215C101.517 20.7802 102.163 20.0526 103.6 20.0254C106.073 19.9799 108.546 19.9662 111.018 20.0254C117.209 20.1436 123.405 20.4164 129.602 20.4119C135.42 20.4119 141.238 20.1709 147.016 19.9571C149.25 19.8662 150.548 20.7075 151.473 22.1081C152.776 24.0817 151.589 26.0462 148.75 26.3373C143.909 26.833 139.045 27.1786 134.204 27.5878L134.123 27.1513Z" fill="#F9F7F2"/>
<path d="M92.7488 16.1325C93.5067 15.579 94.3093 15.0641 95.1517 14.5909C96.0419 14.1635 96.8972 13.4268 98.1364 14.1362C99.3757 14.8456 100.056 15.5777 99.7539 16.801C99.4514 18.0243 99.2477 19.1885 99.0034 20.3844C98.3575 23.5677 97.7524 26.7282 97.0659 29.8933C96.7989 30.9309 96.4629 31.957 96.0593 32.9674C95.85 33.4338 95.454 33.8352 94.9301 34.112C94.4061 34.3888 93.782 34.5264 93.1502 34.5044C91.8237 34.5044 91.3117 33.7859 90.9975 32.9537C90.3109 31.1347 90.9626 29.3476 91.4746 27.5786C91.8993 26.1052 92.3764 24.6409 92.8709 23.1812C93.1909 22.2717 92.7662 21.726 91.5793 21.5395C91.2952 21.4893 91.017 21.4208 90.7473 21.3349C87.4309 20.3799 88.0593 20.5345 87.1225 22.8856C85.7494 26.3417 84.9 29.9251 83.684 33.4267C82.6018 36.5508 81.3567 39.6477 80.1057 42.7354C79.6636 43.8268 78.7326 44.709 77.0686 44.659C75.6897 44.6135 73.7522 43.1947 73.374 42.0578C72.3384 38.9292 72.6991 35.9869 75.3232 33.3676C77.4643 31.2393 78.3661 28.7109 79.3959 26.178C80.4374 23.5632 81.7581 21.0075 83.073 18.4472C84.1785 16.3144 85.4585 14.2408 86.6396 12.1353C87.0643 11.3759 87.3436 10.4755 88.676 10.48C90.212 10.48 92.0389 11.6533 92.2658 12.7537C92.4578 13.7451 92.5509 14.7592 92.7488 16.1325Z" fill="#F9F7F2"/>
<path d="M62.0053 24.2825C61.7959 21.0174 63.5122 18.1252 65.6708 15.4285C67.3867 13.2557 69.3705 11.2193 71.5938 9.34851C72.8098 8.33441 74.7123 7.77052 76.4171 7.19299C77.8614 6.76052 79.3532 6.43174 80.8738 6.21073C81.5054 6.05648 82.1879 6.09222 82.7874 6.31096C83.387 6.5297 83.8603 6.91565 84.1146 7.39308C85.0513 8.79826 85.4179 10.2489 84.7662 11.7587C82.6949 16.5472 80.3618 21.2539 76.3996 25.3239C75.7347 26.0168 74.8773 26.5828 73.892 26.9792C71.9949 27.7242 70.0262 28.3521 68.0039 28.8573C64.9144 29.6031 62.2962 28.1206 61.9995 25.5876C61.9646 25.1738 62.0053 24.7554 62.0053 24.2825ZM79.46 11.1539L78.756 10.4945C78.3953 10.7901 77.8193 11.0447 77.7087 11.404C77.4702 12.168 77.5865 13.0001 77.3422 13.7596C76.8942 15.1238 76.26 15.3057 74.6367 14.7737C74.4205 14.7361 74.1957 14.7419 73.9831 14.7904C73.7706 14.8389 73.5771 14.9285 73.4207 15.0511C71.7276 17.2839 70.0286 19.5258 68.5217 21.8359C68.1494 22.4135 68.4635 23.2593 68.4577 23.9824C69.3654 23.8277 70.4243 23.8596 71.1574 23.4912C76.7371 20.69 78.5465 16.2607 79.4367 11.1539H79.46Z" fill="#F9F7F2"/>
<path d="M49.543 22.1399C49.8572 19.6569 51.9808 17.1376 54.7387 16.2281C55.5158 16.0048 56.3608 15.9686 57.1645 16.1242C57.9683 16.2798 58.6939 16.6201 59.2478 17.1012C59.8358 17.6014 60.2774 18.1958 60.5416 18.8429C60.8059 19.49 60.8866 20.1744 60.778 20.8484C60.458 22.8584 59.7656 24.6183 57.5779 25.9643C55.3903 27.3104 52.1903 26.5328 51.015 25.0093C50.4202 24.0875 49.9277 23.1275 49.543 22.1399ZM55.2739 23.4677C56.4376 23.4677 57.6652 22.4855 57.7467 21.4259C57.7252 21.0494 57.5239 20.6929 57.1824 20.4268C56.8409 20.1607 56.3841 20.0045 55.9023 19.9889C54.6921 19.9889 53.8543 20.9211 53.767 22.2945C53.703 23.1631 54.3314 23.4177 55.2739 23.4677Z" fill="#F9F7F2"/>
<path d="M104.984 32.3492C104.926 33.3315 104.862 34.3137 104.804 35.2914C104.796 35.6556 104.628 36.0065 104.326 36.2843C104.025 36.5621 103.61 36.7496 103.151 36.8149C102.215 37.024 101.691 36.6784 101.144 36.0736C99.9338 34.7366 100.079 33.2405 100.702 31.9445C101.54 30.1937 100.702 28.7612 99.9861 27.2787C99.3461 25.9645 99.4043 25.3415 100.568 24.9686C100.862 24.8791 101.177 24.839 101.492 24.8511C101.807 24.8632 102.115 24.9271 102.396 25.0387C102.677 25.1504 102.925 25.3071 103.123 25.4988C103.322 25.6905 103.466 25.9127 103.547 26.151C104.233 28.1746 104.711 30.2437 105.292 32.2901L104.984 32.3492Z" fill="#F9F7F2"/>
<path d="M128.827 34.3274C130.829 34.3774 131.859 35.1323 131.771 36.4875C131.684 37.9654 130.567 39.0659 129.177 39.0568C127.559 39.0568 125.86 37.6562 125.895 36.3647C125.93 35.0732 127.006 34.2774 128.827 34.3274Z" fill="#F9F7F2"/>
<path d="M108.359 17.5835C108.33 18.7112 107.486 19.4025 106.148 19.4025C105.798 19.397 105.454 19.3349 105.137 19.2201C104.819 19.1054 104.536 18.9405 104.304 18.7358C104.072 18.5312 103.897 18.2912 103.79 18.031C103.683 17.7708 103.646 17.4961 103.681 17.2242C103.728 16.1283 104.769 15.237 105.962 15.2824C107.265 15.3143 108.388 16.3966 108.359 17.5835Z" fill="#F9F7F2"/>
</svg>
