<svg width="110" height="110" viewBox="0 0 110 110" fill="none" xmlns="http://www.w3.org/2000/svg">
<path d="M32.1027 57.8595C31.0894 49.7534 32.1027 74.1979 32.1027 82.3671" stroke="#242424" stroke-width="3" stroke-linecap="round"/>
<path d="M32.3965 83.8434C33.4573 82.9004 36.8934 83.8434 38.3019 83.8434C39.9774 83.8434 41.8043 83.5481 43.3215 83.5481C46.7192 83.5481 49.5371 82.0717 52.9179 82.0717C54.4355 82.0717 56.1444 81.4812 57.6422 81.4812C59.3547 81.4812 60.9287 82.367 62.6619 82.367C64.1992 82.367 65.8732 83.2528 67.3862 83.2528C69.2114 83.2528 70.7208 82.9576 72.5535 82.9576" stroke="#242424" stroke-width="3" stroke-linecap="round"/>
<path d="M73.1447 83.5482C73.1447 78.9596 71.373 74.6704 71.373 69.9657C71.373 68.7407 71.6683 67.7005 71.6683 66.57C71.6683 65.8259 71.2781 63.5145 71.7339 62.9448C72.4538 62.0449 71.6683 60.7192 71.6683 59.7788C71.6683 58.5485 71.6683 57.3182 71.6683 56.0879" stroke="#242424" stroke-width="3" stroke-linecap="round"/>
<path d="M30.0345 59.0406C28.3484 57.5418 23.6375 56.8944 21.6074 56.6968" stroke="#242424" stroke-width="3" stroke-linecap="round"/>
<path d="M21.7479 56.5642C19.6769 56.3053 23.2694 47.2101 23.6999 45.8852C24.1266 44.5723 36.3806 36.7724 38.1074 36.1968" stroke="#242424" stroke-width="3" stroke-linecap="round"/>
<path d="M38.1074 36.6968C41.369 36.6968 39.7863 37.4857 42.8792 37.4857C46.2203 37.4857 49.235 36.8951 52.6232 36.8951C55.4624 36.8951 58.7118 37.781 61.629 37.781C62.9196 37.781 70.3031 36.5272 70.7824 37.4857" stroke="#242424" stroke-width="3" stroke-linecap="round"/>
<path d="M69.6074 37.1968C70.6775 37.3305 76.9604 42.4225 77.8215 43.3912C78.5523 44.2133 79.5747 46.3532 79.872 47.3938C80.2125 48.5856 80.8428 54.6968 82.1074 56.6968" stroke="#242424" stroke-width="3" stroke-linecap="round"/>
<path d="M80.6074 56.1968C76.317 56.1968 76.1565 56.9222 72.6074 58.6968" stroke="#242424" stroke-width="3" stroke-linecap="round"/>
<path d="M39.1074 37.6968C41.7766 37.6968 42.6069 41.4733 45.0931 41.6195C47.1977 41.7433 49.314 41.9148 51.2938 41.9148C52.918 41.9148 56.3379 42.0724 57.5601 41.0946C58.2409 40.55 62.6508 36.7835 63.1074 37.6968" stroke="#242424" stroke-width="3" stroke-linecap="round"/>
<path d="M47.752 83.8434C51.1169 83.4228 54.3023 82.9576 57.9388 82.9576C59.5769 82.9576 61.4215 82.9576 63.1061 82.9576C65.0368 82.9576 66.7856 82.6624 68.7163 82.6624" stroke="#242424" stroke-width="3" stroke-linecap="round"/>
<path d="M47.1606 39.5527C47.9053 39.5527 45.6908 39.848 44.9461 39.848C43.2315 39.848 44.0037 40.1433 45.2413 40.1433C46.5307 40.1433 50.8888 41.0291 47.6035 41.0291C46.6245 41.0291 45.5852 40.9797 44.6672 40.7174C43.9026 40.4989 42.5245 40.1433 44.0602 40.1433C45.9507 40.1433 48.0461 41.3244 49.9657 41.3244C51.8956 41.3244 53.7536 42.1917 55.4938 40.7994C55.5398 40.7627 58.1774 39.9702 57.1998 39.848C56.279 39.7329 55.3045 39.5527 54.2471 39.5527C52.079 39.5527 50.1319 39.848 48.0464 39.848C47.0013 39.848 42.2558 39.323 41.8457 40.1433" stroke="#242424" stroke-width="3" stroke-linecap="round"/>
</svg>
