<svg width="292" height="392" viewBox="0 0 292 392" fill="none" xmlns="http://www.w3.org/2000/svg">
<path d="M5.13107 387.575C0.255898 387.575 1.82622 363.924 1.82622 358.691C1.82622 353.768 3.1364 348.5 4.48847 343.736C5.92786 338.664 6.02549 333.366 7.42607 328.286C10.7063 316.387 10.0883 303.343 10.0883 291.334C10.0883 281.15 4.097 268.955 7.42607 258.95C9.02116 254.156 6.68056 248.06 8.84903 243.385C10.3374 240.177 10.9145 233.952 10.9145 230.408V206.206C10.9145 192.57 6.78347 179.257 6.78347 165.639C6.78347 158.472 7.60967 151.635 7.60967 144.405C7.60967 132.44 10.0883 121.373 10.0883 109.128C10.0883 104.343 12.567 99.1625 12.567 94.4004C12.567 89.0532 11.7407 83.4283 11.7407 78.3032C11.7407 64.5588 10.9145 50.4313 10.9145 36.4809C10.9145 29.8037 9.26213 23.1536 9.26213 16.3118C9.26213 13.8412 8.92471 2.75196 7.60967 3.2971M7.60967 2.99497C21.9005 4.81773 102.499 1.24211 117.083 1.24211H191.029C202.045 1.24211 211.841 0.387609 223.71 1.88908C228.014 2.90872 235.929 2.61207 240.188 2.61207H274.063C276.588 2.61207 279.077 3.2971 281.912 3.2971C283.526 3.2971 289.308 2.62868 287.695 3.2971C287.695 5.43846 288.355 6.43172 288.521 8.77701C288.649 10.5706 290.174 12.0186 290.174 14.2569C290.174 18.0948 288.521 22.9355 288.521 26.9292V39.9439C288.521 41.3383 288.318 51.3785 288.705 51.779C290.283 54.429 289.348 61.8504 289.348 64.946V88.578C289.348 90.8084 289.514 99.0228 287.879 100.718C286.927 101.704 287.538 106.053 288.338 106.882C290.235 108.849 288.283 109.889 287.879 110.307M287.695 112.553C287.023 112.998 290.546 131.851 290.128 133.064C288.909 136.602 288.521 141.28 288.521 145.089C288.521 148.063 291.859 171.599 289.348 174.201C289.348 176.473 288.521 178.652 288.521 181.051C288.521 185.269 286.869 200.154 286.869 203.998C286.869 205.871 288.521 207.172 288.521 209.478V215.986C288.521 224.801 289.348 232.615 289.348 240.988C289.348 249.561 291 258.262 291 266.675C291 271.217 290.174 275.084 290.174 279.69C290.174 281.51 289.669 283.799 288.062 285.131C288.062 286.954 288.336 313.337 289.761 314.281C290.716 314.915 289.348 325.042 289.348 326.954C289.348 330.798 287.695 335.118 287.695 338.941C287.695 343.502 286.869 347.605 286.869 351.956C286.869 356.092 288.521 359.936 288.521 363.943C288.521 366.777 286.095 388.865 286.869 388.945L269.519 388.26C264.274 388.26 257.878 389.63 252.581 389.63C244.327 389.63 236.124 388.945 227.795 388.945C223.872 388.945 194.033 388.986 190.202 388.26C183.834 388.26 143.989 391 137.738 391C125.994 391 114.088 389.504 102.624 388.945C90.3692 388.347 77.6504 389.63 65.8575 389.63C54.7904 389.63 41.7631 390.087 30.7436 388.945C25.4647 388.945 6.43394 386.89 1 386.89M287.695 112.553C287.695 118.96 288.755 113.19 287.729 111.298M287.695 112.553C287.695 112.117 287.707 111.7 287.729 111.298M3.4786 382.095C3.4786 384.424 1.8262 377.574 1.8262 375.245C1.8262 372.609 2.6524 369.93 2.6524 367.025C2.6524 361.438 4.30486 344.732 4.30486 350.319C4.30486 361.437 5.13106 373.353 5.13106 384.835M4.30487 353.326V346.476M8.83401 7.62709V101.975C8.83401 106.298 8.43595 103.057 8.43595 101.25C8.43595 98.8532 9.92371 96.7208 10.0883 94.4004C10.3989 90.0233 11.7407 85.5923 11.7407 80.7007M8.43594 102.62C8.43594 108.597 9.26214 113.841 9.26214 119.745M9.15133 187.894C12.011 206.861 7.89509 228.868 7.89509 247.725M6.70339 270.114C6.70339 263.135 8.43592 288.465 8.43592 295.444V317.364C8.43592 321.281 7.60966 324.82 7.60966 328.666C7.60966 331.934 5.34775 335.202 5.13106 338.256C4.9016 341.49 1.8262 344.623 1.8262 347.846C1.8262 352.436 3.19211 356.933 4.30486 361.546M286.869 291.677C286.639 293.199 285.988 289.586 285.561 287.639M285.561 287.639C285.407 286.934 285.282 286.447 285.217 286.501C285.196 286.518 285.366 287.249 285.561 287.639ZM285.561 287.639C285.748 288.013 285.958 288.073 286.043 286.882C286.086 286.275 286.508 289.062 286.915 288.556C287.34 288.028 287.643 288.004 287.832 288.119M287.832 288.119C288.151 288.314 288.14 288.906 287.832 288.119ZM287.832 288.119C287.804 288.048 287.774 287.966 287.741 287.871C287.216 286.348 288.521 287.841 288.521 289.203V286.882M286.043 202.628C285.325 207.392 288.096 192.789 288.096 187.988M285.217 109.47C285.217 112.431 284.874 103.381 285.63 103.381C287.052 103.381 286.732 110.184 287.512 110.992C287.593 111.076 287.665 111.179 287.729 111.298M287.729 111.298C287.872 108.707 288.463 106.729 289.302 104.295C292.962 93.6732 289.348 78.8507 289.348 67.5534" stroke="#242424" stroke-width="1.81369" stroke-linecap="round"/>
</svg>
