<svg width="14" height="13" viewBox="0 0 14 13" fill="none" xmlns="http://www.w3.org/2000/svg">
<path d="M8.33531 1.01482C7.2222 0.891153 5.83312 1.56284 4.87172 2.22708C2.82194 3.6433 2.18505 6.38217 3.24094 8.63473C3.84136 9.91562 5.25249 11.1831 6.55541 11.7375C8.28227 12.4724 9.86735 11.4936 11.0004 10.2318C12.1799 8.91829 12.6608 7.17148 12.2318 5.47901C11.7593 3.61449 10.3113 1.5368 8.15251 1.48145C5.70131 1.41859 3.66291 3.78736 3.02447 5.92158C2.24596 8.52401 3.51206 11.0047 6.26196 11.5066C9.01783 12.0097 12.2393 10.2 12.8861 7.3888C13.5043 4.70196 11.5253 2.0664 8.91257 1.52474C5.50126 0.817522 2.03662 3.57959 1.15797 6.77786C0.0329574 10.8729 5.18328 12.4697 8.16694 10.9967C9.78114 10.1998 11.2753 8.85478 12.0298 7.20119C12.6216 5.90413 12.6863 4.03103 11.7316 2.8717C10.7128 1.63465 8.78329 1.30467 7.27699 1.22649C5.99294 1.15984 4.96601 1.35091 4.179 2.40026" stroke="#242424" stroke-width="1.5" stroke-linecap="round"/>
</svg>
