<svg width="347" height="466" viewBox="0 0 347 466" fill="none" xmlns="http://www.w3.org/2000/svg">
<path d="M113 343.705C110.694 344.298 24.2201 381.571 22 382.205" stroke="#242424" stroke-width="3" stroke-linecap="round"/>
<path d="M123 356.705C120.694 357.298 14.2201 402.571 12 403.205" stroke="#242424" stroke-width="3" stroke-linecap="round"/>
<path d="M41 366.205C38.6937 366.798 14.7201 377.071 12.5 377.705" stroke="#242424" stroke-width="3" stroke-linecap="round"/>
<path d="M103 342.205C100.694 342.798 86.2201 349.571 84 350.205" stroke="#242424" stroke-width="3" stroke-linecap="round"/>
<path d="M82.5 350.705C80.1937 351.298 59.7201 360.571 57.5 361.205" stroke="#242424" stroke-width="3" stroke-linecap="round"/>
<path d="M122.5 348.205C120.194 348.798 14.2201 394.571 12 395.205" stroke="#242424" stroke-width="3" stroke-linecap="round"/>
<path d="M22 382.705C21 384.205 14 392.705 12 394.705" stroke="#242424" stroke-width="3" stroke-linecap="round"/>
<path d="M12 378.705C11 380.205 4 388.705 2 390.705" stroke="#242424" stroke-width="3" stroke-linecap="round"/>
<path d="M113.5 343.705C115.5 344.705 119.5 346.705 122.5 347.705" stroke="#242424" stroke-width="3" stroke-linecap="round"/>
<path d="M82.6378 304.135C82.6378 315.454 82.8026 326.762 82.8026 338.075C82.8026 340.887 82.4731 343.664 82.4731 346.478C82.4731 347.101 82.0921 350.489 82.6378 350.762" stroke="#242424" stroke-width="3" stroke-linecap="round"/>
<path d="M57.5932 299.851C57.5932 314.228 57.5932 328.605 57.5932 342.982C57.5932 347.069 57.2637 351.132 57.2637 355.211C57.2637 356.391 57.2637 357.572 57.2637 358.753C57.2637 359.053 57.5541 361.307 57.4284 361.307" stroke="#242424" stroke-width="3" stroke-linecap="round"/>
<path d="M85.4384 303.64C83.4735 303.64 81.5085 303.64 79.5436 303.64C78.6713 303.64 77.7485 303.719 76.9074 303.439C76.62 303.343 76.5197 303.146 76.2118 303.146C75.1607 303.146 74.1408 302.495 73.1179 302.286C72.1052 302.078 71.0025 301.954 70.0332 301.581C68.943 301.161 67.588 300.762 66.4542 300.501C65.4855 300.277 64.5719 299.88 63.6167 299.613C62.8419 299.396 61.8269 299.204 61.1453 298.771C59.9894 298.035 58.2164 297.636 57.5938 296.391" stroke="#242424" stroke-width="3" stroke-linecap="round"/>
<path d="M85.7672 288.647C83.1804 288.647 80.6107 288.765 78.06 288.354C76.817 288.154 75.5121 287.75 74.2705 287.658C71.7746 287.474 69.3287 286.445 66.8929 286.002C64.6961 285.602 62.5177 284.941 60.4764 284.034C59.8082 283.737 59.3337 283.285 58.8379 282.789C58.6377 282.589 58.5503 282.199 58.4169 281.965C58.203 281.591 57.9012 281.498 57.7578 281.068" stroke="#242424" stroke-width="3" stroke-linecap="round"/>
<path d="M56.4397 280.903C56.4397 283.179 56.4397 285.455 56.4397 287.732C56.4397 290.03 56.2188 292.457 56.4764 294.743C56.5842 295.7 56.7352 296.719 56.7693 297.672C56.78 297.972 56.5974 298.866 56.934 298.697" stroke="#242424" stroke-width="3" stroke-linecap="round"/>
<path d="M66.0488 285.3C70.3268 285.3 74.5066 284.908 78.788 284.908C81.1399 284.908 83.4917 284.908 85.8436 284.908" stroke="#242424" stroke-width="3" stroke-linecap="round"/>
<path d="M80 179.205L81 282.705" stroke="#242424" stroke-width="3" stroke-linecap="round"/>
<path d="M79.4531 178.96C80.5884 178.96 81.7237 178.96 82.8589 178.96C83.8443 178.96 84.7656 179.553 85.6724 179.553" stroke="#242424" stroke-width="3" stroke-linecap="round"/>
<path d="M85.9683 162.968C84.1603 162.968 82.6111 162.935 80.9336 162.375" stroke="#242424" stroke-width="3" stroke-linecap="round"/>
<path d="M80.6378 161.487C80.6378 153.118 80.6378 144.749 80.6378 136.38C80.6378 134.2 80.4197 132.052 80.3416 129.864C80.2809 128.164 79.4531 126.443 79.4531 124.764C79.4531 122.605 79.7493 120.242 79.7493 118.248" stroke="#242424" stroke-width="3" stroke-linecap="round"/>
<path d="M271 175.205C271 166.836 272.5 120.967 272.5 112.598" stroke="#242424" stroke-width="3" stroke-linecap="round"/>
<path d="M306 163.205C306 154.836 307.5 120.074 307.5 111.705" stroke="#242424" stroke-width="3" stroke-linecap="round"/>
<path d="M266 319.705C266 311.302 271 204.108 271 195.705" stroke="#242424" stroke-width="3" stroke-linecap="round"/>
<path d="M266.5 414.205C266.5 405.802 267 347.108 267 338.705" stroke="#242424" stroke-width="3" stroke-linecap="round"/>
<path d="M81.2305 151.418C82.8265 151.418 84.1281 151.714 85.6728 151.714" stroke="#242424" stroke-width="3" stroke-linecap="round"/>
<path d="M57.4648 280.74C57.4648 277.035 57.4648 273.33 57.4648 269.625C57.4648 267.691 57.8496 265.934 57.8496 264.003C57.8496 260.551 57.6572 257.012 57.6572 253.615" stroke="#242424" stroke-width="3" stroke-linecap="round"/>
<path d="M65.9648 285.13C65.9648 281.425 65.9648 277.72 65.9648 274.015C65.9648 272.081 66.3496 270.325 66.3496 268.394C66.3496 264.942 66.1572 261.403 66.1572 258.006" stroke="#242424" stroke-width="3" stroke-linecap="round"/>
<path d="M54.5 160.205L57.6562 253.423" stroke="#242424" stroke-width="3" stroke-linecap="round"/>
<path d="M44 102.705L48.5 359.205" stroke="#242424" stroke-width="3" stroke-linecap="round"/>
<path d="M287 110.705L279 411.705" stroke="#242424" stroke-width="3" stroke-linecap="round"/>
<path d="M307 191.705L301.5 397.205" stroke="#242424" stroke-width="3" stroke-linecap="round"/>
<path d="M295 111.705L287.5 406.205" stroke="#242424" stroke-width="3" stroke-linecap="round"/>
<path d="M301.5 111.705L294 402.205" stroke="#242424" stroke-width="3" stroke-linecap="round"/>
<path d="M63 164.596L66.1562 257.813" stroke="#242424" stroke-width="3" stroke-linecap="round"/>
<path d="M66.5339 356.219C66.5339 351.991 66.2326 347.618 66.2326 343.497C66.2326 340.397 65.0273 337.684 65.0273 334.658C65.0273 328.318 65.63 322.2 65.63 315.843" stroke="#242424" stroke-width="3" stroke-linecap="round"/>
<path d="M65.6294 315.843C65.6294 311.018 65.3281 306.042 65.3281 301.38" stroke="#242424" stroke-width="3" stroke-linecap="round"/>
<path d="M54.5 103.315V160.205" stroke="#242424" stroke-width="3" stroke-linecap="round"/>
<path d="M63 103.705V164.596" stroke="#242424" stroke-width="3" stroke-linecap="round"/>
<path d="M79.4447 119.157C79.4447 116.224 79.1776 113.113 79.6228 110.219C79.7703 109.261 79.2491 107.665 79.7276 106.804C80.107 106.121 80.0105 104.494 80.0105 103.692" stroke="#242424" stroke-width="3" stroke-linecap="round"/>
<path d="M86.0453 103.692C81.9352 103.692 78.0179 103.565 73.9753 103.116C69.8978 102.663 65.8005 102.749 61.6749 102.749C60.6753 102.749 59.6702 102.824 58.6993 102.602C57.8806 102.415 56.7024 102.183 55.8704 102.183C53.5611 102.183 51.2722 102.183 48.9867 101.984C46.3064 101.751 43.6884 101.052 40.982 101.052C39.4124 101.052 37.8174 101.172 36.4453 100.486" stroke="#242424" stroke-width="3" stroke-linecap="round"/>
<path d="M35.3133 100.297C35.3133 98.2719 35.0747 96.0815 35.4076 94.0841C35.6551 92.5989 35.879 91.0519 35.879 89.5474C35.879 88.2835 36.1166 86.6512 36.4029 85.3984C37.0182 82.7067 37.0121 79.6848 38.1002 77.1003C39.0715 74.7936 40.3918 72.328 42.0188 70.4052C43.3323 68.853 45.0807 67.2935 47.1946 67.2935" stroke="#242424" stroke-width="3" stroke-linecap="round"/>
<path d="M90.9493 66.7276C87.4807 66.7276 84.0435 66.9162 80.5662 66.9162C78.3555 66.9162 76.1447 66.9162 73.934 66.9162C71.8037 66.9162 69.5251 67.142 67.4171 66.8743C64.9368 66.5594 62.5225 66.1619 60.02 66.1619C58.5078 66.1619 56.9956 66.1619 55.4833 66.1619C53.0351 66.1619 50.5869 66.1619 48.1387 66.1619" stroke="#242424" stroke-width="3" stroke-linecap="round"/>
<path d="M42.7716 102.837C39.6781 102.837 36.5466 102.941 33.4837 102.558C31.0925 102.259 28.5974 102.399 26.2055 102.488C24.8028 102.54 23.3857 102.697 22.031 102.17C21.5096 101.967 21.0654 101.491 20.5955 101.192C20.3127 101.012 19.8455 100.596 19.6722 100.323C19.5714 100.165 19.383 100.039 19.3075 99.8692C19.1611 99.5399 18.8044 99.25 18.6247 98.9265C18.4104 98.5408 18.2168 98.2717 17.9108 97.9488C17.515 97.531 17.1169 96.9582 16.584 96.6918" stroke="#242424" stroke-width="3" stroke-linecap="round"/>
<path d="M35.2983 102.698C35.2983 102.206 34.6661 101.645 34.3905 101.247C34.1619 100.916 33.8575 100.706 33.5835 100.432C32.9453 99.7935 32.4926 98.9894 31.7756 98.4027C31.3662 98.0678 30.9941 97.6251 30.6156 97.2466C30.3481 96.9791 30.0776 96.6762 29.7815 96.4435C29.6138 96.3118 29.544 96.04 29.3625 95.9392C29.0902 95.7879 28.751 95.4685 28.5943 95.1943C28.4881 95.0085 28.2927 94.7602 28.1055 94.6666" stroke="#242424" stroke-width="3" stroke-linecap="round"/>
<path d="M16.9092 98.1477C16.8262 97.401 16.0148 96.4503 15.5037 95.9392C15.1914 95.6269 14.8791 95.3146 14.5668 95.0023C14.3964 94.8319 14.3459 94.5445 14.1652 94.3999C13.806 94.1126 13.3049 93.3336 13.1019 92.9276C12.7632 92.2501 12.2685 91.5771 11.8303 90.9198C10.7829 89.3488 10.8422 87.2335 10.7521 85.432C10.6765 83.9208 10.4844 82.4268 10.4844 80.8811" stroke="#242424" stroke-width="3" stroke-linecap="round"/>
<path d="M10.4844 83.4243C10.4844 81.7511 10.7215 80.1246 10.7521 78.4718C10.7889 76.4853 10.653 74.7017 11.2577 72.8204C11.9407 70.6957 12.267 68.4404 12.8639 66.2915C13.2756 64.8093 14.0155 63.4613 14.4999 62.0083" stroke="#242424" stroke-width="3" stroke-linecap="round"/>
<path d="M14.5 62.0083C14.5 61.5275 14.6246 61.2087 14.8346 60.7888C15.305 59.8479 15.2367 58.732 15.8385 57.8292C16.4596 56.8976 17.52 56.0121 17.876 54.944C18.2133 53.9321 18.7458 53.0407 19.2145 52.1034C19.6117 51.309 19.7876 50.396 20.2555 49.6941" stroke="#242424" stroke-width="3" stroke-linecap="round"/>
<path d="M20.2559 49.6941C20.2559 48.8344 20.3813 48.0068 20.7318 47.2104C21.1417 46.2787 21.3593 45.2576 21.9959 44.4442C23.0594 43.0853 24.1508 42.3393 24.5391 40.5923C24.8901 39.0125 25.6383 38.0221 26.6063 36.7776C27.1156 36.1227 27.2241 35.012 27.7812 34.3311C28.012 34.049 28.1135 33.4433 28.2869 33.0967" stroke="#242424" stroke-width="3" stroke-linecap="round"/>
<path d="M27.35 93.9984C27.35 91.3222 27.2151 88.6098 27.6475 85.9674C27.9517 84.1081 27.5748 81.7701 28.4208 80.078" stroke="#242424" stroke-width="3" stroke-linecap="round"/>
<path d="M28.4219 80.078C28.4219 79.3642 28.4219 78.6503 28.4219 77.9365C28.4219 76.9485 29.1115 76.1276 29.3588 75.2C29.5365 74.5338 29.8624 73.9162 30.0578 73.2517C30.2286 72.6709 30.6973 71.9876 30.6973 71.3778" stroke="#242424" stroke-width="3" stroke-linecap="round"/>
<path d="M30.6973 71.2439C30.6973 69.0086 32.1026 67.3792 32.9727 65.4215C33.3813 64.5022 33.8781 63.6382 34.2517 62.6775C34.5322 61.9562 35.1143 61.1949 35.1143 60.4021" stroke="#242424" stroke-width="3" stroke-linecap="round"/>
<path d="M35.2469 60.536C35.2469 59.9279 35.1353 59.1606 35.3287 58.5803C35.6964 57.4773 36.2481 56.4089 36.7192 55.3456C37.016 54.6758 37.1863 53.9115 37.5521 53.2783C38.1685 52.2115 38.736 51.1183 39.3962 50.0808C39.859 49.3536 40.1774 48.3695 40.4373 47.5525C40.6141 46.9967 41.0024 46.4034 41.0024 45.8125" stroke="#242424" stroke-width="3" stroke-linecap="round"/>
<path d="M41.0037 45.8125C41.0037 45.4695 40.9351 45.0439 41.0335 44.7119C41.2935 43.8346 41.9471 43.2382 42.2753 42.3993C42.7369 41.2196 43.6469 40.3319 44.2459 39.2538C44.7647 38.3201 45.6178 37.6795 46.0231 36.6438C46.4281 35.6088 53.0005 25.3102 53.0005 24.2053" stroke="#242424" stroke-width="3" stroke-linecap="round"/>
<path d="M26.9486 94.2661C24.1601 94.2661 21.3715 94.2661 18.583 94.2661C17.6576 94.2661 16.7616 93.9984 15.906 93.9984C15.2016 93.9984 13.1269 93.5968 13.8313 93.5968" stroke="#242424" stroke-width="3" stroke-linecap="round"/>
<path d="M286.615 19.0868C286.615 22.1214 286.472 25.2726 284.764 27.8849C284.174 28.7865 283.324 30.53 283.324 31.6326" stroke="#242424" stroke-width="3" stroke-linecap="round"/>
<path d="M212.781 24.4342C212.781 33.5179 212.781 42.6017 212.781 51.6854C212.781 52.3938 213.164 54.7029 212.735 55.2389C212.408 55.6479 212.606 56.4055 212.575 56.93C212.546 57.4266 212.164 58.0122 212.164 58.5753" stroke="#242424" stroke-width="3" stroke-linecap="round"/>
<path d="M211.958 24.6399C209.777 26.8203 208.571 29.4715 207.045 32.1011C206.501 33.037 205.582 34.4188 205.582 35.5404" stroke="#242424" stroke-width="3" stroke-linecap="round"/>
<path d="M205.5 35.7053C205.5 42.5246 206.199 51.541 206.199 58.3697" stroke="#242424" stroke-width="3" stroke-linecap="round"/>
<path d="M212.164 59.8094C205.548 59.8094 198.932 59.8094 192.317 59.8094C190.583 59.8094 188.281 60.1619 186.615 59.6494C186.07 59.4817 184.898 59.7154 184.444 59.3523C184.221 59.1741 182.905 59.219 183.37 58.9867" stroke="#242424" stroke-width="3" stroke-linecap="round"/>
<path d="M182.34 58.5753C182.34 52.6798 182.135 46.8248 182.135 40.9334C182.135 38.7649 182.34 36.6495 182.34 34.512" stroke="#242424" stroke-width="3" stroke-linecap="round"/>
<path d="M181.93 34.7177C181.93 33.7517 182.263 33.3988 182.638 32.5467C182.916 31.9158 183.108 30.9203 183.575 30.3986C184.297 29.5921 185.064 28.8812 185.723 28.0334C186.882 26.5433 188.207 25.5607 189.539 24.2285" stroke="#242424" stroke-width="3" stroke-linecap="round"/>
<path d="M25.0879 38.4552C25.0879 36.442 26.4567 34.5268 27.5167 32.878C28.4967 31.3535 28.8568 29.6636 29.3383 27.9305C30.1083 25.1581 32.6987 22.3437 34.713 20.3293C35.9238 19.1185 37.1102 17.5468 38.5361 16.5962C40.3063 15.416 42.4011 14.8582 44.3157 13.9425C46.7222 12.7916 48.8121 11.5282 51.3772 10.7266C54.1599 9.85702 57.716 10.5242 60.62 10.5242C77.1787 10.5242 93.568 11.3338 110.095 11.3338C115.514 11.3338 120.909 10.1194 126.287 10.1194C130.655 10.1194 136.832 11.0957 140.86 9.39979C142.324 8.78341 145.164 8.50024 146.729 8.50024C148.716 8.50024 150.702 8.50024 152.689 8.50024C157.516 8.50024 162.344 8.50024 167.171 8.50024" stroke="#242424" stroke-width="3" stroke-linecap="round"/>
<path d="M166.529 7.93617C172.859 7.93617 179.228 8.14145 185.554 7.92328C187.964 7.84021 190.566 7.90778 192.927 7.42059C194.659 7.06329 196.319 6.4991 198.07 6.19607C200.626 5.75379 203.152 5.61604 205.74 5.61604C207.699 5.61604 209.648 5.54968 211.592 5.79649C212.998 5.97512 214.534 6.27486 215.948 6.31208C221.075 6.447 226.149 5.9292 231.261 5.84805C234.466 5.79718 237.696 5.70827 240.903 5.60315C244.378 5.48919 247.838 4.91999 251.317 4.91999C256.508 4.91999 261.67 5.15201 266.862 5.15201C269.534 5.15201 272.286 5.15595 274.88 4.50753C276.408 4.12555 277.947 4.20499 279.468 3.94038C280.513 3.75871 282.363 4.14497 283 3.2959" stroke="#242424" stroke-width="3" stroke-linecap="round"/>
<path d="M283.23 2.5999C285.512 2.5999 287.793 2.5999 290.075 2.5999C293.738 2.5999 297.314 2.21273 300.967 2.08432C306.679 1.8835 312.417 1.96437 318.033 3.19283C319.657 3.54818 321.941 4.28136 322.724 5.8481C323.5 7.39842 323.601 9.81232 323.601 11.5195C323.601 14.59 323.934 17.2742 323.24 20.349C322.828 22.1753 322.58 24.0253 321.977 25.8013C321.46 27.3236 320.654 28.7221 320.121 30.2095C318.912 33.5804 317.451 37.142 316.769 40.6502C316.44 42.3423 316.138 44.0197 315.764 45.7029C315.567 46.5886 315.797 47.6106 314.784 47.6106" stroke="#242424" stroke-width="3" stroke-linecap="round"/>
<path d="M314.786 47.6106C314.786 56.5295 311.369 64.7599 308.302 73.0032C306.524 77.7816 304.176 82.2687 302.128 86.924C301.794 87.6825 301.246 88.4766 300.813 89.1926C300.112 90.3533 299.588 91.5696 298.919 92.7502C298.169 94.0731 296.595 95.0305 295.309 95.7534C293.919 96.5355 293.254 98.1896 291.468 98.1896C289.12 98.1896 286.783 98.8856 284.392 98.8856C281.376 98.8856 278.36 98.8856 275.343 98.8856C271.941 98.8856 268.538 98.8856 265.135 98.8856" stroke="#242424" stroke-width="3" stroke-linecap="round"/>
<path d="M294.136 3.52795C293.968 4.45303 293.164 5.68024 292.744 6.54413C292.252 7.55472 291.738 8.55512 291.236 9.56031C290.452 11.1275 289.629 12.6447 288.851 14.2006C288.368 15.1672 287.881 16.301 287.652 17.3328C287.477 18.1204 286.408 19.9203 285.783 20.2329" stroke="#242424" stroke-width="3" stroke-linecap="round"/>
<path d="M282.071 32.5297C282.071 35.5384 281.784 38.4689 280.782 41.3333C279.888 43.888 278.909 46.5367 278.307 49.1831C277.776 51.5191 276.974 53.8517 276.503 56.208C275.957 58.9336 275.844 61.9187 275.007 64.5476C274.137 67.2837 273.696 70.0339 272.661 72.6938C271.719 75.1184 270.815 77.3476 270.187 79.8605C269.773 81.515 269.078 83.0017 269.078 84.7327" stroke="#242424" stroke-width="3" stroke-linecap="round"/>
<path d="M269.079 84.7328C269.079 86.3647 269.333 88.2853 268.847 89.8629C268.48 91.0575 268.119 92.1857 267.739 93.3689C267.125 95.2796 266.461 97.4775 265.367 99.1176" stroke="#242424" stroke-width="3" stroke-linecap="round"/>
<path d="M322.209 5.61609C325.459 5.61609 327.712 9.97601 329.414 12.2285C331.844 15.4441 334.261 18.7156 336.774 21.857C337.947 23.3235 338.844 24.9297 339.842 26.4973C340.385 27.3501 340.903 28.2292 341.415 29.101C341.959 30.0289 342.112 31.1366 342.626 32.0141C343.616 33.7025 343.873 35.6255 344.663 37.402C344.861 37.8485 344.724 39.219 345.062 39.4901C345.385 39.7478 345.41 41.9159 345.41 40.6502" stroke="#242424" stroke-width="3" stroke-linecap="round"/>
<path d="M345.179 40.1862C345.179 44.5944 345.179 49.0027 345.179 53.4109C345.179 57.4263 345.609 61.7197 345.166 65.7077C344.64 70.4437 343.787 75.0609 343.787 79.8605" stroke="#242424" stroke-width="3" stroke-linecap="round"/>
<path d="M343.786 79.8605C343.786 84.835 344.018 89.7367 344.018 94.7222C344.018 97.0687 343.786 99.3692 343.786 101.67C343.786 102.648 343.554 103.484 343.554 104.454C343.554 105.15 343.554 105.846 343.554 106.542C343.554 107.009 343.67 107.296 343.322 106.774" stroke="#242424" stroke-width="3" stroke-linecap="round"/>
<path d="M342.859 107.702C339.786 107.702 337.03 108.937 334.042 109.094C331.834 109.21 329.487 109.326 327.314 109.326C324.955 109.326 322.596 109.326 320.237 109.326C319.52 109.326 315.069 109.43 314.785 108.862" stroke="#242424" stroke-width="3" stroke-linecap="round"/>
<path d="M313.625 108.862C313.625 105.744 312.143 102.979 311.305 100.046C310.759 98.1354 309.303 96.8177 308.521 95.0575C308.262 94.4737 307.856 94.0257 307.593 93.4334C307.354 92.8967 307.049 92.0575 306.717 91.6418C306.48 91.3464 303.5 86.1256 303.5 86.2053" stroke="#242424" stroke-width="3" stroke-linecap="round"/>
<path d="M312.696 110.022C307.111 110.022 301.604 109.79 295.991 109.79C290.689 109.79 285.464 110.718 280.215 110.718C277.136 110.718 271.477 112.253 269.658 108.978C268.675 107.208 268.841 105.259 267.583 103.642C267.196 103.145 266.929 102.458 266.474 101.953C266.068 101.502 265.974 100.234 265.598 100.046" stroke="#242424" stroke-width="3" stroke-linecap="round"/>
<path d="M268.144 108.815C263.722 108.815 259.301 108.815 254.879 108.815C253.655 108.815 252.43 108.815 251.205 108.815C250.108 108.815 249.121 108.354 248.094 108.354" stroke="#242424" stroke-width="3" stroke-linecap="round"/>
<path d="M273.5 66.2053C270.037 66.2053 265.963 66.2053 262.5 66.2053C260.462 66.2053 257.572 66.2053 255.5 66.2053" stroke="#242424" stroke-width="3" stroke-linecap="round"/>
<path d="M285.239 20.7053C273.789 20.7053 246.42 22.0709 235 22.0709C229.579 22.0709 169.406 22.5709 164 22.5709" stroke="#242424" stroke-width="3" stroke-linecap="round"/>
<path d="M53.0501 24.0408C63.5283 23.7258 88.6192 24.4362 99.0698 24.122C104.03 23.9729 159.113 22.8531 164.06 22.7044" stroke="#242424" stroke-width="3" stroke-linecap="round"/>
<path d="M180.239 41.7053C168.789 41.7053 141.42 43.0709 130 43.0709C124.579 43.0709 64.4057 43.5709 59 43.5709" stroke="#242424" stroke-width="3" stroke-linecap="round"/>
<path d="M180.239 34.7053C168.789 34.7053 141.42 36.0709 130 36.0709C124.579 36.0709 64.4057 36.5709 59 36.5709" stroke="#242424" stroke-width="3" stroke-linecap="round"/>
<path d="M180.239 46.7053C168.789 46.7053 141.42 48.0709 130 48.0709C124.579 48.0709 64.4057 48.5709 59 48.5709" stroke="#242424" stroke-width="3" stroke-linecap="round"/>
<path d="M180.239 52.7053C168.789 52.7053 141.42 54.0709 130 54.0709C124.579 54.0709 64.4057 54.5709 59 54.5709" stroke="#242424" stroke-width="3" stroke-linecap="round"/>
<path d="M181 57.7053C171.556 57.7053 148.981 59.1693 139.562 59.1693C135.091 59.1693 85.4587 59.7053 81 59.7053" stroke="#242424" stroke-width="3" stroke-linecap="round"/>
<path d="M283 31.7053C276.484 31.7053 260.907 33.1693 254.408 33.1693C251.323 33.1693 217.076 33.7053 214 33.7053" stroke="#242424" stroke-width="3" stroke-linecap="round"/>
<path d="M281 38.7053C274.672 38.7053 259.547 40.1693 253.236 40.1693C250.241 40.1693 216.987 40.7053 214 40.7053" stroke="#242424" stroke-width="3" stroke-linecap="round"/>
<path d="M280 43.7053C273.767 43.7053 258.867 45.1693 252.651 45.1693C249.7 45.1693 216.943 45.7053 214 45.7053" stroke="#242424" stroke-width="3" stroke-linecap="round"/>
<path d="M278 49.7053C271.956 49.7053 257.508 51.1693 251.48 51.1693C248.618 51.1693 216.854 51.7053 214 51.7053" stroke="#242424" stroke-width="3" stroke-linecap="round"/>
<path d="M276 56.7053C270.145 56.7053 256.148 58.1693 250.308 58.1693C247.536 58.1693 216.764 58.7053 214 58.7053" stroke="#242424" stroke-width="3" stroke-linecap="round"/>
<path d="M58.7812 43.1612C58.7812 41.9168 58.7812 40.6723 58.7812 39.4279C58.7812 38.5705 58.9883 37.7829 58.9883 36.9486" stroke="#242424" stroke-width="3" stroke-linecap="round"/>
<path d="M58.0566 54.551C58.0566 53.2764 58.1314 52.009 58.1602 50.7429C58.1763 50.0352 58.1528 49.3886 58.4708 48.7526" stroke="#242424" stroke-width="3" stroke-linecap="round"/>
<path d="M80.4219 55.6899V59.9352" stroke="#242424" stroke-width="3" stroke-linecap="round"/>
<path d="M87.001 150.705L86.501 104.205C86.501 102.709 86.0463 98.3877 86.0463 96.9026C86.0463 92.9429 85.6691 88.9909 85.6691 85.0107C85.6691 81.4413 85.194 77.3717 86.0882 73.8942C86.3426 72.9049 86.8673 71.6504 87.555 70.8767C87.9369 70.447 88.1226 69.946 88.5 69.5C90.001 67.7261 89.2951 66.7837 90.001 66.7053C95.4067 66.7053 250.08 66.2053 255.501 66.2053C255.44 66.0831 255.206 68.2102 255.147 68.7439L255.138 68.8287C255.09 69.2614 254.708 69.9646 254.446 70.2928C254.11 70.7125 254.045 71.3841 253.674 71.7968C253.238 72.2813 253.341 73.0209 253.042 73.5603C252.727 74.1274 252.647 74.7617 252.383 75.3571C252.079 76.0415 251.793 76.7205 251.484 77.4001C251.132 78.1762 250.803 79.0406 250.4 79.7892C249.745 81.005 249.628 82.084 249.628 83.4427C249.171 83.671 248.97 84.8899 248.736 85.3593C248.364 86.1038 248.358 87.0084 248.044 87.7551C247.751 88.4492 247.695 89.3425 247.591 90.0976C247.326 92.0216 247.668 94.0653 247.711 95.9938C247.758 98.0969 247.495 100.32 247.977 102.369C248.493 104.56 248.501 106.451 248.501 108.705V138.205L247.001 328.205C247.241 328.987 246.501 327.205 247.677 333.718C249.501 340.705 249.538 339.427 250.965 341.964C251.486 342.89 252.235 343.681 252.9 344.493C253.435 345.148 254.114 345.572 254.705 346.162C255.342 346.799 256.069 347.288 256.768 347.832C257.023 348.03 257.963 348.657 258.107 348.691C252.686 348.691 120.407 321.205 115.001 321.205C113.875 321.018 112.608 320.854 111.513 320.529C110.037 320.092 108.454 320.118 106.987 319.711C106.23 319.501 105.425 319.513 104.661 319.267C103.812 318.994 102.934 318.868 102.059 318.678C99.9361 318.217 97.5617 318.333 95.6508 317.13C94.4841 316.395 93.2046 315.705 92.2719 314.668C91.9258 314.284 91.407 314.026 91.0831 313.61C90.7332 313.16 90.2797 312.718 89.8629 312.301C89.3578 311.796 88.9747 311.23 88.5906 310.632C88.0586 309.805 87.9296 308.84 87.6051 307.931C87.3529 307.225 87.291 306.47 87.068 305.752C86.7005 304.568 87.001 287.946 87.001 286.705V150.705Z" fill="#242424"/>
<path d="M258.107 348.691C252.686 348.691 120.407 321.205 115.001 321.205C113.875 321.018 112.608 320.854 111.513 320.529C110.037 320.092 108.454 320.118 106.987 319.711C106.23 319.501 105.425 319.513 104.661 319.267C103.812 318.994 102.934 318.868 102.059 318.678C99.9361 318.217 97.5617 318.333 95.6508 317.13C94.4841 316.395 93.2046 315.705 92.2719 314.668C91.9258 314.284 91.407 314.026 91.0831 313.61C90.7332 313.16 90.2797 312.718 89.8629 312.301C89.3578 311.796 88.9747 311.23 88.5906 310.632C88.0586 309.805 87.9296 308.84 87.6051 307.931C87.3529 307.225 87.291 306.47 87.068 305.752C86.7005 304.568 87.001 287.946 87.001 286.705V150.705L86.501 104.205C86.501 102.709 86.0463 98.3877 86.0463 96.9026C86.0463 92.9429 85.6691 88.9909 85.6691 85.0107C85.6691 81.4413 85.194 77.3717 86.0882 73.8942C86.3426 72.9049 86.8673 71.6504 87.555 70.8767C87.9369 70.447 88.1226 69.946 88.5 69.5C90.001 67.7261 89.2951 66.7837 90.001 66.7053C95.4067 66.7053 250.08 66.2053 255.501 66.2053C255.436 66.0749 255.174 68.5062 255.138 68.8287C255.09 69.2614 254.708 69.9646 254.446 70.2928C254.11 70.7125 254.045 71.3841 253.674 71.7968C253.238 72.2813 253.341 73.0209 253.042 73.5603C252.727 74.1274 252.647 74.7617 252.383 75.3571C252.079 76.0415 251.793 76.7205 251.484 77.4001C251.132 78.1762 250.803 79.0406 250.4 79.7892C249.745 81.005 249.628 82.084 249.628 83.4427C249.171 83.671 248.97 84.8899 248.736 85.3593C248.364 86.1038 248.358 87.0084 248.044 87.7551C247.751 88.4492 247.695 89.3425 247.591 90.0976C247.326 92.0216 247.668 94.0653 247.711 95.9938C247.758 98.0969 247.495 100.32 247.977 102.369C248.493 104.56 248.501 106.451 248.501 108.705V138.205L247.001 328.205C247.241 328.987 246.501 327.205 247.677 333.718C249.501 340.705 249.538 339.427 250.965 341.964C251.486 342.89 252.235 343.681 252.9 344.493C253.435 345.148 254.114 345.572 254.705 346.162C255.342 346.799 256.069 347.288 256.768 347.832C257.052 348.053 258.187 348.807 258.122 348.677" stroke="#242424" stroke-width="3" stroke-linecap="round"/>
<path d="M248.688 193.897C250.895 193.897 253.032 194.001 255.219 194.278C256.471 194.437 257.73 194.471 258.978 194.666C260.259 194.866 261.601 194.677 262.881 194.87C264.248 195.076 265.609 195.198 266.995 195.198C267.344 195.198 269.183 195.37 269.268 195.198" stroke="#242424" stroke-width="3" stroke-linecap="round"/>
<path d="M248.568 174.736C251.814 174.736 255.037 174.682 258.267 174.998C260.39 175.206 262.621 175.117 264.714 175.504C265.332 175.619 270.809 175.965 270.999 175.205" stroke="#242424" stroke-width="3" stroke-linecap="round"/>
<path d="M248.451 166.456C250.668 166.456 252.885 166.456 255.101 166.456C256.626 166.456 258.116 166.811 259.635 166.811C261.41 166.811 263.177 167.047 264.951 167.047C265.671 167.047 266.367 167.166 267.08 167.166C267.577 167.166 268.443 167.167 268.914 167.376C269.181 167.495 270.892 167.468 270.925 167.402" stroke="#242424" stroke-width="3" stroke-linecap="round"/>
<path d="M266.99 320.464C264.874 320.464 262.758 320.464 260.642 320.464C259.351 320.464 257.945 320.615 256.663 320.431C255 320.194 253.478 319.318 251.846 319.022C251.239 318.911 250.502 318.811 249.953 318.506C249.477 318.242 248.579 318.442 248.285 317.854" stroke="#242424" stroke-width="3" stroke-linecap="round"/>
<path d="M266.7 316.694C263.979 316.694 261.403 315.74 258.838 314.954C256.917 314.365 255.071 313.326 253.078 313.077C252.11 312.956 251.068 312.489 250.098 312.489C249.67 312.489 248.285 312.707 248.285 312.199" stroke="#242424" stroke-width="3" stroke-linecap="round"/>
<path d="M266.265 338.588C264.584 338.588 263.015 338.472 261.408 337.936C260.517 337.639 259.225 337.283 258.282 337.283C256.674 337.283 254.919 336.508 253.505 335.801C251.675 334.886 248.45 333.105 247.5 331.205" stroke="#242424" stroke-width="3" stroke-linecap="round"/>
<path d="M305.527 163.354C311.259 163.354 316.762 164.587 322.444 165.115C325.72 165.42 328.447 166.776 331.554 167.616C332.738 167.936 333.98 168.148 335.077 168.54C335.948 168.851 337.033 168.833 337.816 169.225" stroke="#242424" stroke-width="3" stroke-linecap="round"/>
<path d="M306.701 191.925C308.394 191.925 310.111 192.013 311.8 191.914C313.846 191.794 315.895 191.008 317.899 190.598C321.037 189.957 324.103 189.029 327.238 188.402C328.959 188.058 330.911 187.228 332.641 187.228C333.116 187.228 333.66 187.055 334.098 186.88C334.585 186.686 335.631 186.706 336.011 186.402C336.289 186.18 337.422 185.858 337.816 185.858" stroke="#242424" stroke-width="3" stroke-linecap="round"/>
<path d="M337.817 185.271C337.817 181.486 337.621 177.689 337.621 173.921C337.621 172.559 337.426 171.198 337.426 169.812" stroke="#242424" stroke-width="3" stroke-linecap="round"/>
<path d="M93.7813 66.2551C93.7813 65.2057 93.5329 64.6044 92.9686 63.7266C92.4428 62.9087 91.3913 62.336 91.0723 61.3788" stroke="#242424" stroke-width="3" stroke-linecap="round"/>
<path d="M128.097 65.3521C127.255 65.3521 127.086 64.7024 126.562 64.1781C126.101 63.7174 125.206 62.974 124.886 62.4624C124.664 62.1072 122.451 60.523 122.679 60.2952" stroke="#242424" stroke-width="3" stroke-linecap="round"/>
<path d="M273.303 66.0744C273.195 64.8921 271.958 63.6381 271.226 62.7433C270.6 61.9791 269.933 61.4406 269.239 60.7466C268.356 59.8632 267.36 59.0652 266.801 57.9473" stroke="#242424" stroke-width="3" stroke-linecap="round"/>
<path d="M243.5 66.2053C243.393 65.023 243.157 65.3961 242.425 64.5014C241.8 63.7372 241.132 63.1986 240.438 62.5047C239.555 61.6213 238.559 60.8233 238 59.7053" stroke="#242424" stroke-width="3" stroke-linecap="round"/>
<path d="M254.144 110.352C254.144 111.15 254.099 111.965 254.187 112.757C254.209 112.949 254.307 113.17 254.307 113.349C254.307 113.445 254.357 113.489 254.452 113.428C254.652 113.301 254.898 113.287 255.13 113.287C256.187 113.287 257.224 113.573 258.285 113.573C259.166 113.573 260.04 113.748 260.922 113.777C261.234 113.787 261.548 113.777 261.86 113.777C262.371 113.777 262.866 113.654 263.359 113.654" stroke="#242424" stroke-width="3" stroke-linecap="round"/>
<path d="M264.214 113.858C264.214 113.138 264.222 112.432 264.141 111.715C264.101 111.358 264.051 110.997 264.051 110.637" stroke="#242424" stroke-width="3" stroke-linecap="round"/>
<path d="M83.2989 61.0092C83.2989 62.0782 83.2329 63.1711 83.3899 64.2305C83.4188 64.4261 83.4523 64.6471 83.4523 64.8441C83.4523 64.8957 83.4386 65.1784 83.5035 65.0486" stroke="#242424" stroke-width="3" stroke-linecap="round"/>
<path d="M134.193 23.7567C133.573 23.8944 132.589 25.0394 132.19 25.5185C131.684 26.1255 131.186 26.7922 130.91 27.5213C130.321 29.0743 129.247 29.9579 129.178 31.7527C129.155 32.3479 129.178 32.9491 129.178 33.5446C129.178 33.863 129.182 35.1429 129.449 35.2763" stroke="#242424" stroke-width="3" stroke-linecap="round"/>
<path d="M140.025 23.7053C139.405 23.843 138.421 24.988 138.022 25.4671C137.516 26.0741 137.018 26.7408 136.742 27.4699C136.153 29.0229 135.079 29.9065 135.01 31.7013C134.987 32.2965 135.01 32.8977 135.01 33.4932C135.01 33.8116 135.014 35.0915 135.281 35.2249" stroke="#242424" stroke-width="3" stroke-linecap="round"/>
<path d="M2 390.705C3.01913 390.705 3.41438 390.951 4.3542 391.313C5.59765 391.792 6.80335 392.335 8.01789 392.882C8.57922 393.135 9.14923 393.378 9.67967 393.692C9.8795 393.811 10.1047 393.97 10.3191 394.052C10.4981 394.121 10.6778 394.28 10.8517 394.367C11.1083 394.495 11.3725 394.62 11.6213 394.744" stroke="#242424" stroke-width="3" stroke-linecap="round"/>
<path d="M13 377.705C14.0191 377.705 14.4144 377.951 15.3542 378.313C16.5977 378.792 17.8034 379.335 19.0179 379.882C19.5792 380.135 20.1492 380.378 20.6797 380.692C20.8795 380.811 21.1047 380.97 21.3191 381.052C21.4981 381.121 21.6778 381.28 21.8517 381.367C22.1083 381.495 22.3725 381.62 22.6213 381.744" stroke="#242424" stroke-width="3" stroke-linecap="round"/>
<path d="M103.5 341.706C105 341.705 111.5 342.705 112.5 343.205" stroke="#242424" stroke-width="3" stroke-linecap="round"/>
<path d="M2 399.705C3.01913 399.705 3.41438 399.951 4.3542 400.313C5.59765 400.792 6.80335 401.335 8.01789 401.882C8.57922 402.135 9.14923 402.378 9.67967 402.692C9.8795 402.811 10.1047 402.97 10.3191 403.052C10.4981 403.121 10.6778 403.28 10.8517 403.367C11.1083 403.495 11.3725 403.62 11.6213 403.744" stroke="#242424" stroke-width="3" stroke-linecap="round"/>
<path d="M11.6934 395.502C11.6934 397.646 11.6934 399.791 11.6934 401.935C11.6934 402.351 11.8268 403.593 11.8268 403.177" stroke="#242424" stroke-width="3" stroke-linecap="round"/>
<path d="M123 348.705C123 350.85 123 352.994 123 355.138C123 355.554 123.133 356.796 123.133 356.38" stroke="#242424" stroke-width="3" stroke-linecap="round"/>
<path d="M2 391.705C2 393.85 2 395.994 2 398.138C2 398.554 2.13347 399.796 2.13347 399.38" stroke="#242424" stroke-width="3" stroke-linecap="round"/>
<path d="M48.5 359.705C47.5309 360.736 42.963 364.528 42 365.705" stroke="#242424" stroke-width="3" stroke-linecap="round"/>
<path d="M57.5 361.705C56.5309 362.736 53.5 366.705 52.5 368.205" stroke="#242424" stroke-width="3" stroke-linecap="round"/>
<path d="M82 351.205C83.7014 351.205 87.7458 352.408 89.5 352.705" stroke="#242424" stroke-width="3" stroke-linecap="round"/>
<path d="M49 359.705C50.7014 359.705 54.7458 360.908 56.5 361.205" stroke="#242424" stroke-width="3" stroke-linecap="round"/>
<path d="M42 366.705C43.7014 366.705 50.7458 368.908 52.5 369.205" stroke="#242424" stroke-width="3" stroke-linecap="round"/>
<path d="M326.247 389.684C324.051 390.606 243.913 440.05 241.808 441" stroke="#242424" stroke-width="3" stroke-linecap="round"/>
<path d="M338.03 401.092C335.835 402.014 237.071 462.28 234.967 463.231" stroke="#242424" stroke-width="3" stroke-linecap="round"/>
<path d="M258.281 422.409C256.086 423.331 233.86 436.978 231.755 437.929" stroke="#242424" stroke-width="3" stroke-linecap="round"/>
<path d="M316.134 389.653C313.939 390.575 300.603 399.379 298.499 400.329" stroke="#242424" stroke-width="3" stroke-linecap="round"/>
<path d="M297.088 401.042C294.892 401.964 275.984 414.113 273.88 415.064" stroke="#242424" stroke-width="3" stroke-linecap="round"/>
<path d="M336.299 392.755C334.104 393.677 235.908 454.365 233.803 455.315" stroke="#242424" stroke-width="3" stroke-linecap="round"/>
<path d="M241.882 441.495C241.111 443.124 235.42 452.551 233.732 454.821" stroke="#242424" stroke-width="3" stroke-linecap="round"/>
<path d="M231.406 438.991C230.634 440.62 224.944 450.047 223.256 452.316" stroke="#242424" stroke-width="3" stroke-linecap="round"/>
<path d="M326.742 389.611C328.866 390.31 333.115 391.707 336.228 392.26" stroke="#242424" stroke-width="3" stroke-linecap="round"/>
<path d="M223.256 452.317C224.264 452.169 224.691 452.355 225.673 452.576C226.973 452.869 228.245 453.231 229.526 453.596C230.118 453.764 230.718 453.922 231.288 454.156C231.503 454.244 231.749 454.368 231.973 454.419C232.16 454.461 232.361 454.592 232.546 454.653C232.818 454.743 233.098 454.827 233.362 454.914" stroke="#242424" stroke-width="3" stroke-linecap="round"/>
<path d="M232.25 437.856C233.258 437.708 233.685 437.894 234.668 438.116C235.967 438.409 237.239 438.771 238.52 439.135C239.112 439.303 239.712 439.461 240.282 439.695C240.497 439.783 240.743 439.908 240.967 439.958C241.154 440 241.355 440.131 241.54 440.192C241.812 440.282 242.092 440.366 242.356 440.453" stroke="#242424" stroke-width="3" stroke-linecap="round"/>
<path d="M316.557 389.086C318.041 388.867 324.617 388.912 325.679 389.262" stroke="#242424" stroke-width="3" stroke-linecap="round"/>
<path d="M224.564 461.221C225.573 461.073 226 461.259 226.982 461.481C228.282 461.774 229.554 462.136 230.835 462.5C231.427 462.668 232.026 462.826 232.597 463.06C232.812 463.148 233.057 463.273 233.282 463.323C233.469 463.365 233.67 463.496 233.854 463.557C234.127 463.647 234.406 463.731 234.671 463.818" stroke="#242424" stroke-width="3" stroke-linecap="round"/>
<path d="M233.545 455.654C233.857 457.775 234.168 459.896 234.48 462.018C234.54 462.43 234.853 463.639 234.792 463.227" stroke="#242424" stroke-width="3" stroke-linecap="round"/>
<path d="M336.867 393.177C337.179 395.299 337.49 397.42 337.802 399.541C337.863 399.953 338.175 401.163 338.115 400.751" stroke="#242424" stroke-width="3" stroke-linecap="round"/>
<path d="M223.402 453.306C223.714 455.427 224.026 457.549 224.337 459.67C224.398 460.082 224.71 461.292 224.65 460.88" stroke="#242424" stroke-width="3" stroke-linecap="round"/>
<path d="M266.501 414.205C265.692 415.366 259.981 420.464 259.199 421.769" stroke="#242424" stroke-width="3" stroke-linecap="round"/>
<path d="M296.666 401.609C298.349 401.362 302.526 401.964 304.304 402.003" stroke="#242424" stroke-width="3" stroke-linecap="round"/>
<path d="M266.5 414.205C268 414.205 271.112 415.17 272.89 415.209" stroke="#242424" stroke-width="3" stroke-linecap="round"/>
<path d="M259.344 422.758C261.027 422.511 268.317 423.667 270.096 423.706" stroke="#242424" stroke-width="3" stroke-linecap="round"/>
<mask id="path-143-inside-1_1406_1464" fill="white">
<path d="M140.849 161.439C138.494 161.949 137.366 160.804 136.142 159.69C135.214 158.843 133.819 158.98 132.559 159.291C128.363 160.364 124.672 162.11 122.046 165.066C119.966 167.403 117.931 169.766 117.183 172.62C116.81 174.072 117.041 175.301 118.474 176.228C119.906 177.155 121.368 176.957 122.99 176.445C124.688 175.887 126.261 175.236 127.3 173.958C128.15 172.926 127.936 171.345 127.046 170.444C126.641 170.036 126.463 169.513 126.547 168.984C126.626 168.71 127.549 168.398 128.102 168.365C130.382 168.237 132.659 168.21 134.938 168.15C136.228 168.121 137.038 168.671 137.109 169.529C137.188 170.262 136.251 171.132 135.256 171.414C134.894 171.541 134.597 171.766 134.423 172.047C133.602 173.433 132.862 174.843 132.041 176.226C131.819 176.554 131.518 176.848 131.156 177.09C129.975 178.011 128.732 178.881 127.432 179.696C126.502 180.238 125.455 180.639 124.351 180.874C122.913 181.13 121.456 181.288 119.996 181.344C118.96 181.427 117.929 181.301 117.001 180.977C116.072 180.654 115.277 180.144 114.692 179.497C113.551 178.313 112.282 177.146 111.503 175.797C110.375 173.897 110.784 171.895 111.723 169.846C113.985 164.918 118.367 161.335 123.452 158.117C125.692 156.7 128.066 155.449 130.735 154.77C133.174 154.168 135.677 153.777 138.197 153.604C141.157 153.389 144.552 155.884 142.818 159.232C142.515 159.82 142.124 160.388 141.776 160.962C142.56 161.235 143.315 161.553 144.035 161.914C145.728 162.907 146.369 164.409 145.044 166.078C144.316 166.996 143.596 167.919 142.904 168.853C142.55 169.333 142.445 169.715 143.408 169.847C144.325 169.998 145.216 170.223 146.067 170.517C146.904 170.764 147.049 171.311 146.684 171.96C146.318 172.609 145.786 173.068 144.8 172.999C143.992 172.945 143.168 172.939 142.369 172.844C141.382 172.728 141.106 173.131 141.027 173.797C140.905 174.946 140.71 176.092 140.635 177.236C140.454 179.952 139.039 182.423 137.855 184.95C137.154 186.444 136.381 187.909 135.617 189.38C135.458 189.785 135.207 190.167 134.876 190.508C134.552 190.775 133.917 191.09 133.585 191.011C133.373 190.919 133.195 190.786 133.068 190.623C132.942 190.46 132.87 190.273 132.86 190.079C132.95 189.44 133.138 188.809 133.42 188.198C134.427 185.542 135.468 182.892 136.475 180.233C136.634 179.798 136.731 179.354 136.763 178.908C136.98 176.283 137.08 173.657 137.353 171.033C137.564 168.988 137.97 166.923 138.291 164.866C138.504 163.478 139.74 162.553 140.849 161.439ZM141.383 163.868C140.973 164.55 140.472 165.021 140.529 165.426C140.56 165.713 141.529 166.181 141.781 166.077C142.06 165.957 142.305 165.792 142.497 165.592C142.69 165.392 142.825 165.163 142.893 164.922C142.919 164.639 142.102 164.343 141.383 163.868Z"/>
<path d="M209.345 165.601C207.866 165.838 206.376 166.057 204.913 166.316C203.11 166.635 202.441 167.384 202.534 168.806C202.656 170.498 202.954 172.215 202.086 173.879C201.616 174.795 201.016 175.67 200.298 176.488C199.586 177.286 198.635 177.342 197.674 176.829C194.43 175.086 194.294 172.789 195.888 170.019C195.925 169.97 195.966 169.923 196.01 169.878C197.38 168.069 197.203 166.787 194.013 166.552C192.055 166.389 190.139 166.052 188.3 165.548C187.274 165.274 186.399 164.597 185.593 163.993C184.959 163.512 185.374 162.928 186.425 162.795C188.232 162.566 190.042 162.36 191.858 162.208C196.402 161.805 200.963 161.515 205.501 161.022C209.763 160.562 214.005 159.926 218.221 159.312C219.85 159.069 220.867 159.583 221.655 160.536C222.766 161.878 222.052 163.411 219.995 163.849C216.488 164.594 212.953 165.232 209.439 165.915L209.345 165.601Z"/>
<path d="M178.169 160.801C178.68 160.336 179.227 159.895 179.807 159.482C180.425 159.098 180.994 158.491 181.957 158.913C182.921 159.334 183.478 159.817 183.353 160.737C183.228 161.657 183.171 162.526 183.086 163.421C182.865 165.804 182.672 168.167 182.419 170.539C182.305 171.32 182.14 172.099 181.925 172.871C181.808 173.229 181.55 173.554 181.188 173.798C180.826 174.042 180.38 174.193 179.915 174.226C178.944 174.331 178.512 173.845 178.216 173.261C177.569 171.983 177.905 170.622 178.14 169.286C178.335 168.173 178.569 167.063 178.816 165.954C178.978 165.263 178.624 164.897 177.74 164.854C177.528 164.84 177.318 164.812 177.114 164.77C174.609 164.333 175.082 164.396 174.582 166.192C173.849 168.832 173.51 171.524 172.896 174.185C172.35 176.559 171.683 178.926 171.011 181.287C170.774 182.121 170.161 182.841 168.939 182.936C167.925 183.012 166.394 182.125 166.027 181.323C165.021 179.113 165.052 176.929 166.767 174.803C168.167 173.075 168.628 171.152 169.182 169.215C169.738 167.217 170.504 165.241 171.264 163.261C171.906 161.612 172.679 159.992 173.378 158.356C173.629 157.766 173.762 157.085 174.739 156.983C175.864 156.861 177.295 157.576 177.548 158.364C177.767 159.075 177.915 159.811 178.169 160.801Z"/>
<path d="M156.294 169.201C155.882 166.826 156.911 164.572 158.279 162.426C159.364 160.699 160.656 159.05 162.136 157.504C162.947 156.665 164.296 156.102 165.499 155.544C166.523 155.113 167.589 154.754 168.686 154.472C169.136 154.309 169.639 154.282 170.095 154.394C170.552 154.507 170.929 154.753 171.153 155.082C171.95 156.037 172.333 157.071 171.976 158.228C170.837 161.9 169.5 165.532 166.92 168.826C166.487 169.386 165.904 169.869 165.214 170.237C163.883 170.932 162.491 171.548 161.049 172.078C158.845 172.868 156.81 171.99 156.393 170.158C156.334 169.857 156.331 169.548 156.294 169.201ZM168.041 158.205L167.473 157.778C167.232 158.023 166.831 158.255 166.778 158.526C166.664 159.105 166.815 159.705 166.696 160.281C166.475 161.316 166.025 161.499 164.794 161.238C164.633 161.227 164.469 161.249 164.317 161.302C164.165 161.354 164.03 161.435 163.925 161.537C162.862 163.306 161.795 165.083 160.873 166.894C160.646 167.346 160.943 167.941 160.996 168.471C161.649 168.286 162.427 168.226 162.935 167.898C166.8 165.405 167.776 162.018 168.024 158.207L168.041 158.205Z"/>
<path d="M146.996 168.617C147.03 166.773 148.386 164.76 150.334 163.876C150.886 163.651 151.502 163.558 152.103 163.608C152.704 163.659 153.262 163.85 153.706 164.159C154.176 164.479 154.547 164.879 154.792 165.333C155.036 165.786 155.15 166.281 155.123 166.783C155.048 168.28 154.68 169.624 153.184 170.783C151.688 171.942 149.282 171.625 148.301 170.602C147.792 169.974 147.356 169.31 146.996 168.617ZM151.299 169.137C152.151 169.045 152.973 168.228 152.949 167.445C152.903 167.171 152.727 166.926 152.456 166.758C152.185 166.59 151.838 166.512 151.484 166.539C150.598 166.634 150.058 167.383 150.102 168.396C150.124 169.038 150.604 169.174 151.299 169.137Z"/>
<path d="M188.413 171.712C188.448 172.436 188.479 173.161 188.513 173.882C188.537 174.149 188.441 174.419 188.242 174.647C188.044 174.874 187.754 175.044 187.424 175.128C186.754 175.355 186.343 175.144 185.895 174.744C184.902 173.86 184.891 172.753 185.244 171.754C185.72 170.406 184.993 169.423 184.351 168.393C183.779 167.481 183.772 167.02 184.595 166.655C184.803 166.566 185.03 166.512 185.262 166.496C185.494 166.48 185.724 166.503 185.939 166.562C186.154 166.622 186.348 166.717 186.508 166.842C186.669 166.966 186.792 167.118 186.87 167.286C187.533 168.714 188.046 170.192 188.634 171.645L188.413 171.712Z"/>
<path d="M206.034 171.276C207.504 171.155 208.318 171.626 208.361 172.626C208.414 173.715 207.683 174.61 206.663 174.713C205.479 174.841 204.124 173.949 204.047 173C203.97 172.052 204.696 171.384 206.034 171.276Z"/>
<path d="M189.718 160.63C189.786 161.458 189.222 162.031 188.242 162.137C187.986 162.161 187.728 162.142 187.487 162.083C187.245 162.024 187.025 161.926 186.839 161.794C186.653 161.663 186.505 161.501 186.406 161.319C186.307 161.137 186.258 160.938 186.263 160.736C186.21 159.93 186.903 159.195 187.78 159.134C188.737 159.054 189.645 159.758 189.718 160.63Z"/>
</mask>
<path d="M140.849 161.439C138.494 161.949 137.366 160.804 136.142 159.69C135.214 158.843 133.819 158.98 132.559 159.291C128.363 160.364 124.672 162.11 122.046 165.066C119.966 167.403 117.931 169.766 117.183 172.62C116.81 174.072 117.041 175.301 118.474 176.228C119.906 177.155 121.368 176.957 122.99 176.445C124.688 175.887 126.261 175.236 127.3 173.958C128.15 172.926 127.936 171.345 127.046 170.444C126.641 170.036 126.463 169.513 126.547 168.984C126.626 168.71 127.549 168.398 128.102 168.365C130.382 168.237 132.659 168.21 134.938 168.15C136.228 168.121 137.038 168.671 137.109 169.529C137.188 170.262 136.251 171.132 135.256 171.414C134.894 171.541 134.597 171.766 134.423 172.047C133.602 173.433 132.862 174.843 132.041 176.226C131.819 176.554 131.518 176.848 131.156 177.09C129.975 178.011 128.732 178.881 127.432 179.696C126.502 180.238 125.455 180.639 124.351 180.874C122.913 181.13 121.456 181.288 119.996 181.344C118.96 181.427 117.929 181.301 117.001 180.977C116.072 180.654 115.277 180.144 114.692 179.497C113.551 178.313 112.282 177.146 111.503 175.797C110.375 173.897 110.784 171.895 111.723 169.846C113.985 164.918 118.367 161.335 123.452 158.117C125.692 156.7 128.066 155.449 130.735 154.77C133.174 154.168 135.677 153.777 138.197 153.604C141.157 153.389 144.552 155.884 142.818 159.232C142.515 159.82 142.124 160.388 141.776 160.962C142.56 161.235 143.315 161.553 144.035 161.914C145.728 162.907 146.369 164.409 145.044 166.078C144.316 166.996 143.596 167.919 142.904 168.853C142.55 169.333 142.445 169.715 143.408 169.847C144.325 169.998 145.216 170.223 146.067 170.517C146.904 170.764 147.049 171.311 146.684 171.96C146.318 172.609 145.786 173.068 144.8 172.999C143.992 172.945 143.168 172.939 142.369 172.844C141.382 172.728 141.106 173.131 141.027 173.797C140.905 174.946 140.71 176.092 140.635 177.236C140.454 179.952 139.039 182.423 137.855 184.95C137.154 186.444 136.381 187.909 135.617 189.38C135.458 189.785 135.207 190.167 134.876 190.508C134.552 190.775 133.917 191.09 133.585 191.011C133.373 190.919 133.195 190.786 133.068 190.623C132.942 190.46 132.87 190.273 132.86 190.079C132.95 189.44 133.138 188.809 133.42 188.198C134.427 185.542 135.468 182.892 136.475 180.233C136.634 179.798 136.731 179.354 136.763 178.908C136.98 176.283 137.08 173.657 137.353 171.033C137.564 168.988 137.97 166.923 138.291 164.866C138.504 163.478 139.74 162.553 140.849 161.439ZM141.383 163.868C140.973 164.55 140.472 165.021 140.529 165.426C140.56 165.713 141.529 166.181 141.781 166.077C142.06 165.957 142.305 165.792 142.497 165.592C142.69 165.392 142.825 165.163 142.893 164.922C142.919 164.639 142.102 164.343 141.383 163.868Z" fill="#F9F7F2"/>
<path d="M209.345 165.601C207.866 165.838 206.376 166.057 204.913 166.316C203.11 166.635 202.441 167.384 202.534 168.806C202.656 170.498 202.954 172.215 202.086 173.879C201.616 174.795 201.016 175.67 200.298 176.488C199.586 177.286 198.635 177.342 197.674 176.829C194.43 175.086 194.294 172.789 195.888 170.019C195.925 169.97 195.966 169.923 196.01 169.878C197.38 168.069 197.203 166.787 194.013 166.552C192.055 166.389 190.139 166.052 188.3 165.548C187.274 165.274 186.399 164.597 185.593 163.993C184.959 163.512 185.374 162.928 186.425 162.795C188.232 162.566 190.042 162.36 191.858 162.208C196.402 161.805 200.963 161.515 205.501 161.022C209.763 160.562 214.005 159.926 218.221 159.312C219.85 159.069 220.867 159.583 221.655 160.536C222.766 161.878 222.052 163.411 219.995 163.849C216.488 164.594 212.953 165.232 209.439 165.915L209.345 165.601Z" fill="#F9F7F2"/>
<path d="M178.169 160.801C178.68 160.336 179.227 159.895 179.807 159.482C180.425 159.098 180.994 158.491 181.957 158.913C182.921 159.334 183.478 159.817 183.353 160.737C183.228 161.657 183.171 162.526 183.086 163.421C182.865 165.804 182.672 168.167 182.419 170.539C182.305 171.32 182.14 172.099 181.925 172.871C181.808 173.229 181.55 173.554 181.188 173.798C180.826 174.042 180.38 174.193 179.915 174.226C178.944 174.331 178.512 173.845 178.216 173.261C177.569 171.983 177.905 170.622 178.14 169.286C178.335 168.173 178.569 167.063 178.816 165.954C178.978 165.263 178.624 164.897 177.74 164.854C177.528 164.84 177.318 164.812 177.114 164.77C174.609 164.333 175.082 164.396 174.582 166.192C173.849 168.832 173.51 171.524 172.896 174.185C172.35 176.559 171.683 178.926 171.011 181.287C170.774 182.121 170.161 182.841 168.939 182.936C167.925 183.012 166.394 182.125 166.027 181.323C165.021 179.113 165.052 176.929 166.767 174.803C168.167 173.075 168.628 171.152 169.182 169.215C169.738 167.217 170.504 165.241 171.264 163.261C171.906 161.612 172.679 159.992 173.378 158.356C173.629 157.766 173.762 157.085 174.739 156.983C175.864 156.861 177.295 157.576 177.548 158.364C177.767 159.075 177.915 159.811 178.169 160.801Z" fill="#F9F7F2"/>
<path d="M156.294 169.201C155.882 166.826 156.911 164.572 158.279 162.426C159.364 160.699 160.656 159.05 162.136 157.504C162.947 156.665 164.296 156.102 165.499 155.544C166.523 155.113 167.589 154.754 168.686 154.472C169.136 154.309 169.639 154.282 170.095 154.394C170.552 154.507 170.929 154.753 171.153 155.082C171.95 156.037 172.333 157.071 171.976 158.228C170.837 161.9 169.5 165.532 166.92 168.826C166.487 169.386 165.904 169.869 165.214 170.237C163.883 170.932 162.491 171.548 161.049 172.078C158.845 172.868 156.81 171.99 156.393 170.158C156.334 169.857 156.331 169.548 156.294 169.201ZM168.041 158.205L167.473 157.778C167.232 158.023 166.831 158.255 166.778 158.526C166.664 159.105 166.815 159.705 166.696 160.281C166.475 161.316 166.025 161.499 164.794 161.238C164.633 161.227 164.469 161.249 164.317 161.302C164.165 161.354 164.03 161.435 163.925 161.537C162.862 163.306 161.795 165.083 160.873 166.894C160.646 167.346 160.943 167.941 160.996 168.471C161.649 168.286 162.427 168.226 162.935 167.898C166.8 165.405 167.776 162.018 168.024 158.207L168.041 158.205Z" fill="#F9F7F2"/>
<path d="M146.996 168.617C147.03 166.773 148.386 164.76 150.334 163.876C150.886 163.651 151.502 163.558 152.103 163.608C152.704 163.659 153.262 163.85 153.706 164.159C154.176 164.479 154.547 164.879 154.792 165.333C155.036 165.786 155.15 166.281 155.123 166.783C155.048 168.28 154.68 169.624 153.184 170.783C151.688 171.942 149.282 171.625 148.301 170.602C147.792 169.974 147.356 169.31 146.996 168.617ZM151.299 169.137C152.151 169.045 152.973 168.228 152.949 167.445C152.903 167.171 152.727 166.926 152.456 166.758C152.185 166.59 151.838 166.512 151.484 166.539C150.598 166.634 150.058 167.383 150.102 168.396C150.124 169.038 150.604 169.174 151.299 169.137Z" fill="#F9F7F2"/>
<path d="M188.413 171.712C188.448 172.436 188.479 173.161 188.513 173.882C188.537 174.149 188.441 174.419 188.242 174.647C188.044 174.874 187.754 175.044 187.424 175.128C186.754 175.355 186.343 175.144 185.895 174.744C184.902 173.86 184.891 172.753 185.244 171.754C185.72 170.406 184.993 169.423 184.351 168.393C183.779 167.481 183.772 167.02 184.595 166.655C184.803 166.566 185.03 166.512 185.262 166.496C185.494 166.48 185.724 166.503 185.939 166.562C186.154 166.622 186.348 166.717 186.508 166.842C186.669 166.966 186.792 167.118 186.87 167.286C187.533 168.714 188.046 170.192 188.634 171.645L188.413 171.712Z" fill="#F9F7F2"/>
<path d="M206.034 171.276C207.504 171.155 208.318 171.626 208.361 172.626C208.414 173.715 207.683 174.61 206.663 174.713C205.479 174.841 204.124 173.949 204.047 173C203.97 172.052 204.696 171.384 206.034 171.276Z" fill="#F9F7F2"/>
<path d="M189.718 160.63C189.786 161.458 189.222 162.031 188.242 162.137C187.986 162.161 187.728 162.142 187.487 162.083C187.245 162.024 187.025 161.926 186.839 161.794C186.653 161.663 186.505 161.501 186.406 161.319C186.307 161.137 186.258 160.938 186.263 160.736C186.21 159.93 186.903 159.195 187.78 159.134C188.737 159.054 189.645 159.758 189.718 160.63Z" fill="#F9F7F2"/>
<path d="M140.849 161.439C138.494 161.949 137.366 160.804 136.142 159.69C135.214 158.843 133.819 158.98 132.559 159.291C128.363 160.364 124.672 162.11 122.046 165.066C119.966 167.403 117.931 169.766 117.183 172.62C116.81 174.072 117.041 175.301 118.474 176.228C119.906 177.155 121.368 176.957 122.99 176.445C124.688 175.887 126.261 175.236 127.3 173.958C128.15 172.926 127.936 171.345 127.046 170.444C126.641 170.036 126.463 169.513 126.547 168.984C126.626 168.71 127.549 168.398 128.102 168.365C130.382 168.237 132.659 168.21 134.938 168.15C136.228 168.121 137.038 168.671 137.109 169.529C137.188 170.262 136.251 171.132 135.256 171.414C134.894 171.541 134.597 171.766 134.423 172.047C133.602 173.433 132.862 174.843 132.041 176.226C131.819 176.554 131.518 176.848 131.156 177.09C129.975 178.011 128.732 178.881 127.432 179.696C126.502 180.238 125.455 180.639 124.351 180.874C122.913 181.13 121.456 181.288 119.996 181.344C118.96 181.427 117.929 181.301 117.001 180.977C116.072 180.654 115.277 180.144 114.692 179.497C113.551 178.313 112.282 177.146 111.503 175.797C110.375 173.897 110.784 171.895 111.723 169.846C113.985 164.918 118.367 161.335 123.452 158.117C125.692 156.7 128.066 155.449 130.735 154.77C133.174 154.168 135.677 153.777 138.197 153.604C141.157 153.389 144.552 155.884 142.818 159.232C142.515 159.82 142.124 160.388 141.776 160.962C142.56 161.235 143.315 161.553 144.035 161.914C145.728 162.907 146.369 164.409 145.044 166.078C144.316 166.996 143.596 167.919 142.904 168.853C142.55 169.333 142.445 169.715 143.408 169.847C144.325 169.998 145.216 170.223 146.067 170.517C146.904 170.764 147.049 171.311 146.684 171.96C146.318 172.609 145.786 173.068 144.8 172.999C143.992 172.945 143.168 172.939 142.369 172.844C141.382 172.728 141.106 173.131 141.027 173.797C140.905 174.946 140.71 176.092 140.635 177.236C140.454 179.952 139.039 182.423 137.855 184.95C137.154 186.444 136.381 187.909 135.617 189.38C135.458 189.785 135.207 190.167 134.876 190.508C134.552 190.775 133.917 191.09 133.585 191.011C133.373 190.919 133.195 190.786 133.068 190.623C132.942 190.46 132.87 190.273 132.86 190.079C132.95 189.44 133.138 188.809 133.42 188.198C134.427 185.542 135.468 182.892 136.475 180.233C136.634 179.798 136.731 179.354 136.763 178.908C136.98 176.283 137.08 173.657 137.353 171.033C137.564 168.988 137.97 166.923 138.291 164.866C138.504 163.478 139.74 162.553 140.849 161.439ZM141.383 163.868C140.973 164.55 140.472 165.021 140.529 165.426C140.56 165.713 141.529 166.181 141.781 166.077C142.06 165.957 142.305 165.792 142.497 165.592C142.69 165.392 142.825 165.163 142.893 164.922C142.919 164.639 142.102 164.343 141.383 163.868Z" stroke="#F9F7F2" stroke-width="2.55984" mask="url(#path-143-inside-1_1406_1464)"/>
<path d="M209.345 165.601C207.866 165.838 206.376 166.057 204.913 166.316C203.11 166.635 202.441 167.384 202.534 168.806C202.656 170.498 202.954 172.215 202.086 173.879C201.616 174.795 201.016 175.67 200.298 176.488C199.586 177.286 198.635 177.342 197.674 176.829C194.43 175.086 194.294 172.789 195.888 170.019C195.925 169.97 195.966 169.923 196.01 169.878C197.38 168.069 197.203 166.787 194.013 166.552C192.055 166.389 190.139 166.052 188.3 165.548C187.274 165.274 186.399 164.597 185.593 163.993C184.959 163.512 185.374 162.928 186.425 162.795C188.232 162.566 190.042 162.36 191.858 162.208C196.402 161.805 200.963 161.515 205.501 161.022C209.763 160.562 214.005 159.926 218.221 159.312C219.85 159.069 220.867 159.583 221.655 160.536C222.766 161.878 222.052 163.411 219.995 163.849C216.488 164.594 212.953 165.232 209.439 165.915L209.345 165.601Z" stroke="#F9F7F2" stroke-width="2.55984" mask="url(#path-143-inside-1_1406_1464)"/>
<path d="M178.169 160.801C178.68 160.336 179.227 159.895 179.807 159.482C180.425 159.098 180.994 158.491 181.957 158.913C182.921 159.334 183.478 159.817 183.353 160.737C183.228 161.657 183.171 162.526 183.086 163.421C182.865 165.804 182.672 168.167 182.419 170.539C182.305 171.32 182.14 172.099 181.925 172.871C181.808 173.229 181.55 173.554 181.188 173.798C180.826 174.042 180.38 174.193 179.915 174.226C178.944 174.331 178.512 173.845 178.216 173.261C177.569 171.983 177.905 170.622 178.14 169.286C178.335 168.173 178.569 167.063 178.816 165.954C178.978 165.263 178.624 164.897 177.74 164.854C177.528 164.84 177.318 164.812 177.114 164.77C174.609 164.333 175.082 164.396 174.582 166.192C173.849 168.832 173.51 171.524 172.896 174.185C172.35 176.559 171.683 178.926 171.011 181.287C170.774 182.121 170.161 182.841 168.939 182.936C167.925 183.012 166.394 182.125 166.027 181.323C165.021 179.113 165.052 176.929 166.767 174.803C168.167 173.075 168.628 171.152 169.182 169.215C169.738 167.217 170.504 165.241 171.264 163.261C171.906 161.612 172.679 159.992 173.378 158.356C173.629 157.766 173.762 157.085 174.739 156.983C175.864 156.861 177.295 157.576 177.548 158.364C177.767 159.075 177.915 159.811 178.169 160.801Z" stroke="#F9F7F2" stroke-width="2.55984" mask="url(#path-143-inside-1_1406_1464)"/>
<path d="M156.294 169.201C155.882 166.826 156.911 164.572 158.279 162.426C159.364 160.699 160.656 159.05 162.136 157.504C162.947 156.665 164.296 156.102 165.499 155.544C166.523 155.113 167.589 154.754 168.686 154.472C169.136 154.309 169.639 154.282 170.095 154.394C170.552 154.507 170.929 154.753 171.153 155.082C171.95 156.037 172.333 157.071 171.976 158.228C170.837 161.9 169.5 165.532 166.92 168.826C166.487 169.386 165.904 169.869 165.214 170.237C163.883 170.932 162.491 171.548 161.049 172.078C158.845 172.868 156.81 171.99 156.393 170.158C156.334 169.857 156.331 169.548 156.294 169.201ZM168.041 158.205L167.473 157.778C167.232 158.023 166.831 158.255 166.778 158.526C166.664 159.105 166.815 159.705 166.696 160.281C166.475 161.316 166.025 161.499 164.794 161.238C164.633 161.227 164.469 161.249 164.317 161.302C164.165 161.354 164.03 161.435 163.925 161.537C162.862 163.306 161.795 165.083 160.873 166.894C160.646 167.346 160.943 167.941 160.996 168.471C161.649 168.286 162.427 168.226 162.935 167.898C166.8 165.405 167.776 162.018 168.024 158.207L168.041 158.205Z" stroke="#F9F7F2" stroke-width="2.55984" mask="url(#path-143-inside-1_1406_1464)"/>
<path d="M146.996 168.617C147.03 166.773 148.386 164.76 150.334 163.876C150.886 163.651 151.502 163.558 152.103 163.608C152.704 163.659 153.262 163.85 153.706 164.159C154.176 164.479 154.547 164.879 154.792 165.333C155.036 165.786 155.15 166.281 155.123 166.783C155.048 168.28 154.68 169.624 153.184 170.783C151.688 171.942 149.282 171.625 148.301 170.602C147.792 169.974 147.356 169.31 146.996 168.617ZM151.299 169.137C152.151 169.045 152.973 168.228 152.949 167.445C152.903 167.171 152.727 166.926 152.456 166.758C152.185 166.59 151.838 166.512 151.484 166.539C150.598 166.634 150.058 167.383 150.102 168.396C150.124 169.038 150.604 169.174 151.299 169.137Z" stroke="#F9F7F2" stroke-width="2.55984" mask="url(#path-143-inside-1_1406_1464)"/>
<path d="M188.413 171.712C188.448 172.436 188.479 173.161 188.513 173.882C188.537 174.149 188.441 174.419 188.242 174.647C188.044 174.874 187.754 175.044 187.424 175.128C186.754 175.355 186.343 175.144 185.895 174.744C184.902 173.86 184.891 172.753 185.244 171.754C185.72 170.406 184.993 169.423 184.351 168.393C183.779 167.481 183.772 167.02 184.595 166.655C184.803 166.566 185.03 166.512 185.262 166.496C185.494 166.48 185.724 166.503 185.939 166.562C186.154 166.622 186.348 166.717 186.508 166.842C186.669 166.966 186.792 167.118 186.87 167.286C187.533 168.714 188.046 170.192 188.634 171.645L188.413 171.712Z" stroke="#F9F7F2" stroke-width="2.55984" mask="url(#path-143-inside-1_1406_1464)"/>
<path d="M206.034 171.276C207.504 171.155 208.318 171.626 208.361 172.626C208.414 173.715 207.683 174.61 206.663 174.713C205.479 174.841 204.124 173.949 204.047 173C203.97 172.052 204.696 171.384 206.034 171.276Z" stroke="#F9F7F2" stroke-width="2.55984" mask="url(#path-143-inside-1_1406_1464)"/>
<path d="M189.718 160.63C189.786 161.458 189.222 162.031 188.242 162.137C187.986 162.161 187.728 162.142 187.487 162.083C187.245 162.024 187.025 161.926 186.839 161.794C186.653 161.663 186.505 161.501 186.406 161.319C186.307 161.137 186.258 160.938 186.263 160.736C186.21 159.93 186.903 159.195 187.78 159.134C188.737 159.054 189.645 159.758 189.718 160.63Z" stroke="#F9F7F2" stroke-width="2.55984" mask="url(#path-143-inside-1_1406_1464)"/>
</svg>
