<svg width="12" height="628" viewBox="0 0 12 628" fill="none" xmlns="http://www.w3.org/2000/svg">
<g clip-path="url(#clip0_1341_1302)">
<path d="M11.0275 1.55396V625.054L5.02747 619.554L3.52747 603.054L7.02747 427.554L4.02747 323.554L6.52747 176.054L4.52747 9.55396L11.0275 1.55396Z" fill="#F9F7F2"/>
<path d="M11.0274 622.644C10.9776 622.639 10.9273 622.639 10.8774 622.644C7.53744 622.234 6.10744 620.094 5.94744 616.804C5.78744 613.514 4.81744 610.214 4.94744 606.954C5.13744 601.724 6.33744 596.554 6.41744 591.344C6.63744 576.904 6.31744 562.344 6.57744 547.904C6.73744 539.094 7.93744 530.304 8.02744 521.494C8.46744 478.684 8.96744 435.874 8.87744 393.064C8.81744 368.434 5.87744 343.694 7.36744 319.194C10.1574 272.724 8.30744 226.274 8.88744 179.834C9.16744 157.194 8.02744 134.554 8.02744 111.904C8.02744 91.9739 8.85744 71.9739 8.85744 51.9739C8.85744 40.4039 7.10744 28.8239 7.29744 17.2739C7.38744 12.4039 8.72744 8.59398 10.9974 6.08398V0.143982C6.41744 2.06398 3.09744 5.82394 0.997437 11.6639V33.6639C1.73744 35.9239 3.10744 38.204 3.10744 40.454C2.98744 50.724 2.16744 60.994 2.16744 71.264C2.16744 79.874 3.00744 88.4939 3.41744 97.1039C3.73744 103.904 4.41744 110.724 4.11744 117.504C3.62744 129.114 2.52744 140.684 1.62744 152.274C1.49271 153.086 1.29204 153.885 1.02744 154.664V161.664C2.32744 169.564 4.76744 177.474 4.69744 185.364C4.54744 202.554 3.02744 219.794 2.24744 237.014C1.91744 243.954 2.24744 250.954 2.24744 257.954C2.16077 275.567 2.01744 293.181 1.81744 310.794C1.67947 312.435 1.41535 314.063 1.02744 315.664V322.664C1.77744 328.324 3.02744 333.984 3.14744 339.664C3.26744 348.774 2.63744 357.904 2.20744 367.024C1.97499 368.604 1.57955 370.156 1.02744 371.654V388.654C2.41744 400.134 4.82744 411.554 4.95744 423.084C5.15744 442.354 3.87744 461.634 3.26744 480.914C2.87744 493.044 2.59744 505.184 2.15744 517.324C1.93095 519.458 1.55334 521.573 1.02744 523.654V601.654C1.83729 603.17 2.50674 604.756 3.02744 606.394C3.22747 607.867 3.22747 609.361 3.02744 610.834C2.72744 618.254 4.37744 624.444 11.0274 627.554V622.644Z" fill="black"/>
</g>
<defs>
<clipPath id="clip0_1341_1302">
<rect width="627.41" height="10" fill="white" transform="translate(1.29285 627.558) rotate(-90.0485)"/>
</clipPath>
</defs>
</svg>
