<svg width="13" height="627" viewBox="0 0 13 627" fill="none" xmlns="http://www.w3.org/2000/svg">
<g clip-path="url(#clip0_1341_1317)">
<path d="M8.03223 610.646L1.03223 624.646V4.14648L9.53223 13.6465L11.0322 34.1465L8.53223 73.1465V114.646L10.0322 177.146L7.03223 318.146L9.53223 436.146L8.03223 513.646V573.646V610.646Z" fill="#F9F7F2"/>
<path d="M1.03223 0.306458V6.75647C3.05835 8.26538 4.70452 10.2262 5.83984 12.483C6.97517 14.7397 7.56835 17.2302 7.57223 19.7565C7.67223 25.8965 8.29223 32.0265 8.67223 38.1665H7.51223C6.79223 60.5965 5.51223 83.0265 5.51223 105.357C5.51223 122.107 7.62223 138.856 7.75223 155.616C7.87223 170.876 6.57223 186.156 5.94223 201.426C5.56223 210.726 5.03223 220.016 4.94223 229.316C4.65223 261.256 4.35223 293.256 4.44223 325.256C4.51223 337.206 6.03223 349.146 6.16223 361.096C6.36223 373.696 5.47223 386.316 5.64223 398.926C5.88223 416.516 7.03223 434.146 7.10223 451.696C7.10223 464.986 5.84223 478.276 5.62223 491.566C5.34223 508.336 5.70223 525.106 5.52223 541.876C5.27223 564.996 4.81223 588.146 4.34223 611.246C4.27223 614.486 3.11223 616.736 1.03223 618.146V626.146C6.16223 625.636 7.85223 623.896 8.48223 618.556C8.80223 615.786 10.0322 613.146 10.3422 610.346C10.7419 606.427 10.8822 602.485 10.7622 598.546C10.6022 592.766 9.87223 586.996 9.82223 581.206C9.71223 568.206 9.58223 555.086 10.0022 542.086C10.2922 533.086 11.4922 524.086 12.2922 515.086V383.086C11.9118 382.191 11.6366 381.255 11.4722 380.296C10.3722 361.166 9.40223 342.036 8.24223 322.906C7.60223 312.346 9.60223 302.176 12.3222 292.086V112.086V111.996V112.096C11.5022 109.656 10.0422 107.236 9.96223 104.766C9.57223 93.8865 9.23223 82.9765 9.58223 72.1065C9.78223 66.1065 11.3622 60.1065 12.3222 54.1065V54.2665C12.3166 54.21 12.3166 54.153 12.3222 54.0965V11.1465C10.0019 6.28073 5.98829 2.42703 1.03223 0.306458Z" fill="black"/>
</g>
<defs>
<clipPath id="clip0_1341_1317">
<rect width="625.84" height="11.29" fill="white" transform="translate(1.29688 626.151) rotate(-90.0485)"/>
</clipPath>
</defs>
</svg>
