<svg width="1021" height="250" viewBox="0 0 1021 250" fill="none" xmlns="http://www.w3.org/2000/svg">
<path d="M10.9312 5.50429C10.9312 1.3688 72.6063 2.70086 86.2509 2.70086C99.0895 2.70086 112.827 3.81226 125.25 4.95919C138.476 6.18019 152.292 6.263 165.54 7.45108C196.567 10.2336 230.582 9.70941 261.897 9.70941C288.455 9.70941 320.256 4.62711 346.347 7.45108C358.848 8.80416 374.745 6.81868 386.934 8.65814C395.301 9.92073 411.532 10.4103 420.773 10.4103L483.887 10.4103C519.444 10.4103 554.161 6.90598 589.672 6.90598C608.361 6.90598 626.191 7.60682 645.045 7.60682C676.246 7.60682 705.105 9.70941 737.036 9.70941C749.513 9.70941 763.022 11.812 775.44 11.812C789.384 11.812 804.052 11.1111 817.417 11.1111C853.258 11.1111 890.098 10.4103 926.477 10.4103C943.889 10.4103 961.23 9.00856 979.071 9.00856C985.514 9.00856 1014.43 8.72234 1013.01 7.60682M1013.8 7.60682C1009.04 19.7294 1018.37 88.099 1018.37 100.47V163.197C1018.37 172.541 1020.6 180.852 1016.68 190.919C1014.02 194.571 1014.8 201.285 1014.8 204.897V233.633C1014.8 235.775 1013.01 237.886 1013.01 240.291C1013.01 241.66 1014.75 246.564 1013.01 245.197C1007.43 245.197 1004.84 245.756 998.72 245.897C994.043 246.005 990.267 247.299 984.43 247.299C974.422 247.299 961.799 245.897 951.385 245.897H917.446C913.81 245.897 887.628 245.725 886.584 246.053C879.674 247.392 860.321 246.598 852.249 246.598L790.623 246.598C784.807 246.598 763.387 246.739 758.967 245.352C756.395 244.545 745.053 245.063 742.891 245.742C737.763 247.351 735.051 245.695 733.96 245.352M728.105 245.197C726.942 244.626 677.78 247.615 674.617 247.26C665.39 246.226 653.193 245.897 643.259 245.897C635.506 245.897 574.131 248.729 567.344 246.598C561.422 246.598 555.739 245.897 549.481 245.897C538.483 245.897 499.669 244.496 489.643 244.496C484.758 244.496 481.368 245.897 475.353 245.897H458.383C435.395 245.897 415.02 246.598 393.186 246.598C370.83 246.598 348.139 248 326.202 248C314.356 248 304.274 247.299 292.263 247.299C287.516 247.299 281.547 246.871 278.073 245.508C273.319 245.508 204.522 245.74 202.058 246.949C200.406 247.759 173.999 246.598 169.013 246.598C158.988 246.598 147.724 245.197 137.754 245.197C125.861 245.197 115.162 244.496 103.815 244.496C93.0306 244.496 83.0047 245.897 72.5563 245.897C65.1667 245.897 7.56795 243.839 7.35871 244.496L9.14494 229.778C9.14494 225.329 5.57249 219.904 5.57249 215.41C5.57249 208.409 7.35873 201.45 7.35873 194.385C7.35873 191.057 7.25214 165.745 9.14494 162.496C9.14494 157.094 2 123.294 2 117.991C2 108.029 5.90087 97.9294 7.35873 88.2051C8.91718 77.8098 5.57249 67.0207 5.57249 57.0171C5.57249 47.6291 4.38071 36.5784 7.35873 27.2308C7.35873 22.7528 12.7174 6.60948 12.7174 2M728.105 245.197C711.397 245.197 726.442 246.096 731.378 245.225M728.105 245.197C729.241 245.197 730.329 245.206 731.378 245.225M25.2211 4.10254C19.149 4.10254 37.0114 2.70085 43.0834 2.70085C49.9572 2.70085 56.9428 3.40169 64.5183 3.40169C79.0884 3.40169 122.653 4.80343 108.083 4.80343C79.0924 4.80343 48.0176 5.50428 18.0761 5.50428M100.243 4.80344L118.105 4.80344M1001.72 8.6454L755.687 8.6454C744.416 8.6454 752.868 8.30773 757.578 8.30773C763.829 8.30773 769.39 9.56977 775.44 9.70942C786.855 9.97286 798.409 11.1111 811.165 11.1111M754.005 8.30773C738.421 8.30773 724.746 9.00857 709.35 9.00857M531.638 8.91458C482.177 11.3404 424.791 7.84894 375.616 7.84894M317.234 6.83805C335.433 6.83805 269.379 8.30771 251.18 8.30771L194.02 8.30771C183.805 8.30771 174.577 7.60681 164.548 7.60681C156.026 7.60681 147.504 5.68809 139.54 5.50428C131.107 5.30963 122.937 2.70085 114.533 2.70085C102.562 2.70085 90.8361 3.85952 78.8082 4.80343M261.004 244.496C257.034 244.301 266.457 243.749 271.535 243.386M271.535 243.386C273.372 243.255 274.641 243.149 274.5 243.094C274.456 243.077 272.551 243.221 271.535 243.386ZM271.535 243.386C270.558 243.545 270.402 243.723 273.508 243.795C275.091 243.831 267.822 244.19 269.142 244.535C270.52 244.895 270.581 245.153 270.281 245.313M270.281 245.313C269.773 245.583 268.23 245.574 270.281 245.313ZM270.281 245.313C270.466 245.289 270.681 245.263 270.928 245.236C274.899 244.79 271.007 245.897 267.455 245.897H273.508M493.215 243.795C480.794 243.186 518.874 245.536 531.392 245.536M736.143 243.094C728.421 243.094 752.021 242.804 752.021 243.444C752.021 244.651 734.281 244.379 732.174 245.041C731.955 245.11 731.686 245.171 731.378 245.225M731.378 245.225C738.134 245.347 743.292 245.848 749.639 246.559C777.337 249.665 815.989 246.598 845.449 246.598" stroke="#242424" stroke-width="3" stroke-linecap="round"/>
</svg>
