<svg width="711" height="76" viewBox="0 0 711 76" fill="none" xmlns="http://www.w3.org/2000/svg">
<path d="M8.20879 3.02565C8.20879 1.81526 51.0843 2.20513 60.5697 2.20513C69.4949 2.20513 79.0448 2.53042 87.6814 2.8661C96.8758 3.22347 106.48 3.24771 115.69 3.59544C137.259 4.40984 160.906 4.25641 182.676 4.25641C201.138 4.25641 223.246 2.76891 241.384 3.59544C250.074 3.99146 261.125 3.41035 269.599 3.94872C275.416 4.31826 286.699 4.46154 293.124 4.46154L336.999 4.46154C361.718 4.46154 385.852 3.4359 410.539 3.4359C423.531 3.4359 435.926 3.64102 449.033 3.64102C470.724 3.64102 490.786 4.25641 512.984 4.25641C521.658 4.25641 531.049 4.8718 539.682 4.8718C549.375 4.8718 559.572 4.66666 568.863 4.66666C593.779 4.66666 619.39 4.46154 644.679 4.46154C656.784 4.46154 668.839 4.05129 681.242 4.05129C685.721 4.05129 705.824 3.96751 704.836 3.64102M705.383 3.64102C702.079 7.18909 708.561 27.1997 708.561 30.8205V49.1795C708.561 51.9145 710.11 54.3468 707.388 57.2935C705.54 58.3622 706.078 60.3273 706.078 61.3846V69.7949C706.078 70.4219 704.836 71.0399 704.836 71.7436C704.836 72.1445 706.047 73.5798 704.836 73.1795C700.954 73.1795 699.153 73.3433 694.902 73.3846C691.65 73.4162 689.025 73.7949 684.968 73.7949C678.01 73.7949 669.235 73.3846 661.995 73.3846L638.402 73.3846C635.874 73.3846 617.673 73.3342 616.947 73.4302C612.143 73.8221 598.689 73.5898 593.077 73.5898H550.237C546.194 73.5898 531.302 73.6311 528.23 73.2251C526.442 72.9888 518.557 73.1404 517.054 73.339C513.489 73.8102 511.604 73.3253 510.845 73.2251M506.775 73.1795C505.967 73.0126 471.79 73.8872 469.591 73.7835C463.177 73.4807 454.698 73.3846 447.792 73.3846C442.402 73.3846 399.735 74.2133 395.017 73.5898C390.9 73.5898 386.949 73.3846 382.599 73.3846C374.954 73.3846 347.97 72.9744 341 72.9744C337.605 72.9744 335.248 73.3846 331.066 73.3846H319.269C303.288 73.3846 289.124 73.5898 273.945 73.5898C258.404 73.5898 242.63 74 227.379 74C219.144 74 212.136 73.7949 203.786 73.7949C200.486 73.7949 196.336 73.6696 193.921 73.2707C190.616 73.2707 142.79 73.3387 141.077 73.6923C139.928 73.9295 121.57 73.5898 118.104 73.5898C111.136 73.5898 103.305 73.1795 96.3737 73.1795C88.1061 73.1795 80.6679 72.9744 72.7803 72.9744C65.2828 72.9744 58.313 73.3846 51.0495 73.3846C45.9123 73.3846 5.87074 72.7821 5.72528 72.9744L6.96703 68.6667C6.96703 67.3647 4.48353 65.7767 4.48353 64.4615C4.48353 62.4123 5.72529 60.3757 5.72529 58.3077C5.72529 57.3336 5.6512 49.9253 6.96703 48.9744C6.96703 47.3933 2 37.5007 2 35.9487C2 33.0329 4.71182 30.0769 5.72529 27.2308C6.8087 24.1882 4.48353 21.0305 4.48353 18.1026C4.48353 15.3549 3.65503 12.1205 5.72529 9.38461C5.72529 8.07399 9.45056 3.34911 9.45056 2M506.775 73.1795C495.16 73.1795 505.619 73.4426 509.05 73.1879M506.775 73.1795C507.565 73.1795 508.321 73.1824 509.05 73.1879M18.1429 2.61538C13.9217 2.61538 26.3393 2.20513 30.5605 2.20513C35.339 2.20513 40.1953 2.41025 45.4616 2.41025C55.5905 2.41025 85.8756 2.82052 75.7467 2.82052C55.5933 2.82052 33.9906 3.02564 13.1758 3.02564M70.2967 2.82052L82.7143 2.82052M696.986 3.945L525.95 3.945C518.114 3.945 523.99 3.84617 527.264 3.84617C531.61 3.84617 535.475 4.21554 539.682 4.25642C547.617 4.33352 555.649 4.66667 564.517 4.66667M524.781 3.84616C513.946 3.84616 504.44 4.05129 493.737 4.05129M370.195 4.02378C335.81 4.73376 295.917 3.71188 261.731 3.71188M221.145 3.41601C233.796 3.41601 187.877 3.84616 175.225 3.84616L135.489 3.84616C128.387 3.84616 121.972 3.64102 115 3.64102C109.076 3.64102 103.152 3.07944 97.6155 3.02564C91.7527 2.96867 86.0735 2.20513 80.2308 2.20513C71.9088 2.20513 63.7572 2.54425 55.3956 2.82052M182.055 72.9744C179.295 72.9174 185.846 72.7557 189.376 72.6497M189.376 72.6497C190.653 72.6113 191.535 72.5803 191.437 72.5641C191.406 72.559 190.082 72.6013 189.376 72.6497ZM189.376 72.6497C188.697 72.6962 188.588 72.7483 190.747 72.7692C191.848 72.7799 186.795 72.8848 187.712 72.9858C188.67 73.0913 188.713 73.1666 188.504 73.2134M188.504 73.2134C188.151 73.2926 187.078 73.29 188.504 73.2134ZM188.504 73.2134C188.633 73.2065 188.782 73.199 188.954 73.1909C191.714 73.0606 189.009 73.3846 186.539 73.3846H190.747M343.484 72.7692C334.849 72.5909 361.321 73.2789 370.023 73.2789M512.363 72.5641C506.995 72.5641 523.401 72.4792 523.401 72.6667C523.401 73.0198 511.069 72.9403 509.604 73.1339C509.451 73.154 509.264 73.172 509.05 73.1879M509.05 73.1879C513.747 73.2235 517.333 73.3701 521.745 73.5784C541 74.4872 567.871 73.5898 588.351 73.5898" stroke="#242424" stroke-width="3" stroke-linecap="round"/>
</svg>
