<svg width="209" height="49" viewBox="0 0 209 49" fill="none" xmlns="http://www.w3.org/2000/svg">
<path d="M3.80029 2.64103C3.80029 1.88454 16.2323 2.12821 18.9827 2.12821C21.5706 2.12821 24.3397 2.33151 26.844 2.54131C29.51 2.76467 32.2949 2.77982 34.9653 2.99715C41.2194 3.50615 48.076 3.41026 54.3884 3.41026C59.7417 3.41026 66.1519 2.48057 71.4111 2.99715C73.931 3.24466 77.1353 2.88147 79.5924 3.21795C81.2789 3.44891 84.5508 3.53846 86.4135 3.53846L99.1355 3.53846C106.303 3.53846 113.301 2.89743 120.459 2.89743C124.226 2.89743 127.82 3.02564 131.621 3.02564C137.91 3.02564 143.727 3.41026 150.164 3.41026C152.679 3.41026 155.402 3.79488 157.905 3.79488C160.716 3.79488 163.672 3.66666 166.366 3.66666C173.591 3.66666 181.017 3.53846 188.35 3.53846C191.86 3.53846 195.355 3.28205 198.951 3.28205C200.25 3.28205 206.079 3.2297 205.793 3.02564M205.951 3.02564C204.993 5.24318 206.873 17.7498 206.873 20.0128V31.4872C206.873 33.1966 207.322 34.7168 206.533 36.5584C205.997 37.2264 206.153 38.4546 206.153 39.1154V44.3718C206.153 44.7637 205.793 45.1499 205.793 45.5898C205.793 45.8403 206.144 46.7374 205.793 46.4872C204.667 46.4872 204.145 46.5896 202.912 46.6154C201.969 46.6351 201.208 46.8718 200.032 46.8718C198.014 46.8718 195.47 46.6154 193.371 46.6154H186.529C185.797 46.6154 180.519 46.5839 180.308 46.6439C178.916 46.8888 175.015 46.7436 173.387 46.7436H160.965C159.793 46.7436 155.475 46.7694 154.584 46.5157C154.066 46.368 151.78 46.4628 151.344 46.5869C150.31 46.8814 149.764 46.5783 149.544 46.5157M148.363 46.4872C148.129 46.3829 138.219 46.9295 137.582 46.8647C135.722 46.6755 133.263 46.6154 131.261 46.6154C129.698 46.6154 117.326 47.1333 115.958 46.7436C114.764 46.7436 113.619 46.6154 112.358 46.6154C110.141 46.6154 102.317 46.359 100.296 46.359C99.3111 46.359 98.6278 46.6154 97.4152 46.6154H93.9947C89.3608 46.6154 85.2538 46.7436 80.8526 46.7436C76.3462 46.7436 71.7724 47 67.3504 47C64.9626 47 62.9304 46.8718 60.5093 46.8718C59.5524 46.8718 58.3491 46.7935 57.6489 46.5442C56.6906 46.5442 42.823 46.5867 42.3264 46.8077C41.9934 46.9559 36.6704 46.7436 35.6654 46.7436C33.6447 46.7436 31.374 46.4872 29.3644 46.4872C26.9671 46.4872 24.8104 46.359 22.5233 46.359C20.3493 46.359 18.3284 46.6154 16.2223 46.6154C14.7327 46.6154 3.12235 46.2388 3.08017 46.359L3.44023 43.6667C3.44023 42.8529 2.72012 41.8604 2.72012 41.0385C2.72012 39.7577 3.08018 38.4848 3.08018 37.1923C3.08018 36.5835 3.05869 31.9533 3.44023 31.359C3.44023 30.3708 2 24.188 2 23.218C2 21.3956 2.78631 19.5481 3.08018 17.7692C3.39432 15.8676 2.72012 13.894 2.72012 12.0641C2.72012 10.3468 2.47989 8.32532 3.08018 6.61538C3.08018 5.79625 4.16035 2.8432 4.16035 2M148.363 46.4872C144.996 46.4872 148.028 46.6516 149.023 46.4924M148.363 46.4872C148.592 46.4872 148.812 46.489 149.023 46.4924M6.68075 2.38461C5.45679 2.38461 9.05736 2.1282 10.2813 2.1282C11.6669 2.1282 13.075 2.25641 14.602 2.25641C17.539 2.25641 26.3204 2.51282 23.3834 2.51282C17.5398 2.51282 11.2759 2.64103 5.24051 2.64103M21.8032 2.51282H25.4037M203.517 3.21562L153.923 3.21562C151.651 3.21562 153.355 3.15385 154.304 3.15385C155.564 3.15385 156.685 3.38471 157.905 3.41026C160.206 3.45845 162.535 3.66667 165.106 3.66667M153.584 3.15385C150.443 3.15385 147.686 3.28206 144.583 3.28206M108.761 3.26486C98.7908 3.7086 87.2233 3.06993 77.311 3.06993M65.5427 2.88501C69.2111 2.88501 55.8965 3.15385 52.228 3.15385L40.7062 3.15385C38.647 3.15385 36.7869 3.02564 34.7652 3.02564C33.0475 3.02564 31.3298 2.67465 29.7244 2.64103C28.0245 2.60542 26.3778 2.1282 24.6836 2.1282C22.2706 2.1282 19.907 2.34016 17.4825 2.51282M54.2083 46.359C53.4081 46.3234 55.3074 46.2223 56.331 46.1561M56.331 46.1561C56.7014 46.1321 56.9571 46.1127 56.9288 46.1026C56.9198 46.0994 56.5359 46.1258 56.331 46.1561ZM56.331 46.1561C56.1341 46.1851 56.1027 46.2177 56.7287 46.2308C57.0478 46.2375 55.5827 46.303 55.8486 46.3661C56.1264 46.4321 56.1388 46.4792 56.0782 46.5084M56.0782 46.5084C55.9758 46.5579 55.6648 46.5562 56.0782 46.5084ZM56.0782 46.5084C56.1156 46.5041 56.1588 46.4994 56.2087 46.4943C57.0091 46.4129 56.2245 46.6154 55.5085 46.6154H56.7287M101.016 46.2308C98.512 46.1193 106.188 46.5493 108.711 46.5493M149.984 46.1026C148.427 46.1026 153.184 46.0495 153.184 46.1667C153.184 46.3874 149.608 46.3377 149.184 46.4587C149.139 46.4713 149.085 46.4825 149.023 46.4924M149.023 46.4924C150.385 46.5147 151.425 46.6063 152.704 46.7365C158.287 47.3045 166.078 46.7436 172.017 46.7436" stroke="#242424" stroke-width="3" stroke-linecap="round"/>
</svg>
