<svg xmlns="http://www.w3.org/2000/svg" viewBox="0 0 627.41 10"><g id="Calque_2" data-name="Calque 2"><g id="Calque_1-2" data-name="Calque 1"><path d="M4.91,10a.77.77,0,0,0,0-.15c.41-3.34,2.55-4.77,5.84-4.93s6.59-1.13,9.85-1C25.83,4.11,31,5.31,36.21,5.39c14.44.22,29-.1,43.44.16,8.81.16,17.6,1.36,26.41,1.45,42.81.44,85.62.94,128.43.85,24.63-.06,49.37-3,73.87-1.51,46.47,2.79,92.92.94,139.36,1.52C470.36,8.14,493,7,515.65,7c19.93,0,39.93.83,59.93.83,11.57,0,23.15-1.75,34.7-1.56,4.87.09,8.68,1.43,11.19,3.7h5.94c-1.92-4.58-5.68-7.9-11.52-10h-22c-2.26.74-4.54,2.11-6.79,2.11-10.27-.12-20.54-.94-30.81-.94-8.61,0-17.23.84-25.84,1.25-6.8.32-13.62,1-20.4.7C498.44,2.6,486.87,1.5,475.28.6A15.14,15.14,0,0,1,472.89,0h-7c-7.9,1.3-15.81,3.74-23.7,3.67C425,3.52,407.76,2,390.54,1.22c-6.94-.33-13.94,0-20.94,0q-26.42-.13-52.84-.43A32.09,32.09,0,0,1,311.89,0h-7c-5.66.75-11.32,2-17,2.12-9.11.12-18.24-.51-27.36-.94A23.13,23.13,0,0,1,255.9,0h-17C227.42,1.39,216,3.8,204.47,3.93c-19.27.2-38.55-1.08-57.83-1.69-12.13-.39-24.27-.67-36.41-1.11A45.37,45.37,0,0,1,103.9,0h-78a28.17,28.17,0,0,1-4.74,2,16.5,16.5,0,0,1-4.44,0C9.3,1.7,3.11,3.35,0,10Z"/></g></g></svg>