<svg width="10" height="385" viewBox="0 0 10 385" fill="none" xmlns="http://www.w3.org/2000/svg">
<g clip-path="url(#clip0_985_925)">
<path d="M2.5 358L8.5 381.5H24L14 0L8 1L3 9L4.5 112V204L1.5 268L6 300.5L2.5 327V358Z" fill="#F9F7F2" stroke="black"/>
<path d="M9.72 376.75C8.76868 375.136 8.18165 373.334 8 371.47C7 363.61 5.72 355.75 4.05 348C2.12 339 4.56 330.75 6.12 322C7.68 313.25 9.2 303.81 7.45 295.35C5.9 287.93 5.17 280.43 3.6 273.12C1.26 262.18 3.38 252.05 5.5 241.63C6.32131 237.582 6.78974 233.469 6.9 229.34C7.34 211.21 7.9 193.07 7.9 174.93C7.9 163.98 6.75 153.07 6.52 142.07C6.38 135.07 7.19 128.07 7.19 121.07C7.19 112.07 6.54 103.18 6.54 94.24C6.54 82.43 6.93 70.62 7 58.8C7 44 8.59 29.24 5.74 14.51C5.27 12.15 5.74 9.51 6.03 7.09C6.0822 6.03462 6.46741 5.0229 7.13036 4.20006C7.7933 3.37722 8.69989 2.78556 9.72 2.51V0C5.16 1.27 1.66 4.26 0 10.24V107.24C0.3 108.33 0.67 109.43 1.05 110.52C1.34 111.34 1.63 112.17 1.91 112.99C2.01 113.26 2.1 113.53 2.19 113.81C2.84492 115.649 3.23875 117.571 3.36 119.52C3.36 119.79 3.36 120.06 3.36 120.32C2.8 132.86 1.56 145.37 0.46 157.88C0.3 159.67 0.15 161.46 0 163.24V169.24C3.1 186.78 2.46 204.4 1 222C0.789306 222.789 0.451558 223.539 0 224.22L0 297.22C3.26 305.22 2.61 313.22 0 321.22V368.22C0.63 370.9 1.63 373.54 1.87 376.22C2.29 381.92 3.94 383.73 9.53 384.38H9.72V376.75Z" fill="black"/>
</g>
<defs>
<clipPath id="clip0_985_925">
<rect width="9.72" height="384.46" fill="white"/>
</clipPath>
</defs>
</svg>
