<svg xmlns="http://www.w3.org/2000/svg" viewBox="0 0 12.35 390.32"><g id="Calque_2" data-name="Calque 2"><g id="Calque_1-2" data-name="Calque 1"><path d="M10.05,311.43A160.51,160.51,0,0,1,9.8,294c.63-14.58,1.57-29.16,2.31-43.75a10.86,10.86,0,0,0-.47-4.9c-8-17.3-3.33-34.92-1.65-52.51,1-10.23,2.21-20.53,2-30.77-.26-13.36-2.05-26.68-2.69-40a62.36,62.36,0,0,1,1.54-14.79,48.07,48.07,0,0,0,0-18.13C9.45,81.28,10.52,73,10.61,64.9c0-1.83.54-3.64.54-5.47.38-13.13.43-26.28,1.14-39.4C12.84,10.12,9.05,3.49,0,0V7c5.66,1.85,8.69,6.14,8.26,11.76a6.37,6.37,0,0,1-.51,2.89C1.31,31.3,3.76,42.31,5,52.2,6.45,63.13,7.06,74,7.38,84.9,7.6,92.68,6.45,100.27,5.2,108c-1.67,10.34-.66,21.51,1.18,32,1.74,9.94.71,19.48.07,29.23-.89,12.77-1.68,25.55-2,38.34-.34,13.49-.31,27,0,40.49.19,8.16,1.84,16.32,1.75,24.46C6,287,4.72,301.41,4.52,315.86,4.44,321.41,6.68,327,6.8,332.55c.26,12.68,0,25.34-.29,38A15.28,15.28,0,0,1,0,383v7.32c7.93-4.33,11.7-11.49,12.05-20.21.47-12.65.33-25.34,0-38C11.87,325.21,10.51,318.34,10.05,311.43Z"/></g></g></svg>