<svg width="668" height="415" viewBox="0 0 668 415" fill="none" xmlns="http://www.w3.org/2000/svg">
<mask id="path-1-inside-1_1499_1767" fill="white">
<path d="M410.221 414.899H351.983C345.205 411.184 337.767 410.978 330.303 410.609C309.558 409.511 289.01 412.669 268.359 413.561C266.291 413.655 263.889 413.261 262.061 414.925H117.325C117.179 413.981 116.373 414.067 115.721 413.895C105.348 411.081 94.7783 412.068 84.3456 412.934C74.9768 413.724 65.608 414.813 56.3164 413.398C47.9181 411.979 39.3402 411.994 30.9468 413.441C26.4806 414.385 21.8394 414.064 17.5456 412.514C15.0076 411.596 12.3538 411.035 9.66108 410.85C4.0415 410.421 1.88805 407.898 1.71646 402.167C1.64782 399.482 2.52293 396.505 0.000557441 394.343V342.943C3.01196 335.17 2.20549 327.268 0.678338 319.366C0.678338 319.195 0.232204 319.092 0.000557441 318.963V239.303C1.71646 238.213 1.51055 236.377 1.55345 234.781C1.80225 224.529 2.26555 214.259 1.99958 204.015C1.87089 198.945 2.85753 193.548 0.000557441 188.761V170.744C0.669759 170.615 0.755554 170.075 0.944303 169.534C2.45909 164.958 3.01401 160.118 2.57441 155.318C1.86231 146.078 4.5048 136.906 3.26077 127.7C2.79748 124.269 3.47526 120.21 -0.0166016 117.671V12.3318C3.32082 5.07358 9.12057 2.03644 16.8936 2.36246C18.7359 2.53347 20.5858 2.61079 22.436 2.59411C24.5723 2.46541 27.0517 2.94587 28.2614 0.320538H78.7861C83.5883 1.39671 88.5691 1.39671 93.3713 0.320538H113.104C113.404 1.53883 114.417 1.10127 115.18 1.17849C127.835 2.56837 140.704 1.93348 153.445 2.65416C167.944 3.46922 182.521 2.70564 197.063 2.98876C207.573 3.19467 218.006 5.31381 228.567 4.63603C237.28 4.02791 245.916 2.59151 254.357 0.346277H272.374C273.506 1.68468 275.162 1.70184 276.664 1.77905C285.192 2.19087 293.737 2.36246 302.256 2.86007C309.506 3.30709 316.777 2.44689 323.722 0.320538H351.983C352.532 1.93348 353.914 1.17849 354.883 1.17849C373.518 2.03644 392.17 1.44445 410.804 1.56457C418.869 1.61604 427.105 1.64178 434.998 2.73138C451.223 4.83742 467.641 4.99008 483.902 3.18609C487.591 2.80859 491.778 3.02308 494.995 0.2948H506.148C506.835 1.92491 508.456 1.35866 509.486 1.35008C522.63 1.28144 535.61 3.57217 548.737 3.82955C555.601 3.96683 562.361 2.11365 569.113 2.07076C578.903 2.07076 588.752 -0.0140624 598.524 2.50831C599.845 2.85149 601.364 2.50831 602.814 2.39678C607.644 1.95935 612.506 1.99383 617.33 2.49973C622.014 3.02308 626.991 3.8124 631.177 0.320538H654.342C656.221 1.72758 658.632 1.95922 660.605 3.25473C664.329 5.69131 665.77 9.69793 668.001 13.1898V38.9283C666.542 39.7862 667.023 41.2019 667.031 42.3601C667.053 56.9756 666.292 71.5817 664.749 86.1156C664.171 90.6135 665.334 95.1624 668.001 98.8304V110.842C667.331 110.97 667.246 111.494 667.065 112.043C664.054 121.051 664.054 130.394 664.912 139.677C665.195 142.929 665.427 146.653 668.044 149.364V198.19C666.465 198.927 666.757 200.558 666.405 201.819C663.376 212.62 663.539 223.774 662.887 234.824C662.355 243.85 662.441 252.841 668.035 260.717V285.555C667.349 285.675 667.177 286.172 667.117 286.756C664.895 300.011 665.341 313.395 665.126 326.736C665.066 330.288 665.504 333.994 668.035 336.946V398.624C666.535 400.106 665.348 401.874 664.543 403.823C662.321 408.593 659.944 413.261 654.333 414.899H605.516C600.274 412.849 594.466 412.325 589.215 412.42C580.816 412.557 572.21 409.571 563.906 413.192C563.382 413.415 562.559 412.943 561.872 412.797C556.64 411.603 551.152 412.35 546.429 414.899H439.34C437.255 412.926 434.569 413.758 432.21 413.638C424.857 413.261 417.436 412.54 410.221 414.899Z"/>
</mask>
<path d="M643.412 409.752L643.446 407.178L640.838 407.143V409.752H643.412ZM661.995 391.083L664.569 391.084V391.083H661.995ZM661.995 352.543H659.421L659.421 352.555L661.995 352.543ZM661.566 339.365L663.993 338.507L663.992 338.505L661.566 339.365ZM659.85 300.363L657.285 300.155L657.284 300.159L659.85 300.363ZM661.961 266.714L664.534 266.722L664.535 266.705L664.534 266.688L661.961 266.714ZM660.176 258.932L657.821 259.97L657.834 260L657.848 260.031L660.176 258.932ZM656.856 244.193L654.345 243.626L654.343 243.635L656.856 244.193ZM658.906 221.243L656.332 221.243L656.332 221.246L658.906 221.243ZM661.952 179.092L659.383 179.253L659.383 179.255L661.952 179.092ZM662.527 169.294L659.963 169.069L659.963 169.072L662.527 169.294ZM660.871 148.574L663.319 147.778L663.318 147.776L660.871 148.574ZM660.631 112.746L658.155 112.042L658.15 112.06L658.145 112.078L660.631 112.746ZM662.647 96.3423L665.219 96.2584L665.219 96.2493L665.219 96.2402L662.647 96.3423ZM660.931 46.4268L658.357 46.4461L658.357 46.448L660.931 46.4268ZM663.17 22.4042L665.669 23.0208L665.67 23.0186L663.17 22.4042ZM652.352 6.51494L652.521 3.94664L652.508 3.94585L652.352 6.51494ZM620.444 7.31283L620.721 9.87178L620.729 9.87088L620.444 7.31283ZM592.904 7.84476L593.21 5.28915L593.202 5.28814L592.904 7.84476ZM583.141 7.56164L583.274 10.1321L583.282 10.1316L583.289 10.1312L583.141 7.56164ZM556.784 8.47964L557.069 5.92157L557.069 5.92154L556.784 8.47964ZM504.45 6.69511L504.756 4.13959L504.746 4.13836L504.45 6.69511ZM482.649 8.74561L482.441 6.18022L482.44 6.18029L482.649 8.74561ZM446.383 10.0669L446.1 12.625L446.1 12.625L446.383 10.0669ZM402.963 7.64743L402.965 5.07358H402.963V7.64743ZM328.124 6.51494L328.202 3.94226L328.196 3.9421L328.124 6.51494ZM266.6 6.30045L266.504 8.87253L266.509 8.87268L266.6 6.30045ZM240.004 9.35475L240.463 11.8873L240.471 11.8858L240.479 11.8842L240.004 9.35475ZM214.874 10.4358L215.114 7.87314L215.106 7.87235L214.874 10.4358ZM192.327 8.98583L192.33 6.41198H192.327V8.98583ZM149.095 8.71987L149.169 6.14707L149.168 6.14705L149.095 8.71987ZM100.93 6.56642L100.989 3.99324L100.988 3.99322L100.93 6.56642ZM51.735 6.42914L51.6658 9.00206L51.6676 9.00211L51.735 6.42914ZM30.5436 4.36148L31.3887 1.93033L31.3884 1.93023L30.5436 4.36148ZM9.55812 6.23181L9.48364 3.65904L9.44012 3.6603L9.39666 3.66303L9.55812 6.23181ZM6.79552 9.166L4.37 8.30487L4.35496 8.34724L4.34141 8.39011L6.79552 9.166ZM3.42378 288.772L0.929135 289.406L0.930835 289.412L3.42378 288.772ZM4.35894 298.51L6.89833 298.93L6.89964 298.922L4.35894 298.51ZM6.58104 316.921L9.11966 316.497L9.11767 316.485L6.58104 316.921ZM7.01859 341.476L4.46648 341.142L4.46517 341.152L4.46393 341.162L7.01859 341.476ZM3.58679 367.892L6.12674 367.476L6.12594 367.471L3.58679 367.892ZM5.85178 376.909L8.42166 377.053L8.42225 377.041L5.85178 376.909ZM7.72211 401.91L5.15365 402.076L5.15422 402.085L7.72211 401.91ZM10.356 404.93L10.0849 407.489L10.0885 407.49L10.356 404.93ZM35.0736 406.603L34.5679 404.079L34.3575 404.121L34.1571 404.198L35.0736 406.603ZM36.7895 406.603L36.2838 409.127L36.4681 409.163L36.6558 409.173L36.7895 406.603ZM62.3907 407.881L62.3726 410.455L62.3744 410.455L62.3907 407.881ZM102.929 406.354L103.33 408.896L103.332 408.896L102.929 406.354ZM124.489 408.842L124.509 406.268L124.507 406.268L124.489 408.842ZM177.545 409.305L177.532 411.879L177.533 411.879L177.545 409.305ZM237.85 408.808L237.872 406.234L237.871 406.234L237.85 408.808ZM291.626 407.332L291.175 404.798L291.168 404.799L291.626 407.332ZM299.768 404.475L299.688 407.048L299.689 407.048L299.768 404.475ZM330.577 404.544L330.532 401.97L330.53 401.97L330.577 404.544ZM354.6 408.078L354.796 405.512L354.789 405.512L354.6 408.078ZM414.013 407.855L414.229 410.42L414.246 410.419L414.263 410.417L414.013 407.855ZM434.518 407.778L434.775 405.217L434.762 405.216L434.748 405.215L434.518 407.778ZM488.698 410.283L488.638 412.857L488.638 412.857L488.698 410.283ZM550.933 407.761L550.732 405.195L550.727 405.195L550.933 407.761ZM603.457 408.945L603.072 411.49L603.075 411.49L603.457 408.945ZM623.001 410.721L623.342 408.17L623.335 408.169L623.001 410.721ZM643.412 409.769L643.334 412.341L645.986 412.421V409.769H643.412ZM643.378 412.325C649.937 412.412 655.36 410.76 659.126 406.975C662.883 403.198 664.564 397.726 664.569 391.084L659.421 391.081C659.417 396.922 657.942 400.866 655.476 403.344C653.02 405.813 649.155 407.254 643.446 407.178L643.378 412.325ZM664.569 391.083C664.569 378.23 664.629 365.39 664.569 352.531L659.421 352.555C659.481 365.401 659.421 378.196 659.421 391.083H664.569ZM664.569 352.543C664.569 351.524 664.625 350.463 664.694 349.333C664.761 348.226 664.842 347.033 664.878 345.858C664.948 343.521 664.854 340.944 663.993 338.507L659.139 340.223C659.676 341.742 659.797 343.545 659.732 345.703C659.7 346.776 659.626 347.86 659.555 349.02C659.486 350.157 659.421 351.354 659.421 352.543H664.569ZM663.992 338.505C659.638 326.227 661.375 313.685 662.416 300.566L657.284 300.159C656.283 312.779 654.331 326.662 659.14 340.225L663.992 338.505ZM662.415 300.571C663.318 289.439 664.5 278.126 664.534 266.722L659.387 266.706C659.353 277.849 658.201 288.86 657.285 300.155L662.415 300.571ZM664.534 266.688C664.504 263.625 663.811 260.605 662.504 257.834L657.848 260.031C658.839 262.13 659.364 264.419 659.387 266.74L664.534 266.688ZM662.532 257.895C660.348 252.936 658.441 248.931 659.369 244.75L654.343 243.635C652.971 249.818 655.886 255.577 657.821 259.97L662.532 257.895ZM659.367 244.76C661.146 236.878 661.489 228.956 661.48 221.24L656.332 221.246C656.341 228.835 655.998 236.305 654.345 243.626L659.367 244.76ZM661.48 221.243C661.48 214.368 662.438 207.567 663.321 200.502C664.195 193.507 664.988 186.29 664.521 178.929L659.383 179.255C659.817 186.083 659.087 192.869 658.213 199.864C657.348 206.791 656.332 213.97 656.332 221.243H661.48ZM664.521 178.93C664.331 175.917 664.788 173.01 665.091 169.516L659.963 169.072C659.699 172.115 659.161 175.729 659.383 179.253L664.521 178.93ZM665.091 169.519C665.712 162.431 665.706 155.114 663.319 147.778L658.423 149.371C660.498 155.744 660.56 162.258 659.963 169.069L665.091 169.519ZM663.318 147.776C659.644 136.509 660.025 124.908 663.116 113.415L658.145 112.078C654.854 124.316 654.377 136.96 658.424 149.372L663.318 147.776ZM663.106 113.451C664.696 107.864 665.409 102.064 665.219 96.2584L660.075 96.4262C660.247 101.699 659.599 106.967 658.155 112.042L663.106 113.451ZM665.219 96.2402C664.556 79.5515 663.642 62.9958 663.505 46.4056L658.357 46.448C658.495 63.1462 659.417 79.8618 660.075 96.4444L665.219 96.2402ZM663.505 46.4075C663.445 38.4712 663.799 30.6005 665.669 23.0208L660.671 21.7876C658.647 29.9941 658.297 38.373 658.357 46.4461L663.505 46.4075ZM665.67 23.0186C666.71 18.786 665.405 14.1883 663.051 10.6802C660.705 7.18231 656.951 4.239 652.521 3.94667L652.182 9.0832C654.513 9.23701 656.992 10.888 658.776 13.548C660.554 16.1979 661.278 19.3217 660.671 21.7897L665.67 23.0186ZM652.508 3.94585C641.722 3.28858 630.899 3.55922 620.16 4.75478L620.729 9.87088C631.176 8.70794 641.703 8.44469 652.195 9.08402L652.508 3.94585ZM620.168 4.75389C611.006 5.74439 602.081 6.35131 593.21 5.28917L592.598 10.4004C602.071 11.5346 611.472 10.8717 620.721 9.87177L620.168 4.75389ZM593.202 5.28814C589.813 4.89409 586.397 4.79504 582.992 4.99208L583.289 10.1312C586.397 9.95136 589.515 10.0418 592.607 10.4014L593.202 5.28814ZM583.008 4.99122C573.83 5.46578 565.435 6.8521 557.069 5.92157L556.5 11.0377C565.413 12.029 574.863 10.5669 583.274 10.1321L583.008 4.99122ZM557.069 5.92154C548.167 4.93243 539.27 5.01163 530.568 5.06827C521.815 5.12526 513.253 5.15966 504.756 4.13961L504.143 9.25061C513.011 10.3154 521.892 10.2726 530.602 10.2159C539.364 10.1588 547.952 10.0879 556.5 11.0378L557.069 5.92154ZM504.746 4.13836C500.699 3.66941 496.799 4.076 493.12 4.63165C489.334 5.20341 485.968 5.89356 482.441 6.18022L482.858 11.311C486.614 11.0057 490.446 10.2416 493.889 9.72162C497.438 9.18552 500.796 8.86286 504.153 9.25185L504.746 4.13836ZM482.44 6.18029C470.149 7.1834 458.417 8.81145 446.667 7.50868L446.1 12.625C458.493 13.9991 470.972 12.2811 482.858 11.3109L482.44 6.18029ZM446.667 7.50868C432.155 5.89958 417.566 5.08667 402.965 5.07358L402.96 10.2213C417.373 10.2342 431.775 11.0366 446.1 12.625L446.667 7.50868ZM402.963 5.07358C378.034 5.07358 353.113 4.69648 328.202 3.94227L328.046 9.08761C353.009 9.84339 377.982 10.2213 402.963 10.2213V5.07358ZM328.196 3.9421C317.892 3.65301 307.584 3.78265 297.341 3.8919C287.079 4.00135 276.876 4.09045 266.691 3.72823L266.509 8.87268C276.829 9.23971 287.144 9.14864 297.396 9.03931C307.666 8.92978 317.867 8.80204 328.051 9.08778L328.196 3.9421ZM266.696 3.72838C257.353 3.38102 248.26 5.1826 239.528 6.82527L240.479 11.8842C249.352 10.2152 257.848 8.55068 266.504 8.87252L266.696 3.72838ZM239.544 6.82224C231.487 8.2839 223.268 8.63748 215.114 7.87316L214.634 12.9984C223.254 13.8065 231.944 13.4327 240.463 11.8873L239.544 6.82224ZM215.106 7.87235C207.649 7.19909 200.048 6.42073 192.33 6.41199L192.324 11.5597C199.758 11.5681 207.086 12.3169 214.643 12.9992L215.106 7.87235ZM192.327 6.41198C177.878 6.41198 163.517 6.5575 149.169 6.14707L149.022 11.2927C163.466 11.7059 177.949 11.5597 192.327 11.5597V6.41198ZM149.168 6.14705C141.178 5.92082 133.187 5.4768 125.152 5.0409C117.129 4.60567 109.065 4.17875 100.989 3.99324L100.871 9.13959C108.855 9.323 116.844 9.74545 124.873 10.181C132.89 10.616 140.952 11.0642 149.022 11.2927L149.168 6.14705ZM100.988 3.99322C92.7435 3.80771 84.5006 3.88118 76.3086 3.94653C68.1027 4.01199 59.9453 4.06934 51.8023 3.85617L51.6676 9.00211C59.9115 9.21792 68.1538 9.15945 76.3497 9.09407C84.5596 9.02858 92.7207 8.9562 100.872 9.13962L100.988 3.99322ZM51.8042 3.85622C44.4142 3.65747 38.0992 4.26302 31.3887 1.93033L29.6985 6.79263C37.4016 9.47038 45.0196 8.82332 51.6658 9.00206L51.8042 3.85622ZM31.3884 1.93023C27.447 0.56068 23.377 1.12145 19.7784 1.85443C15.958 2.6326 12.7443 3.56465 9.48364 3.65904L9.63261 8.80459C13.4844 8.69308 17.5289 7.56604 20.8059 6.89856C24.3047 6.1859 27.1712 5.91446 29.6988 6.79274L31.3884 1.93023ZM9.39666 3.66303C7.76587 3.76554 6.58629 4.60998 5.80826 5.56872C5.08737 6.45705 4.65477 7.50276 4.37 8.30487L9.22105 10.0271C9.32926 9.72232 9.43446 9.46443 9.54084 9.24911C9.6481 9.03197 9.73903 8.89422 9.8054 8.81243C9.86898 8.73409 9.88704 8.73529 9.84822 8.75761C9.79777 8.78661 9.74272 8.79914 9.71959 8.8006L9.39666 3.66303ZM4.34141 8.39011C4.26002 8.64752 3.97156 9.27107 3.43403 10.3096C2.84923 11.4394 2.4024 12.2528 1.70211 13.6011C1.09693 14.7662 0.480163 15.999 0.0156944 17.1007C-0.216587 17.6517 -0.429721 18.214 -0.585168 18.7484C-0.728743 19.2419 -0.880113 19.8979 -0.856182 20.5735L4.28829 20.3913C4.29334 20.5337 4.26644 20.4998 4.35765 20.1862C4.43699 19.9135 4.56896 19.5515 4.75908 19.1005C5.13941 18.1984 5.67662 17.1169 6.27033 15.9739C6.76893 15.0139 7.56592 13.5254 8.00564 12.6758C8.49263 11.735 9.00937 10.7019 9.24964 9.9419L4.34141 8.39011ZM-0.483194 262.604C-2.78179 271.013 -1.12838 281.305 0.929144 289.406L5.91841 288.138C3.89209 280.161 2.55983 270.995 4.48236 263.961L-0.483194 262.604ZM0.930835 289.412C1.72368 292.499 2.23394 295.533 1.81825 298.098L6.89964 298.922C7.49633 295.24 6.73682 291.325 5.91672 288.132L0.930835 289.412ZM1.81957 298.09C1.21857 301.725 1.56888 305.163 2.1534 308.347C2.44468 309.934 2.80296 311.501 3.13927 312.99C3.48011 314.499 3.79985 315.935 4.0444 317.357L9.11767 316.485C8.84745 314.913 8.49907 313.355 8.16051 311.856C7.81743 310.337 7.48506 308.881 7.21653 307.418C6.68143 304.503 6.43546 301.729 6.89832 298.93L1.81957 298.09ZM4.04244 317.346C5.35823 325.213 5.50113 333.233 4.46648 341.142L9.5707 341.81C10.6713 333.396 10.5193 324.866 9.11963 316.497L4.04244 317.346ZM4.46393 341.162C3.93999 345.429 2.77257 349.375 1.80274 353.983C0.865253 358.438 0.201528 363.213 1.04764 368.313L6.12594 367.471C5.43632 363.314 5.94799 359.282 6.84008 355.044C7.69983 350.958 9.01618 346.326 9.57325 341.79L4.46393 341.162ZM1.04684 368.308C1.35161 370.168 2.07644 371.976 2.54157 373.301C3.05656 374.769 3.33044 375.819 3.28131 376.777L8.42225 377.041C8.52755 374.988 7.92632 373.1 7.3989 371.597C6.82161 369.952 6.33674 368.757 6.12674 367.476L1.04684 368.308ZM3.28192 376.766C3.03387 381.213 3.38571 385.55 3.84904 389.741C4.3197 393.997 4.88837 397.988 5.15366 402.076L10.2906 401.743C10.0153 397.501 9.41291 393.221 8.96556 389.175C8.51089 385.063 8.19782 381.065 8.42163 377.053L3.28192 376.766ZM5.15422 402.085C5.2231 403.095 5.39985 404.494 6.30921 405.644C7.31279 406.913 8.75149 407.348 10.0849 407.489L10.6272 402.37C10.2873 402.334 10.1568 402.282 10.1434 402.276C10.1421 402.276 10.1713 402.289 10.216 402.322C10.2621 402.357 10.3078 402.401 10.3469 402.451C10.4261 402.551 10.4206 402.599 10.3899 402.484C10.3558 402.356 10.3169 402.129 10.29 401.735L5.15422 402.085ZM10.0885 407.49C11.9879 407.688 13.9082 408.076 15.9295 408.522C17.9088 408.96 20.0392 409.468 22.158 409.839C26.4481 410.591 31.1097 410.868 35.99 409.008L34.1571 404.198C30.5266 405.581 26.9347 405.45 23.0463 404.769C21.0759 404.424 19.1359 403.959 17.0408 403.496C14.9876 403.042 12.8294 402.6 10.6235 402.37L10.0885 407.49ZM35.5792 409.127C35.8118 409.08 36.0513 409.08 36.2838 409.127L37.2951 404.079C36.395 403.899 35.468 403.899 34.5679 404.079L35.5792 409.127ZM36.6558 409.173C45.0975 409.612 53.764 410.394 62.3726 410.455L62.4088 405.307C53.9442 405.248 45.6404 404.486 36.9231 404.032L36.6558 409.173ZM62.3744 410.455C75.7742 410.54 89.5968 411.066 103.33 408.896L102.527 403.812C89.3212 405.898 76.0498 405.394 62.407 405.307L62.3744 410.455ZM103.332 408.896C106.5 408.393 109.663 408.902 113.2 409.658C116.604 410.386 120.498 411.388 124.471 411.416L124.507 406.268C121.205 406.245 117.995 405.419 114.276 404.624C110.689 403.857 106.711 403.148 102.525 403.812L103.332 408.896ZM124.469 411.416C142.126 411.553 159.851 411.793 177.532 411.879L177.557 406.732C159.874 406.646 142.217 406.406 124.509 406.268L124.469 411.416ZM177.533 411.879C187.61 411.927 197.687 411.761 207.731 411.604C217.785 411.448 227.809 411.3 237.829 411.382L237.871 406.234C227.781 406.152 217.699 406.301 207.651 406.457C197.593 406.614 187.572 406.779 177.557 406.732L177.533 411.879ZM237.828 411.382C255.474 411.534 273.888 413.157 292.085 409.865L291.168 404.799C273.605 407.977 256.072 406.391 237.872 406.234L237.828 411.382ZM292.078 409.866C294.069 409.511 295.728 408.502 296.789 407.942C297.962 407.323 298.75 407.018 299.688 407.048L299.849 401.903C297.509 401.829 295.719 402.686 294.387 403.389C292.943 404.151 292.17 404.621 291.175 404.798L292.078 409.866ZM299.689 407.048C310.045 407.367 320.336 407.306 330.625 407.117L330.53 401.97C320.279 402.159 310.083 402.218 299.848 401.902L299.689 407.048ZM330.623 407.117C334.428 407.05 338.178 407.729 342.137 408.554C346.017 409.363 350.177 410.334 354.411 410.645L354.789 405.512C350.984 405.231 347.251 404.362 343.188 403.515C339.205 402.684 334.963 401.892 330.532 401.97L330.623 407.117ZM354.404 410.645C374.319 412.168 394.325 412.093 414.229 410.42L413.797 405.291C394.168 406.941 374.438 407.015 354.796 405.512L354.404 410.645ZM414.263 410.417C420.921 409.768 427.625 409.743 434.288 410.342L434.748 405.215C427.766 404.587 420.741 404.613 413.763 405.294L414.263 410.417ZM434.261 410.339C452.399 412.162 470.65 412.437 488.638 412.857L488.758 407.71C470.694 407.289 452.671 407.015 434.775 405.217L434.261 410.339ZM488.638 412.857C509.454 413.34 530.387 411.992 551.139 410.327L550.727 405.195C530.007 406.859 509.294 408.187 488.757 407.71L488.638 412.857ZM551.135 410.327C568.474 408.964 585.853 408.886 603.072 411.49L603.842 406.4C586.109 403.719 568.311 403.813 550.732 405.195L551.135 410.327ZM603.075 411.49C606.42 411.993 609.784 412.23 613.046 412.446C616.341 412.665 619.523 412.861 622.667 413.273L623.335 408.169C619.993 407.731 616.629 407.525 613.386 407.31C610.111 407.093 606.946 406.867 603.839 406.4L603.075 411.49ZM622.661 413.272C626.439 413.776 630.112 413.45 633.518 413.07C637.011 412.68 640.159 412.245 643.334 412.341L643.49 407.196C639.852 407.086 636.235 407.587 632.947 407.954C629.57 408.331 626.444 408.584 623.342 408.17L622.661 413.272ZM645.986 409.769V409.752H640.838V409.769H645.986ZM410.221 414.899V420.047H411.041L411.821 419.792L410.221 414.899ZM351.983 414.899L349.509 419.413L350.665 420.047H351.983V414.899ZM330.303 410.609L330.031 415.75L330.04 415.75L330.049 415.751L330.303 410.609ZM268.359 413.561L268.137 408.418L268.124 408.418L268.359 413.561ZM262.061 414.925V420.073H264.054L265.528 418.731L262.061 414.925ZM117.325 414.925L112.238 415.711L112.912 420.073H117.325V414.925ZM115.721 413.895L114.373 418.864L114.392 418.869L114.411 418.874L115.721 413.895ZM84.3456 412.934L83.9195 407.804L83.9135 407.805L84.3456 412.934ZM56.3164 413.398L55.459 418.474L55.5 418.481L55.5411 418.487L56.3164 413.398ZM30.9468 413.441L30.0723 408.368L29.9766 408.384L29.8816 408.404L30.9468 413.441ZM17.5456 412.514L15.7939 417.355L15.7974 417.356L17.5456 412.514ZM9.66108 410.85L9.26926 415.982L9.28808 415.984L9.3069 415.985L9.66108 410.85ZM1.71646 402.167L-3.42956 402.299L-3.42927 402.31L-3.42894 402.321L1.71646 402.167ZM0.000557441 394.343H-5.14714V396.71L-3.34952 398.251L0.000557441 394.343ZM0.000557441 342.943L-4.79951 341.083L-5.14714 341.981V342.943H0.000557441ZM0.678338 319.366H-4.46936V319.859L-4.37584 320.343L0.678338 319.366ZM0.000557441 318.963H-5.14714V321.992L-2.49939 323.463L0.000557441 318.963ZM0.000557441 239.303L-2.7589 234.957L-5.14714 236.473V239.303H0.000557441ZM1.55345 234.781L6.69931 234.919L6.69963 234.906L1.55345 234.781ZM1.99958 204.015L-3.14646 204.146L-3.14639 204.149L1.99958 204.015ZM0.000557441 188.761H-5.14714V190.18L-4.41984 191.399L0.000557441 188.761ZM0.000557441 170.744L-0.971573 165.689L-5.14714 166.492V170.744H0.000557441ZM0.944303 169.534L5.8042 171.231L5.81805 171.192L5.83124 171.152L0.944303 169.534ZM2.57441 155.318L-2.55807 155.713L-2.55523 155.75L-2.55184 155.787L2.57441 155.318ZM3.26077 127.7L-1.84066 128.389L-1.84056 128.39L3.26077 127.7ZM-0.0166016 117.671H-5.1643V120.292L-3.04433 121.834L-0.0166016 117.671ZM-0.0166016 12.3318L-4.69357 10.1813L-5.1643 11.2051V12.3318H-0.0166016ZM16.8936 2.36246L17.3694 -2.76321L17.2396 -2.77526L17.1093 -2.78072L16.8936 2.36246ZM22.436 2.59411L22.4824 7.7416L22.6141 7.74041L22.7455 7.73249L22.436 2.59411ZM28.2614 0.320538V-4.82716H24.9655L23.5862 -1.83374L28.2614 0.320538ZM78.7861 0.320538L79.9118 -4.70257L79.3559 -4.82716H78.7861V0.320538ZM93.3713 0.320538V-4.82716H92.8015L92.2456 -4.70257L93.3713 0.320538ZM113.104 0.320538L118.102 -0.911392L117.137 -4.82716H113.104V0.320538ZM115.18 1.17849L115.742 -3.93844L115.72 -3.94086L115.698 -3.94309L115.18 1.17849ZM153.445 2.65416L153.154 7.79365L153.156 7.79375L153.445 2.65416ZM197.063 2.98876L197.164 -2.15795L197.163 -2.15796L197.063 2.98876ZM228.567 4.63603L228.897 9.77316L228.911 9.77224L228.925 9.77124L228.567 4.63603ZM254.357 0.346277V-4.80142H253.684L253.034 -4.62845L254.357 0.346277ZM272.374 0.346277L276.304 -2.97884L274.762 -4.80142H272.374V0.346277ZM276.664 1.77905L276.399 6.91996L276.407 6.92037L276.415 6.92076L276.664 1.77905ZM302.256 2.86007L302.573 -2.27787L302.565 -2.27839L302.557 -2.27887L302.256 2.86007ZM323.722 0.320538V-4.82716H322.952L322.215 -4.60164L323.722 0.320538ZM351.983 0.320538L356.856 -1.33838L355.669 -4.82716H351.983V0.320538ZM354.883 1.17849L355.12 -3.96377L355.002 -3.96921H354.883V1.17849ZM410.804 1.56457L410.771 6.71216L410.771 6.71216L410.804 1.56457ZM434.998 2.73138L434.295 7.83072L434.315 7.83357L434.336 7.83625L434.998 2.73138ZM483.902 3.18609L483.378 -1.93487L483.356 -1.93264L483.334 -1.93022L483.902 3.18609ZM494.995 0.2948V-4.8529H493.106L491.666 -3.63131L494.995 0.2948ZM506.148 0.2948L510.893 -1.7028L509.566 -4.8529H506.148V0.2948ZM509.486 1.35008L509.459 -3.79755L509.451 -3.79751L509.443 -3.79744L509.486 1.35008ZM548.737 3.82955L548.84 -1.31712L548.838 -1.31716L548.737 3.82955ZM569.113 2.07076V-3.07694H569.097L569.081 -3.07684L569.113 2.07076ZM598.524 2.50831L599.818 -2.47407L599.81 -2.47602L598.524 2.50831ZM602.814 2.39678L603.208 7.52932L603.243 7.52664L603.278 7.5235L602.814 2.39678ZM617.33 2.49973L617.902 -2.61614L617.884 -2.61808L617.867 -2.61989L617.33 2.49973ZM631.177 0.320538V-4.82716H629.312L627.88 -3.63271L631.177 0.320538ZM654.342 0.320538L657.428 -3.79988L656.056 -4.82716H654.342V0.320538ZM660.605 3.25473L657.78 7.55792L657.786 7.56215L660.605 3.25473ZM668.001 13.1898H673.148V11.6859L672.339 10.4185L668.001 13.1898ZM668.001 38.9283L670.611 43.3653L673.148 41.8725V38.9283H668.001ZM667.031 42.3601L672.179 42.3522L672.179 42.3371L672.179 42.322L667.031 42.3601ZM664.749 86.1156L669.855 86.7722L669.862 86.7156L669.868 86.6589L664.749 86.1156ZM668.001 98.8304H673.148V97.1569L672.164 95.8033L668.001 98.8304ZM668.001 110.842L668.973 115.897L673.148 115.094V110.842H668.001ZM667.065 112.043L671.948 113.675L671.952 113.661L671.957 113.648L667.065 112.043ZM664.912 139.677L670.04 139.231L670.039 139.217L670.038 139.204L664.912 139.677ZM668.044 149.364H673.191V147.285L671.747 145.789L668.044 149.364ZM668.044 198.19L670.223 202.853L673.191 201.466V198.19H668.044ZM666.405 201.819L671.361 203.208L671.363 203.202L666.405 201.819ZM662.887 234.824L657.748 234.521L657.748 234.521L662.887 234.824ZM668.035 260.717H673.183V259.075L672.232 257.736L668.035 260.717ZM668.035 285.555L668.922 290.625L673.183 289.88V285.555H668.035ZM667.117 286.756L672.194 287.607L672.221 287.446L672.238 287.283L667.117 286.756ZM665.126 326.736L670.273 326.823L670.274 326.819L665.126 326.736ZM668.035 336.946H673.183V335.041L671.943 333.595L668.035 336.946ZM668.035 398.624L671.653 402.285L673.183 400.774V398.624H668.035ZM664.543 403.823L669.209 405.997L669.258 405.893L669.301 405.787L664.543 403.823ZM654.333 414.899V420.047H655.07L655.777 419.84L654.333 414.899ZM605.516 414.899L603.641 419.693L604.545 420.047H605.516V414.899ZM589.215 412.42L589.299 417.567L589.308 417.567L589.215 412.42ZM563.906 413.192L565.924 417.927L565.943 417.919L565.963 417.911L563.906 413.192ZM561.872 412.797L560.726 417.816L560.764 417.824L560.802 417.832L561.872 412.797ZM546.429 414.899V420.047H547.73L548.875 419.429L546.429 414.899ZM439.34 414.899L435.801 418.638L437.29 420.047H439.34V414.899ZM432.21 413.638L431.946 418.779L431.948 418.779L432.21 413.638ZM410.221 409.752H351.983V420.047H410.221V409.752ZM354.457 410.385C346.444 405.993 337.713 405.822 330.557 405.468L330.049 415.751C337.82 416.135 343.967 416.376 349.509 419.413L354.457 410.385ZM330.575 405.469C319.871 404.902 309.289 405.437 298.915 406.205C288.435 406.981 278.361 407.976 268.137 408.418L268.581 418.704C279.008 418.253 289.533 417.223 299.676 416.472C309.925 415.713 319.989 415.218 330.031 415.75L330.575 405.469ZM268.124 408.418C267.749 408.436 267.406 408.429 266.738 408.432C266.158 408.434 265.38 408.446 264.55 408.538C262.824 408.73 260.587 409.305 258.595 411.119L265.528 418.731C265.363 418.881 265.241 418.82 265.69 418.77C265.948 418.741 266.272 418.729 266.781 418.727C267.202 418.726 267.935 418.733 268.594 418.703L268.124 408.418ZM262.061 409.777H117.325V420.073H262.061V409.777ZM122.413 414.139C122.261 413.161 121.872 412.068 121.057 411.091C120.25 410.125 119.305 409.607 118.589 409.327C117.938 409.072 117.345 408.967 117.147 408.931C116.792 408.867 116.94 408.893 117.031 408.917L114.411 418.874C114.661 418.94 114.88 418.983 115.021 419.009C115.092 419.023 115.158 419.035 115.203 419.043C115.256 419.052 115.28 419.056 115.305 419.061C115.447 419.086 115.187 419.051 114.836 418.914C114.422 418.752 113.747 418.4 113.153 417.689C112.55 416.967 112.316 416.217 112.238 415.711L122.413 414.139ZM117.069 408.927C105.664 405.833 94.147 406.955 83.9195 407.804L84.7717 418.065C95.4096 417.181 105.033 416.329 114.373 418.864L117.069 408.927ZM83.9135 407.805C74.2667 408.618 65.6342 409.61 57.0917 408.309L55.5411 418.487C65.5818 420.017 75.687 418.83 84.7778 418.064L83.9135 407.805ZM57.1738 408.322C48.2022 406.807 39.0387 406.822 30.0723 408.368L31.8214 418.514C39.6418 417.165 47.6341 417.152 55.459 418.474L57.1738 408.322ZM29.8816 408.404C26.353 409.151 22.6861 408.897 19.2938 407.672L15.7974 417.356C20.9926 419.232 26.6082 419.62 32.012 418.477L29.8816 408.404ZM19.2974 407.674C16.3094 406.592 13.1853 405.933 10.0153 405.714L9.3069 415.985C11.5224 416.138 13.7057 416.599 15.7939 417.355L19.2974 407.674ZM10.0529 405.717C8.98091 405.635 8.3228 405.469 7.93665 405.319C7.5893 405.185 7.49285 405.076 7.4697 405.051C7.4139 404.989 6.93351 404.406 6.86185 402.013L-3.42894 402.321C-3.329 405.659 -2.64687 409.204 -0.178151 411.943C2.34974 414.748 5.84537 415.721 9.26926 415.982L10.0529 405.717ZM6.86248 402.036C6.85143 401.604 6.87788 401.158 6.91594 400.361C6.94916 399.666 6.99091 398.688 6.91084 397.659C6.73512 395.402 5.94712 392.66 3.35064 390.434L-3.34952 398.251C-3.30468 398.29 -3.35417 398.252 -3.39224 398.165C-3.41538 398.112 -3.37612 398.168 -3.35352 398.458C-3.32849 398.78 -3.335 399.185 -3.36774 399.87C-3.39563 400.454 -3.45284 401.388 -3.42956 402.299L6.86248 402.036ZM5.14826 394.343V342.943H-5.14714V394.343H5.14826ZM4.80062 344.803C8.36341 335.606 7.29639 326.481 5.73251 318.39L-4.37584 320.343C-2.88541 328.055 -2.33948 334.734 -4.79951 341.083L4.80062 344.803ZM5.82604 319.366C5.82604 316.923 4.23894 315.559 3.79012 315.205C3.23037 314.764 2.69196 314.523 2.54025 314.455C2.42562 314.404 2.32569 314.362 2.26715 314.338C2.23682 314.326 2.20814 314.314 2.19061 314.307C2.16974 314.299 2.16057 314.295 2.15295 314.292C2.07666 314.261 2.26212 314.331 2.5005 314.463L-2.49939 323.463C-2.14518 323.66 -1.81709 323.791 -1.74457 323.821C-1.56343 323.895 -1.64859 323.86 -1.68762 323.842C-1.69884 323.837 -2.11124 323.662 -2.5801 323.293C-2.93803 323.011 -4.46936 321.724 -4.46936 319.366H5.82604ZM5.14826 318.963V239.303H-5.14714V318.963H5.14826ZM2.76001 243.648C5.0301 242.207 6.05072 240.137 6.44029 238.299C6.73815 236.893 6.69254 235.171 6.69929 234.919L-3.5924 234.643C-3.59928 234.899 -3.60104 235.155 -3.60271 235.343C-3.60456 235.55 -3.60641 235.701 -3.61094 235.839C-3.62028 236.125 -3.63794 236.195 -3.63153 236.165C-3.62045 236.112 -3.56464 235.885 -3.38322 235.599C-3.29354 235.458 -3.18731 235.326 -3.06943 235.209C-2.95223 235.092 -2.84291 235.01 -2.7589 234.957L2.76001 243.648ZM6.69963 234.906C6.94494 224.798 7.41597 214.297 7.14555 203.881L-3.14639 204.149C-2.88488 214.221 -3.34044 224.26 -3.59274 234.656L6.69963 234.906ZM7.14563 203.884C7.11738 202.772 7.15001 201.633 7.18104 200.284C7.21078 198.991 7.23802 197.525 7.1647 196.03C7.01633 193.003 6.44761 189.519 4.42095 186.123L-4.41984 191.399C-3.58952 192.79 -3.22307 194.398 -3.11835 196.534C-3.06512 197.62 -3.08185 198.752 -3.11164 200.047C-3.14012 201.285 -3.18257 202.723 -3.14646 204.146L7.14563 203.884ZM5.14826 188.761V170.744H-5.14714V188.761H5.14826ZM0.972687 175.799C1.80004 175.64 2.66028 175.306 3.45163 174.725C4.23509 174.149 4.75224 173.477 5.08958 172.903C5.40554 172.366 5.5848 171.877 5.67002 171.634C5.71469 171.506 5.75386 171.385 5.77221 171.328C5.7837 171.293 5.79036 171.273 5.7964 171.254C5.79911 171.246 5.80104 171.24 5.80238 171.236C5.80371 171.233 5.80428 171.231 5.8042 171.231L-3.9156 167.837C-3.96034 167.965 -3.99905 168.085 -4.0182 168.144C-4.02988 168.179 -4.0363 168.199 -4.04205 168.216C-4.04732 168.232 -4.04864 168.236 -4.04738 168.232C-4.04587 168.228 -4.02556 168.17 -3.98793 168.082C-3.94972 167.994 -3.88415 167.853 -3.78438 167.683C-3.57573 167.329 -3.2173 166.849 -2.64405 166.428C-2.06289 166.001 -1.46433 165.783 -0.971573 165.689L0.972687 175.799ZM5.83124 171.152C7.56841 165.903 8.2048 160.354 7.70066 154.848L-2.55184 155.787C-2.17678 159.883 -2.65023 164.012 -3.94264 167.916L5.83124 171.152ZM7.70689 154.922C7.39122 150.826 7.81435 146.706 8.24382 141.96C8.6577 137.386 9.07116 132.258 8.3621 127.011L-1.84056 128.39C-1.30559 132.349 -1.59136 136.409 -2.00969 141.032C-2.41244 145.483 -2.9545 150.569 -2.55807 155.713L7.70689 154.922ZM8.36219 127.012C8.27788 126.387 8.2448 125.732 8.18204 124.723C8.12545 123.814 8.04412 122.631 7.82003 121.417C7.34185 118.826 6.15433 115.794 3.01113 113.508L-3.04433 121.834C-2.69568 122.088 -2.47616 122.355 -2.30444 123.285C-2.20358 123.832 -2.14925 124.466 -2.0935 125.362C-2.04392 126.159 -1.98799 127.298 -1.84066 128.389L8.36219 127.012ZM5.1311 117.671V12.3318H-5.1643V117.671H5.1311ZM4.66037 14.4824C5.95439 11.6681 7.56606 9.98225 9.33348 8.97001C11.1344 7.93856 13.5087 7.37271 16.6779 7.50564L17.1093 -2.78072C12.5055 -2.97382 8.09335 -2.1841 4.21681 0.0360832C0.306747 2.27547 -2.65017 5.73731 -4.69357 10.1813L4.66037 14.4824ZM16.4178 7.48813C18.4337 7.67525 20.4579 7.75985 22.4824 7.7416L22.3895 -2.55339C20.7137 -2.53827 19.0381 -2.6083 17.3694 -2.76321L16.4178 7.48813ZM22.7455 7.73249C23.1799 7.70632 23.384 7.72082 24.2086 7.69978C24.8448 7.68355 25.7811 7.64154 26.7826 7.42532C29.1432 6.91564 31.5505 5.48312 32.9367 2.47482L23.5862 -1.83374C23.6028 -1.86985 23.7358 -2.11587 24.0575 -2.35656C24.3586 -2.58181 24.6052 -2.63722 24.6098 -2.63819C24.6099 -2.63822 24.6065 -2.6375 24.5994 -2.63623C24.5923 -2.63496 24.5817 -2.63321 24.5673 -2.63114C24.5382 -2.62694 24.4964 -2.62185 24.4394 -2.61674C24.3204 -2.60607 24.1656 -2.59787 23.946 -2.59227C23.7018 -2.58604 23.503 -2.58516 23.1693 -2.57992C22.8746 -2.5753 22.5104 -2.56741 22.1264 -2.54428L22.7455 7.73249ZM28.2614 5.46824H78.7861V-4.82716H28.2614V5.46824ZM77.6604 5.34365C83.2039 6.58594 88.9535 6.58594 94.497 5.34365L92.2456 -4.70257C88.1847 -3.79252 83.9727 -3.79252 79.9118 -4.70257L77.6604 5.34365ZM93.3713 5.46824H113.104V-4.82716H93.3713V5.46824ZM108.106 1.55247C108.359 2.57878 108.906 3.81537 110.042 4.81794C111.182 5.82356 112.428 6.16288 113.274 6.27809C114.024 6.38014 114.707 6.33128 114.852 6.32346C115.196 6.305 114.955 6.3296 114.662 6.30007L115.698 -3.94309C115.024 -4.01123 114.37 -3.96089 114.3 -3.9571C114.031 -3.94267 114.299 -3.97275 114.663 -3.92325C115.123 -3.8606 116.012 -3.64514 116.853 -2.90254C117.692 -2.16298 117.999 -1.32856 118.102 -0.911392L108.106 1.55247ZM114.618 6.29542C121.198 7.01807 127.78 7.20879 134.196 7.31428C140.68 7.4209 146.919 7.44096 153.154 7.79365L153.736 -2.48532C147.23 -2.85331 140.665 -2.87615 134.365 -2.97973C127.997 -3.08444 121.817 -3.27122 115.742 -3.93844L114.618 6.29542ZM153.156 7.79375C167.647 8.60831 183.05 7.86461 196.963 8.13549L197.163 -2.15796C181.992 -2.45333 168.242 -1.66988 153.734 -2.48542L153.156 7.79375ZM196.962 8.13548C201.982 8.23382 206.944 8.78667 212.335 9.27084C217.615 9.74504 223.196 10.139 228.897 9.77316L228.237 -0.501106C223.376 -0.189151 218.461 -0.515878 213.256 -0.983286C208.163 -1.44071 202.654 -2.05038 197.164 -2.15795L196.962 8.13548ZM228.925 9.77124C237.965 9.14037 246.923 7.65023 255.68 5.321L253.034 -4.62845C244.909 -2.46721 236.596 -1.08455 228.209 -0.499182L228.925 9.77124ZM254.357 5.49398H272.374V-4.80142H254.357V5.49398ZM268.444 3.67139C271.282 7.02551 275.532 6.87536 276.399 6.91996L276.928 -3.36185C276.694 -3.37387 276.564 -3.37951 276.376 -3.38978C276.213 -3.39874 276.081 -3.40749 275.965 -3.41755C275.727 -3.43826 275.626 -3.45933 275.6 -3.46553C275.584 -3.46938 275.686 -3.44649 275.844 -3.3574C276.015 -3.26094 276.178 -3.12786 276.304 -2.97884L268.444 3.67139ZM276.415 6.92076C285.228 7.34631 293.38 7.49811 301.956 7.99901L302.557 -2.27887C294.094 -2.77319 285.156 -2.96457 276.912 -3.36266L276.415 6.92076ZM301.94 7.99801C309.805 8.48301 317.694 7.54973 325.229 5.24272L322.215 -4.60164C315.86 -2.65595 309.207 -1.86883 302.573 -2.27787L301.94 7.99801ZM323.722 5.46824H351.983V-4.82716H323.722V5.46824ZM347.11 1.97946C347.502 3.12967 348.239 4.40958 349.57 5.34563C350.887 6.27171 352.243 6.47873 353.152 6.50058C353.977 6.52043 354.72 6.38614 354.942 6.34938C355.378 6.27691 355.163 6.32619 354.883 6.32619V-3.96921C354.446 -3.96921 354.07 -3.9277 353.824 -3.89505C353.589 -3.86372 353.35 -3.8227 353.255 -3.80688C352.927 -3.75248 353.109 -3.79883 353.399 -3.79185C353.773 -3.78286 354.62 -3.68952 355.493 -3.07552C356.38 -2.45155 356.739 -1.68212 356.856 -1.33838L347.11 1.97946ZM354.646 6.32074C373.402 7.18426 392.413 6.59383 410.771 6.71216L410.837 -3.58303C391.926 -3.70493 373.634 -3.11138 355.12 -3.96377L354.646 6.32074ZM410.771 6.71216C418.917 6.76415 426.799 6.79595 434.295 7.83072L435.702 -2.36797C427.412 -3.51239 418.821 -3.53207 410.837 -3.58303L410.771 6.71216ZM434.336 7.83625C450.968 9.99527 467.8 10.1518 484.469 8.3024L483.334 -1.93022C467.483 -0.171616 451.477 -0.320436 435.661 -2.37349L434.336 7.83625ZM484.426 8.30705C485.653 8.18151 488.414 8.06024 490.514 7.69247C492.943 7.26683 495.773 6.38476 498.324 4.22091L491.666 -3.63131C491 -3.06687 490.127 -2.69205 488.737 -2.4485C487.016 -2.14706 485.84 -2.18682 483.378 -1.93487L484.426 8.30705ZM494.995 5.4425H506.148V-4.8529H494.995V5.4425ZM501.404 2.2924C501.916 3.50947 502.752 4.629 503.964 5.43475C505.131 6.21151 506.314 6.4741 507.183 6.5598C508.012 6.64154 508.745 6.57724 509.107 6.54328C509.669 6.49061 509.563 6.49732 509.529 6.4976L509.443 -3.79744C509.103 -3.79461 508.8 -3.76991 508.608 -3.75247C508.508 -3.7433 508.41 -3.73348 508.337 -3.72612C508.257 -3.718 508.201 -3.71233 508.146 -3.7072C507.893 -3.68351 507.985 -3.70652 508.194 -3.68591C508.443 -3.66133 509.027 -3.5623 509.665 -3.13756C510.348 -2.68384 510.723 -2.10481 510.893 -1.7028L501.404 2.2924ZM509.513 6.49771C515.807 6.46484 522.111 6.99676 528.65 7.59393C535.115 8.18442 541.848 8.84317 548.636 8.97627L548.838 -1.31716C542.499 -1.44145 536.178 -2.05675 529.586 -2.65881C523.067 -3.25419 516.309 -3.83332 509.459 -3.79755L509.513 6.49771ZM548.634 8.97623C552.511 9.05377 556.284 8.5679 559.646 8.12042C563.132 7.6564 566.161 7.23732 569.146 7.21835L569.081 -3.07684C565.313 -3.05291 561.586 -2.52396 558.288 -2.08498C554.865 -1.62947 551.826 -1.25739 548.84 -1.31712L548.634 8.97623ZM569.113 7.21846C574.075 7.21846 579.65 6.67106 584.041 6.48682C588.761 6.28877 593.076 6.41855 597.237 7.49265L599.81 -2.47602C594.199 -3.92431 588.704 -4.0133 583.609 -3.79953C578.185 -3.57196 573.94 -3.07694 569.113 -3.07694V7.21846ZM597.23 7.49069C598.716 7.87678 600.099 7.82731 601.022 7.75506C601.497 7.71786 601.961 7.66338 602.31 7.62304C602.692 7.57869 602.961 7.54834 603.208 7.52932L602.419 -2.73576C601.941 -2.69901 601.476 -2.64465 601.125 -2.604C600.74 -2.55936 600.469 -2.52857 600.219 -2.50894C599.689 -2.46751 599.653 -2.51698 599.818 -2.47407L597.23 7.49069ZM603.278 7.5235C607.775 7.11624 612.302 7.14835 616.793 7.61936L617.867 -2.61989C612.71 -3.16068 607.513 -3.19754 602.349 -2.72995L603.278 7.5235ZM616.758 7.6156C620.819 8.06926 628.288 9.43312 634.474 4.27378L627.88 -3.63271C625.693 -1.80833 623.21 -2.02309 617.902 -2.61614L616.758 7.6156ZM631.177 5.46824H654.342V-4.82716H631.177V5.46824ZM651.256 4.44096C652.88 5.65679 654.633 6.28547 655.673 6.66513C656.92 7.12004 657.394 7.3044 657.78 7.55792L663.43 -1.04846C661.843 -2.09045 660.125 -2.66967 659.203 -3.00622C658.075 -3.41801 657.683 -3.60867 657.428 -3.79988L651.256 4.44096ZM657.786 7.56215C658.789 8.21807 659.609 9.15314 660.515 10.5824C660.979 11.3149 661.416 12.0937 661.937 13.0234C662.434 13.9105 663.012 14.9433 663.663 15.961L672.339 10.4185C671.873 9.6903 671.435 8.91284 670.918 7.99047C670.425 7.11073 669.851 6.08087 669.211 5.07065C667.907 3.01449 666.145 0.727966 663.424 -1.05269L657.786 7.56215ZM662.853 13.1898V38.9283H673.148V13.1898H662.853ZM665.391 34.4913C664.355 35.1007 663.447 35.9481 662.797 37.0506C662.163 38.1275 661.927 39.1886 661.844 40.0149C661.765 40.7958 661.814 41.4883 661.841 41.8456C661.868 42.2024 661.858 42.0409 661.877 42.2924C661.884 42.3971 661.884 42.4178 661.884 42.3982L672.179 42.322C672.176 42.0129 672.159 41.7359 672.144 41.5381C672.137 41.4375 672.129 41.3408 672.123 41.2651C672.116 41.1829 672.111 41.1239 672.107 41.0662C672.087 40.8055 672.105 40.8733 672.087 41.0483C672.065 41.2686 671.982 41.7426 671.668 42.2765C671.338 42.8362 670.917 43.1848 670.611 43.3653L665.391 34.4913ZM661.883 42.368C661.905 56.7993 661.153 71.2215 659.63 85.5722L669.868 86.6589C671.43 71.942 672.201 57.1518 672.179 42.3522L661.883 42.368ZM659.643 85.459C658.897 91.26 660.398 97.1267 663.837 101.857L672.164 95.8033C670.27 93.198 669.444 89.967 669.855 86.7722L659.643 85.459ZM662.853 98.8304V110.842H673.148V98.8304H662.853ZM667.028 105.787C666.226 105.941 665.376 106.261 664.585 106.832C663.797 107.401 663.269 108.073 662.92 108.662C662.594 109.214 662.411 109.716 662.322 109.977C662.275 110.115 662.236 110.241 662.215 110.309C662.188 110.395 662.181 110.416 662.174 110.438L671.957 113.648C671.994 113.532 672.03 113.417 672.045 113.369C672.066 113.303 672.068 113.297 672.065 113.306C672.063 113.31 671.978 113.571 671.779 113.907C671.558 114.281 671.188 114.763 670.61 115.181C670.029 115.6 669.441 115.807 668.973 115.897L667.028 105.787ZM662.183 110.411C658.836 120.425 658.904 130.609 659.786 140.151L670.038 139.204C669.204 130.18 669.272 121.678 671.948 113.675L662.183 110.411ZM659.784 140.124C660.026 142.905 660.225 148.676 664.34 152.939L671.747 145.789C670.628 144.629 670.364 142.953 670.04 139.231L659.784 140.124ZM662.896 149.364V198.19H673.191V149.364H662.896ZM665.864 193.526C664.709 194.066 663.735 194.859 663.002 195.871C662.301 196.838 661.961 197.812 661.777 198.531C661.606 199.201 661.524 199.858 661.487 200.125C661.434 200.516 661.425 200.511 661.446 200.436L671.363 203.202C671.469 202.824 671.537 202.479 671.584 202.206C671.63 201.94 671.665 201.687 671.687 201.522C671.714 201.329 671.727 201.232 671.742 201.142C671.755 201.062 671.759 201.053 671.751 201.085C671.735 201.146 671.641 201.495 671.34 201.91C671.187 202.121 671.004 202.318 670.794 202.49C670.586 202.66 670.387 202.777 670.223 202.853L665.864 193.526ZM661.448 200.429C658.223 211.933 658.37 223.985 657.748 234.521L668.026 235.127C668.708 223.562 668.53 213.308 671.361 203.208L661.448 200.429ZM657.748 234.521C657.214 243.597 657.119 254.238 663.838 263.698L672.232 257.736C667.763 251.444 667.497 244.103 668.026 235.127L657.748 234.521ZM662.887 260.717V285.555H673.183V260.717H662.887ZM667.148 280.484C665.519 280.769 663.992 281.669 663.008 283.202C662.202 284.459 662.048 285.723 661.996 286.229L672.238 287.283C672.236 287.295 672.221 287.45 672.159 287.681C672.095 287.916 671.961 288.314 671.674 288.761C671.371 289.233 670.942 289.69 670.385 290.047C669.84 290.396 669.316 290.556 668.922 290.625L667.148 280.484ZM662.04 285.905C659.734 299.661 660.188 313.659 659.979 326.653L670.274 326.819C670.494 313.131 670.056 300.361 672.194 287.607L662.04 285.905ZM659.98 326.649C659.914 330.537 660.328 335.867 664.127 340.297L671.943 333.595C670.68 332.122 670.219 330.039 670.273 326.823L659.98 326.649ZM662.887 336.946V398.624H673.183V336.946H662.887ZM664.417 394.962C662.427 396.928 660.852 399.273 659.785 401.859L669.301 405.787C669.843 404.475 670.643 403.284 671.653 402.285L664.417 394.962ZM659.877 401.649C657.567 406.608 656.013 409.046 652.89 409.958L655.777 419.84C663.876 417.475 667.075 410.579 669.209 405.997L659.877 401.649ZM654.333 409.752H605.516V420.047H654.333V409.752ZM607.391 410.105C601.276 407.713 594.717 407.172 589.123 407.273L589.308 417.567C594.214 417.478 599.272 417.984 603.641 419.693L607.391 410.105ZM589.131 407.273C587.329 407.302 585.45 407.165 583.379 406.965C581.399 406.774 579.084 406.508 576.86 406.363C572.307 406.066 567.111 406.179 561.848 408.473L565.963 417.911C569.005 416.584 572.264 416.38 576.19 416.636C578.205 416.768 580.136 416.996 582.391 417.213C584.555 417.422 586.901 417.606 589.299 417.567L589.131 407.273ZM561.887 408.456C562.81 408.063 563.597 408.087 563.944 408.12C564.288 408.152 564.497 408.223 564.444 408.207C564.434 408.204 564.404 408.194 564.332 408.17C564.297 408.158 564.261 408.146 564.211 408.129C564.165 408.113 564.108 408.093 564.049 408.073C563.839 408.003 563.422 407.864 562.942 407.762L560.802 417.832C560.665 417.803 560.609 417.778 560.763 417.83C560.818 417.849 561.179 417.975 561.456 418.059C561.76 418.151 562.316 418.307 562.983 418.37C563.653 418.433 564.74 418.432 565.924 417.927L561.887 408.456ZM563.018 407.779C556.569 406.306 549.804 407.227 543.984 410.37L548.875 419.429C552.499 417.472 556.711 416.899 560.726 417.816L563.018 407.779ZM546.429 409.752H439.34V420.047H546.429V409.752ZM442.878 411.161C440.609 409.013 438.028 408.515 436.103 408.431C435.209 408.392 434.343 408.439 433.773 408.467C433.111 408.499 432.761 408.512 432.472 408.497L431.948 418.779C432.839 418.824 433.709 418.778 434.279 418.75C434.942 418.717 435.32 418.702 435.653 418.716C436.182 418.74 435.985 418.812 435.801 418.638L442.878 411.161ZM432.474 408.497C425.527 408.14 416.96 407.28 408.621 410.006L411.821 419.792C417.912 417.8 424.188 418.381 431.946 418.779L432.474 408.497Z" fill="black" mask="url(#path-1-inside-1_1499_1767)"/>
</svg>
