<svg xmlns="http://www.w3.org/2000/svg" viewBox="0 0 9.72 384.46"><g id="Calque_2" data-name="Calque 2"><g id="Calque_1-2" data-name="Calque 1"><path d="M9.72,376.75A12.85,12.85,0,0,1,8,371.47C7,363.61,5.72,355.75,4.05,348c-1.93-9,.51-17.25,2.07-26s3.08-18.19,1.33-26.65c-1.55-7.42-2.28-14.92-3.85-22.23-2.34-10.94-.22-21.07,1.9-31.49a71.4,71.4,0,0,0,1.4-12.29c.44-18.13,1-36.27,1-54.41,0-10.95-1.15-21.86-1.38-32.86-.14-7,.67-14,.67-21,0-9-.65-17.89-.65-26.83,0-11.81.39-23.62.46-35.44C7,44,8.59,29.24,5.74,14.51c-.47-2.36,0-5,.29-7.42A5,5,0,0,1,9.72,2.51V0C5.16,1.27,1.66,4.26,0,10.24v97c.3,1.09.67,2.19,1.05,3.28.29.82.58,1.65.86,2.47.1.27.19.54.28.82a20.89,20.89,0,0,1,1.17,5.71c0,.27,0,.54,0,.8C2.8,132.86,1.56,145.37.46,157.88c-.16,1.79-.31,3.58-.46,5.36v6C3.1,186.78,2.46,204.4,1,222a7.53,7.53,0,0,1-1,2.22v73c3.26,8,2.61,16,0,24v47c.63,2.68,1.63,5.32,1.87,8,.42,5.7,2.07,7.51,7.66,8.16l.19,0Z"/></g></g></svg>