<svg width="13" height="391" viewBox="0 0 13 391" fill="none" xmlns="http://www.w3.org/2000/svg">
<g clip-path="url(#clip0_985_933)">
<path d="M9.5 12L0 2.5L-1 385.5L7.5 382.5L9 345V272L6 233L7.5 187L8.5 135V65L9.5 12Z" fill="#F9F7F2"/>
<path d="M10.05 311.43C9.65101 305.629 9.56755 299.81 9.8 294C10.43 279.42 11.37 264.84 12.11 250.25C12.3304 248.602 12.1697 246.926 11.64 245.35C3.64 228.05 8.31 210.43 9.99 192.84C10.99 182.61 12.2 172.31 11.99 162.07C11.73 148.71 9.94 135.39 9.3 122.07C9.2216 117.096 9.73861 112.131 10.84 107.28C11.99 101.291 11.99 95.1386 10.84 89.15C9.45 81.28 10.52 73 10.61 64.9C10.61 63.07 11.15 61.26 11.15 59.43C11.53 46.3 11.58 33.15 12.29 20.03C12.84 10.12 9.05 3.49 0 0V7C5.66 8.85 8.69 13.14 8.26 18.76C8.31725 19.7499 8.14261 20.7395 7.75 21.65C1.31 31.3 3.76 42.31 5 52.2C6.45 63.13 7.06 74 7.38 84.9C7.6 92.68 6.45 100.27 5.2 108C3.53 118.34 4.54 129.51 6.38 140C8.12 149.94 7.09 159.48 6.45 169.23C5.56 182 4.77 194.78 4.45 207.57C4.11 221.06 4.14 234.57 4.45 248.06C4.64 256.22 6.29 264.38 6.2 272.52C6 287 4.72 301.41 4.52 315.86C4.44 321.41 6.68 327 6.8 332.55C7.06 345.23 6.8 357.89 6.51 370.55C6.49997 372.995 5.90352 375.401 4.77074 377.568C3.63796 379.734 2.00192 381.597 0 383L0 390.32C7.93 385.99 11.7 378.83 12.05 370.11C12.52 357.46 12.38 344.77 12.05 332.11C11.87 325.21 10.51 318.34 10.05 311.43Z" fill="black"/>
</g>
<defs>
<clipPath id="clip0_985_933">
<rect width="12.35" height="390.32" fill="white"/>
</clipPath>
</defs>
</svg>
