<svg xmlns="http://www.w3.org/2000/svg" viewBox="0 0 625.84 11.29"><g id="Calque_2" data-name="Calque 2"><g id="Calque_1-2" data-name="Calque 1"><path d="M625.84,0h-6.45a16.24,16.24,0,0,1-13,6.54c-6.14.1-12.27.72-18.41,1.1V6.48c-22.43-.72-44.86-2-67.19-2-16.75,0-33.5,2.11-50.26,2.24-15.26.12-30.54-1.18-45.81-1.81-9.3-.38-18.59-.91-27.89-1-31.94-.29-63.94-.59-95.94-.5C288.94,3.48,277,5,265.05,5.13c-12.6.2-25.22-.69-37.83-.52C209.63,4.85,192,6,174.45,6.07c-13.29,0-26.58-1.26-39.87-1.48-16.77-.28-33.54.08-50.31-.1C61.15,4.24,38,3.78,14.9,3.31,11.66,3.24,9.41,2.08,8,0H0C.51,5.13,2.25,6.82,7.59,7.45,10.36,7.77,13,9,15.8,9.31a89.46,89.46,0,0,0,11.8.42c5.78-.16,11.55-.89,17.34-.94,13-.11,26.12-.24,39.12.18,9,.29,18,1.49,27,2.29h132a12.56,12.56,0,0,1,2.79-.82c19.13-1.1,38.26-2.07,57.39-3.23,10.56-.64,20.73,1.36,30.82,4.08h180l.09,0h-.1c2.44-.82,4.86-2.28,7.33-2.36,10.88-.39,21.79-.73,32.66-.38,6,.2,12,1.78,18,2.74h-.16a.86.86,0,0,1,.17,0H615A22.17,22.17,0,0,0,625.84,0Z"/></g></g></svg>