<svg width="128" height="148" viewBox="0 0 128 148" fill="none" xmlns="http://www.w3.org/2000/svg">
<path d="M2.97086 3.92738C2.97086 6.49301 3.30482 8.97595 3.30482 11.5315C3.30482 14.2744 2.88475 17.5639 3.62022 20.1372C4.00213 21.4734 3.24863 22.9516 3.97273 24.2546C4.65007 25.4734 4.30668 27.2604 4.30668 28.6316C4.30668 31.3889 4.30668 34.1461 4.30668 36.9034C4.30668 42.8186 3.97273 48.6371 3.97273 54.5413C3.97273 57.4779 3.97273 60.4144 3.97273 63.351C3.97273 65.6861 4.16626 68.8264 3.47179 71.0479C2.00003 75.7559 2.97086 81.8945 2.97086 86.794C2.97086 93.1617 2.97086 99.5294 2.97086 105.897C2.97086 111.814 1.96899 117.516 1.96899 123.424C1.96899 125.463 2.86586 127.686 2.97086 129.785C3.06589 131.685 3.63877 133.599 3.63877 135.479C3.63877 137.829 4.30668 140.144 4.30668 142.471C4.30668 144.159 3.61801 146.143 5.64251 146.143C7.52569 146.143 9.13557 145.476 10.9858 145.476C13.0686 145.476 15.2968 145.687 17.3681 145.457C18.7544 145.303 19.7528 144.474 21.1529 144.474C22.1446 144.474 23.213 144.587 24.1956 144.456C27.0842 144.071 30.0168 144.078 32.9527 144.14C34.2395 144.168 35.2757 144.808 36.5891 144.808C38.1908 144.808 39.7926 144.808 41.3943 144.808C44.7261 144.808 48.1061 145.142 51.4686 145.142C59.0157 145.142 66.5717 144.808 74.1034 144.808C80.5118 144.808 86.887 145.476 93.2873 145.476C98.309 145.476 103.331 145.476 108.352 145.476C112.799 145.476 117.246 145.476 121.692 145.476C123.097 145.476 125.662 146.114 126.126 144.548C126.694 142.633 125.961 140.356 125.867 138.465C125.756 136.251 125.867 134.005 125.867 131.788C125.867 127.036 125.533 122.243 125.533 117.433C125.533 106.941 125.867 96.5232 125.867 86.0522C125.867 62.3557 125.867 38.6592 125.867 14.9627C125.867 12.8506 125.199 11.007 125.199 8.95353C125.199 8.35158 125.524 3.96205 124.865 3.92738C120.674 3.70691 116.839 2.59202 112.694 2.59202C107.547 2.59202 102.53 2.06108 97.3319 1.92434C93.4371 1.82188 89.5208 1.92434 85.6249 1.92434C83.8781 1.92434 82.45 2.19101 80.764 2.4251C78.4992 2.73954 76.2542 2.5576 73.9921 3.00004C66.7952 4.40764 59.1215 3.92738 51.784 3.92738C44.9842 3.92738 38.1316 3.59354 31.3756 3.59354C21.6481 3.59354 12.5349 2.59202 2.77837 2.59202" stroke="#242424" stroke-width="2.42813" stroke-linecap="round"/>
</svg>
