<svg width="198" height="4" viewBox="0 0 198 4" fill="none" xmlns="http://www.w3.org/2000/svg">
<path d="M1.1929 2.23978C0.702217 2.23978 1.6551 2.77383 2.14579 2.77383C2.67454 2.77383 3.57848 3.08456 3.98133 2.80532C4.34696 2.55187 5.59185 2.63211 6.07129 2.63211C6.8325 2.63211 7.47199 2.49038 8.2703 2.49038C11.5179 2.49038 13.9633 2.41954 17.1882 2.41954C18.7775 2.41954 21.0176 2.63211 22.52 2.63211C23.898 2.63211 25.371 2.77383 26.8438 2.77383C27.786 2.77383 35.5596 2.72095 36.4576 2.49038C37.8894 2.44266 39.3658 2.34865 40.7466 2.34865C42.2051 2.34865 43.3172 2.20693 44.8168 2.20693C46.1452 2.20693 47.8934 2.20693 49.2519 2.20693C51.1884 2.20693 53.2714 2.20693 55.2946 2.20693C56.7406 2.20693 58.1471 2.49038 59.5563 2.49038C61.0527 2.49038 62.656 2.63211 64.2053 2.63211C65.8751 2.63211 67.5848 2.68824 69.3337 2.63211C71.5512 2.56095 82.2104 2.20693 84.4178 2.20693C86.2192 2.20693 87.9745 1.78176 89.7336 1.78176C91.2891 1.78176 92.6753 2.20693 94.2316 2.20693C97.0083 2.20693 99.7693 2.49038 102.573 2.49038C105.43 2.49038 108.212 2.49038 111.069 2.49038C115.385 2.49038 119.683 2.63211 124 2.63211C127.369 2.63211 130.691 2.20693 134.059 2.20693C135.347 2.20693 136.627 2.49038 137.903 2.49038C139.648 2.49038 141.392 2.49038 143.137 2.49038C146.725 2.49038 150.325 2.34865 153.896 2.34865C160.478 2.34865 167.135 2.49038 173.723 2.49038C175.186 2.49038 176.873 2.62329 178.303 2.88406C179.683 3.13575 181.023 2.63211 182.383 2.63211C184.453 2.63211 186.619 2.77383 188.607 2.77383C189.586 2.77383 196.532 1.93989 196.532 1.39981" stroke="#242424" stroke-width="2" stroke-linecap="round"/>
</svg>
