<svg width="4" height="41" viewBox="0 0 4 41" fill="none" xmlns="http://www.w3.org/2000/svg">
<path d="M1.22318 1.19437C1.17994 1.49409 1.01812 1.6422 1.1923 2.17043C1.32344 2.56814 1.37036 3.06472 1.50125 3.46169C1.69976 4.0637 1.83747 5.13022 1.83747 5.72139C1.83747 7.33089 1.15093 8.98942 1.66482 10.5479C1.90438 11.2744 2.09404 11.9913 2.31907 12.6737C2.52807 13.3076 2.87612 14.37 2.64619 15.0673C2.16216 16.5352 2.32815 18.2863 2.32815 19.8937C2.32815 23.1778 2.32815 26.408 2.32815 29.7435C2.32815 31.2976 1.67391 32.6886 1.67391 34.2787C1.67391 35.8961 2.19252 37.7492 2.19252 39.4137" stroke="#242424" stroke-width="2" stroke-linecap="round"/>
</svg>
