<svg width="199" height="4" viewBox="0 0 199 4" fill="none" xmlns="http://www.w3.org/2000/svg">
<path d="M1.22461 2.0711C1.22461 2.39156 5.8307 1.28345 6.33708 1.28345C8.37033 1.28345 10.2371 1 12.3071 1C14.2971 1 16.2871 1 18.2772 1C20.392 1 22.5513 1.42517 24.5743 1.42517C25.4113 1.42517 26.2532 1.70862 27.1913 1.70862C28.4726 1.70862 29.7538 1.70862 31.0351 1.70862C32.99 1.70862 35.1251 1.5669 37.1687 1.5669C41.0429 1.5669 44.8082 1.5669 48.7816 1.5669C51.5095 1.5669 54.2552 1.70862 56.9597 1.70862C58.1169 1.70862 59.2165 1.92758 60.3128 1.71649C61.4177 1.50373 71.193 1.28345 72.3347 1.28345C73.207 1.28345 79.6964 1.52366 80.5946 1.5669C81.6392 1.5669 82.5825 1.70862 83.6205 1.70862C85.5626 1.70862 87.4292 1.70862 89.427 1.70862C91.7738 1.70862 94.1102 1.42517 96.4602 1.42517C98.8849 1.42517 101.561 1.28345 103.902 1.28345C104.844 1.28345 105.768 1.04122 106.683 1.39368C107.682 1.77861 109.131 1.31249 110.19 1.57477C111.034 1.78374 112.045 1.85034 112.98 1.85034C113.674 1.85034 115.355 2.10346 115.879 1.74011C116.197 1.51943 118.187 1.5669 118.623 1.5669C119.734 1.5669 120.728 1.85034 121.812 1.85034C123.56 1.85034 125.382 1.94766 127.292 1.85034C128.196 1.80424 129.245 1.70862 130.236 1.70862C131.426 1.70862 132.645 1.44699 133.825 1.57477C137.81 2.00635 163.514 1.99207 167.528 1.99207C168.516 1.94451 169.43 1.70862 170.472 1.70862C171.481 1.70862 172.49 1.70862 173.498 1.70862C174.48 1.70862 175.461 1.70862 176.442 1.70862C177.136 1.70862 184.726 1.81885 185.438 1.70862C186.507 1.70862 187.419 1.70862 188.546 1.70862C189.602 1.70862 190.769 1.76623 191.899 1.70862C192.794 1.66301 193.72 1.19776 194.607 1.4173C195.362 1.60435 196.348 1.85034 197.133 1.85034" stroke="#242424" stroke-width="2" stroke-linecap="round"/>
</svg>
