<svg width="200" height="4" viewBox="0 0 200 4" fill="none" xmlns="http://www.w3.org/2000/svg">
<path d="M2.08496 2.24965C1.59178 2.24965 2.5495 2.81033 3.04268 2.81033C3.57411 2.81033 4.48265 3.13656 4.88754 2.8434C5.25504 2.5773 6.50625 2.66155 6.98812 2.66155C7.7532 2.66155 8.39593 2.51275 9.1983 2.51275C12.4624 2.51275 14.9203 2.43837 18.1615 2.43837C19.7589 2.43837 22.0103 2.66155 23.5204 2.66155C24.9054 2.66155 26.3859 2.81033 27.8661 2.81033C28.8132 2.81033 36.6262 2.75481 37.5288 2.51275C38.9678 2.46265 40.4517 2.36395 41.8396 2.36395C43.3054 2.36395 44.4232 2.21517 45.9304 2.21517C47.2656 2.21517 49.0227 2.21517 50.388 2.21517C52.3344 2.21517 54.4279 2.21517 56.4615 2.21517C57.9148 2.21517 59.3285 2.51275 60.7448 2.51275C62.2488 2.51275 63.8603 2.66155 65.4174 2.66155C67.0957 2.66155 68.8141 2.72048 70.5719 2.66155C72.8006 2.58683 83.514 2.21517 85.7327 2.21517C87.5432 2.21517 89.3074 1.7688 91.0754 1.7688C92.6388 1.7688 94.032 2.21517 95.5963 2.21517C98.3871 2.21517 101.162 2.51275 103.98 2.51275C106.852 2.51275 109.647 2.51275 112.52 2.51275C116.857 2.51275 121.176 2.66155 125.516 2.66155C128.902 2.66155 132.241 2.21517 135.626 2.21517C136.92 2.21517 138.207 2.51275 139.489 2.51275C141.243 2.51275 142.996 2.51275 144.75 2.51275C148.356 2.51275 151.975 2.36395 155.563 2.36395C162.179 2.36395 168.87 2.51275 175.492 2.51275C176.962 2.51275 178.658 2.65229 180.095 2.92606C181.481 3.19031 182.828 2.66155 184.195 2.66155C186.276 2.66155 188.453 2.81033 190.451 2.81033C191.435 2.81033 198.416 1.93481 198.416 1.3678" stroke="#242424" stroke-width="2" stroke-linecap="round"/>
</svg>
