<svg width="199" height="43" viewBox="0 0 199 43" fill="none" xmlns="http://www.w3.org/2000/svg">
<path d="M1.11133 2.0711C1.11133 2.39156 5.71741 1.28345 6.2238 1.28345C8.25705 1.28345 10.1239 1 12.1938 1C14.1838 1 16.1739 1 18.1639 1C20.2787 1 22.438 1.42517 24.461 1.42517C25.298 1.42517 26.1399 1.70862 27.078 1.70862C28.3593 1.70862 29.6405 1.70862 30.9218 1.70862C32.8768 1.70862 35.0118 1.5669 37.0554 1.5669C40.9297 1.5669 44.695 1.5669 48.6683 1.5669C51.3962 1.5669 54.1419 1.70862 56.8465 1.70862C58.0036 1.70862 59.1032 1.92758 60.1995 1.71649C61.3045 1.50373 71.0797 1.28345 72.2214 1.28345C73.0937 1.28345 79.5831 1.52366 80.4813 1.5669C81.5259 1.5669 82.4692 1.70862 83.5072 1.70862C85.4493 1.70862 87.3159 1.70862 89.3137 1.70862C91.6605 1.70862 93.9969 1.42517 96.3469 1.42517C98.7716 1.42517 101.448 1.28345 103.789 1.28345C104.731 1.28345 105.654 1.04122 106.57 1.39368C107.569 1.77861 109.018 1.31249 110.077 1.57477C110.921 1.78374 111.932 1.85034 112.867 1.85034C113.56 1.85034 115.241 2.10346 115.765 1.74011C116.084 1.51943 118.074 1.5669 118.51 1.5669C119.62 1.5669 120.614 1.85034 121.699 1.85034C123.446 1.85034 125.269 1.94766 127.178 1.85034C128.083 1.80424 129.131 1.70862 130.123 1.70862C131.313 1.70862 132.532 1.44699 133.712 1.57477C137.697 2.00635 163.401 1.99207 167.415 1.99207C168.403 1.94451 169.317 1.70862 170.359 1.70862C171.368 1.70862 172.376 1.70862 173.385 1.70862C174.366 1.70862 175.348 1.70862 176.329 1.70862C177.023 1.70862 184.613 1.81885 185.325 1.70862C186.394 1.70862 187.306 1.70862 188.433 1.70862C189.488 1.70862 190.655 1.76623 191.786 1.70862C192.681 1.66301 193.607 1.19776 194.494 1.4173C195.249 1.60435 196.234 1.85034 197.02 1.85034" stroke="#242424" stroke-width="2" stroke-linecap="round"/>
<path d="M197.182 2.11542C198.153 2.22056 197.346 6.2183 197.346 6.86316C197.346 8.35892 197.346 10.1166 197.346 11.6109C197.346 13.1661 197.89 14.8398 197.5 16.3586C197.064 18.0611 197.51 19.439 197.51 21.1772C197.51 22.0234 197.673 27.3075 197.673 28.1217C197.673 28.972 197.673 29.8224 197.673 30.6727C197.673 32.3208 198 33.8979 198 35.5622C198 36.3955 197.837 37.1969 197.837 37.9715C197.837 38.3677 197.904 38.7337 197.419 39.5737" stroke="#242424" stroke-width="2" stroke-linecap="round"/>
<path d="M1.1099 2.19437C1.06666 2.49409 0.904835 2.6422 1.07902 3.17043C1.21016 3.56814 1.25708 4.06472 1.38797 4.46169C1.58648 5.0637 1.72419 6.13022 1.72419 6.72139C1.72419 8.33089 1.03765 9.98942 1.55154 11.5479C1.79109 12.2744 1.98076 12.9913 2.20579 13.6737C2.41479 14.3076 2.76284 15.37 2.53291 16.0673C2.04888 17.5352 2.21487 19.2863 2.21487 20.8937C2.21487 24.1778 2.21487 27.408 2.21487 30.7435C2.21487 32.2976 1.56063 33.6886 1.56063 35.2787C1.56063 36.8961 2.07924 38.7492 2.07924 40.4137" stroke="#242424" stroke-width="2" stroke-linecap="round"/>
<path d="M2.07962 41.2398C1.58894 41.2398 2.54182 41.7738 3.03251 41.7738C3.56126 41.7738 4.4652 42.0846 4.86805 41.8053C5.23368 41.5519 6.47857 41.6321 6.95801 41.6321C7.71922 41.6321 8.35871 41.4904 9.15702 41.4904C12.4046 41.4904 14.8501 41.4195 18.0749 41.4195C19.6642 41.4195 21.9043 41.6321 23.4068 41.6321C24.7848 41.6321 26.2577 41.7738 27.7305 41.7738C28.6727 41.7738 36.4463 41.7209 37.3443 41.4904C38.7761 41.4427 40.2525 41.3487 41.6333 41.3487C43.0918 41.3487 44.2039 41.2069 45.7035 41.2069C47.0319 41.2069 48.7801 41.2069 50.1386 41.2069C52.0751 41.2069 54.1581 41.2069 56.1813 41.2069C57.6273 41.2069 59.0338 41.4904 60.443 41.4904C61.9394 41.4904 63.5427 41.6321 65.092 41.6321C66.7618 41.6321 68.4716 41.6882 70.2204 41.6321C72.4379 41.5609 83.0971 41.2069 85.3046 41.2069C87.106 41.2069 88.8612 40.7818 90.6203 40.7818C92.1759 40.7818 93.562 41.2069 95.1183 41.2069C97.8951 41.2069 100.656 41.4904 103.46 41.4904C106.317 41.4904 109.098 41.4904 111.956 41.4904C116.272 41.4904 120.569 41.6321 124.887 41.6321C128.256 41.6321 131.578 41.2069 134.946 41.2069C136.233 41.2069 137.514 41.4904 138.79 41.4904C140.534 41.4904 142.279 41.4904 144.024 41.4904C147.611 41.4904 151.212 41.3487 154.782 41.3487C161.365 41.3487 168.021 41.4904 174.61 41.4904C176.073 41.4904 177.76 41.6233 179.19 41.8841C180.569 42.1358 181.91 41.6321 183.27 41.6321C185.34 41.6321 187.506 41.7738 189.494 41.7738C190.473 41.7738 197.418 40.9399 197.418 40.3998" stroke="#242424" stroke-width="2" stroke-linecap="round"/>
</svg>
