<svg width="4" height="43" viewBox="0 0 4 43" fill="none" xmlns="http://www.w3.org/2000/svg">
<path d="M1.11046 1.12451C1.067 1.43918 0.904351 1.59468 1.07942 2.14925C1.21123 2.56679 1.25838 3.08813 1.38994 3.5049C1.58945 4.13693 1.72786 5.25662 1.72786 5.87728C1.72786 7.56704 1.03784 9.30827 1.55434 10.9444C1.79511 11.7071 1.98574 12.4598 2.21191 13.1763C2.42198 13.8418 2.7718 14.9571 2.5407 15.6892C2.05421 17.2303 2.22104 19.0687 2.22104 20.7564C2.22104 24.2041 2.22104 27.5955 2.22104 31.0973C2.22104 32.7289 1.56347 34.1892 1.56347 35.8586C1.56347 37.5567 2.08472 39.5022 2.08472 41.2496" stroke="#242424" stroke-width="2" stroke-linecap="round"/>
</svg>
