<svg width="206" height="50" viewBox="0 0 206 50" fill="none" xmlns="http://www.w3.org/2000/svg">
<path d="M1.11328 2.27515C1.11328 2.65665 5.86465 1.33744 6.387 1.33744C8.48438 1.33744 10.4101 1 12.5453 1C14.5981 1 16.6509 1 18.7037 1C20.8852 1 23.1126 1.50616 25.1995 1.50616C26.0628 1.50616 26.9313 1.84361 27.899 1.84361C29.2206 1.84361 30.5423 1.84361 31.864 1.84361C33.8806 1.84361 36.083 1.67489 38.191 1.67489C42.1875 1.67489 46.0715 1.67489 50.1702 1.67489C52.9841 1.67489 55.8164 1.84361 58.6063 1.84361C59.8 1.84361 60.9343 2.10428 62.0651 1.85298C63.2049 1.59969 73.2885 1.33744 74.4662 1.33744C75.366 1.33744 82.0601 1.62342 82.9866 1.67489C84.0641 1.67489 85.0372 1.84361 86.1079 1.84361C88.1113 1.84361 90.0368 1.84361 92.0976 1.84361C94.5185 1.84361 96.9285 1.50616 99.3526 1.50616C101.854 1.50616 104.614 1.33744 107.029 1.33744C108.001 1.33744 108.954 1.04907 109.898 1.46867C110.929 1.92694 112.423 1.37202 113.516 1.68426C114.387 1.93304 115.429 2.01233 116.393 2.01233C117.109 2.01233 118.843 2.31367 119.384 1.8811C119.712 1.61838 121.765 1.67489 122.214 1.67489C123.36 1.67489 124.386 2.01233 125.504 2.01233C127.307 2.01233 129.187 2.12818 131.157 2.01233C132.09 1.95744 133.171 1.84361 134.194 1.84361C135.421 1.84361 136.679 1.53214 137.896 1.68426C142.006 2.19806 168.521 2.18105 172.662 2.18105C173.681 2.12444 174.624 1.84361 175.699 1.84361C176.74 1.84361 177.78 1.84361 178.82 1.84361C179.833 1.84361 180.845 1.84361 181.857 1.84361C182.573 1.84361 190.403 1.97483 191.137 1.84361C192.24 1.84361 193.18 1.84361 194.343 1.84361C195.432 1.84361 196.636 1.9122 197.802 1.84361C198.725 1.78931 199.68 1.23543 200.595 1.49679C201.374 1.71948 202.391 2.01233 203.201 2.01233" stroke="#242424" stroke-width="2" stroke-linecap="round"/>
<path d="M203.369 2.18115C204.371 2.30633 203.538 7.06563 203.538 7.83332C203.538 9.61403 203.538 11.7065 203.538 13.4855C203.538 15.3369 204.099 17.3295 203.697 19.1377C203.247 21.1645 203.707 22.8048 203.707 24.8742C203.707 25.8816 203.875 32.1723 203.875 33.1416C203.875 34.1539 203.875 35.1662 203.875 36.1785C203.875 38.1406 204.213 40.0181 204.213 41.9994C204.213 42.9915 204.044 43.9455 204.044 44.8677C204.044 45.3394 204.114 45.7751 203.614 46.7751" stroke="#242424" stroke-width="2" stroke-linecap="round"/>
<path d="M1.11337 2.27515C1.06877 2.63196 0.901833 2.80829 1.08151 3.43715C1.21679 3.91062 1.26519 4.5018 1.40021 4.97439C1.60497 5.69108 1.74703 6.96077 1.74703 7.66456C1.74703 9.58066 1.03884 11.5551 1.56893 13.4105C1.81605 14.2753 2.01169 15.1288 2.24382 15.9413C2.45942 16.6959 2.81844 17.9607 2.58126 18.7908C2.08196 20.5384 2.25319 22.623 2.25319 24.5367C2.25319 28.4463 2.25319 32.292 2.25319 36.2629C2.25319 38.113 1.57831 39.769 1.57831 41.662C1.57831 43.5875 2.11328 45.7937 2.11328 47.7751" stroke="#242424" stroke-width="2" stroke-linecap="round"/>
<path d="M2.11347 47.7751C1.60731 47.7751 2.59024 48.4109 3.09641 48.4109C3.64183 48.4109 4.57429 48.7808 4.98984 48.4484C5.36701 48.1467 6.65116 48.2422 7.14573 48.2422C7.93094 48.2422 8.5906 48.0735 9.41409 48.0735C12.7641 48.0735 15.2867 47.9891 18.6133 47.9891C20.2527 47.9891 22.5634 48.2422 24.1133 48.2422C25.5347 48.2422 27.0542 48.4109 28.5734 48.4109C29.5453 48.4109 37.5641 48.348 38.4904 48.0735C39.9674 48.0167 41.4903 47.9047 42.9147 47.9047C44.4192 47.9047 45.5664 47.736 47.1133 47.736C48.4836 47.736 50.2869 47.736 51.6882 47.736C53.6858 47.736 55.8345 47.736 57.9215 47.736C59.4131 47.736 60.864 48.0735 62.3177 48.0735C63.8613 48.0735 65.5151 48.2422 67.1133 48.2422C68.8357 48.2422 70.5994 48.309 72.4035 48.2422C74.6909 48.1575 85.6863 47.736 87.9634 47.736C89.8216 47.736 91.6322 47.2299 93.4468 47.2299C95.0514 47.2299 96.4812 47.736 98.0867 47.736C100.951 47.736 103.799 48.0735 106.691 48.0735C109.639 48.0735 112.508 48.0735 115.456 48.0735C119.907 48.0735 124.34 48.2422 128.794 48.2422C132.269 48.2422 135.696 47.736 139.17 47.736C140.498 47.736 141.819 48.0735 143.135 48.0735C144.935 48.0735 146.735 48.0735 148.534 48.0735C152.235 48.0735 155.949 47.9047 159.633 47.9047C166.422 47.9047 173.289 48.0735 180.085 48.0735C181.595 48.0735 183.335 48.2317 184.81 48.5421C186.233 48.8418 187.615 48.2422 189.018 48.2422C191.154 48.2422 193.388 48.4109 195.439 48.4109C196.449 48.4109 203.613 47.4181 203.613 46.7751" stroke="#242424" stroke-width="2" stroke-linecap="round"/>
</svg>
