<svg width="200" height="4" viewBox="0 0 200 4" fill="none" xmlns="http://www.w3.org/2000/svg">
<path d="M1.1106 2.12451C1.1106 2.46095 5.74008 1.29758 6.24903 1.29758C8.29261 1.29758 10.1689 1 12.2494 1C14.2495 1 16.2496 1 18.2498 1C20.3753 1 22.5456 1.44637 24.5789 1.44637C25.4201 1.44637 26.2663 1.74395 27.2092 1.74395C28.497 1.74395 29.7847 1.74395 31.0725 1.74395C33.0374 1.74395 35.1833 1.59516 37.2372 1.59516C41.1312 1.59516 44.9156 1.59516 48.9092 1.59516C51.6509 1.59516 54.4105 1.74395 57.1288 1.74395C58.2919 1.74395 59.3971 1.97383 60.4989 1.75222C61.6095 1.52885 71.4344 1.29758 72.5818 1.29758C73.4586 1.29758 79.981 1.54977 80.8837 1.59516C81.9336 1.59516 82.8818 1.74395 83.925 1.74395C85.877 1.74395 87.7531 1.74395 89.761 1.74395C92.1198 1.74395 94.468 1.44637 96.8299 1.44637C99.2669 1.44637 101.957 1.29758 104.31 1.29758C105.256 1.29758 106.185 1.04327 107.104 1.41331C108.109 1.81744 109.565 1.32808 110.63 1.60343C111.478 1.82282 112.494 1.89274 113.434 1.89274C114.131 1.89274 115.82 2.15849 116.347 1.77702C116.667 1.54533 118.667 1.59516 119.105 1.59516C120.222 1.59516 121.221 1.89274 122.311 1.89274C124.067 1.89274 125.899 1.99491 127.818 1.89274C128.727 1.84434 129.781 1.74395 130.777 1.74395C131.973 1.74395 133.199 1.46928 134.385 1.60343C138.39 2.05653 164.224 2.04154 168.259 2.04154C169.252 1.99161 170.17 1.74395 171.218 1.74395C172.232 1.74395 173.246 1.74395 174.259 1.74395C175.246 1.74395 176.232 1.74395 177.218 1.74395C177.916 1.74395 185.545 1.85968 186.26 1.74395C187.334 1.74395 188.251 1.74395 189.383 1.74395C190.444 1.74395 191.617 1.80444 192.754 1.74395C193.653 1.69607 194.584 1.20762 195.475 1.4381C196.235 1.63449 197.225 1.89274 198.014 1.89274" stroke="#242424" stroke-width="2" stroke-linecap="round"/>
</svg>
