<svg width="19" height="32" viewBox="0 0 19 32" fill="none" xmlns="http://www.w3.org/2000/svg">
<path d="M11.748 23.4777C11.7074 22.3768 11.4516 21.3417 11.4124 20.2782C11.3685 19.0879 11.766 18.0633 11.7232 16.9042C11.679 15.7052 12.0762 14.6734 12.0305 13.4334L11.9163 10.337C11.9056 10.0478 11.6935 9.27592 11.3172 9.17044C10.8102 9.02835 11.0038 8.18836 10.2236 8.36535C9.98571 8.41931 8.42632 9.94859 8.42357 10.0421C8.39772 10.9213 7.61738 11.7854 7.6485 12.6293C7.68992 13.7527 7.74694 14.8168 7.56366 15.9025C7.21523 17.9667 7.92881 20.2314 8.00529 22.3056C8.0535 23.6129 8.03231 27.8928 9.37329 28.6607C9.66692 28.8288 9.55681 29.0566 9.62664 29.3017C9.70649 29.5819 10.132 29.6748 10.3828 29.807C10.8742 30.0659 11.3409 30.0282 11.9269 30.0452L13.5608 30.0928C14.2816 30.1137 14.2097 29.4502 14.6104 29.0493C15.2527 28.4068 15.3182 27.3041 15.9256 26.6819C16.3998 26.196 16.4691 25.4884 16.6448 24.877C16.7858 24.3866 17.258 24.1285 17.236 23.5303C17.0593 18.7401 16.0201 14.1623 15.8436 9.37758C15.8204 8.74657 15.4059 8.31109 15.3473 7.71994C15.3098 7.34215 14.8999 6.33683 14.6779 5.96061C14.0488 4.89449 14.1454 3.38736 13.0922 2.62808C12.2484 2.01984 11.6131 1.57469 10.3818 1.58262C9.43793 1.58871 8.97017 2.45597 7.97267 2.47911C7.11233 2.49907 5.91763 3.15435 5.05487 3.35005C4.72516 3.42484 4.15783 3.96351 4.12272 4.30026C4.07428 4.76479 2.99637 5.18197 2.81874 5.65849C2.42514 6.71435 1.84499 7.44791 1.88692 8.58484C1.93012 9.7566 2.04933 10.6464 2.42508 11.7043C3.10576 13.6207 3.01839 15.6632 3.0937 17.7059L3.32562 23.9954" stroke="#242424" stroke-width="2.79126" stroke-linecap="round"/>
</svg>
