<svg xmlns="http://www.w3.org/2000/svg" viewBox="0 0 223.41 176.58"><defs><style>.cls-1{fill:#fff;}</style></defs><g id="Calque_2" data-name="Calque 2"><g id="Calque_1-2" data-name="Calque 1"><path d="M32,76.52a9.51,9.51,0,0,1,1,2.58c.11,2,.29,3.71,2.51,4.44.23.08.36.48.54.73,6.09,8.8,3.13,6.5,13,8.27.38.07.69.49,1,.75a7.82,7.82,0,0,1-1.09,1.2c-.21.16-.64,0-1,0-1.17,0-2.34,0-3.5,0A6,6,0,0,0,40,95.85c-1,.89-3,.64-4.77.93v5.53c2.07.47,4.67.46,6.53,1.63,2.26,1.4,5.07-.8,6.88,1.58,2.5,0,5,.11,7.49,0A2.88,2.88,0,0,1,58.92,107c.35.59-1.78,1.7-3.24,1.47-1.7-.27-3.21-1.19-5.1-1.06-1.67.12-3.64.85-5.13-.86-.13-.15-1.07.46-1.66.65s-.52,1.21-1.78.92c-2.49-.57-4.09,1.1-4,3.6.06,1.75.89,2.77,2.61,2.75,3.33,0,6.86.78,9.73-1.82,2.79,0,5.63-.32,8.33.16,1.92.35,3.74,1.4,5.76,1.79a2.67,2.67,0,0,1,1.45,2.19,2.16,2.16,0,0,1-2.59,1.71c-.31-.07-.68,0-.93-.16-4.63-2.88-9.81-2-14.72-1.65-2.22.15-5.22,0-6.9,2.53-.14.2-.58.17-.87.28-2.79,1.07-3.31,1.8-2.87,4,.54,2.68,2,3.61,4.46,4.07,3,.57,5-1.82,7.66-2.27a24.31,24.31,0,0,1,4.11-.81c6.17,0,12.34-.09,18.5,0,2.37,0,4.72.76,7.09.92s5.09-.37,7.47.15c2.55.56,5.07.66,7.6,1s5,1,7.6.91,5,0,7.5,0c2.67,0,5.33,0,8,0a12.47,12.47,0,0,1,3.64.82c2.21.67,4.51,1.63,7,1.21,3.27-.53,5.92,1.91,9.06,2.23.42,0,.81.72,1.18.7,5.58-.35,11.17,2.41,16.53.84,3.93-1.15,8.06.32,11.77-1.74a3.53,3.53,0,0,1,2.93,0c3.24,1.74,7.18.86,10.32,2.87.24.15.64,0,1,.07,4,.33,8.06.61,12.08,1,1.88.19,3.72.7,5.59,1s3.77-.33,5.65.92c1.38.92,3.05-.33,4.51-.94a1.42,1.42,0,0,0,.71-1c.07-2,.64-4.27-.11-5.94-1.27-2.83.14-4.34,1.71-6.08.62-.69,1.12-1.48,2.08-2.76H202.13c3.29-1.93,5.53-3.32,7.83-4.58,2.14-1.17,4.16-2.22,4.27-5.2,0-1.09,1.17-2.14,2-3.51-2.23-2.62-4.53-5.21-8.25-6.16,1.44-1.85,2.85-2.9,4.93-.27V96.58h-4.42c.95-1,1.35-1.72,1.76-1.72,4.48,0,6.38-3,7.79-6.57,2.87-1.6,3.87-4.54,2.79-7.08-.81-1.91-.07-4.22-1.76-5.8-.24-.23,0-1,0-1.89-3.64,0-7.25,0-10.86,0a12.54,12.54,0,0,1-3.67-.74c-1.72-.56-1.81-1.67-1.36-2.41A3.74,3.74,0,0,1,205.94,69a42.41,42.41,0,0,1,5.73.69c.86-3.38.19-6-2.31-8.34A9.92,9.92,0,0,1,208,63.8a3.55,3.55,0,0,1-2.08.66c-.26,0-.85-.59-.82-.86a3.7,3.7,0,0,1,.7-2c.89-.9,2.36-1.36,2.93-2.37s.84-1.92,2.3-1.74c.29,0,.9-.74,1-1.2.42-2.35.67-4.73,1.07-7.08.07-.41.59-.76,1.15-1.44-3.33-.12-6.21-1.69-9.5-1.29-.85.1-1.82-.75-3.49-1.51,3.06-.17,5.54.35,7.21-.57,2.24-1.24,3.86-3.61,5.75-5.49C215.1,37.93,216,37,217,36c0-1.64,0-3.31,0-5,0-2.89-.57-3.49-3.33-3.52-3.84-.05-7.67-.11-11.5,0-1.78.06-3.29-.14-4.3-1.71-.86-1.32-2.07-1.39-3.46-1.36-3,.07-6.13.57-9-.13-2.6-.65-4.43-.44-6.4,1.63.79,1.13,2.13,1.94,2.09,3.85-.06,2.25-2,1.57-3.13,3.06,0-1.14,0-1.76,0-2.38-.12-3.62-.24-3.4-3.85-4.1a35.86,35.86,0,0,0-8.11-.94,1.28,1.28,0,0,1-1-.72c-.43-2.61-2.4-2.23-4.17-2.24-2.66,0-5.34.1-8,0a11.5,11.5,0,0,0-5.52,1.18c-.7.32-1.46.88-2.14.81-4-.42-8.1.92-12.15-.83-1.68-.73-3.94-.12-5.94-.12-1.34,0-3.11.55-3.93-.1-3.26-2.6-7.23-2.14-10.86-2.76s-7.64-.13-11.47-.16c-.27,0-.54-.28-.81-.44.86-2.06.89-2.13,2.37-1.6,3.94,1.39,8,1,12.06,1.06A2.29,2.29,0,0,0,117,17.15c.13-1.49-.26-3.08.12-4.47a6.74,6.74,0,0,0,0-3.22c-.71-4.28.94-5.91,5.39-5.94.83,0,1.67,0,2.5,0a7.35,7.35,0,0,1-.75,1A26.13,26.13,0,0,0,122,6.74V6.52a2.68,2.68,0,0,0-.76.3c-.06,0,.11.39.17.6a1.87,1.87,0,0,0,.59-.68c1.85-.61,3.85.51,5.68-1.11.5-.43,2.25.55,3.91,1a15.65,15.65,0,0,1-5.91,2c-6.42.81-8.18,4.71-5.36,9.72.38.67.72,1.37,1.14,2.18,2.57,0,5.35.5,7.83-.14a52.09,52.09,0,0,1,8.69-2c1.26-.11,2.54-1.18,3.6-2.05s0-1.65-.56-2.41a1.08,1.08,0,0,1,0-1c2.6-4.12.19-6.8-2.56-9.5C137,5.44,137,5.44,137.74,7.75s.63,2.24-2.46,3.89a20.94,20.94,0,0,0,.7-3,33.12,33.12,0,0,0,0-3.41,51.49,51.49,0,0,1-4.7-3c-.93-.73-1.45-.92-2.5-.15-.68.5-1.85.31-2.8.43.47-.64.95-1.27,1.41-1.92.68-.95,1.15-.57,2.19-.24,1.91.6,4.34-.43,5.73,1.94A4,4,0,0,0,136,2c1.46-.77,2.55-.51,3.83.84.57.59,1.2,1.58,1.81,1.58,2.32,0,2,2.31,2.15,3.15.32,1.58,1,3.58-.5,5.18a1.63,1.63,0,0,0-.27,1.36,12.9,12.9,0,0,1-.25,8.35c1.53,0,3.06.47,3.7-.08,3-2.56,6.43-1.77,9.76-1.86,2.66-.07,5.63-.75,7.92.18,2.66,1.08,5.06.42,7.92.93V14.38c3.17,1.82,1.26,4.7,2.15,6.83,2.54-.53,1.53-2.59,1.8-4.14.16-.92-.92-2.74,1.21-2.49,1.43.17.6,1.61.73,2.48a9.88,9.88,0,0,1,0,2.49c-.28,2.85.15,3.65,2.47,2.86,3.39-1.16,6.76-.6,10.12-.93a14.88,14.88,0,0,1,10,2.3,5.22,5.22,0,0,0,3.22.72c3,.05,6-.17,9,.07,2.79.23,5.72.67,6.72,4,.27.9.74,2.11.37,2.77-1.2,2.15-.74,4.4-1,6.62-.09.85-.91,1.6-1.32,2.43-.86,1.71-2.83,3.32-.09,5.24a1.83,1.83,0,0,1-.18,3c-3,2.37-3.84,5.59-3.27,9.11.24,1.46-1,2.43-.55,3.87a12.47,12.47,0,0,1,.44,3.81,6.91,6.91,0,0,0,2.1,4.64c.5.56,3.82,4.77,4.12,5.12,1.72,2,2.15,4.5,2.73,6.86.93,3.78.62,4.42-1.82,6.85s-3.78,5.78-5.59,8.71c-1.18,1.91-.8,2.48,1.45,4.38,3.35,2.81,3.88,5.29,1.82,9.23-.94,1.79-2.18,3.42-3.13,5.21a4.92,4.92,0,0,0-.6,2.71c.3,2.24-.65,3.75-2.25,5.11a5.45,5.45,0,0,0-2,3.71c-.12.92-.58,1.44.29,2.17a2.85,2.85,0,0,1,.32,4.33,5.18,5.18,0,0,0-1.41,4.46,2.18,2.18,0,0,1-2.27,2.54c-3.37-.13-6.72-.59-10.08-1a.93.93,0,0,1-.63-.62c-.44-2.89-2.66-2.32-4.54-2.35-2.17,0-4.34,0-6.5,0a16.62,16.62,0,0,1-5.11-.92c-4.26-1.26-8.74-3-13.11-2-6.07,1.47-12.09.58-18.12.8-2.35.08-4.72-.59-7.08-.94s-4.52.58-6.77-.57c-.69-.35-1.93.56-2.9.51s-1.7-.8-2.59-.9c-3-.35-4.94,1.08-5.26,4.13a32.74,32.74,0,0,0,0,6.49c.08.82.83,2.1,1.49,2.25,1.84.41,2.65,1.68,4.89,7.53,1.55.42,1.55.42-1.1-2.59-.11-.12-.25-.22-.35-.35-2.45-3.36-6.17-3.37-8,0-.21.39.1,1-.05,1.47-.71,2.07-1.7,2.32-3.45,1.06-.61-.44-1.63-1.18-2-1-2.42,1.4-6.27.78-7,4.78-.06.35-.88.79-1.36.82-2.06.11-2.06.06-2,2.32,5.09,0,10.2-.21,15.28.08a17.54,17.54,0,0,0,7-1.31c1.41-.5,2.76-.54,3-5.34-.78-4.43,0-4.68.52-4.39,1.25.77,2.18.91,3-.5.21-.33.79-.44,1.53-.84.9,2.36.23,4.65.52,6.84,3.87,1.69,7.11,4.08,9.11,8,.49,1,1.26,1.54,3.12.9a37.14,37.14,0,0,1,15.39-1.38,12.26,12.26,0,0,1,4.66,1.94,35.66,35.66,0,0,0,13.93,5c.28,0,.7.67.68,1s-.51.91-.79.9c-2.91,0-5.59,1.65-8.58,1.08a10.76,10.76,0,0,0-3.49,0c-1.13.17-1.45-2.13-3-.71s-1.54-1-2.45-1.14-1.62-.07-2.42-.19c-2.86-.43-5.92,1-8.63-.88-1.79,1.73-2.32.55-3.24-1-.49-.84-2.19-.94-3.28-1.5a6.17,6.17,0,0,1-3.3-3,6.59,6.59,0,0,0-5.89-3.6c-1.37,0-2.73-.87-4.09-.87s-2.71.8-4.08.88c-1.85.1-2.6.9-2.76,2.69s-1.21,2.42-3,2.39c-4.83-.09-9.66,0-14.49-.06a18.09,18.09,0,0,0-6.1,1c-2.66.86-5.44,1.36-8.15,2.06a20.51,20.51,0,0,0-3.08,1c-2.45,1.1-4.78,2.37-7.68,2.07a5.88,5.88,0,0,0-4,1.06c-2.06,1.73-4.88-.11-6.83,1.79-.22.21-1.34-.57-2.07-.82a22.91,22.91,0,0,1-3.51-1.16c-1.27-.68-1.87,1.36-3.38.44-1.1-.67-2.85-.33-4.31-.38a17.73,17.73,0,0,0-4,0c-2.27.45-4.51,1.13-6.74,1.8-2.52.77-5.22.87-7.62,2.11-.19.1-.77-.37-1-.7a.9.9,0,0,1,.14-.88c.77-.52,1.63-1.33,2.42-1.3,2.82.11,5.12-1.43,7.68-2s4.95-.7,7.2-2a2.83,2.83,0,0,1,1.46-.07c3.92.38,7.76-.72,11.55-1.22a83.06,83.06,0,0,0,17.27-4c2.75-1,5.55-1.87,8.34-2.77,3.26-1,4-1.81,3.88-5.06-.06-2.71.13-5.37-.8-8.13a10.09,10.09,0,0,1,.91-7.5,37.49,37.49,0,0,0,2.46-7.46c.12-.47-.83-1.7-1.4-1.78-3.5-.48-7-.78-10.57-1.05a30.59,30.59,0,0,0-4.49,0c-3.26.25-6.28-.68-9.29-1.72a3.6,3.6,0,0,0-.88-.28c-4.36-.35-8.71-.81-13.08-1s-8.66,0-13,0a3.87,3.87,0,0,0-1.79.46c-3.61,1.92-7.52,1.55-11.37,1.49a3.94,3.94,0,0,1-3.64-3.75c0-1.56-.26-3.07.69-4.73a5.92,5.92,0,0,0,.44-4.58c-.88-2.89-.07-6,1.25-8.85a3.31,3.31,0,0,0,.09-1.06c-1.63.23-2-1.58-3.18-2a7.6,7.6,0,0,0-2.1,0c-.75-3.58.89-7.6-2.07-10.39,1.22-1.53,3-2.86,3.33-4.47s-1-3.5-1.49-5.27a25.42,25.42,0,0,1-1-3.59,14.56,14.56,0,0,1,0-3.49C31.08,77,31.68,76.78,32,76.52Zm75.2,76.9-.67-.9c-.17.23-.51.46-.5.68a5.13,5.13,0,0,0,.38,1.23c.24-.3.47-.6,1.17-2.83l-.58.47.45.45a5.24,5.24,0,0,0,.44-.61S107.71,151.71,107.21,153.42Zm7.71-6.51c.78.88,2.35.46,2.18,2.28-.11,1.24,2,2,2.67,1,1.27-1.92,2.71-4,3.11-6.16.53-2.9,0-6,.17-9a2.35,2.35,0,0,0-1.48-2.34,12.94,12.94,0,0,0-4.52-1.11c-3.28-.17-6.58,0-9.78,0l-.81,6.07c1.36-.15,3.09,0,4.44-.6,1.84-.84,3.41-.27,5.37-.35l-.88,3.8c2.61.08,5.33.15,6.56,2.93.58,1.33-2.47,2.85-6.23,3.15A4.62,4.62,0,0,0,114.92,146.91Zm41.19,21.42c1.6.15,3.13.71,4.49-.78a4.45,4.45,0,0,1,2.05-1c1.62-.48,1,1.58,1.66,1.68a33.91,33.91,0,0,0,5.26.09c-.87-1.2-1.26-2.14-2-2.63-2.26-1.58-4.91-1.15-7.46-1.16C157.29,164.52,157.29,164.54,156.11,168.33ZM111.3,147.14a14.49,14.49,0,0,1-1.25-2.72,15.17,15.17,0,0,1,0-3c-5.54,1.95-5.54,1.95-4.42,6.91C107,146.72,109,148,111.3,147.14Zm65.34,23.22c-2.15-1.13-3.48-1.84-4.83-2.52-.17-.09-.45,0-.71.06v2.46Zm-26.45-4.84v.64a12.41,12.41,0,0,1,2,1c1.18.9,1.79,0,2.33-.72a4.2,4.2,0,0,0,.34-1.64,8.84,8.84,0,0,1-1.87.65A23.25,23.25,0,0,1,150.19,165.52Z"/><path d="M32.52,76.88c-1.25-3.89.89-6.81,1.77-9.93.75-2.63,1-5,.12-7.43-.33-.9-.53-1.43.18-2.09A5.43,5.43,0,0,0,36,56c.14-.32-.64-1.08-.48-1.36a13.06,13.06,0,0,0,.69-11.51A6.77,6.77,0,0,1,36,40.69c.07-5-1.48-9.64-2.68-14.38-1.09-4.3.32-8.09,2.9-11.52a3.29,3.29,0,0,1,3-1.31c4.83.08,9.76-.57,14.46.2,4.9.81,9.74.68,14.61.86a5.07,5.07,0,0,1,1.77.53,4,4,0,0,0,4.07-.13c1.88-1.16,3.84-2.36,6-.45.19.17.65.06,1,0,2.18-.29,2.72,1.26,3.2,2.92C85.63,16.9,86.15,15,88,15.51c2.82.84,5.88,1.13,8.36,3.79-1,.09-1.94.44-2.55.17a7.8,7.8,0,0,0-7.23,0c-.64.31-1.78-.35-2.68-.59-1.5-.39-2.82-1.16-4.41-1.5a11.35,11.35,0,0,0-5.76-.05c-2.1.55-4.88,1.17-7.08-.66a1.58,1.58,0,0,0-.94-.12c-7.22.26-14.33-1.7-21.57-1-3.61.34-6.93,3.46-7.07,7.08-.08,2.16-.05,4.33,0,6.49.1,4.1,1.46,5.43,5.49,5.45a48.76,48.76,0,0,1,5,.06c.88.1,1.69.73,3.33,1.49-3,.74-5.29.34-7.49.45-2.75.13-3.26.65-3.33,3.55-.09,3.09.27,6,2.51,8.45a1.27,1.27,0,0,1-.07,2.07c-.36.34-.86.64-1,1.07-.43,1.11-1.41,2.34.81,3,.82.23,1.37,1.44,2.24,2.42-4.08.62-4.08.62-7.33,3.86-.57,2,.35,3.89-.71,5.87-.92,1.72-.66,4.06-1.52,5.84C34.24,74,32.11,74.53,32.52,76.88Z"/><path d="M109.59,82.27c1,1.74-.55,4.32,2,5.12,1.17-.6-.78-2.81,1.62-2.92s3.67.72,4.27,3.48a28.14,28.14,0,0,1,2.39-2.79c1.25-1.11,3.15-.94,3.66.52.66,1.88,1.84,3.72,1.41,5.87a1.31,1.31,0,0,1-.81.91,1.34,1.34,0,0,1-1.12-.57c-.43-1.32-.65-2.71-1.07-4a5.08,5.08,0,0,0-.93-1.33,10.21,10.21,0,0,0-1,1.25c-.56.92-1,1.94-1.62,2.8-.34.45-1,.64-1.58,1-.27-.49-.55-1-.8-1.48a.81.81,0,0,1,0-.49c.33-1.35-.49-2.79-1.38-2.77-1.35,0-1.62,1.52-1.69,2.92a11,11,0,0,1-1.14,3.07c-2.37-2.1-3.09-4.46-2.67-7.75-2,2.39-2.11,5-4.94,5.94-3.22,1-5.66-.09-6.21-3.44-.13-.85.7-.94.83-1.37.61-2,2.08-2.86,3.79-3.91,1.87-1.15,3-.89,4.17.55C107.84,84.07,108.7,83.63,109.59,82.27Zm-4.24.7c-1.81,1.32-3.34,2.37-4.79,3.52-1.1.87-.47,1.63.29,2.39a2.11,2.11,0,0,0,3,.23C105.67,87.74,106.81,86.08,105.35,83Z"/><path d="M77.78,50.57c3.3,1,1.7,3.33,2.57,4.84a47.46,47.46,0,0,1,2.1,5c1-3.13,1.76-5.47,2.59-7.76.17-.45.77-.74,1.16-1.1A8.46,8.46,0,0,1,87,53a27.35,27.35,0,0,0,1.12,4c.36.75,1.4,1.17,2.57,2.08.49-3.63.89-6.74,1.37-9.84a1.27,1.27,0,0,1,1-.69c.33,0,1,.6.91.77-.79,2.59-.68,5.35-1.33,7.92-.41,1.59-1.86,2.9-2.85,4.35-2-1.45-3.24-3-2.82-5.46,0-.15-.7-.51-1.11-.6-.22,0-.74.25-.76.43a8.18,8.18,0,0,1-.93,3.12c-.55,1-1.16,2.53-2,2.27a5,5,0,0,1-3.05-2.71A55.47,55.47,0,0,1,77.78,50.57Z"/><path d="M77.36,76.61c-1.28-.54-2.11-.65-2.55-1.12-1.79-2-3.85-.88-5.07.14C68.15,77,67.13,79.06,66.14,81c-.51,1,.44,2.07.68,3.06.45,1.9,2,2,3.05,2.35,1.24.38,2.82-.11,4.19-.47a10.54,10.54,0,0,0,2.42-1.43l-.63-1c-1.45,0-2.9,0-4.35,0-.17,0-.49-.52-.45-.75.07-.42.31-1.12.56-1.15,1-.13,2,.08,3-.08,1.51-.26,2.85.25,3.27,1.52a3.78,3.78,0,0,1-.9,3,7.27,7.27,0,0,1-11.82-1c-1.59-2.81,1-9.21,4.05-11.15,1-.66,6.08-.47,7,.4A9.16,9.16,0,0,1,77.36,76.61Z"/><path d="M178.2,88.6v-6A2.87,2.87,0,0,1,180,85.68c-.08,3.8,0,7.6,0,11.4-1-.09-2.2-.59-2.75-.18-1.71,1.28-3.51.43-5.23.56-1.22.09-2.5-1.65-1.94-2.72s.21-3.1,2.52-3.45C174.32,91,175.88,89.76,178.2,88.6Zm-6.49,6.55c3.53,1.11,5.23-.4,6.53-3.05C174.38,91.41,174.38,91.41,171.71,95.15Z"/><path d="M158.3,95.15c-.4.5-.68,1.22-1.09,1.31-1.19.26-1.2-.64-1.23-1.52,0-.57.44-1.94-1.11-.86-.59.41-1.82,0-2.25.48-2.14,2.25-3.61.16-4.82-.9-1.54-1.35-.89-3,.14-4.73,2.18-3.69,4.07-5.15,7.12-4.35a3,3,0,0,1,1.86,1.9c.3,1.43-.07,3,.14,4.46A28.74,28.74,0,0,0,158.3,95.15ZM155,86.31c-1.57.27-3.08.12-3.92.8A9.06,9.06,0,0,0,149,90.67c-.44,1.08.36,1.83,1.12,2.5s1.35-.06,2.08-.29c2.24-.7,3.17-2,2.78-4.3A16.54,16.54,0,0,1,155,86.31Z"/><path d="M136.11,61.65l2.75-3.46c3,1.91,3.31,4.68,3.1,7.61,0,.26-.68.68-1,.66a1.23,1.23,0,0,1-.89-.81c-.3-1.69.69-3.71-1.75-5.18-.76,1.41-1.5,2.83-2.31,4.21-.2.34-.61.77-.94.78a1.32,1.32,0,0,1-1-.7c-.45-1.31-.78-2.66-1.15-4-3.55.54-.3,4.83-3.56,5.52-2.71-2.14-2.49-5.29-1.72-8.59a10,10,0,0,0,.43,2.14,24.09,24.09,0,0,0,1.58,2.74,10.78,10.78,0,0,1,.42-2.06c.23-.57.58-1.35,1.05-1.49a2.92,2.92,0,0,1,1.86.5C133.78,60,134.54,60.58,136.11,61.65Z"/><path d="M98,85C98,87,96,89.49,93.73,90.3a4,4,0,0,1-5-1.68A3.23,3.23,0,0,1,88.15,86a11.12,11.12,0,0,1,2.76-3.77,10.62,10.62,0,0,1,3.72-1.69c.9-.29,3.11,1.76,3.36,3A7.3,7.3,0,0,1,98,85Zm-6.32,3.44c2.42.2,4.63-2.21,4.32-4.06-.21-1.26-1.41-1.66-2.52-.89A19,19,0,0,0,91.15,85c-.53.49-1.22,1.48-1,1.93C90.41,87.64,91.35,88.15,91.69,88.47Z"/><path d="M137,84c1.86,1.29,4.75-.77,4.75,1.72,0,1.83-2.81.07-4.61,1.34a4.68,4.68,0,0,0,.3,3.48,9.44,9.44,0,0,1,.5,3.24c0,.23-.62.58-1,.7a.89.89,0,0,1-.79-.35,22.88,22.88,0,0,1-1.11-4,31.19,31.19,0,0,1,0-4.2l-5-1.71,0-.51,5-.35c0-1.42,0-2.87.06-4.31,0-.21.77-.44,1.2-.5.21,0,.47.32.71.49C134.48,80.81,138.09,82.41,137,84Z"/><path d="M199.06,133.52c-4,0-7.6.13-11.21-.06-2-.1-3.91-1.54-6.2-.05-1.11.72-2.35-.48-2.65-2a1.48,1.48,0,0,1,1.91-1.88c.16,0,.39-.07.49,0,3.44,3.09,7.66,1.73,11.59,1.95a4.17,4.17,0,0,0,2.18-.66C197.34,129.52,198.75,130.28,199.06,133.52Z"/><path d="M95.78,61a9,9,0,0,0,5.46.49,3,3,0,0,1,1.41.18c.2.07.34.53.33.81s-.22.82-.32.81A28.17,28.17,0,0,1,97,62.9c-1.85-.46-3-2.69-3-4.59,0-2.53,1.68-4.08,3.34-5.57.82-.73,2.81,0,3.37,1a4.67,4.67,0,0,1-1.63,5.79C98.14,60,97.13,60.42,95.78,61Zm4.28-5.47c-.15-.19-.41-.88-.83-1A2.47,2.47,0,0,0,96.05,57a1.74,1.74,0,0,0,.75,1.42C98.41,59,99.81,57.82,100.06,55.57Z"/><path d="M81.54,83.36c1.59-1,2.39-3.31,5.09-2.93,1.56.23,1.38,1,1.38,2,0,1.21-.94,1.48-1.59.94-2.08-1.74-2.18.37-2.34,1.3A29.35,29.35,0,0,0,84,89.43a3.46,3.46,0,0,1-3.77-2.37,11.84,11.84,0,0,1-.66-6.53Z"/><path d="M149.83,57.84c.23,5.26-.23,5.95-4.74,7.1,1.6,3,4.82.63,7.56,2.45a63.41,63.41,0,0,1-6.35.09c-2.66-.25-4.11-3.86-2.88-6.87S144.91,57.41,149.83,57.84Zm-4.05,4.68c1.84,0,3.44-1.09,3.16-2a3.48,3.48,0,0,0-1.73-2c-1.1-.45-2.44,1.37-2.16,2.92C145.12,62,145.64,62.34,145.78,62.52Z"/><path d="M126,60.45c0,1.87-1.93,4.13-4.41,5-1.64.55-2.73-.36-3.72-1.52-1.32-1.53-1.16-3.42.69-5.38a7.53,7.53,0,0,1,2.36-1.4C124.13,55.64,125.92,56.83,126,60.45Zm-6.72,3.11c2.08-.17,4.39.59,4.72-2.41.07-.6,1.7-1,.32-1.77-.79-.43-2-1.09-2.56-.77C120.19,59.59,118.38,60.73,119.29,63.56Z"/><path d="M162.31,96.25c-3.13-1.7-2.43-4.68-2.08-7.82,1.53,2.36,1.67,2.51,3.21,1.06a3.68,3.68,0,0,1,3.11-1A2.31,2.31,0,0,1,169,90.93a18.38,18.38,0,0,1-.45,5.44c-.51-1.63-.94-3.3-1.56-4.89-.49-1.25-1.37-1.41-2-.35C164,92.68,163.26,94.39,162.31,96.25Z"/><path d="M161.72,59.7h4.05l.42-4.21.53,0c.53,1.59,1.07,3.18,1.71,5.07a26.21,26.21,0,0,1,3.17,0c.5,0,1.28.48,1.35.84.23,1.25-.78,1.12-1.59,1.12-1,0-2,0-3.12,0-.25,1.63-.7,3.11.7,4.52.33.33.19,1.3,0,1.91-.08.28-.75.47-1.18.53-.22,0-.71-.29-.73-.48a22.34,22.34,0,0,1,0-3.47c.24-2.21-.28-3.76-2.74-4.28A10.58,10.58,0,0,1,161.72,59.7Z"/><path d="M182,65.24c0,1.58-2.25,4.74-3.71,5.28-2.27.83-4.2-.54-4.29-3-.1-2.92.87-4.67,3.09-5.56C180.34,60.62,182.08,61.79,182,65.24Zm-5.67,3.29c2.45-.07,4.3-1.43,4.63-3.27.09-.54-.21-1.59-.52-1.67-1.68-.46-3,.72-4.37,1.38a1.31,1.31,0,0,0-.69.7A5.26,5.26,0,0,0,175.1,68C175.17,68.33,176.16,68.46,176.34,68.53Z"/><path d="M114.92,56.1c-4.42.67-4.85,1.23-4.72,6.19,1.58.35,3.12.6,4.48-.73.15-.15,1,.13,1.22.44a1.53,1.53,0,0,1-.21,1.3c-1.09,1.77-2.9,1.27-4.46,1.17s-1.79-1.23-2.34-2.56c-1.06-2.59-.42-4.39,1.38-6.17S112.4,53.94,114.92,56.1Z"/><path d="M144.73,80.49c.43.88,1.19,1.74,1.22,2.62a61.72,61.72,0,0,1-.66,12.43c-.43-.87-1.19-1.74-1.22-2.62-.13-4.08-.06-8.16-.06-12.24Z"/><path d="M21,174.52c1.82,0,3.64,0,5.46,0,.19,0,.52.5.49.72,0,.43-.32,1.19-.51,1.19q-6,.1-11.93,0c-.17,0-.51-.49-.48-.72,0-.43.31-1.18.51-1.19C16.71,174.48,18.86,174.52,21,174.52Z"/><path d="M127.5,83.55c2.18,2.76,1.4,6,1.47,9.17,0,.26-.6.73-.93.74a1.25,1.25,0,0,1-1-.68,19.16,19.16,0,0,1-.81-4.91A18.35,18.35,0,0,1,127.5,83.55Z"/><path d="M106,64.33c0-1.78-.07-3.56,0-5.34a13.32,13.32,0,0,0-1-6.05c-.14-.31.49-.94.77-1.42.39.36,1.11.73,1.12,1.1.08,3.92.05,7.84.05,11.76Z"/><path d="M192.74,174.52a2.56,2.56,0,0,1-1.35-.21c-.49-.34-.69-1.09-1-1.66.57-.2.66-1.62,1.74-.59.38.36,1.19.22,1.72.48a6,6,0,0,1,1.17,1.05c-.43.31-.86.63-1.31.92C193.58,174.58,193.38,174.52,192.74,174.52Z"/><path d="M3,175l-.5.5c-.67.61-1.23,1.67-2.33.69A1,1,0,0,1,0,175.3c.39-1.43,1.59-.55,2.4-.77C2.52,174.51,2.67,174.71,3,175Z"/><path d="M127.81,78.55A9,9,0,0,1,128,80c0,.14-.41.25-.63.38a7.77,7.77,0,0,1-.31-1.31C127,78.93,127.44,78.78,127.81,78.55Z"/><path d="M125,3.52l1-1Z"/><path class="cls-1" d="M125,3.52l1-1c.95-.12,2.12.07,2.8-.43,1.05-.77,1.57-.58,2.5.15a51.49,51.49,0,0,0,4.7,3,33.12,33.12,0,0,1,0,3.41,20.94,20.94,0,0,1-.7,3c3.09-1.65,3.13-1.71,2.46-3.89s-.7-2.31.75-4.25c2.75,2.7,5.16,5.38,2.56,9.5a1.08,1.08,0,0,0,0,1c.54.76,1.74,1.44.56,2.41s-2.34,1.94-3.6,2.05a52.09,52.09,0,0,0-8.69,2c-2.48.64-5.26.14-7.83.14-.42-.81-.76-1.51-1.14-2.18-2.82-5-1.06-8.91,5.36-9.72a15.65,15.65,0,0,0,5.91-2c-1.66-.48-3.41-1.46-3.91-1-1.83,1.62-3.83.5-5.68.89.75-.67,1.52-1.32,2.25-2A7.35,7.35,0,0,0,125,3.52Z"/><path class="cls-1" d="M132.92,158.38a37,37,0,0,0-4.47.91,17.54,17.54,0,0,1-7,1.31c-5.08-.29-10.19-.08-15.28-.08,0-2.26,0-2.21,2-2.32.48,0,1.3-.47,1.36-.82.68-4,4.53-3.38,7-4.78.37-.21,1.39.53,2,1,1.75,1.26,2.74,1,3.45-1.06.15-.45-.16-1.08.05-1.47,1.8-3.4,5.52-3.39,8,0,.1.13.24.23.35.35C133,154.37,133,154.37,132.92,158.38Z"/><path class="cls-1" d="M114.92,146.91a4.62,4.62,0,0,1,.8-.39c3.76-.3,6.81-1.82,6.23-3.15-1.23-2.78-4-2.85-6.56-2.93l.88-3.8c-2,.08-3.53-.49-5.37.35-1.35.63-3.08.45-4.44.6l.81-6.07c3.2,0,6.5-.12,9.78,0a12.94,12.94,0,0,1,4.52,1.11,2.35,2.35,0,0,1,1.48,2.34c-.13,3,.36,6.07-.17,9-.4,2.18-1.84,4.24-3.11,6.16-.67,1-2.78.28-2.67-1C117.27,147.37,115.7,147.79,114.92,146.91Z"/><path class="cls-1" d="M156.11,168.33c1.18-3.79,1.18-3.81,4-3.81,2.55,0,5.2-.42,7.46,1.16.71.49,1.1,1.43,2,2.63a33.91,33.91,0,0,1-5.26-.09c-.62-.1,0-2.16-1.66-1.68a4.45,4.45,0,0,0-2.05,1C159.24,169,157.71,168.48,156.11,168.33Z"/><path class="cls-1" d="M111.3,147.14c-2.28.83-4.3-.42-5.71,1.23-1.12-5-1.12-5,4.42-6.91a15.17,15.17,0,0,0,0,3A14.49,14.49,0,0,0,111.3,147.14Z"/><path class="cls-1" d="M176.64,170.36H171.1V167.9c.26,0,.54-.15.71-.06C173.16,168.52,174.49,169.23,176.64,170.36Z"/><path class="cls-1" d="M150.19,165.52a23.25,23.25,0,0,0,2.77,0,8.84,8.84,0,0,0,1.87-.65,4.2,4.2,0,0,1-.34,1.64c-.54.71-1.15,1.62-2.33.72a12.41,12.41,0,0,0-2-1Z"/><path class="cls-1" d="M107.21,153.42l-.79,1a5.13,5.13,0,0,1-.38-1.23c0-.22.33-.45.5-.68Z"/><path class="cls-1" d="M107.59,151.6c.12.11.33.28.31.31a5.24,5.24,0,0,1-.44.61l-.45-.45Z"/><path class="cls-1" d="M122,7l-.59.46c-.06-.21-.23-.55-.17-.6a2.68,2.68,0,0,1,.76-.3Z"/><path class="cls-1" d="M105.35,83c1.46,3.11.32,4.77-1.47,6.14a2.11,2.11,0,0,1-3-.23c-.76-.76-1.39-1.52-.29-2.39C102,85.34,103.54,84.29,105.35,83Z"/><path class="cls-1" d="M171.71,95.15c2.67-3.74,2.67-3.74,6.53-3.05C176.94,94.75,175.24,96.26,171.71,95.15Z"/><path class="cls-1" d="M155,86.31a16.54,16.54,0,0,0,0,2.27c.39,2.31-.54,3.6-2.78,4.3-.73.23-1.23,1.05-2.08.29s-1.56-1.42-1.12-2.5a9.06,9.06,0,0,1,2.05-3.56C151.93,86.43,153.44,86.58,155,86.31Z"/><path class="cls-1" d="M91.69,88.47c-.34-.32-1.28-.83-1.58-1.59-.18-.45.51-1.44,1-1.93a19,19,0,0,1,2.34-1.43c1.11-.77,2.31-.37,2.52.89C96.32,86.26,94.11,88.67,91.69,88.47Z"/><path class="cls-1" d="M100.06,55.57c-.25,2.25-1.65,3.4-3.26,2.89A1.74,1.74,0,0,1,96.05,57a2.47,2.47,0,0,1,3.18-2.48C99.65,54.69,99.91,55.38,100.06,55.57Z"/><path class="cls-1" d="M145.78,62.52c-.14-.18-.66-.56-.73-1-.28-1.55,1.06-3.37,2.16-2.92a3.48,3.48,0,0,1,1.73,2C149.22,61.43,147.62,62.49,145.78,62.52Z"/><path class="cls-1" d="M119.29,63.56c-.91-2.83.9-4,2.48-5,.51-.32,1.77.34,2.56.77,1.38.77-.25,1.17-.32,1.77C123.68,64.15,121.37,63.39,119.29,63.56Z"/><path class="cls-1" d="M176.34,68.53c-.18-.07-1.17-.2-1.24-.53a5.26,5.26,0,0,1,.29-2.33,1.31,1.31,0,0,1,.69-.7c1.4-.66,2.69-1.84,4.37-1.38.31.08.61,1.13.52,1.67C180.64,67.1,178.79,68.46,176.34,68.53Z"/></g></g></svg>