<svg width="173" height="190" viewBox="0 0 173 190" fill="none" xmlns="http://www.w3.org/2000/svg">
<path d="M3.86709 164.171C5.00832 163.156 4.80049 163.331 5.19742 161.942C5.30741 161.557 6.97745 160.989 7.39067 160.575C8.04978 159.916 9.63729 156.744 10.6985 156.441C12.022 156.062 14.743 155.472 15.8761 154.751C18.366 153.166 20.947 154.27 23.6423 153.78C30.8859 152.463 38.5131 150.58 45.8985 150.58C51.8851 150.58 58.0752 148.638 64.0558 148.638C75.1186 148.638 86.2927 147.991 97.422 147.991C102.33 147.991 107.282 148.638 112.092 148.638C116.743 148.638 121.57 148.543 125.898 150.58C129.921 152.473 134.713 152.935 138.339 155.901C139.957 157.225 142.988 158.044 144.954 159.137C146.287 159.878 148.506 162.754 149.485 162.876C150.555 163.01 154.631 171.261 151.75 171.901C149.95 172.301 149.858 174.003 147.903 174.562C144.728 175.469 141.527 177.115 137.871 177.115C132.951 177.115 128.197 179.33 123.31 179.667C119.686 179.917 116.163 180.574 112.559 180.998C107.689 181.571 102.544 181.759 97.7456 182.616C88.6087 184.247 78.5053 182.572 69.2333 182.975C57.1371 183.501 44.9811 183.856 32.8468 183.587C29.0785 183.503 25.3521 182.441 21.485 182.292C20.0704 182.238 17.0935 180.706 16.0199 179.847C15.1467 179.149 13.825 180.262 13.0716 179.056C12.6619 178.401 11.1016 177.64 10.339 177.258C8.42652 176.302 7.5899 176.667 5.95247 175.029C3.45096 172.528 1.92297 169.353 3.86709 165.465" stroke="#242424" stroke-width="3" stroke-linecap="round"/>
<path d="M2.99959 169.5C1.99664 161.476 2.02448 157.214 5.66538 149.933C7.35391 146.556 7.82395 143.195 9.54852 139.937C10.4337 138.265 10.2771 136.659 11.1305 135.047C12.0245 133.359 12.9283 132.144 12.9283 130.193C12.9283 128.466 15.1634 127.093 15.4811 125.663C15.944 123.58 16.3705 122.426 17.4586 120.521C18.4079 118.86 20.1412 116.436 20.6586 114.625C20.9774 113.509 20.4832 113.017 21.3418 112.108C21.8438 111.576 23.0437 110.16 23.2474 109.447C23.5661 108.332 23.0719 107.84 23.9305 106.93C24.7396 106.074 25.8721 104.883 25.8721 103.659C25.8721 102.822 28.0214 99.4151 28.7844 98.8047C30.3418 97.5588 31.5846 94.6647 32.6676 92.98C33.7556 91.2876 35.7816 88.2902 36.2271 86.5081" stroke="#242424" stroke-width="3" stroke-linecap="round"/>
<path d="M152.5 171.5C154.425 165 156.657 153.124 153.225 145.402C152.502 143.775 152.075 141.068 152.075 139.29C152.075 137.209 151.1 135.74 150.816 133.753C150.506 131.579 150.133 129.083 150.133 126.921C150.133 123.951 148.257 121.177 147.544 118.328C146.725 115.052 144.584 111.453 144.308 108.009C144.172 106.301 142.776 104.691 142.403 103.011C142.067 101.502 142.052 98.5529 140.749 97.5102C140.354 97.1943 139.812 93.5915 139.778 92.9799C139.676 91.136 138.653 89.8876 138.484 88.4495C138.164 85.7349 137.703 81.0646 136.542 78.7417" stroke="#242424" stroke-width="3" stroke-linecap="round"/>
<path d="M134.6 39.9103C137.318 39.9103 138.242 42.499 140.748 42.499C142.286 42.499 143.883 43.4288 144.955 44.4406C146.072 45.4954 148.052 45.0878 149.485 45.0878C152.68 45.0878 156.021 45.735 159.337 45.735C163.256 45.735 167.04 45.0878 170.842 45.0878" stroke="#242424" stroke-width="3" stroke-linecap="round"/>
<path d="M33.6387 43.7933C33.6387 56.6734 16.1716 59.3259 5.80957 59.3259" stroke="#242424" stroke-width="3" stroke-linecap="round"/>
<path d="M6 59.5C9.74949 59.5 10.8185 63.4003 13.0722 65.6539C15.063 67.6448 17.4536 69.9634 19.9037 72.4135C22.0975 74.6073 25.0832 76.8608 26.6632 79.3887C27.8807 81.3367 32.2673 85.4987 34.2857 86.5078" stroke="#242424" stroke-width="3" stroke-linecap="round"/>
<path d="M34.9326 43.7933C38.5944 43.7933 39.2984 48.1073 43.0225 48.9349C45.4229 49.4683 49.2302 51.9066 50.9685 53.645C55.8608 58.5372 61.5132 60.7118 64.7034 67.0922" stroke="#242424" stroke-width="3" stroke-linecap="round"/>
<path d="M133.305 39.9103C132.99 39.9497 129.635 43.5348 129.458 44.153C128.856 46.2585 127.403 47.7854 126.797 49.9058C126.089 52.3856 124.403 53.8865 124.245 56.7372C124.097 59.3978 122.95 61.8383 122.95 64.5035" stroke="#242424" stroke-width="3" stroke-linecap="round"/>
<path d="M170.842 47.0293C168.639 47.3048 168.694 50.4076 167.606 51.5596C165.932 53.3328 165.61 56.9964 163.723 58.1753C163.126 58.5483 162.507 60.5654 162.429 61.2675C162.267 62.7198 161.142 62.9932 160.631 64.1439C160.08 65.3829 160.268 66.664 159.193 67.7394C158.434 68.4981 158.18 69.8442 157.575 70.3281C155.783 71.7619 155.126 74.337 153.081 75.5057C152.597 75.7821 149.976 78.8885 149.485 79.7483C148.005 82.3377 140.382 85.235 139 88" stroke="#242424" stroke-width="3" stroke-linecap="round"/>
<path d="M82.826 148.5C83.1775 150.862 82.6727 153.805 82.8256 156.405C83.0483 160.191 83.4728 164.566 83.4728 168.701C83.4728 176.467 83.4728 188 83.4728 188" stroke="#242424" stroke-width="3" stroke-linecap="round"/>
<path d="M26.5 54C26.2846 51.8463 21.3958 48.251 20.4065 46.3822C19.1566 44.0214 16.6211 41.301 14.8694 39.2991C11.3232 35.2463 6.14338 30.8717 3.86719 26.3193" stroke="#242424" stroke-width="3" stroke-linecap="round"/>
<path d="M33.5 44C33.0993 47.2054 25.5728 45.9746 24.0745 47.1732C22.2423 48.639 19.9061 49.6123 17.7465 50.2293C16.1864 50.6751 13.3887 52.4406 12.2813 53.8248C11.0386 55.3782 8.55495 57.9725 6.5 59" stroke="#242424" stroke-width="3" stroke-linecap="round"/>
<path d="M132.012 39.9102C135.699 39.9102 138.679 39.263 142.367 39.263C146.331 39.263 150.134 37.9686 154.016 37.9686C158.295 37.9686 161.018 38.9059 164.659 39.9462C165.887 40.2969 165.886 42.0535 167.32 42.463C168.483 42.7954 169.257 44.942 170.843 45.7349" stroke="#242424" stroke-width="3" stroke-linecap="round"/>
<path d="M152.5 45C153.341 44.8949 155.117 39.9443 155.453 39.1194C156.551 36.4252 158.9 33.9152 160.163 31.1374C162.301 26.4329 164.854 22.6802 167.606 18.5531" stroke="#242424" stroke-width="3" stroke-linecap="round"/>
<path d="M67.292 68.3866C68.594 68.2239 68.8839 65.8892 70.5279 65.7979C72.0048 65.7158 72.1761 64.5035 73.7639 64.5035C76.2227 64.5035 78.2564 63.2091 80.883 63.2091C83.4717 63.2091 86.0605 63.2091 88.6493 63.2091C90.2204 63.2091 95.0668 64.0292 96.2717 63.0653C99.7379 60.2923 106.543 62.3201 110.654 62.5619C114.968 62.8157 118.558 66.4451 122.95 66.4451" stroke="#242424" stroke-width="3" stroke-linecap="round"/>
<path d="M57.2916 89.2504C57.8645 89.2504 58.3398 89.4196 58.7174 89.7582C59.095 90.0967 59.414 90.5394 59.6744 91.0863C59.9349 91.6202 60.1497 92.2386 60.319 92.9418C60.4882 93.6319 60.651 94.348 60.8072 95.0902C60.9635 95.8194 61.1197 96.5355 61.276 97.2386C61.4453 97.9288 61.6536 98.5472 61.901 99.0941C62.1614 99.641 62.4674 100.084 62.819 100.422C63.1835 100.748 63.6458 100.911 64.2057 100.911C64.2317 100.911 64.2643 100.904 64.3033 100.891C64.3294 100.878 64.3619 100.865 64.401 100.852C64.4531 100.839 64.5312 100.78 64.6354 100.676C64.7395 100.559 64.8046 100.481 64.8307 100.442C64.8567 100.377 64.9088 100.162 64.9869 99.7972C65.0651 99.4327 65.1692 98.9704 65.2994 98.4105C65.4427 97.8506 65.5989 97.2191 65.7682 96.516C65.9375 95.8129 66.1132 95.1032 66.2955 94.3871C66.4908 93.6579 66.6862 92.9548 66.8815 92.2777C67.0768 91.5876 67.2656 90.9756 67.4479 90.4418C67.6302 89.9079 67.7994 89.4847 67.9557 89.1722C68.125 88.8467 68.2682 88.684 68.3854 88.684C68.5416 88.684 68.6653 88.7165 68.7565 88.7816C68.8476 88.8467 68.9127 88.9314 68.9518 89.0355C68.9908 89.1397 69.0169 89.2569 69.0299 89.3871C69.0429 89.5043 69.0494 89.6215 69.0494 89.7386C69.0494 89.934 69.0104 90.279 68.9322 90.7738C68.8671 91.2686 68.7695 91.8545 68.6393 92.5316C68.5221 93.1957 68.3724 93.9248 68.1901 94.7191C68.0208 95.5134 67.832 96.3207 67.6237 97.141C67.4153 97.9483 67.1875 98.7295 66.9401 99.4847C66.6927 100.227 66.4388 100.891 66.1783 101.477C65.9309 102.05 65.6705 102.512 65.3971 102.864C65.1367 103.202 64.8763 103.371 64.6158 103.371C64.2643 103.371 63.9257 103.274 63.6002 103.078C63.2747 102.883 62.9687 102.629 62.6822 102.317C62.3958 102.004 62.1224 101.653 61.8619 101.262C61.6145 100.858 61.3867 100.455 61.1783 100.051C60.983 99.6475 60.8007 99.2634 60.6315 98.8988C60.4622 98.5342 60.3255 98.2152 60.2213 97.9418C60.0781 97.5902 59.9023 97.167 59.694 96.6722C59.4987 96.1644 59.2903 95.6371 59.069 95.0902C58.8606 94.5433 58.6458 93.9965 58.4244 93.4496C58.2161 92.8897 58.0273 92.3949 57.858 91.9652C57.6888 91.5225 57.552 91.1579 57.4479 90.8715C57.3437 90.585 57.2916 90.4288 57.2916 90.4027V89.2504ZM70.2408 99.4066C70.2408 98.5993 70.4296 97.8506 70.8072 97.1605C71.1849 96.4574 71.6796 95.8584 72.2916 95.3636C72.9166 94.8558 73.6132 94.4587 74.3815 94.1722C75.1627 93.8858 75.9505 93.7426 76.7447 93.7426C77.1875 93.7426 77.5781 93.8858 77.9166 94.1722C78.2682 94.4587 78.5612 94.8103 78.7955 95.2269C79.0299 95.6306 79.2057 96.0603 79.3229 96.516C79.4531 96.9717 79.5182 97.3689 79.5182 97.7074C79.5182 98.4366 79.3424 99.1462 78.9908 99.8363C78.6393 100.513 78.1835 101.119 77.6237 101.653C77.0638 102.174 76.4322 102.597 75.7291 102.922C75.026 103.248 74.3229 103.411 73.6197 103.411C72.9947 103.411 72.4674 103.306 72.0377 103.098C71.608 102.877 71.263 102.59 71.0026 102.239C70.7421 101.874 70.5468 101.451 70.4166 100.969C70.2994 100.474 70.2408 99.9535 70.2408 99.4066ZM71.901 99.6019C71.901 99.9405 71.927 100.24 71.9791 100.5C72.0442 100.748 72.1484 100.963 72.2916 101.145C72.4479 101.327 72.6497 101.47 72.8971 101.575C73.1445 101.666 73.4505 101.711 73.8151 101.711C74.2968 101.711 74.7786 101.581 75.2604 101.321C75.7421 101.047 76.1718 100.709 76.5494 100.305C76.9401 99.8884 77.2526 99.4327 77.4869 98.9379C77.7213 98.4431 77.8385 97.9613 77.8385 97.4926C77.8385 97.2842 77.819 97.0564 77.7799 96.809C77.7408 96.5616 77.6757 96.3337 77.5846 96.1254C77.4934 95.917 77.3632 95.7413 77.194 95.598C77.0247 95.4548 76.8099 95.3832 76.5494 95.3832C76.3151 95.3832 76.0351 95.4613 75.7096 95.6176C75.3971 95.7738 75.0651 95.9756 74.7135 96.223C74.375 96.4704 74.0364 96.7504 73.6979 97.0629C73.3724 97.3754 73.0729 97.6879 72.7994 98.0004C72.526 98.3129 72.3046 98.6123 72.1354 98.8988C71.9791 99.1853 71.901 99.4196 71.901 99.6019ZM79.8502 93.5277C79.8502 93.4886 79.8567 93.4561 79.8697 93.4301C79.8697 93.404 79.8763 93.3715 79.8893 93.3324C79.9414 93.2673 80.0195 93.1827 80.1237 93.0785C80.2278 92.9743 80.2929 92.9222 80.319 92.9222H84.2447C84.2447 92.779 84.2252 92.5511 84.1862 92.2386C84.1471 91.9261 84.108 91.5811 84.069 91.2035C84.0429 90.8259 84.0364 90.4353 84.0494 90.0316C84.0625 89.6149 84.1145 89.2439 84.2057 88.9183C84.3099 88.5798 84.4661 88.3064 84.6744 88.098C84.8958 87.8767 85.2018 87.766 85.5924 87.766C85.5924 89.0811 85.6835 90.1358 85.8658 90.9301C86.0481 91.7243 86.289 92.3363 86.5885 92.766C86.901 93.1957 87.2526 93.4756 87.6432 93.6058C88.0338 93.736 88.4309 93.7946 88.8346 93.7816C89.2513 93.7556 89.6549 93.6905 90.0455 93.5863C90.4362 93.4821 90.7812 93.4105 91.0807 93.3715C91.3932 93.3324 91.6406 93.3649 91.8229 93.4691C92.0052 93.5603 92.0963 93.7881 92.0963 94.1527C92.0963 94.4261 92.0312 94.6215 91.901 94.7386C91.7838 94.8558 91.5494 94.947 91.1979 95.0121C91.0937 95.0251 90.9179 95.0511 90.6705 95.0902C90.4362 95.1163 90.1692 95.1423 89.8697 95.1683C89.5703 95.1944 89.2513 95.2269 88.9127 95.266C88.5742 95.292 88.2552 95.3181 87.9557 95.3441C87.6562 95.3702 87.3828 95.3897 87.1354 95.4027C86.888 95.4027 86.7057 95.4027 86.5885 95.4027C86.5885 95.4678 86.582 95.5785 86.569 95.7347C86.5559 95.891 86.5494 95.9952 86.5494 96.0472C86.5494 96.6202 86.6406 97.1801 86.8229 97.7269C87.0052 98.2608 87.2005 98.7946 87.4088 99.3285C87.6302 99.8623 87.832 100.396 88.0143 100.93C88.1966 101.464 88.2877 102.017 88.2877 102.59C88.2877 102.694 88.2747 102.805 88.2487 102.922C88.2356 103.026 88.1966 103.124 88.1315 103.215C88.0794 103.293 87.9947 103.352 87.8776 103.391C87.7734 103.443 87.6237 103.437 87.4283 103.371C86.9335 103.241 86.5625 102.961 86.3151 102.532C86.0807 102.102 85.9049 101.594 85.7877 101.008C85.6705 100.409 85.5924 99.7777 85.5533 99.1136C85.5143 98.4496 85.4492 97.8311 85.358 97.2582C85.2799 96.6722 85.1497 96.1774 84.9674 95.7738C84.7851 95.3571 84.4921 95.1032 84.0885 95.0121L80.319 94.1527C80.2669 94.1527 80.1888 94.1006 80.0846 93.9965C79.9804 93.8793 79.9153 93.7946 79.8893 93.7426C79.8763 93.7165 79.8697 93.684 79.8697 93.6449C79.8567 93.6189 79.8502 93.5798 79.8502 93.5277ZM92.8385 95.1683C92.8385 95.0511 92.845 94.934 92.858 94.8168C92.871 94.6866 92.8971 94.5759 92.9362 94.4847C92.9752 94.3806 93.0338 94.2959 93.1119 94.2308C93.2031 94.1657 93.3268 94.1332 93.483 94.1332C93.6132 94.1332 93.7565 94.2373 93.9127 94.4457C94.082 94.641 94.2513 94.8949 94.4205 95.2074C94.5898 95.5069 94.7526 95.8389 94.9088 96.2035C95.0781 96.5681 95.2213 96.9066 95.3385 97.2191C95.4687 97.5186 95.5729 97.779 95.651 98.0004C95.7291 98.2217 95.7747 98.3389 95.7877 98.3519C95.957 97.8962 96.1458 97.4014 96.3541 96.8676C96.5625 96.3337 96.8164 95.8389 97.1158 95.3832C97.4283 94.9144 97.7929 94.5238 98.2096 94.2113C98.6393 93.8988 99.1601 93.7426 99.7721 93.7426C100.085 93.7426 100.378 93.7946 100.651 93.8988C100.937 93.9899 101.185 94.1332 101.393 94.3285C101.615 94.5108 101.79 94.7321 101.921 94.9926C102.051 95.253 102.116 95.5524 102.116 95.891C102.116 96.1774 101.999 96.3793 101.764 96.4965C101.543 96.6136 101.289 96.6722 101.003 96.6722H100.807L99.9674 95.8324C99.9414 95.8324 99.9218 95.8259 99.9088 95.8129C99.8828 95.8129 99.8567 95.8129 99.8307 95.8129C99.8177 95.7998 99.7981 95.7933 99.7721 95.7933C99.3164 95.7933 98.9583 95.9235 98.6979 96.184C98.4505 96.4314 98.2617 96.7439 98.1315 97.1215C98.0013 97.486 97.9166 97.8767 97.8776 98.2933C97.8515 98.697 97.8385 99.0681 97.8385 99.4066C97.8385 99.667 97.8645 99.934 97.9166 100.207C97.9687 100.468 98.0273 100.728 98.0924 100.989C98.1575 101.236 98.2161 101.496 98.2682 101.77C98.3203 102.03 98.3463 102.304 98.3463 102.59C98.3463 103.137 98.0533 103.411 97.4674 103.411C97.1419 103.411 96.8033 103.241 96.4518 102.903C96.1002 102.551 95.7487 102.108 95.3971 101.575C95.0585 101.041 94.733 100.455 94.4205 99.8168C94.108 99.1657 93.8346 98.5342 93.6002 97.9222C93.3658 97.3103 93.177 96.7569 93.0338 96.2621C92.9036 95.7673 92.8385 95.4027 92.8385 95.1683ZM102.819 97.9418C102.819 97.2386 102.904 96.5355 103.073 95.8324C103.242 95.1293 103.509 94.4978 103.874 93.9379C104.251 93.378 104.733 92.9222 105.319 92.5707C105.918 92.2191 106.641 92.0433 107.487 92.0433C107.969 92.0433 108.392 92.1345 108.756 92.3168C109.121 92.486 109.427 92.7139 109.674 93.0004C109.922 93.2868 110.104 93.6254 110.221 94.016C110.352 94.3936 110.417 94.7907 110.417 95.2074C110.417 95.8715 110.26 96.516 109.948 97.141C109.648 97.766 109.238 98.3194 108.717 98.8011C108.21 99.2699 107.624 99.628 106.96 99.8754C106.296 100.11 105.618 100.162 104.928 100.032C104.941 100.409 105.065 100.715 105.299 100.95C105.547 101.171 105.84 101.34 106.178 101.457C106.517 101.575 106.868 101.653 107.233 101.692C107.598 101.718 107.923 101.731 108.21 101.731C108.509 101.731 108.789 101.705 109.049 101.653C109.31 101.601 109.57 101.542 109.831 101.477C110.091 101.412 110.352 101.353 110.612 101.301C110.885 101.249 111.172 101.223 111.471 101.223C111.588 101.223 111.706 101.23 111.823 101.243C111.94 101.256 112.051 101.288 112.155 101.34C112.259 101.379 112.344 101.451 112.409 101.555C112.474 101.646 112.506 101.763 112.506 101.907C112.506 102.154 112.415 102.362 112.233 102.532C112.051 102.688 111.816 102.825 111.53 102.942C111.256 103.059 110.95 103.15 110.612 103.215C110.273 103.267 109.941 103.313 109.616 103.352C109.303 103.378 109.01 103.391 108.737 103.391C108.477 103.404 108.281 103.411 108.151 103.411C107.318 103.411 106.569 103.28 105.905 103.02C105.241 102.746 104.681 102.375 104.225 101.907C103.769 101.425 103.418 100.852 103.171 100.188C102.936 99.5108 102.819 98.7621 102.819 97.9418ZM104.889 96.6722C104.889 97.128 104.948 97.46 105.065 97.6683C105.195 97.8767 105.501 97.9808 105.983 97.9808C106.322 97.9808 106.654 97.9222 106.979 97.8051C107.305 97.6748 107.598 97.4991 107.858 97.2777C108.131 97.0564 108.346 96.7959 108.503 96.4965C108.659 96.197 108.737 95.8715 108.737 95.5199C108.737 95.3246 108.717 95.1228 108.678 94.9144C108.652 94.7061 108.587 94.5173 108.483 94.348C108.379 94.1657 108.242 94.0225 108.073 93.9183C107.917 93.8011 107.708 93.7426 107.448 93.7426C107.057 93.7426 106.699 93.8337 106.374 94.016C106.061 94.1853 105.794 94.4131 105.573 94.6996C105.352 94.973 105.182 95.2855 105.065 95.6371C104.948 95.9756 104.889 96.3207 104.889 96.6722ZM56.8424 111.129C56.8424 110.582 56.9987 110.133 57.3112 109.782C57.6367 109.43 58.0338 109.157 58.5026 108.961C58.9843 108.753 59.4987 108.616 60.0455 108.551C60.5924 108.473 61.0872 108.434 61.5299 108.434C62.3763 108.434 63.0859 108.603 63.6588 108.942C64.2447 109.267 64.7135 109.703 65.0651 110.25C65.4296 110.797 65.6901 111.429 65.8463 112.145C66.0026 112.861 66.0807 113.59 66.0807 114.332C66.0807 114.827 66.0286 115.413 65.9244 116.09C65.8203 116.754 65.664 117.444 65.4557 118.161C65.2474 118.864 64.9869 119.567 64.6744 120.27C64.375 120.96 64.0234 121.585 63.6197 122.145C63.2161 122.692 62.7604 123.134 62.2526 123.473C61.7578 123.812 61.2109 123.981 60.6119 123.981C60.4947 123.981 60.3515 123.825 60.1822 123.512C60.026 123.187 59.8437 122.757 59.6354 122.223C59.4401 121.689 59.2317 121.077 59.0104 120.387C58.802 119.684 58.5937 118.961 58.3854 118.219C58.177 117.464 57.9817 116.709 57.7994 115.953C57.6171 115.198 57.4479 114.502 57.2916 113.864C57.1484 113.226 57.0377 112.666 56.9596 112.184C56.8815 111.702 56.8424 111.351 56.8424 111.129ZM58.4635 112.243C58.4635 112.659 58.4895 113.134 58.5416 113.668C58.6067 114.202 58.6979 114.756 58.8151 115.328C58.9453 115.901 59.1015 116.481 59.2838 117.067C59.4791 117.64 59.7005 118.18 59.9479 118.688C60.1953 119.196 60.4752 119.658 60.7877 120.075C61.1002 120.478 61.4518 120.797 61.8424 121.032C62.2851 120.407 62.6692 119.847 62.9947 119.352C63.3203 118.857 63.5872 118.362 63.7955 117.868C64.0039 117.373 64.1536 116.845 64.2447 116.286C64.3489 115.726 64.401 115.075 64.401 114.332C64.401 113.799 64.3684 113.278 64.3033 112.77C64.2382 112.262 64.095 111.813 63.8737 111.422C63.6653 111.019 63.3658 110.7 62.9752 110.465C62.5846 110.218 62.0703 110.094 61.4322 110.094C60.9114 110.094 60.4036 110.179 59.9088 110.348C59.427 110.504 58.9583 110.713 58.5026 110.973C58.5026 111.012 58.496 111.09 58.483 111.207C58.483 111.325 58.483 111.455 58.483 111.598C58.483 111.728 58.4765 111.858 58.4635 111.989C58.4635 112.106 58.4635 112.19 58.4635 112.243ZM66.8424 118.942C66.8424 118.239 66.927 117.536 67.0963 116.832C67.2656 116.129 67.5325 115.498 67.8971 114.938C68.2747 114.378 68.7565 113.922 69.3424 113.571C69.9414 113.219 70.664 113.043 71.5104 113.043C71.9921 113.043 72.4153 113.134 72.7799 113.317C73.1445 113.486 73.4505 113.714 73.6979 114C73.9453 114.287 74.1276 114.625 74.2447 115.016C74.375 115.394 74.4401 115.791 74.4401 116.207C74.4401 116.871 74.2838 117.516 73.9713 118.141C73.6718 118.766 73.2617 119.319 72.7408 119.801C72.233 120.27 71.6471 120.628 70.983 120.875C70.319 121.11 69.6419 121.162 68.9518 121.032C68.9648 121.409 69.0885 121.715 69.3229 121.95C69.5703 122.171 69.8632 122.34 70.2018 122.457C70.5403 122.575 70.8919 122.653 71.2565 122.692C71.621 122.718 71.9466 122.731 72.233 122.731C72.5325 122.731 72.8125 122.705 73.0729 122.653C73.3333 122.601 73.5937 122.542 73.8541 122.477C74.1145 122.412 74.375 122.353 74.6354 122.301C74.9088 122.249 75.1953 122.223 75.4947 122.223C75.6119 122.223 75.7291 122.23 75.8463 122.243C75.9635 122.256 76.0742 122.288 76.1783 122.34C76.2825 122.379 76.3671 122.451 76.4322 122.555C76.4974 122.646 76.5299 122.763 76.5299 122.907C76.5299 123.154 76.4388 123.362 76.2565 123.532C76.0742 123.688 75.8398 123.825 75.5533 123.942C75.2799 124.059 74.9739 124.15 74.6354 124.215C74.2968 124.267 73.9648 124.313 73.6393 124.352C73.3268 124.378 73.0338 124.391 72.7604 124.391C72.5 124.404 72.3046 124.411 72.1744 124.411C71.3411 124.411 70.5924 124.28 69.9283 124.02C69.2643 123.746 68.7044 123.375 68.2487 122.907C67.7929 122.425 67.4414 121.852 67.194 121.188C66.9596 120.511 66.8424 119.762 66.8424 118.942ZM68.9127 117.672C68.9127 118.128 68.9713 118.46 69.0885 118.668C69.2187 118.877 69.5247 118.981 70.0065 118.981C70.345 118.981 70.677 118.922 71.0026 118.805C71.3281 118.675 71.621 118.499 71.8815 118.278C72.1549 118.056 72.3697 117.796 72.526 117.496C72.6822 117.197 72.7604 116.871 72.7604 116.52C72.7604 116.325 72.7408 116.123 72.7018 115.914C72.6757 115.706 72.6106 115.517 72.5065 115.348C72.4023 115.166 72.2656 115.023 72.0963 114.918C71.9401 114.801 71.7317 114.743 71.4713 114.743C71.0807 114.743 70.7226 114.834 70.3971 115.016C70.0846 115.185 69.8177 115.413 69.5963 115.7C69.375 115.973 69.2057 116.286 69.0885 116.637C68.9713 116.976 68.9127 117.321 68.9127 117.672ZM81.4908 123.493C81.6992 123.349 81.9466 123.167 82.233 122.946C82.5325 122.711 82.832 122.464 83.1315 122.203C83.4309 121.943 83.7109 121.67 83.9713 121.383C84.2317 121.097 84.4335 120.823 84.5768 120.563C84.733 120.289 84.8112 120.036 84.8112 119.801C84.8112 119.567 84.694 119.371 84.4596 119.215C84.0429 119.215 83.5872 119.235 83.0924 119.274C82.5976 119.3 82.1028 119.313 81.608 119.313C81.1132 119.3 80.6315 119.254 80.1627 119.176C79.707 119.098 79.2968 118.955 78.9322 118.746C78.5677 118.538 78.2747 118.245 78.0533 117.868C77.845 117.477 77.7408 116.982 77.7408 116.383C77.7408 115.68 77.871 115.049 78.1315 114.489C78.4049 113.916 78.763 113.414 79.2057 112.985C79.6484 112.542 80.1432 112.158 80.6901 111.832C81.25 111.494 81.8099 111.207 82.3697 110.973C82.7083 111.064 83.0208 111.227 83.3072 111.461C83.5937 111.696 83.8411 111.956 84.0494 112.243C83.9583 112.529 83.776 112.75 83.5026 112.907C83.2421 113.063 82.9362 113.2 82.5846 113.317C82.246 113.434 81.888 113.558 81.5104 113.688C81.1328 113.818 80.7877 113.994 80.4752 114.215C80.1757 114.424 79.9218 114.703 79.7135 115.055C79.5052 115.394 79.401 115.843 79.401 116.403C79.401 116.819 79.5052 117.125 79.7135 117.321C79.9218 117.516 80.1953 117.653 80.5338 117.731C80.8724 117.796 81.2565 117.822 81.6862 117.809C82.1158 117.783 82.552 117.75 82.9947 117.711C83.4505 117.672 83.8932 117.653 84.3229 117.653C84.7526 117.64 85.1367 117.692 85.4752 117.809C85.8138 117.913 86.0807 118.089 86.276 118.336C86.4843 118.584 86.5885 118.948 86.5885 119.43C86.5885 119.638 86.5169 119.905 86.3737 120.231C86.2434 120.556 86.0612 120.908 85.8268 121.286C85.6054 121.65 85.3385 122.015 85.026 122.379C84.7265 122.744 84.4075 123.076 84.069 123.375C83.7434 123.662 83.4114 123.903 83.0729 124.098C82.7474 124.28 82.4414 124.371 82.1549 124.371C81.8815 124.371 81.6992 124.274 81.608 124.078C81.5299 123.883 81.4908 123.688 81.4908 123.493ZM88.1901 117.047C88.1901 116.969 88.1901 116.845 88.1901 116.676C88.2031 116.494 88.2096 116.305 88.2096 116.11C88.2226 115.914 88.2291 115.726 88.2291 115.543C88.2421 115.361 88.2487 115.231 88.2487 115.153C88.3919 114.944 88.5742 114.775 88.7955 114.645C89.0299 114.515 89.2643 114.411 89.4987 114.332C89.5377 115.036 89.6484 115.784 89.8307 116.578C90.013 117.373 90.2083 118.174 90.4166 118.981C90.625 119.775 90.8072 120.563 90.9635 121.344C91.1328 122.125 91.2174 122.855 91.2174 123.532C91.2174 124.118 90.9179 124.411 90.319 124.411C89.9544 124.411 89.6484 124.261 89.401 123.961C89.1536 123.662 88.9518 123.284 88.7955 122.828C88.6523 122.36 88.5351 121.845 88.444 121.286C88.3528 120.713 88.2877 120.153 88.2487 119.606C88.2226 119.059 88.2031 118.558 88.1901 118.102C88.1901 117.646 88.1901 117.295 88.1901 117.047ZM88.4635 109.723C88.7109 109.827 88.9192 109.996 89.0885 110.231C89.2578 110.465 89.3294 110.68 89.3033 110.875C89.2903 111.058 89.1471 111.188 88.8737 111.266C88.6002 111.331 88.1445 111.253 87.5065 111.032C87.5065 110.68 87.5716 110.374 87.7018 110.114C87.845 109.853 88.0989 109.723 88.4635 109.723ZM97.0182 134.762C97.7474 134.762 98.3984 134.625 98.9713 134.352C99.5442 134.092 100.026 133.727 100.417 133.258C100.82 132.802 101.126 132.275 101.335 131.676C101.556 131.09 101.667 130.478 101.667 129.84C101.667 129.515 101.647 129.085 101.608 128.551C101.582 128.017 101.536 127.438 101.471 126.813C101.406 126.188 101.309 125.55 101.178 124.899C101.061 124.248 100.911 123.636 100.729 123.063C100.547 122.477 100.319 121.969 100.046 121.539C99.7851 121.097 99.4791 120.784 99.1276 120.602C98.789 120.862 98.457 121.103 98.1315 121.325C97.8059 121.533 97.4674 121.709 97.1158 121.852C96.7643 121.995 96.3997 122.112 96.0221 122.203C95.6445 122.282 95.2408 122.321 94.8112 122.321C94.2513 122.321 93.7695 122.269 93.3658 122.164C92.9752 122.06 92.6432 121.884 92.3697 121.637C92.1093 121.39 91.914 121.064 91.7838 120.661C91.6536 120.257 91.5885 119.749 91.5885 119.137C91.5885 118.707 91.6927 118.291 91.901 117.887C92.1093 117.47 92.3828 117.086 92.7213 116.735C93.0729 116.37 93.4635 116.038 93.8932 115.739C94.3359 115.439 94.7851 115.179 95.2408 114.957C95.7096 114.736 96.1653 114.567 96.608 114.45C97.0638 114.332 97.4674 114.274 97.819 114.274C98.1575 114.274 98.4375 114.287 98.6588 114.313C98.8802 114.326 99.069 114.378 99.2252 114.469C99.3815 114.547 99.5117 114.677 99.6158 114.86C99.733 115.029 99.8437 115.263 99.9479 115.563C100.247 116.578 100.592 117.672 100.983 118.844C101.374 120.016 101.745 121.22 102.096 122.457C102.448 123.694 102.741 124.938 102.975 126.188C103.223 127.451 103.346 128.668 103.346 129.84C103.346 130.882 103.197 131.761 102.897 132.477C102.611 133.206 102.227 133.799 101.745 134.254C101.276 134.723 100.736 135.081 100.124 135.328C99.5247 135.576 98.9192 135.732 98.3072 135.797C97.6953 135.875 97.1028 135.895 96.5299 135.856C95.957 135.817 95.4622 135.739 95.0455 135.621C94.6289 135.517 94.3099 135.394 94.0885 135.25C93.8802 135.107 93.8281 134.983 93.9322 134.879C94.0494 134.788 94.3489 134.723 94.8307 134.684C95.3125 134.645 96.0416 134.671 97.0182 134.762ZM97.2916 115.914C96.3281 116.123 95.5468 116.416 94.9479 116.793C94.3619 117.158 93.9192 117.555 93.6197 117.985C93.3333 118.401 93.177 118.825 93.151 119.254C93.125 119.671 93.2031 120.029 93.3854 120.328C93.5677 120.628 93.8281 120.856 94.1666 121.012C94.5182 121.155 94.9153 121.162 95.358 121.032C95.8007 120.888 96.2695 120.589 96.7643 120.133C97.2721 119.677 97.7799 119 98.2877 118.102C98.2877 117.881 98.2877 117.64 98.2877 117.379C98.3007 117.119 98.2812 116.884 98.2291 116.676C98.177 116.455 98.0794 116.273 97.9362 116.129C97.7929 115.986 97.5781 115.914 97.2916 115.914ZM103.288 117.789C103.288 117.451 103.372 117.21 103.542 117.067C103.711 116.911 103.984 116.832 104.362 116.832H104.557C104.596 117.041 104.642 117.282 104.694 117.555C104.746 117.828 104.824 118.108 104.928 118.395C105.033 118.681 105.156 118.948 105.299 119.196C105.443 119.43 105.618 119.619 105.827 119.762C105.84 119.306 105.95 118.87 106.159 118.453C106.38 118.024 106.647 117.646 106.96 117.321C107.285 116.982 107.637 116.702 108.014 116.481C108.405 116.246 108.789 116.09 109.167 116.012H109.596C110.221 116.012 110.755 116.155 111.198 116.442C111.641 116.715 112.005 117.08 112.292 117.536C112.591 117.978 112.819 118.486 112.975 119.059C113.131 119.632 113.249 120.218 113.327 120.817C113.418 121.403 113.47 121.976 113.483 122.536C113.509 123.082 113.522 123.551 113.522 123.942H112.096C112.018 123.161 111.921 122.412 111.803 121.696C111.764 121.409 111.712 121.11 111.647 120.797C111.582 120.472 111.51 120.172 111.432 119.899C111.354 119.612 111.269 119.352 111.178 119.118C111.087 118.87 110.983 118.662 110.866 118.493C110.814 118.44 110.742 118.369 110.651 118.278C110.573 118.187 110.488 118.095 110.397 118.004C110.306 117.913 110.221 117.835 110.143 117.77C110.065 117.705 110.019 117.672 110.006 117.672C109.616 117.568 109.277 117.646 108.991 117.907C108.704 118.154 108.45 118.493 108.229 118.922C108.008 119.352 107.825 119.84 107.682 120.387C107.552 120.934 107.441 121.461 107.35 121.969C107.259 122.464 107.194 122.9 107.155 123.278C107.116 123.642 107.09 123.864 107.077 123.942C106.751 124.176 106.445 124.248 106.159 124.157C105.872 124.052 105.599 123.844 105.338 123.532C105.091 123.219 104.863 122.828 104.655 122.36C104.46 121.891 104.277 121.396 104.108 120.875C103.939 120.342 103.783 119.808 103.639 119.274C103.509 118.74 103.392 118.245 103.288 117.789Z" fill="#242424"/>
<path d="M89.0333 1.82C85.5813 1.82 82.0912 1.74727 78.6626 2.19839C76.999 2.41728 72.7404 3.91153 72.3702 4.20244C71.7486 4.69086 71.3619 5.38505 70.8426 5.98226C70.1663 6.76003 69.2868 7.29154 68.6984 8.15449C67.878 9.35782 67.1957 10.6205 66.4702 11.8823C62.8357 18.2031 62.1327 25.8766 62.2799 33.016C62.366 37.195 64.2942 41.8884 66.5823 45.3206C68.1168 47.6223 70.0311 49.2584 72.1179 51.0384C74.1264 52.7515 76.0148 54.8645 78.3543 56.1537C80.733 57.4644 83.8526 57.6574 86.4967 58.0736C88.1498 58.3338 89.4396 58.2532 91.0373 57.8214C96.2367 56.4161 100.193 53.9711 104.155 50.4498C107.497 47.4789 110.583 43.5785 112.227 39.3925C113.083 37.2138 114.064 35.2105 114.357 32.8618C114.643 30.5756 114.341 28.3352 114.259 26.0508C114.174 23.6569 113.982 21.8219 113.18 19.5341C112.217 16.7873 110.789 14.0465 109.256 11.574C107.277 8.38179 104.746 6.42407 101.492 4.53878C97.6529 2.31423 93.4242 1.82 89.0333 1.82Z" stroke="#242424" stroke-width="3" stroke-linecap="round"/>
<path d="M97.9994 34C98.6808 34.0852 98.5751 34.5781 98.5751 35.1515" stroke="#242424" stroke-width="3" stroke-linecap="round"/>
<path d="M77.9989 34.0003C78.7515 34.0003 78.8459 33.9672 79.1504 34.5761" stroke="#242424" stroke-width="3" stroke-linecap="round"/>
<path d="M69.137 40.1613C69.0902 40.5358 68.9713 40.8232 69.1639 41.2513C69.5479 42.1047 70.4257 43.1269 71.1353 43.7273C71.7382 44.2375 72.1109 44.9791 72.7098 45.4834C73.4853 46.1365 74.0936 46.9292 74.8965 47.576C75.2512 47.8617 75.4744 48.3153 75.7981 48.6391C76.1054 48.9463 76.5053 49.1648 76.767 49.5138C77.2674 50.1809 78.0947 50.5364 78.7654 51.0007C80.5032 52.2039 82.7651 52.9965 84.8411 53.3355C86.2857 53.5713 87.9818 53.5862 89.4568 53.6046C90.5227 53.618 91.5872 53.672 92.6259 53.4297C93.7041 53.1781 94.7547 52.8053 95.7613 52.2724C96.3546 51.9583 97.0329 51.7044 97.5713 51.3035C98.0664 50.9348 98.4545 50.5027 98.9304 50.1193C100.571 48.7975 102.046 46.9978 103.29 45.3085C104.148 44.144 105.017 42.7315 105.47 41.3724" stroke="#242424" stroke-width="2" stroke-linecap="round"/>
<path d="M104.987 41.3723C104.987 41.947 104.316 42.4224 103.964 42.8526C103.312 43.6493 102.328 44.4386 101.448 44.9787C100.522 45.5469 99.5119 46.2071 98.4736 46.5532C97.9944 46.7129 97.4325 46.8677 96.9328 46.9973C96.3808 47.1404 95.7973 47.0214 95.2372 47.1251C93.3411 47.4762 91.1682 47.1465 89.3028 46.9502C87.5186 46.7623 85.7118 46.2697 83.9133 46.2168C83.4801 46.204 83.0648 45.9745 82.5945 45.9745C82.1701 45.9745 81.8386 45.7467 81.4642 45.7323C80.7667 45.7055 79.8269 45.6529 79.163 45.4632C77.8402 45.0852 76.5505 44.6166 75.2 44.279C74.8226 44.1846 74.5214 44.1724 74.1302 44.1579C73.8311 44.1468 73.6443 43.8631 73.3699 43.7945C72.7407 43.6372 72.0408 43.4008 71.4994 43.0006C70.5477 42.2972 69.6914 41.7531 69.1377 40.6456" stroke="#242424" stroke-width="2" stroke-linecap="round"/>
</svg>
