<svg width="385" height="11" viewBox="0 0 385 11" fill="none" xmlns="http://www.w3.org/2000/svg">
<g clip-path="url(#clip0_1341_1312)">
<path d="M358.348 7.854L381.848 1.854V-13.646L0.347778 -3.646L1.34778 2.354L9.34778 7.354L112.348 5.854H204.348L268.348 8.854L300.848 4.354L327.348 7.854H358.348Z" fill="#F9F7F2" stroke="black"/>
<path d="M377.098 0.634004C375.484 1.58532 373.682 2.17236 371.818 2.354C363.958 3.354 356.098 4.634 348.348 6.304C339.348 8.234 331.098 5.794 322.348 4.234C313.598 2.674 304.158 1.154 295.698 2.904C288.278 4.454 280.778 5.184 273.468 6.754C262.528 9.094 252.398 6.974 241.978 4.854C237.929 4.03269 233.817 3.56427 229.688 3.454C211.558 3.014 193.418 2.454 175.278 2.454C164.328 2.454 153.418 3.604 142.418 3.834C135.418 3.974 128.418 3.164 121.418 3.164C112.418 3.164 103.528 3.814 94.5878 3.814C82.7778 3.814 70.9678 3.424 59.1478 3.354C44.3478 3.354 29.5878 1.764 14.8578 4.614C12.4978 5.084 9.85778 4.614 7.43778 4.324C6.38239 4.27181 5.37068 3.88659 4.54784 3.22365C3.725 2.5607 3.13334 1.65412 2.85778 0.634004H0.347778C1.61778 5.194 4.60778 8.694 10.5878 10.354H107.588C108.678 10.054 109.778 9.684 110.868 9.304C111.688 9.014 112.518 8.724 113.338 8.444C113.608 8.344 113.878 8.254 114.158 8.164C115.997 7.50909 117.919 7.11525 119.868 6.994C120.138 6.994 120.408 6.994 120.668 6.994C133.208 7.554 145.718 8.794 158.228 9.894C160.018 10.054 161.808 10.204 163.588 10.354H169.588C187.128 7.254 204.748 7.894 222.348 9.354C223.137 9.5647 223.887 9.90245 224.568 10.354L297.568 10.354C305.568 7.094 313.568 7.744 321.568 10.354H368.568C371.248 9.724 373.888 8.724 376.568 8.484C382.268 8.064 384.078 6.414 384.728 0.824004V0.634004H377.098Z" fill="black"/>
</g>
<defs>
<clipPath id="clip0_1341_1312">
<rect width="9.72" height="384.46" fill="white" transform="translate(0.358032 10.5166) rotate(-90.0485)"/>
</clipPath>
</defs>
</svg>
