<svg width="392" height="14" viewBox="0 0 392 14" fill="none" xmlns="http://www.w3.org/2000/svg">
<g clip-path="url(#clip0_1341_1307)">
<path d="M12.7677 3.86108L3.2677 13.3611L386.268 14.3611L383.268 5.86108L345.768 4.36108H272.768L233.768 7.36108L187.768 5.86108L135.768 4.86108H65.7677L12.7677 3.86108Z" fill="#F9F7F2"/>
<path d="M312.198 3.31108C306.397 3.71008 300.578 3.79354 294.768 3.56108C280.188 2.93108 265.608 1.99108 251.018 1.25108C249.37 1.03064 247.694 1.19143 246.118 1.72108C228.818 9.72108 211.198 5.05108 193.608 3.37108C183.378 2.37108 173.078 1.16108 162.838 1.37108C149.478 1.63108 136.158 3.42108 122.838 4.06108C117.864 4.13948 112.899 3.62247 108.048 2.52108C102.059 1.37112 95.9063 1.37112 89.9177 2.52108C82.0477 3.91108 73.7677 2.84108 65.6677 2.75108C63.8377 2.75108 62.0277 2.21108 60.1977 2.21108C47.0677 1.83108 33.9177 1.78108 20.7977 1.07108C10.8877 0.521084 4.2577 4.31108 0.7677 13.3611H7.7677C9.6177 7.70108 13.9077 4.67108 19.5277 5.10108C20.5176 5.04384 21.5072 5.21847 22.4177 5.61108C32.0677 12.0511 43.0777 9.60108 52.9677 8.36108C63.8977 6.91108 74.7677 6.30108 85.6677 5.98108C93.4477 5.76108 101.038 6.91108 108.768 8.16108C119.108 9.83108 130.278 8.82108 140.768 6.98108C150.708 5.24108 160.248 6.27108 169.998 6.91108C182.768 7.80108 195.548 8.59108 208.338 8.91108C221.828 9.25108 235.338 9.22108 248.828 8.91108C256.988 8.72108 265.148 7.07108 273.288 7.16108C287.768 7.36108 302.178 8.64108 316.628 8.84108C322.178 8.92108 327.768 6.68108 333.318 6.56108C345.998 6.30108 358.658 6.56108 371.318 6.85108C373.762 6.86112 376.169 7.45756 378.335 8.59034C380.502 9.72312 382.365 11.3592 383.768 13.3611L391.088 13.3611C386.758 5.43108 379.598 1.66108 370.878 1.31108C358.228 0.841084 345.538 0.981084 332.878 1.31108C325.978 1.49108 319.108 2.85108 312.198 3.31108Z" fill="black"/>
</g>
<defs>
<clipPath id="clip0_1341_1307">
<rect width="12.35" height="390.32" fill="white" transform="translate(0.772583 13.5261) rotate(-90.0485)"/>
</clipPath>
</defs>
</svg>
