<svg width="229" height="235" viewBox="0 0 229 235" fill="none" xmlns="http://www.w3.org/2000/svg">
<path d="M61.4155 136.075C59.2398 137.128 56.6477 137.216 53.7371 136.889C48.2875 136.278 43.5523 134.607 38.8987 132.083C33.9226 129.39 28.4036 127.438 23.105 125.184C15.9777 122.162 8.81768 119.199 1.72707 116.109C0.910654 115.758 -0.126199 114.638 0.0125922 114.07C0.196287 113.336 1.43316 112.778 2.26591 112.195C2.42575 112.094 2.62454 112.05 2.82108 112.072C2.41287 111.117 1.51481 110.123 1.71075 109.323C2.0863 107.743 2.01282 105.812 4.74783 105.268C7.70735 104.685 10.5689 103.72 13.4264 102.934C11.7078 99.774 12.0997 95.8771 11.6221 92.1242C10.177 80.7952 9.02587 69.4346 7.83798 58.0705C7.71143 56.8944 6.11533 55.5568 7.7196 54.5598C8.86259 53.8576 10.4424 53.6014 11.867 53.2784C18.0391 51.8741 24.2276 50.5225 30.4038 49.1217C35.8943 47.8789 41.5725 47.0153 46.8016 45.2003C51.1327 43.6977 55.5741 42.9429 60.0236 42.0407C67.1264 40.5907 74.1884 38.9688 81.3525 37.8033C84.1161 37.3539 87.145 37.7541 89.9862 38.1333C94.2765 38.709 98.5137 39.5832 102.763 40.3836C104.033 40.6223 104.637 40.1449 105.127 39.2426C106.008 37.6172 107.576 36.9186 109.617 37.1362C111.707 37.3679 112.699 37.1081 113.262 34.9315C114.83 28.9072 117.038 22.9952 118.826 17.027C119.479 14.8433 119.479 12.5157 120.096 10.3216C120.871 7.56216 121.884 4.84488 122.953 2.15569C123.566 0.589924 125.656 -0.178917 128.28 0.0352352C137.283 0.777161 146.282 1.53781 155.279 2.31718C169.485 3.53188 183.691 4.75243 197.896 5.97884C202.428 6.36501 206.963 6.68097 211.494 7.08821C214.882 7.38311 217.45 9.66155 217.029 12.5368C216.423 16.592 215.565 20.6164 214.458 24.5925C212.008 33.5764 209.343 42.5216 206.746 51.4774C206.465 52.4604 206.183 53.1871 207.563 53.963C208.322 54.3948 208.449 55.8166 208.604 56.8207C208.759 57.8247 208.861 58.418 210.29 58.7726C214.196 59.731 217.972 61.0756 221.867 62.0762C222.849 62.3152 223.751 62.7528 224.496 63.3526C225.242 63.9523 225.81 64.6967 226.153 65.5237C227.316 68.1356 228.398 70.8389 228.88 73.5983C229.247 75.6801 228.68 77.8954 228.427 80.0439C227.255 89.9897 226.03 99.932 224.859 109.885C224.602 112.061 224.067 113.747 221.254 114.8C219.001 115.653 217.335 117.608 215.335 119.013C214.356 119.726 213.272 120.326 212.11 120.796C207.457 122.586 204.203 125.876 200.46 128.646C199.354 129.398 198.191 130.085 196.978 130.703C196.182 131.149 195.288 131.476 194.529 131.967C190.757 134.425 187.12 137.072 183.23 139.399C179.788 141.456 176.025 143.113 172.51 145.086C169.726 146.649 167.162 148.509 164.382 150.075C161.954 151.444 159.484 152.964 156.782 153.702C154.83 154.232 152.25 154.028 150.291 153.382C139.139 149.693 128.08 145.785 117.01 141.913C116.112 141.597 115.414 140.821 114.507 140.572C113.348 140.252 112.013 139.978 110.833 140.154C104.139 141.162 97.4727 142.299 90.8026 143.422C90.1363 143.536 89.4998 143.754 88.9248 144.065C86.0674 145.62 83.4017 145.202 80.4912 143.935C75.4865 141.758 70.3064 139.88 65.216 137.844C64.0893 137.373 62.9586 136.791 61.4155 136.075ZM10.9322 54.9249C12.912 55.455 14.4632 55.8412 15.994 56.2835C23.6724 58.5093 31.3305 60.7913 39.0293 62.9539C42.1807 63.8421 45.4464 64.4424 48.61 65.299C54.5005 66.8928 60.3379 68.6341 66.2365 70.214C71.1595 71.5305 76.1438 72.6714 81.0872 73.9248C86.9409 75.4168 92.7661 76.972 98.6402 78.4641C105.274 80.1562 111.927 81.7957 118.565 83.4809C120.328 83.9267 121.925 84.183 122.647 82.1889C122.75 82.0382 122.888 81.9072 123.053 81.804C123.217 81.7008 123.404 81.6275 123.602 81.5886C127.893 80.6056 130.983 77.5513 135.44 76.7228C137.849 76.2734 140.057 74.8902 142.266 73.7949C145.054 72.4152 147.683 72.538 150.614 73.6018C154.153 74.8902 157.806 76.298 161.554 76.7228C168.183 77.4741 174.208 79.2224 179.78 82.3399C180.078 82.4823 180.409 82.5668 180.749 82.5874C181.088 82.608 181.43 82.5643 181.748 82.4593C186.956 80.2019 192.055 77.7514 197.313 75.5748C205.599 72.1484 213.988 68.9045 222.328 65.5553C222.781 65.3762 223.21 65.1445 223.838 64.8531C223.112 64.3335 222.663 63.7789 222.075 63.6279C216.739 62.2728 211.425 60.8193 206.016 59.7381C202.273 58.9833 198.358 58.8639 194.566 58.2425C187.177 57.0313 179.87 55.4339 172.436 54.4474C168.081 53.8612 163.684 53.633 159.517 52.2533C157.771 51.6126 155.971 51.088 154.132 50.684C147.895 49.5009 141.649 48.3775 135.363 47.3945C131.497 46.7801 127.533 46.6081 123.688 45.9235C117.259 44.779 110.911 43.308 104.502 42.1179C100.265 41.3315 95.7991 41.2156 91.7292 40.0466C87.1532 38.7336 82.8098 38.8108 78.3399 39.8043C67.2856 42.2618 56.2476 44.7579 45.2014 47.2365L20.1741 52.8536C17.2227 53.482 14.2877 54.1596 10.9322 54.9249ZM121.402 13.9411C119.018 22.0964 116.748 29.9182 114.43 37.7752C115.385 37.9999 115.965 38.1719 116.557 38.2667C128.105 40.1519 139.641 42.0793 151.205 43.8838C155.067 44.4841 159.023 44.6386 162.892 45.2038C168.689 46.0499 174.449 47.068 180.221 48.0404C181.278 48.2195 182.295 48.5776 183.356 48.7426C185.862 49.1744 188.385 49.55 190.9 49.9467C191.822 50.0942 192.753 50.2206 193.667 50.3996C197.056 51.0702 200.44 51.7583 203.926 52.4569C207.963 43.4168 210.09 34.2013 212.715 24.8453C211.012 24.7365 209.539 24.6557 208.069 24.5434C205.212 24.3257 202.387 24.1361 199.554 23.8412C191.671 23.0443 183.772 22.3211 175.914 21.3557C167.722 20.3516 159.586 19.0316 151.401 17.9714C145.715 17.2341 140.004 16.532 134.277 16.1563C131.285 15.9597 128.338 16.0229 125.517 14.9381C124.313 14.4923 122.957 14.3132 121.402 13.9411ZM227.128 75.7538C222.299 78.0042 218.013 79.9912 213.739 81.9923C205.028 86.0647 196.304 90.1161 187.614 94.2341C180.601 97.5552 173.657 100.992 166.628 104.296C165.505 104.822 165.35 105.458 165.334 106.385C165.078 119.065 164.806 131.746 164.517 144.426C164.493 145.617 164.517 146.81 164.517 148.141C172.147 143.689 179.556 139.434 186.863 135.056C189.1 133.719 191.01 131.985 193.157 130.524C195.137 129.18 197.239 127.954 199.28 126.662C206.702 122.025 214.102 117.37 221.552 112.767C222.716 112.047 223.152 111.226 223.287 110.015C224.132 102.291 225.1 94.5676 225.994 86.823C226.385 83.2983 226.708 79.756 227.116 75.7538H227.128ZM44.1319 76.6455C44.0625 77.6391 43.9442 78.3237 43.9727 79.0047C44.2462 86.0682 44.5075 93.1318 44.8953 100.192C44.9279 100.732 45.7689 101.47 46.4342 101.719C51.8226 103.741 57.3579 105.489 62.6443 107.687C66.7264 109.376 70.8085 110.815 75.2212 111.612C77.8191 112.027 80.3616 112.667 82.8098 113.522C92.4518 117.106 102.404 120.083 111.544 124.658C112.56 125.167 113.764 125.406 115.071 125.834C115.071 121.905 115.071 118.226 115.071 114.55C115.046 109.302 114.92 104.054 115.001 98.805C115.03 97.0497 114.838 95.8245 112.344 95.9298C111.87 95.8991 111.405 95.7969 110.972 95.6279C105.508 94.0621 100.044 92.4916 94.5826 90.9165C87.1124 88.768 79.6748 86.5281 72.1596 84.506C67.1326 83.1165 62.0276 81.9448 56.864 80.9953C53.6187 80.4231 50.549 79.7595 47.7609 78.1867C46.6996 77.5864 45.4913 77.2143 44.1197 76.6455H44.1319ZM10.2505 65.4113C13.0059 66.3346 15.6021 67.3317 18.2882 68.0865C26.485 70.3848 34.6996 72.6317 42.9318 74.827C50.5653 76.8773 58.2274 78.8608 65.8773 80.8724C68.0122 81.4341 70.1839 81.9256 72.2821 82.554C75.0253 83.3966 77.6623 84.5025 80.4463 85.2713C103.714 91.731 126.992 98.1673 150.279 104.58C154.263 105.686 158.263 105.763 162.047 104.412C170.481 101.396 178.094 97.1269 185.401 92.4121C184.556 89.7439 183.707 87.0547 182.813 84.2392C176.527 86.9529 170.387 89.5614 164.289 92.2471C161.664 93.4056 158.929 94.048 156.035 93.553C151.393 92.7561 146.736 91.9522 142.184 90.8533C128.501 87.5462 114.895 84.0636 101.236 80.746C97.5952 79.8578 93.8152 79.3769 90.1658 78.5027C88.1778 78.0288 86.3858 76.9791 84.4141 76.4349C77.4378 74.511 70.4247 72.6855 63.4199 70.8178C52.4009 67.8946 41.3792 64.976 30.3548 62.0621C28.869 61.6689 27.3667 61.3319 25.8849 60.9317C20.4558 59.4642 15.0266 57.9757 9.2708 56.4064C9.62594 59.6327 9.94434 62.5747 10.2464 65.4078L10.2505 65.4113ZM13.2917 104.949L13.1284 105.486C15.4062 106.725 17.582 108.129 20.0026 109.126C35.8983 115.745 51.8294 122.299 67.7959 128.786C71.5024 130.285 75.5968 131.082 79.2829 132.613C83.7732 134.488 88.0227 136.854 92.4599 138.876C94.2071 139.669 96.2604 140.74 98.0361 140.575C103.535 140.066 108.968 139.027 114.532 138.174C114.532 134.835 114.589 131.504 114.462 128.193C114.462 127.712 113.646 127.038 113.021 126.824C90.2814 118.925 67.5319 111.055 44.7728 103.214C43.8931 102.919 42.9447 102.808 42.0052 102.888C37.8945 103.274 33.8124 103.892 29.6976 104.176C24.2358 104.559 18.778 104.699 13.2876 104.945L13.2917 104.949ZM147.593 151.251L148.164 150.774C148.054 148.667 147.817 146.582 147.854 144.486C147.936 139.462 148.209 134.442 148.295 129.418C148.421 121.99 148.417 114.558 148.56 107.129C148.585 105.956 148.185 105.521 146.87 105.251C143.58 104.577 140.29 103.846 137.073 102.941C130.297 100.996 123.582 98.9068 116.638 96.818V139.203L147.593 151.251ZM212.27 23.2549C213.323 19.6319 214.311 16.2827 215.274 12.9335C215.784 11.1782 213.727 8.7909 211.453 8.53462C209.971 8.36962 208.485 8.22919 207.004 8.1028C193.239 6.9197 179.474 5.705 165.705 4.59211C158.684 4.01987 151.642 3.6688 144.621 3.11762C139.282 2.69985 133.938 2.21889 128.631 1.57994C126.545 1.32015 124.913 1.75547 124.3 3.33177C123.112 6.31235 122.308 9.40176 121.271 12.6702L212.27 23.2549ZM33.3307 102.217C32.5143 92.7947 31.7387 83.7126 30.861 74.6339C30.7726 74.2876 30.5946 73.9629 30.3402 73.6839C30.0857 73.4049 29.7615 73.1789 29.3915 73.0225C23.2683 71.0249 17.0717 69.1362 10.6383 67.1351C10.6383 68.0935 10.5852 68.6622 10.6383 69.2415C10.9526 72.029 11.2996 74.8165 11.6262 77.604C12.4752 84.8044 13.3529 91.9978 14.1407 99.2088C14.3612 101.213 16.4145 103.239 18.7862 103.141C23.5051 102.92 28.224 102.544 33.3307 102.217ZM150.258 106.139C150.193 106.627 150.103 107.024 150.099 107.42C149.92 121.037 149.747 134.656 149.581 148.278C149.573 149.155 149.641 150.032 149.785 150.9C149.843 151.287 150.065 151.642 150.409 151.897C152.822 153.33 160.578 151.897 162.248 149.728C162.399 149.469 162.475 149.182 162.468 148.892C162.741 144.641 163.125 140.393 163.239 136.138C163.493 126.329 163.619 116.516 163.786 106.704C163.786 106.335 163.709 105.967 163.668 105.574C157.863 106.988 157.863 106.988 150.258 106.139ZM70.2492 132.093C69.2532 131.623 68.8572 131.409 68.4408 131.244C60.0929 127.926 51.4348 125.244 43.4502 121.175C37.2822 118.016 30.514 115.765 24.0031 113.101C23.3989 112.855 22.7458 112.504 22.1212 112.504C17.9126 112.521 13.6999 112.525 9.50348 112.746C7.77267 112.837 6.07451 113.448 4.36411 113.827C5.53567 114.772 6.65417 115.193 7.68286 115.737C11.7119 117.872 15.5736 120.28 19.7618 122.151C28.1709 125.915 36.8086 129.302 45.2382 133.034C48.7243 134.579 52.092 135.671 56.0843 134.884C57.9213 134.533 59.9215 134.762 61.7503 134.382C64.4975 133.842 67.1019 132.971 70.2615 132.093H70.2492ZM122.908 83.4563C127.399 84.6605 131.889 85.8506 136.379 87.0863C141.8 88.5749 147.201 90.1055 152.618 91.6011C155.01 92.2611 157.418 92.3594 159.79 91.5344C162.358 90.6427 164.95 89.779 167.456 88.7785C171.285 87.2303 175.049 85.5557 178.845 83.9337L178.907 83.3334C176.678 82.3294 174.563 81.0058 172.196 80.3809C165.481 78.6045 158.7 76.9545 151.859 75.5853C148.891 74.992 145.36 74.3812 142.682 75.2132C136.306 77.2002 130.252 80.0439 124.096 82.554C123.646 82.7893 123.251 83.0954 122.933 83.4563H122.908ZM206.722 58.3654C206.367 54.9811 205.399 53.9911 202.452 53.4925C186.954 50.8736 171.417 48.3201 155.843 45.8322C149.72 44.8562 143.511 44.298 137.388 43.3256C128.917 41.9775 120.467 40.517 112.078 38.8951C109.548 38.4071 107.841 38.7336 106.474 40.7979C111.515 41.6931 116.495 42.5883 121.488 43.4344C121.814 43.4906 122.304 43.2167 122.594 42.985C123.064 42.6347 123.619 42.3787 124.218 42.2355C124.817 42.0924 125.446 42.0658 126.059 42.1575C126.672 42.2493 127.253 42.4571 127.761 42.766C128.269 43.0749 128.69 43.4771 128.995 43.9435C129.438 44.5352 130.132 44.9546 130.93 45.1125C136.894 46.243 142.882 47.2962 148.87 48.3494C159.386 50.196 169.907 52.0204 180.433 53.8225C181.111 53.9384 181.903 53.5873 182.638 53.4258C183.266 53.2924 183.862 53.0045 184.503 52.994C185.581 52.994 186.736 53.3661 187.72 53.1415C189.296 52.7904 190.071 53.317 190.5 54.4334C190.965 55.6551 191.884 56.1642 193.325 56.2484C194.141 56.2941 194.912 56.5749 195.713 56.6978C199.28 57.249 202.881 57.7826 206.746 58.3654H206.722ZM185.96 92.5314C188.508 91.3132 190.736 90.5093 192.606 89.2946C196.398 86.8371 200.648 85.3099 205.069 83.9373C207.824 83.0806 211.086 82.2732 212.339 79.7946C213.825 76.8702 214.523 73.6474 215.605 70.4667C215.376 70.4413 215.145 70.4331 214.915 70.4422C204.726 74.8118 194.54 79.1931 184.356 83.5862C183.989 83.7477 183.54 84.3304 183.621 84.6183C184.315 87.153 185.115 89.6632 185.985 92.5314H185.96ZM34.8778 102.14C36.9842 101.866 38.9068 101.48 40.8458 101.399C42.8624 101.315 43.3686 100.49 43.2502 98.9244C42.7114 91.8117 42.1766 84.6956 41.7929 77.5759C41.7194 76.2453 40.9765 75.631 39.7927 75.3501C37.4659 74.7779 35.1064 74.4268 32.4979 73.9072C33.294 83.3615 34.0777 92.6473 34.8778 102.14ZM93.9499 141.263C93.5292 140.959 93.08 140.686 92.6069 140.445C86.9246 138.105 81.2355 135.764 75.5396 133.424C75.2416 133.301 74.8702 133.108 74.5967 133.164C71.7678 133.74 68.9552 134.361 65.6528 135.07C71.3677 137.409 76.703 139.452 81.8791 141.741C82.9736 142.248 84.1756 142.56 85.4135 142.659C86.6513 142.758 87.8997 142.642 89.084 142.317C90.623 141.937 92.1946 141.642 93.9499 141.263ZM224.169 66.3838C221.785 67.4159 219.36 68.434 216.984 69.5434C216.488 69.8037 216.12 70.2125 215.952 70.6914C214.874 74.1214 213.878 77.5653 212.829 81.0901L227.116 74.0055C226.087 71.3936 225.161 68.9993 224.153 66.3838H224.169ZM21.113 111.047C17.5901 109.586 14.3693 108.48 11.4302 106.967C9.11976 105.774 6.99707 106.139 4.89887 106.862C4.2294 107.087 3.78037 108.179 3.60484 108.937C3.51503 109.327 4.12735 110.022 4.62945 110.296C6.20922 111.159 7.89513 111.293 9.83821 111.131C13.3692 110.833 16.9737 111.047 21.113 111.047ZM184.038 54.128L183.94 54.4264L188.691 55.4375L189.067 55.1601C188.773 54.809 188.508 54.2017 188.181 54.1736C186.81 54.0648 185.422 54.128 184.038 54.128ZM123.827 43.0974C123.778 43.3466 123.729 43.5924 123.684 43.8416L127.566 44.5438C127.619 44.2348 127.676 43.9224 127.729 43.6135L123.827 43.0974Z" fill="#242424"/>
<path d="M140.933 79.6227L139.006 78.5485C140.488 76.7931 142.648 76.1331 144.721 75.94C148.303 75.6099 151.919 76.1883 155.123 77.6041C159.082 79.2576 163.695 79.7737 167.993 80.8129C168.581 81.0042 169.147 81.2392 169.687 81.515C169.409 81.9969 169.101 82.4657 168.765 82.9193C168.536 83.2001 168.091 83.3476 167.875 83.6214C166.091 85.9209 163.707 85.9279 161.05 85.0046C160.548 84.8326 160.029 84.7062 159.539 84.5623C157.017 87.5218 149.869 87.3498 146.885 84.2112L149.195 82.7613C147.232 81.357 145.566 82.161 143.991 83.2142C143.287 83.7287 142.425 84.0566 141.509 84.1582C140.594 84.2598 139.663 84.1306 138.831 83.7864C137.712 83.3827 136.512 83.1334 135.422 82.6841C134.859 82.4524 133.998 81.838 134.075 81.5782C134.234 81.0586 134.892 80.3775 135.447 80.2687C137.243 79.9387 139.096 79.8264 140.933 79.6227ZM155.188 79.4683C151.902 76.5684 146.175 76.1928 141.203 78.2676C143.411 80.0897 146.273 80.4548 148.893 80.7251C150.775 80.9112 152.816 79.9843 155.188 79.4683ZM167.708 82.2207C164.989 81.6835 162.205 81.3921 159.662 80.5566C156.98 79.6719 155.735 79.707 153.824 81.7537C160.784 84.0392 165.556 85.2679 167.708 82.2207ZM157.474 84.6536C151.212 82.5471 150.742 82.6735 149.412 84.3762C155.074 85.8999 155.074 85.8999 157.474 84.6536ZM143.558 82.2207C141.545 80.8409 137.729 80.546 135.128 81.7151C138.174 81.9363 140.554 84.2147 143.558 82.2207Z" fill="#242424"/>
<path d="M223.213 112.114C223.213 113.767 222.2 115.417 221.966 117.129C221.683 119.2 221.393 121.099 221.393 123.188C221.393 126.719 222.092 130.852 221.359 134.32C220.704 137.423 218.967 140.23 218.967 143.422C218.967 146.476 218.967 149.529 218.967 152.583C218.967 161.597 219.556 170.639 216.676 179.31C216.045 181.209 216.316 183.491 215.901 185.456C215.449 187.594 214.115 189.434 214.115 191.688C214.115 193.317 213.969 199.056 212.295 199.776" stroke="#242424" stroke-width="1.5" stroke-linecap="round"/>
<path d="M212.296 199.777C208.655 202 205.522 205.196 202.843 207.5C199.675 210.225 196.278 213.25 192.963 216C189.702 218.704 161.577 232 157.403 233.693C154.167 233.693 151.503 233.042 148.338 232.679C144.379 232.225 139.798 231.563 136.005 230.331C131.472 228.858 125.271 227.208 121.65 224.301C118.351 221.652 112.088 219.811 107.969 218.039C100.188 214.692 92.1766 211.584 84.6169 207.893C77.0567 204.202 68.7104 201.268 60.5234 198.733C57.0959 197.671 53.6559 197.265 50.212 196.008C46.5584 194.675 42.5227 193.559 39.1594 191.718C34.4527 189.141 26.8801 185.688 21.2324 185.688" stroke="#242424" stroke-width="1.5" stroke-linecap="round"/>
<path d="M22.3914 185.688C17.4908 185.688 17.4884 175.5 17.4913 170C17.4931 166.5 17.4911 161.982 17.4911 159C17.4911 155.12 17.4883 154.443 17.4883 150.51C17.4883 141.872 17.4883 130.639 17.4883 122" stroke="#242424" stroke-width="1.2" stroke-linecap="round"/>
<path d="M24.6648 185.688C19.7643 185.688 19.7618 175.5 19.7647 170C19.7666 166.5 19.7645 161.982 19.7645 159C19.7645 155.12 19.7618 154.443 19.7618 150.51C19.7618 141.872 19.7617 130.639 19.7617 122" stroke="#242424" stroke-width="0.8" stroke-linecap="round"/>
<path d="M148.606 152.814C148.606 170.526 146.18 187.822 146.18 205.516C146.18 210.719 145.792 215.983 145.573 221.054C145.41 224.856 144.967 228.374 144.967 232.128" stroke="#242424" stroke-width="1.8" stroke-linecap="round"/>
<path d="M163.164 150.206C163.164 153.646 162.818 157.009 161.816 160.352C159.639 167.619 159.604 175.647 158.615 183.137C157.533 191.328 155.525 199.658 155.279 207.893C155.033 216.134 155.279 224.405 155.279 232.65" stroke="#242424" stroke-width="1.8" stroke-linecap="round"/>
<mask id="path-9-inside-1_1560_2019" fill="white">
<path d="M59.1855 157.082C57.4889 157.032 57.0225 155.882 56.4846 154.739C56.0774 153.87 55.1136 153.707 54.1964 153.711C51.133 153.755 48.2374 154.443 45.7509 156.321C43.7821 157.805 41.8374 159.318 40.6274 161.483C40.0165 162.585 39.8647 163.626 40.5881 164.659C41.3115 165.691 42.335 165.818 43.5435 165.723C44.8146 165.605 46.0248 165.387 47.0358 164.556C47.8595 163.887 48.1112 162.565 47.7423 161.66C47.5744 161.25 47.5858 160.792 47.7741 160.38C47.8946 160.173 48.5878 160.102 48.9642 160.184C50.5155 160.529 52.0402 160.955 53.5737 161.354C54.4406 161.585 54.8431 162.189 54.6765 162.899C54.5466 163.508 53.7057 164.028 52.9718 164.061C52.6989 164.092 52.4452 164.217 52.2591 164.409C51.3669 165.37 50.522 166.368 49.6303 167.326C49.4001 167.548 49.1263 167.727 48.8249 167.852C47.8084 168.365 46.763 168.826 45.6937 169.23C44.9386 169.486 44.1415 169.605 43.3471 169.578C42.3247 169.503 41.3142 169.343 40.3273 169.102C39.6166 168.965 38.9609 168.66 38.4227 168.216C37.8845 167.771 37.4818 167.202 37.253 166.563C36.7878 165.379 36.2334 164.184 36.0501 162.939C35.7722 161.178 36.5438 159.637 37.68 158.162C40.4158 154.615 44.2289 152.575 48.4197 150.969C50.2657 150.261 52.1597 149.716 54.1074 149.691C55.8833 149.683 57.6486 149.858 59.371 150.214C61.3973 150.622 63.038 153.31 61.048 155.681C60.6994 156.098 60.297 156.481 59.9223 156.877C60.3768 157.253 60.8005 157.659 61.19 158.093C62.0712 159.231 62.1239 160.573 60.8252 161.664C60.1108 162.264 59.4011 162.871 58.7068 163.491C58.3517 163.81 58.1863 164.099 58.7949 164.395C59.3687 164.698 59.9065 165.055 60.4 165.461C60.8965 165.825 60.8569 166.297 60.4516 166.751C60.0462 167.205 59.5771 167.472 58.937 167.222C58.4123 167.019 57.8644 166.852 57.3556 166.618C56.7268 166.33 56.4426 166.603 56.224 167.126C55.8565 168.033 55.4406 168.923 55.1056 169.835C54.3081 171.998 52.7493 173.721 51.3301 175.535C50.4904 176.608 49.61 177.642 48.7344 178.683C48.5273 178.98 48.2648 179.24 47.9597 179.451C47.6767 179.604 47.1755 179.734 46.974 179.605C46.8551 179.489 46.7699 179.346 46.7261 179.189C46.6823 179.032 46.6811 178.866 46.7228 178.707C46.9422 178.208 47.2249 177.733 47.5647 177.294C48.8977 175.341 50.2526 173.399 51.5861 171.443C51.8005 171.123 51.9757 170.782 52.1084 170.427C52.9072 168.343 53.6285 166.236 54.4645 164.165C55.1144 162.55 55.9002 160.957 56.6269 159.354C57.1143 158.272 58.1691 157.766 59.1855 157.082ZM58.9357 159.154C58.4931 159.625 58.0417 159.909 57.9785 160.248C57.9277 160.486 58.4566 161.056 58.6504 161.021C58.8663 160.979 59.0708 160.893 59.249 160.769C59.4271 160.645 59.5743 160.487 59.6798 160.305C59.7672 160.081 59.2968 159.681 58.9357 159.154Z"/>
<path d="M103.795 173.926C102.75 173.827 101.703 173.711 100.663 173.633C99.3824 173.537 98.7495 174.012 98.4571 175.182C98.1169 176.577 97.8871 178.026 96.8939 179.203C96.3525 179.852 95.7345 180.443 95.0521 180.965C94.379 181.471 93.7314 181.329 93.219 180.724C91.4908 178.675 91.9729 176.787 93.7254 174.857C93.7623 174.825 93.8014 174.795 93.8424 174.767C95.2062 173.571 95.4076 172.498 93.3404 171.68C92.0762 171.163 90.883 170.514 89.7834 169.743C89.1682 169.32 88.7538 168.599 88.3667 167.951C88.0641 167.437 88.4866 167.046 89.2199 167.144C90.4816 167.315 91.7392 167.504 92.9873 167.738C96.1157 168.306 99.2271 168.968 102.375 169.461C105.329 169.927 108.315 170.246 111.277 170.578C112.424 170.702 112.973 171.318 113.261 172.245C113.667 173.55 112.809 174.652 111.329 174.601C108.806 174.516 106.291 174.337 103.78 174.198L103.795 173.926Z"/>
<path d="M84.2151 163.906C84.6719 163.629 85.1464 163.38 85.6356 163.16C86.1432 162.971 86.6732 162.59 87.2105 163.122C87.7477 163.653 87.9983 164.153 87.6857 164.873C87.3732 165.594 87.1186 166.287 86.8391 166.995C86.0977 168.881 85.3798 170.757 84.6201 172.629C84.3497 173.24 84.0458 173.837 83.7096 174.42C83.5427 174.688 83.2895 174.9 82.9874 175.027C82.6854 175.153 82.3506 175.187 82.0326 175.123C81.3589 175.017 81.1922 174.539 81.1408 174.007C81.0284 172.844 81.5914 171.808 82.0812 170.772C82.4883 169.909 82.9208 169.056 83.3615 168.207C83.6422 167.679 83.4974 167.313 82.9188 167.104C82.7811 167.051 82.6487 166.987 82.5229 166.913C80.9627 166.066 81.2617 166.21 80.4807 167.567C79.3344 169.561 78.4376 171.675 77.3652 173.709C76.4098 175.525 75.3753 177.311 74.3389 179.09C73.9726 179.719 73.3852 180.182 72.5467 180.018C71.8523 179.88 71.0527 178.861 71.0083 178.139C70.8887 176.151 71.4541 174.389 73.1269 173.004C74.4907 171.88 75.2771 170.413 76.1291 168.953C76.9976 167.444 78.0003 165.994 79.0006 164.54C79.8391 163.33 80.7585 162.17 81.6318 160.983C81.9461 160.555 82.2049 160.029 82.8809 160.138C83.661 160.261 84.4364 161.122 84.4087 161.81C84.3774 162.429 84.293 163.054 84.2151 163.906Z"/>
<path d="M67.5433 166.407C67.861 164.402 69.1084 162.778 70.5548 161.309C71.7085 160.124 72.9804 159.043 74.3525 158.082C75.1018 157.562 76.1412 157.371 77.082 157.156C77.8717 157.008 78.6719 156.927 79.4729 156.914C79.8137 156.871 80.1556 156.947 80.4317 157.129C80.7078 157.31 80.898 157.583 80.9651 157.894C81.2583 158.824 81.256 159.737 80.729 160.604C79.0551 163.353 77.2589 166.032 74.7181 168.193C74.2904 168.562 73.7815 168.837 73.2296 169C72.1694 169.302 71.088 169.526 69.9954 169.672C68.3296 169.879 67.1925 168.767 67.3708 167.201C67.4068 166.946 67.4819 166.695 67.5433 166.407ZM78.1128 159.811L77.841 159.353C77.6194 159.504 77.2938 159.613 77.191 159.823C76.9706 160.269 76.9216 160.785 76.6988 161.228C76.2941 162.022 75.9484 162.082 75.1932 161.628C75.0883 161.588 74.9733 161.574 74.8591 161.586C74.7448 161.599 74.6349 161.638 74.5396 161.7C73.3897 162.924 72.2357 164.153 71.1704 165.439C70.9063 165.761 70.956 166.301 70.8591 166.74C71.3401 166.719 71.8738 166.823 72.2939 166.657C75.4914 165.399 76.9856 162.847 78.101 159.809L78.1128 159.811Z"/>
<path d="M61.4928 164.105C61.9749 162.618 63.3806 161.254 64.8993 160.921C65.323 160.847 65.7568 160.893 66.1447 161.052C66.5327 161.211 66.857 161.477 67.0758 161.814C67.3095 162.165 67.4565 162.563 67.5066 162.978C67.5568 163.393 67.5089 163.816 67.3662 164.218C66.9426 165.416 66.3624 166.432 65.0766 167.076C63.7907 167.721 62.2666 166.991 61.8676 165.969C61.6853 165.361 61.5599 164.737 61.4928 164.105ZM64.2308 165.372C64.8217 165.465 65.5727 164.965 65.7517 164.327C65.7898 164.096 65.7338 163.862 65.5949 163.673C65.4561 163.484 65.2444 163.352 65.0017 163.304C64.3872 163.207 63.8406 163.708 63.6179 164.537C63.4726 165.061 63.7586 165.266 64.2308 165.372Z"/>
<path d="M88.3222 174.758C88.1651 175.352 88.005 175.945 87.8484 176.535C87.7974 176.756 87.6662 176.957 87.4771 177.102C87.288 177.247 87.0527 177.327 86.8114 177.33C86.3085 177.383 86.0875 177.131 85.8883 176.718C85.4474 175.808 85.7156 174.908 86.2001 174.169C86.853 173.17 86.6136 172.231 86.4427 171.271C86.2884 170.42 86.3988 170.045 87.0382 169.911C87.1991 169.88 87.3641 169.881 87.5225 169.914C87.6809 169.946 87.8292 170.01 87.9575 170.1C88.0858 170.191 88.1913 170.306 88.2671 170.439C88.343 170.571 88.3874 170.718 88.3975 170.87C88.4833 172.157 88.4568 173.455 88.4865 174.747L88.3222 174.758Z"/>
<path d="M100.174 177.871C101.184 178.062 101.609 178.604 101.388 179.422C101.152 180.315 100.442 180.896 99.7367 180.779C98.9153 180.649 98.2344 179.66 98.4199 178.877C98.6054 178.093 99.2554 177.695 100.174 177.871Z"/>
<path d="M91.9542 166.039C91.7929 166.723 91.2747 167.076 90.5951 166.969C90.4182 166.938 90.2514 166.872 90.1051 166.777C89.9588 166.682 89.8363 166.559 89.7451 166.416C89.654 166.273 89.5963 166.112 89.5757 165.945C89.555 165.778 89.5719 165.608 89.6252 165.446C89.7912 164.782 90.4359 164.323 91.0357 164.446C91.6934 164.57 92.1231 165.318 91.9542 166.039Z"/>
</mask>
<path d="M59.1855 157.082C57.4889 157.032 57.0225 155.882 56.4846 154.739C56.0774 153.87 55.1136 153.707 54.1964 153.711C51.133 153.755 48.2374 154.443 45.7509 156.321C43.7821 157.805 41.8374 159.318 40.6274 161.483C40.0165 162.585 39.8647 163.626 40.5881 164.659C41.3115 165.691 42.335 165.818 43.5435 165.723C44.8146 165.605 46.0248 165.387 47.0358 164.556C47.8595 163.887 48.1112 162.565 47.7423 161.66C47.5744 161.25 47.5858 160.792 47.7741 160.38C47.8946 160.173 48.5878 160.102 48.9642 160.184C50.5155 160.529 52.0402 160.955 53.5737 161.354C54.4406 161.585 54.8431 162.189 54.6765 162.899C54.5466 163.508 53.7057 164.028 52.9718 164.061C52.6989 164.092 52.4452 164.217 52.2591 164.409C51.3669 165.37 50.522 166.368 49.6303 167.326C49.4001 167.548 49.1263 167.727 48.8249 167.852C47.8084 168.365 46.763 168.826 45.6937 169.23C44.9386 169.486 44.1415 169.605 43.3471 169.578C42.3247 169.503 41.3142 169.343 40.3273 169.102C39.6166 168.965 38.9609 168.66 38.4227 168.216C37.8845 167.771 37.4818 167.202 37.253 166.563C36.7878 165.379 36.2334 164.184 36.0501 162.939C35.7722 161.178 36.5438 159.637 37.68 158.162C40.4158 154.615 44.2289 152.575 48.4197 150.969C50.2657 150.261 52.1597 149.716 54.1074 149.691C55.8833 149.683 57.6486 149.858 59.371 150.214C61.3973 150.622 63.038 153.31 61.048 155.681C60.6994 156.098 60.297 156.481 59.9223 156.877C60.3768 157.253 60.8005 157.659 61.19 158.093C62.0712 159.231 62.1239 160.573 60.8252 161.664C60.1108 162.264 59.4011 162.871 58.7068 163.491C58.3517 163.81 58.1863 164.099 58.7949 164.395C59.3687 164.698 59.9065 165.055 60.4 165.461C60.8965 165.825 60.8569 166.297 60.4516 166.751C60.0462 167.205 59.5771 167.472 58.937 167.222C58.4123 167.019 57.8644 166.852 57.3556 166.618C56.7268 166.33 56.4426 166.603 56.224 167.126C55.8565 168.033 55.4406 168.923 55.1056 169.835C54.3081 171.998 52.7493 173.721 51.3301 175.535C50.4904 176.608 49.61 177.642 48.7344 178.683C48.5273 178.98 48.2648 179.24 47.9597 179.451C47.6767 179.604 47.1755 179.734 46.974 179.605C46.8551 179.489 46.7699 179.346 46.7261 179.189C46.6823 179.032 46.6811 178.866 46.7228 178.707C46.9422 178.208 47.2249 177.733 47.5647 177.294C48.8977 175.341 50.2526 173.399 51.5861 171.443C51.8005 171.123 51.9757 170.782 52.1084 170.427C52.9072 168.343 53.6285 166.236 54.4645 164.165C55.1144 162.55 55.9002 160.957 56.6269 159.354C57.1143 158.272 58.1691 157.766 59.1855 157.082ZM58.9357 159.154C58.4931 159.625 58.0417 159.909 57.9785 160.248C57.9277 160.486 58.4566 161.056 58.6504 161.021C58.8663 160.979 59.0708 160.893 59.249 160.769C59.4271 160.645 59.5743 160.487 59.6798 160.305C59.7672 160.081 59.2968 159.681 58.9357 159.154Z" stroke="#242424" stroke-width="2.55999" mask="url(#path-9-inside-1_1560_2019)"/>
<path d="M103.795 173.926C102.75 173.827 101.703 173.711 100.663 173.633C99.3824 173.537 98.7495 174.012 98.4571 175.182C98.1169 176.577 97.8871 178.026 96.8939 179.203C96.3525 179.852 95.7345 180.443 95.0521 180.965C94.379 181.471 93.7314 181.329 93.219 180.724C91.4908 178.675 91.9729 176.787 93.7254 174.857C93.7623 174.825 93.8014 174.795 93.8424 174.767C95.2062 173.571 95.4076 172.498 93.3404 171.68C92.0762 171.163 90.883 170.514 89.7834 169.743C89.1682 169.32 88.7538 168.599 88.3667 167.951C88.0641 167.437 88.4866 167.046 89.2199 167.144C90.4816 167.315 91.7392 167.504 92.9873 167.738C96.1157 168.306 99.2271 168.968 102.375 169.461C105.329 169.927 108.315 170.246 111.277 170.578C112.424 170.702 112.973 171.318 113.261 172.245C113.667 173.55 112.809 174.652 111.329 174.601C108.806 174.516 106.291 174.337 103.78 174.198L103.795 173.926Z" stroke="#242424" stroke-width="2.55999" mask="url(#path-9-inside-1_1560_2019)"/>
<path d="M84.2151 163.906C84.6719 163.629 85.1464 163.38 85.6356 163.16C86.1432 162.971 86.6732 162.59 87.2105 163.122C87.7477 163.653 87.9983 164.153 87.6857 164.873C87.3732 165.594 87.1186 166.287 86.8391 166.995C86.0977 168.881 85.3798 170.757 84.6201 172.629C84.3497 173.24 84.0458 173.837 83.7096 174.42C83.5427 174.688 83.2895 174.9 82.9874 175.027C82.6854 175.153 82.3506 175.187 82.0326 175.123C81.3589 175.017 81.1922 174.539 81.1408 174.007C81.0284 172.844 81.5914 171.808 82.0812 170.772C82.4883 169.909 82.9208 169.056 83.3615 168.207C83.6422 167.679 83.4974 167.313 82.9188 167.104C82.7811 167.051 82.6487 166.987 82.5229 166.913C80.9627 166.066 81.2617 166.21 80.4807 167.567C79.3344 169.561 78.4376 171.675 77.3652 173.709C76.4098 175.525 75.3753 177.311 74.3389 179.09C73.9726 179.719 73.3852 180.182 72.5467 180.018C71.8523 179.88 71.0527 178.861 71.0083 178.139C70.8887 176.151 71.4541 174.389 73.1269 173.004C74.4907 171.88 75.2771 170.413 76.1291 168.953C76.9976 167.444 78.0003 165.994 79.0006 164.54C79.8391 163.33 80.7585 162.17 81.6318 160.983C81.9461 160.555 82.2049 160.029 82.8809 160.138C83.661 160.261 84.4364 161.122 84.4087 161.81C84.3774 162.429 84.293 163.054 84.2151 163.906Z" stroke="#242424" stroke-width="2.55999" mask="url(#path-9-inside-1_1560_2019)"/>
<path d="M67.5433 166.407C67.861 164.402 69.1084 162.778 70.5548 161.309C71.7085 160.124 72.9804 159.043 74.3525 158.082C75.1018 157.562 76.1412 157.371 77.082 157.156C77.8717 157.008 78.6719 156.927 79.4729 156.914C79.8137 156.871 80.1556 156.947 80.4317 157.129C80.7078 157.31 80.898 157.583 80.9651 157.894C81.2583 158.824 81.256 159.737 80.729 160.604C79.0551 163.353 77.2589 166.032 74.7181 168.193C74.2904 168.562 73.7815 168.837 73.2296 169C72.1694 169.302 71.088 169.526 69.9954 169.672C68.3296 169.879 67.1925 168.767 67.3708 167.201C67.4068 166.946 67.4819 166.695 67.5433 166.407ZM78.1128 159.811L77.841 159.353C77.6194 159.504 77.2938 159.613 77.191 159.823C76.9706 160.269 76.9216 160.785 76.6988 161.228C76.2941 162.022 75.9484 162.082 75.1932 161.628C75.0883 161.588 74.9733 161.574 74.8591 161.586C74.7448 161.599 74.6349 161.638 74.5396 161.7C73.3897 162.924 72.2357 164.153 71.1704 165.439C70.9063 165.761 70.956 166.301 70.8591 166.74C71.3401 166.719 71.8738 166.823 72.2939 166.657C75.4914 165.399 76.9856 162.847 78.101 159.809L78.1128 159.811Z" stroke="#242424" stroke-width="2.55999" mask="url(#path-9-inside-1_1560_2019)"/>
<path d="M61.4928 164.105C61.9749 162.618 63.3806 161.254 64.8993 160.921C65.323 160.847 65.7568 160.893 66.1447 161.052C66.5327 161.211 66.857 161.477 67.0758 161.814C67.3095 162.165 67.4565 162.563 67.5066 162.978C67.5568 163.393 67.5089 163.816 67.3662 164.218C66.9426 165.416 66.3624 166.432 65.0766 167.076C63.7907 167.721 62.2666 166.991 61.8676 165.969C61.6853 165.361 61.5599 164.737 61.4928 164.105ZM64.2308 165.372C64.8217 165.465 65.5727 164.965 65.7517 164.327C65.7898 164.096 65.7338 163.862 65.5949 163.673C65.4561 163.484 65.2444 163.352 65.0017 163.304C64.3872 163.207 63.8406 163.708 63.6179 164.537C63.4726 165.061 63.7586 165.266 64.2308 165.372Z" stroke="#242424" stroke-width="2.55999" mask="url(#path-9-inside-1_1560_2019)"/>
<path d="M88.3222 174.758C88.1651 175.352 88.005 175.945 87.8484 176.535C87.7974 176.756 87.6662 176.957 87.4771 177.102C87.288 177.247 87.0527 177.327 86.8114 177.33C86.3085 177.383 86.0875 177.131 85.8883 176.718C85.4474 175.808 85.7156 174.908 86.2001 174.169C86.853 173.17 86.6136 172.231 86.4427 171.271C86.2884 170.42 86.3988 170.045 87.0382 169.911C87.1991 169.88 87.3641 169.881 87.5225 169.914C87.6809 169.946 87.8292 170.01 87.9575 170.1C88.0858 170.191 88.1913 170.306 88.2671 170.439C88.343 170.571 88.3874 170.718 88.3975 170.87C88.4833 172.157 88.4568 173.455 88.4865 174.747L88.3222 174.758Z" stroke="#242424" stroke-width="2.55999" mask="url(#path-9-inside-1_1560_2019)"/>
<path d="M100.174 177.871C101.184 178.062 101.609 178.604 101.388 179.422C101.152 180.315 100.442 180.896 99.7367 180.779C98.9153 180.649 98.2344 179.66 98.4199 178.877C98.6054 178.093 99.2554 177.695 100.174 177.871Z" stroke="#242424" stroke-width="2.55999" mask="url(#path-9-inside-1_1560_2019)"/>
<path d="M91.9542 166.039C91.7929 166.723 91.2747 167.076 90.5951 166.969C90.4182 166.938 90.2514 166.872 90.1051 166.777C89.9588 166.682 89.8363 166.559 89.7451 166.416C89.654 166.273 89.5963 166.112 89.5757 165.945C89.555 165.778 89.5719 165.608 89.6252 165.446C89.7912 164.782 90.4359 164.323 91.0357 164.446C91.6934 164.57 92.1231 165.318 91.9542 166.039Z" stroke="#242424" stroke-width="2.55999" mask="url(#path-9-inside-1_1560_2019)"/>
</svg>
