<svg width="306" height="402" viewBox="0 0 306 402" fill="none" xmlns="http://www.w3.org/2000/svg">
<path d="M38.5887 368.899C38.5887 363.357 38.5887 357.816 38.5887 352.274C38.5887 349.59 39.3175 346.825 41.0216 345.021C43.0706 342.851 42.6435 336.923 42.6435 334.208C42.6435 327.209 38.5887 322.018 38.5887 315.331C38.5887 309.399 38.5887 303.467 38.5887 297.535C38.5887 293.225 36.9668 289.072 36.9668 284.56" stroke="#242424" stroke-width="6" stroke-linecap="round"/>
<path d="M277.822 361.6C277.822 357.125 277.822 352.65 277.822 348.175C277.822 343.131 275.389 338.598 275.389 334.028C275.389 330.715 276.029 327.531 276.2 324.296C276.347 321.493 277.013 321.204 277.822 318.98C278.603 316.832 280.452 314.48 281.02 312.492C282.21 308.329 281.065 302.739 281.065 298.346" stroke="#242424" stroke-width="6" stroke-linecap="round"/>
<path d="M281.065 298.346C280.915 297.001 280.306 294.596 279.082 294.246C277.944 293.921 278.632 288.148 278.632 286.992C278.632 284.019 278.632 281.045 278.632 278.072" stroke="#242424" stroke-width="6" stroke-linecap="round"/>
<path d="M36.9668 279.694V287.803" stroke="#242424" stroke-width="6" stroke-linecap="round"/>
<path d="M11.0156 221.305C15.0704 221.305 19.1252 221.305 23.18 221.305C26.2343 221.305 29.6442 219.28 32.9114 218.917C39.2184 218.217 45.7598 219.153 52.0139 218.016C70.8701 214.588 90.7268 216.439 109.907 216.439C115.389 216.439 120.87 216.439 126.351 216.439C134.223 216.439 140.754 219.683 148.878 219.683C152.392 219.683 155.906 219.683 159.42 219.683C163.637 219.683 164.947 218.473 168.701 217.431C171.337 216.698 185.926 217.762 186.993 215.628" stroke="#242424" stroke-width="6" stroke-linecap="round"/>
<path d="M195.914 219.683C206.757 219.683 219.56 221.58 229.659 218.016C235.42 215.983 240.288 214.007 246.238 214.007C248.318 214.007 251.308 213.519 253.312 214.187C255.766 215.005 258.103 216.439 260.79 216.439C262.367 216.439 263.637 217.658 265.206 218.106C267.548 218.776 269.526 218.872 272.144 218.872C278.364 218.872 284.695 219.683 290.751 219.683C291.735 219.683 296.414 220.346 297.103 219.503C298.892 217.317 296.483 214.309 295.301 212.79C294.045 211.176 294.101 209.662 292.418 207.879C288.675 203.917 284.053 199.837 281.064 195.355" stroke="#242424" stroke-width="6" stroke-linecap="round"/>
<path d="M38.5896 196.976C38.5896 200.667 38.1814 203.776 35.3458 206.257C34.0687 207.375 30.6485 206.708 29.0384 206.708C27.1529 206.708 26.4889 208.132 24.8034 208.33C22.5562 208.594 20.3536 212.291 17.8652 213.196C14.8824 214.28 11.8281 216.177 11.8281 219.683" stroke="#242424" stroke-width="6" stroke-linecap="round"/>
<path d="M10.2062 226.171C10.2062 228.55 10.4978 231.112 10.1611 233.469C9.56905 237.614 6.45862 241.202 6.15138 245.273C5.91678 248.382 6.44281 251.549 7.36781 254.509C8.30578 257.511 8.9448 263.327 11.3775 265.097C15.1793 267.862 17.8517 272.138 21.965 274.423C26.9559 277.195 31.7277 277.471 37.5984 277.261C39.6424 277.188 42.8222 275.769 44.6267 274.738C45.5844 274.191 45.4187 272.675 46.6991 272.035C48.046 271.361 48.6157 271.356 49.3122 269.962C50.6968 267.193 52.3758 262.247 52.3758 259.015C52.3758 257.074 53.9977 256.081 53.9977 253.743C53.9977 250.51 54.8087 247.315 54.8087 244.012C54.8087 237.192 56.9307 232.537 54.8087 226.171" stroke="#242424" stroke-width="6" stroke-linecap="round"/>
<path d="M49.9414 260.231C49.9414 266.791 51.7793 272.773 55.6181 277.892C58.5183 281.759 61.7085 281.316 66.1605 281.316C71.3175 281.316 73.5046 279.143 78.3248 278.072C80.4056 277.61 81.9077 276.382 83.6411 275.279C86.8554 273.233 90.1037 273.311 92.7418 269.962C97.1301 264.393 97.7878 256.756 97.7878 249.734C97.7878 240.82 96.9768 231.908 96.9768 222.927" stroke="#242424" stroke-width="6" stroke-linecap="round"/>
<path d="M96.9785 266.719C97.4572 268.872 102.2 268.314 103.646 270.773C105.622 274.132 108.897 274.7 112.026 275.594C114.329 276.252 120.058 276.286 122.479 275.594C123.927 275.18 124.923 274.828 126.578 274.828C128.66 274.828 127.79 272.76 128.786 271.765C129.672 270.879 131.627 271.281 132.48 269.962C133.97 267.66 137.107 266.855 138.788 264.466C141.57 260.512 142.392 255.609 142.392 250.905C142.392 246.715 142.392 242.525 142.392 238.335C142.392 235.634 144.936 222.927 139.148 222.927" stroke="#242424" stroke-width="6" stroke-linecap="round"/>
<path d="M139.146 261.853C139.146 264.13 139.934 271.584 142.39 271.584C146.01 271.584 149.629 271.584 153.248 271.584C159.75 271.584 172.205 274.221 176.811 269.197C179.28 266.502 180.525 263.353 182.533 260.231C185.444 255.703 184.56 251.1 184.56 245.634C184.56 242.066 185.856 235.486 183.298 232.929C180.773 230.403 183.089 222.927 178.883 222.927" stroke="#242424" stroke-width="6" stroke-linecap="round"/>
<path d="M182.127 263.475C182.127 266.731 185.142 270.358 187.038 272.846C190.225 277.03 194.85 278.883 200.013 278.883C203.256 278.883 205.74 279.265 208.438 277.712C211.755 275.802 214.427 273.184 217.809 271.404C224.736 267.758 224.297 259.091 224.297 252.482C224.297 248.443 224.296 244.729 223.305 240.768C222.045 235.725 219.431 231.879 219.431 226.171" stroke="#242424" stroke-width="6" stroke-linecap="round"/>
<path d="M221.865 261.853C224.07 262.098 225.891 264.371 228.173 264.916C231.126 265.623 232.291 267.029 234.841 268.34C237.547 269.732 242.248 271.584 245.338 271.584C251.024 271.584 256.861 271.46 259.8 265.908C260.425 264.727 261.697 265.142 262.233 263.655C262.719 262.306 262.419 261.358 263.224 260.051C264.931 257.277 263.814 253.093 264.44 249.959C266.046 241.932 264.846 232.813 264.846 224.549" stroke="#242424" stroke-width="6" stroke-linecap="round"/>
<path d="M262.412 261.853C262.975 264.387 269.346 265.097 271.333 265.097C275.064 265.097 276.842 267.257 280.253 268.16C282.794 268.833 287.37 269.077 289.985 269.151C292.896 269.235 298.905 270.374 298.905 266.313C298.905 260.382 300.491 254.271 301.383 248.472C302.588 240.637 302.149 232.558 302.149 224.549" stroke="#242424" stroke-width="6" stroke-linecap="round"/>
<path d="M35.3457 200.22C37.5325 200.22 39.9567 199.911 42.1037 200.355C44.1443 200.778 45.303 202.731 47.3298 203.284C50.4065 204.123 52.6955 205.897 55.98 205.897C60.5916 205.897 62.9185 205.157 66.973 203.419C78.2312 198.594 91.4012 197.787 103.826 197.787C109.896 197.787 115.569 200.22 121.757 200.22C126.218 200.22 130.678 200.22 135.138 200.22C144.705 200.22 154.271 200.22 163.837 200.22C169.123 200.22 174.41 200.22 179.696 200.22C185.443 200.22 190.724 198.598 196.32 198.598C206.517 198.598 216.714 198.598 226.911 198.598C238.475 198.598 250.039 198.598 261.602 198.598C264.792 198.598 280.631 196.918 281.876 199.409" stroke="#242424" stroke-width="6" stroke-linecap="round"/>
<path d="M274.577 199.409C274.577 192.026 278.986 172.283 271.964 167.422C269.483 165.704 268.16 162.235 264.665 162.105C262.683 162.032 260.676 161.306 259.349 159.672C256.522 156.193 253.804 156.429 249.617 156.429C224.778 156.429 199.939 156.429 175.1 156.429C167.846 156.429 160.593 156.429 153.339 156.429C149.899 156.429 145.961 158.545 142.481 159.222C132.614 161.141 124.144 163.439 113.918 162.871C105.931 162.428 97.803 159.672 90.0845 159.672C84.5221 159.672 79.5054 161.294 73.9104 161.294C71.8856 161.294 64.1302 160.184 62.9175 161.7C60.63 164.559 56.2149 164.578 53.231 166.205C51.3755 167.217 49.0725 168.778 47.3291 169.359C38.8633 172.181 35.9843 176.095 35.2999 184.992C34.8048 191.429 32.9121 197.043 32.9121 203.464" stroke="#242424" stroke-width="6" stroke-linecap="round"/>
<path d="M33.7227 368.899C39.3843 368.899 45.046 368.899 50.7077 368.899C58.4433 368.899 66.033 367.277 73.7298 367.277C86.0545 367.277 98.4147 366.466 110.673 366.466C116.801 366.466 122.928 366.466 129.055 366.466C134.452 366.466 140.745 365.611 146.04 366.872C154.173 368.808 164.305 367.277 172.756 367.277C177.333 367.277 182.228 367.773 186.768 367.187C192.438 366.455 198.733 364.033 204.429 364.033C209.219 364.033 214.01 364.033 218.801 364.033C224.388 364.033 227.921 365.655 233.218 365.655" stroke="#242424" stroke-width="6" stroke-linecap="round"/>
<path d="M255.926 367.277C259.883 367.277 263.984 366.466 267.64 366.466C269.282 366.466 275.69 363.431 276.2 362.411" stroke="#242424" stroke-width="6" stroke-linecap="round"/>
<path d="M277.01 365.655C280.112 365.655 283.607 367.675 286.111 368.719C290.322 370.473 290.138 374.313 290.842 378.18C291.121 379.717 292.666 389.114 291.607 389.173C287.374 389.408 283.339 389.984 279.038 389.984C270.583 389.984 262.128 389.984 253.673 389.984C245.672 389.984 237.764 388.362 229.614 388.362C228.415 388.362 224.761 387.747 223.667 388.542C222.231 389.587 219.554 391.17 217.811 391.606" stroke="#242424" stroke-width="6" stroke-linecap="round"/>
<path d="M195.103 394.85C189.927 394.85 184.841 395.572 179.695 395.661C173.865 395.761 168.59 397.969 162.845 398.093C155.359 398.256 147.853 398.093 140.364 398.093C136.809 398.093 133.204 396.981 129.776 396.021C127.738 395.45 121.32 395.834 119.865 394.669C118.048 393.216 112.645 393.272 110.314 393.228C105.26 393.132 100.445 393.017 95.446 392.462C88.8279 391.726 82.2909 391.606 75.5776 391.606C69.4911 391.606 64.9305 389.984 58.8629 389.984C55.3488 389.984 51.8347 389.984 48.3205 389.984C44.9429 389.984 42.2813 391.606 38.9945 391.606C32.9124 391.606 26.8302 391.606 20.748 391.606" stroke="#242424" stroke-width="6" stroke-linecap="round"/>
<path d="M23.1807 391.606C23.1807 389.778 22.348 385.562 23.2708 383.947C24.3274 382.098 25.6953 380.267 26.83 378.225C28.0239 376.076 30.67 375.572 32.1012 373.584C33.5272 371.604 36.19 369.71 38.5889 369.71" stroke="#242424" stroke-width="6" stroke-linecap="round"/>
<path d="M58.0522 286.993C56.6934 297.863 57.0753 310.021 59.4939 320.602C60.1299 323.385 59.6741 326.763 59.6741 329.613C59.6741 333.428 60.485 337.157 60.485 340.966C60.485 343.039 60.485 345.111 60.485 347.183C60.485 351.029 65.4937 350.247 68.5495 350.247C73.16 350.247 77.7704 350.247 82.3808 350.247C84.5397 350.247 86.2365 349.436 88.418 349.436C91.0453 349.436 94.9036 350.137 97.4736 349.346C109.839 345.541 121.924 346.192 134.913 346.192C147.015 346.192 158.981 346.427 170.775 347.814C174.617 348.266 178.479 348.625 182.534 348.625C184.37 348.625 187.485 349.305 188.796 347.994C189.939 346.852 188.616 345.695 188.616 344.165C188.616 340.554 187.132 336.081 186.994 332.226C186.788 326.464 184.828 319.051 187.4 313.394C188.006 312.059 187.626 310.751 187.895 309.339C188.314 307.139 189.992 305.663 190.193 303.257C190.49 299.689 191.049 296.232 191.049 292.669C191.049 289.547 192.765 272.848 190.238 271.584" stroke="#242424" stroke-width="6" stroke-linecap="round"/>
<path d="M197.535 282.127C197.906 287.325 200.779 291.966 200.779 297.129C200.779 300.853 200.389 304.686 201.41 308.258C203.206 314.545 201.59 323.491 201.59 330.153C201.59 332.162 199.243 348.625 199.968 348.625C207.249 348.625 213.511 347.003 220.692 347.003C227.781 347.003 234.869 347.003 241.957 347.003C245.59 347.003 248.865 346.192 252.23 346.192C257.276 346.192 255.82 337.748 255.924 333.577C255.965 331.944 255.668 330.91 257.14 329.928C259.538 328.33 258.974 325.109 259.213 322.72C259.797 316.88 262.412 311.851 262.412 305.825C262.412 296.739 262.412 287.653 262.412 278.568C262.412 274.633 259.168 270.447 259.168 265.908" stroke="#242424" stroke-width="6" stroke-linecap="round"/>
<path d="M210.511 303.212C210.511 302.706 211.322 305.072 211.322 302.401C211.322 300.253 209.84 300.779 208.078 300.779" stroke="#242424" stroke-width="6" stroke-linecap="round"/>
<path d="M143.289 170.532C141.548 170.615 140.88 169.663 140.139 168.722C139.578 168.008 138.566 167.939 137.63 168.011C134.509 168.277 131.667 169.083 129.441 170.879C127.678 172.299 125.945 173.742 125.071 175.689C124.632 176.681 124.651 177.585 125.562 178.417C126.474 179.249 127.54 179.282 128.758 179.11C130.037 178.915 131.236 178.637 132.13 177.849C132.86 177.214 132.895 176.061 132.367 175.311C132.128 174.973 132.062 174.578 132.186 174.211C132.274 174.024 132.97 173.912 133.369 173.954C135.011 174.134 136.639 174.387 138.272 174.615C139.196 174.749 139.708 175.237 139.657 175.858C139.626 176.391 138.854 176.899 138.11 176.982C137.836 177.03 137.598 177.155 137.44 177.334C136.69 178.225 135.993 179.144 135.243 180.033C135.045 180.24 134.795 180.414 134.508 180.543C133.556 181.06 132.565 181.533 131.541 181.959C130.812 182.235 130.018 182.396 129.202 182.433C128.146 182.444 127.087 182.383 126.039 182.249C125.29 182.185 124.569 181.972 123.945 181.63C123.321 181.289 122.815 180.831 122.474 180.299C121.801 179.318 121.035 178.334 120.64 177.279C120.062 175.789 120.592 174.41 121.506 173.059C123.707 169.813 127.26 167.778 131.272 166.088C133.039 165.344 134.882 164.734 136.867 164.568C138.68 164.429 140.512 164.448 142.33 164.625C144.468 164.825 146.593 167.009 144.957 169.191C144.671 169.575 144.324 169.934 144.008 170.301C144.534 170.59 145.035 170.907 145.506 171.25C146.596 172.161 146.874 173.308 145.73 174.341C145.101 174.909 144.477 175.483 143.872 176.066C143.562 176.366 143.442 176.627 144.113 176.835C144.75 177.053 145.359 177.319 145.93 177.63C146.498 177.906 146.537 178.314 146.199 178.733C145.861 179.153 145.426 179.417 144.731 179.25C144.161 179.115 143.573 179.013 143.015 178.85C142.324 178.649 142.08 178.905 141.944 179.37C141.72 180.175 141.444 180.97 141.254 181.777C140.802 183.693 139.498 185.288 138.351 186.95C137.673 187.932 136.947 188.886 136.227 189.844C136.065 190.114 135.84 190.357 135.564 190.56C135.3 190.713 134.81 190.861 134.583 190.766C134.442 190.675 134.331 190.558 134.26 190.427C134.189 190.296 134.16 190.154 134.176 190.014C134.317 189.569 134.526 189.141 134.8 188.739C135.835 186.964 136.894 185.197 137.929 183.42C138.094 183.129 138.216 182.823 138.292 182.508C138.76 180.661 139.144 178.8 139.652 176.96C140.045 175.526 140.582 174.101 141.056 172.672C141.373 171.707 142.365 171.194 143.289 170.532ZM143.381 172.328C143.007 172.766 142.594 173.043 142.586 173.338C142.574 173.546 143.209 173.996 143.401 173.951C143.615 173.9 143.809 173.811 143.971 173.691C144.132 173.571 144.256 173.424 144.333 173.26C144.385 173.062 143.837 172.753 143.381 172.328Z" fill="#242424"/>
<path d="M191.666 181.663C190.582 181.656 189.493 181.634 188.418 181.645C187.094 181.658 186.527 182.113 186.424 183.138C186.31 184.36 186.317 185.621 185.5 186.704C185.055 187.302 184.523 187.855 183.913 188.353C183.31 188.838 182.625 188.764 182.001 188.283C179.893 186.653 180.07 184.998 181.537 183.212C181.569 183.181 181.604 183.152 181.641 183.126C182.834 181.998 182.861 181.062 180.613 180.514C179.235 180.165 177.908 179.696 176.656 179.117C175.957 178.8 175.413 178.212 174.91 177.685C174.515 177.267 174.881 176.9 175.646 176.929C176.963 176.982 178.279 177.051 179.593 177.158C182.883 177.412 186.171 177.749 189.468 177.938C192.564 178.118 195.667 178.169 198.748 178.234C199.939 178.254 200.603 178.742 201.052 179.516C201.685 180.606 200.993 181.614 199.473 181.682C196.882 181.796 194.284 181.83 191.695 181.898L191.666 181.663Z" fill="#242424"/>
<path d="M169.993 174.523C170.413 174.252 170.856 174.003 171.319 173.777C171.806 173.577 172.284 173.212 172.921 173.627C173.559 174.043 173.898 174.454 173.7 175.095C173.501 175.737 173.357 176.35 173.19 176.979C172.748 178.652 172.328 180.315 171.865 181.978C171.691 182.522 171.481 183.057 171.235 183.582C171.109 183.824 170.886 184.025 170.599 184.157C170.311 184.288 169.975 184.342 169.639 184.31C168.934 184.269 168.683 183.871 168.542 183.419C168.233 182.43 168.635 181.499 168.962 180.574C169.233 179.803 169.532 179.039 169.84 178.277C170.039 177.803 169.83 177.5 169.204 177.364C169.054 177.328 168.908 177.283 168.768 177.229C167.033 176.619 167.362 176.721 166.791 177.942C165.954 179.739 165.391 181.619 164.636 183.445C163.964 185.073 163.206 186.683 162.445 188.287C162.176 188.854 161.654 189.295 160.77 189.217C160.037 189.15 159.05 188.335 158.884 187.719C158.43 186.022 158.713 184.468 160.19 183.155C161.395 182.089 161.952 180.771 162.579 179.456C163.213 178.097 163.995 176.778 164.774 175.456C165.428 174.355 166.173 173.292 166.866 172.208C167.116 171.817 167.292 171.346 168.001 171.39C168.818 171.437 169.754 172.118 169.84 172.711C169.912 173.244 169.93 173.786 169.993 174.523Z" fill="#242424"/>
<path d="M153.384 177.91C153.373 176.166 154.376 174.681 155.608 173.313C156.588 172.21 157.706 171.187 158.947 170.261C159.625 169.759 160.655 169.517 161.579 169.263C162.361 169.077 163.165 168.948 163.981 168.878C164.322 168.815 164.684 168.855 164.996 168.99C165.308 169.125 165.548 169.345 165.669 169.607C166.124 170.383 166.274 171.166 165.881 171.95C164.631 174.433 163.244 176.866 161.01 178.909C160.635 179.257 160.162 179.531 159.625 179.712C158.593 180.05 157.526 180.323 156.434 180.529C154.768 180.831 153.42 179.961 153.341 178.604C153.335 178.383 153.369 178.162 153.384 177.91ZM163.076 171.464L162.722 171.091C162.521 171.238 162.207 171.355 162.137 171.543C161.986 171.942 162.022 172.388 161.869 172.785C161.588 173.497 161.245 173.574 160.398 173.241C160.284 173.214 160.165 173.21 160.05 173.23C159.935 173.249 159.83 173.291 159.743 173.351C158.773 174.487 157.8 175.627 156.927 176.81C156.711 177.105 156.852 177.565 156.826 177.95C157.314 177.895 157.876 177.945 158.278 177.772C161.333 176.454 162.433 174.153 163.064 171.463L163.076 171.464Z" fill="#242424"/>
<path d="M146.82 176.385C147.064 175.074 148.271 173.799 149.767 173.4C150.187 173.306 150.638 173.312 151.061 173.42C151.483 173.528 151.859 173.731 152.139 174.004C152.436 174.289 152.653 174.618 152.773 174.971C152.894 175.323 152.916 175.69 152.837 176.045C152.605 177.105 152.182 178.02 150.977 178.668C149.771 179.317 148.093 178.804 147.514 177.958C147.226 177.449 146.994 176.923 146.82 176.385ZM149.828 177.269C150.447 177.305 151.131 176.82 151.207 176.259C151.207 176.058 151.111 175.862 150.937 175.71C150.764 175.558 150.526 175.46 150.27 175.437C149.626 175.4 149.151 175.87 149.062 176.598C149.002 177.058 149.328 177.213 149.828 177.269Z" fill="#242424"/>
<path d="M176.002 183.529C175.941 184.05 175.876 184.571 175.815 185.089C175.8 185.282 175.7 185.464 175.531 185.602C175.362 185.741 175.135 185.828 174.889 185.848C174.384 185.931 174.116 185.731 173.844 185.392C173.241 184.643 173.365 183.852 173.736 183.182C174.236 182.276 173.835 181.488 173.5 180.677C173.2 179.958 173.25 179.628 173.88 179.466C174.04 179.427 174.208 179.416 174.375 179.432C174.543 179.448 174.705 179.492 174.851 179.56C174.997 179.628 175.124 179.719 175.224 179.827C175.323 179.935 175.393 180.058 175.429 180.187C175.732 181.285 175.922 182.4 176.168 183.507L176.002 183.529Z" fill="#242424"/>
<path d="M188.627 185.318C189.69 185.406 190.215 185.84 190.126 186.558C190.034 187.342 189.406 187.893 188.666 187.845C187.806 187.795 186.945 186.997 187.004 186.311C187.062 185.625 187.659 185.235 188.627 185.318Z" fill="#242424"/>
<path d="M178.254 175.777C178.203 176.376 177.733 176.718 177.021 176.677C176.835 176.663 176.654 176.619 176.489 176.548C176.323 176.478 176.178 176.381 176.061 176.265C175.944 176.149 175.858 176.016 175.809 175.874C175.76 175.732 175.749 175.585 175.776 175.442C175.835 174.86 176.416 174.418 177.049 174.479C177.742 174.536 178.306 175.147 178.254 175.777Z" fill="#242424"/>
<path d="M41.3366 170.486C40.0839 162.97 38.9609 156.331 38.9609 148.577C38.9609 135.265 42.5245 122.309 42.5245 109.048C42.5245 93.897 43.7123 78.7743 43.7123 63.5801" stroke="#242424" stroke-width="6" stroke-linecap="round"/>
<path d="M43.7129 42.1989V48.1381" stroke="#242424" stroke-width="6" stroke-linecap="round"/>
<path d="M269.403 166.923C269.403 149.15 269.281 131.374 269.403 113.601C269.566 90.0531 271.033 67.6783 268.743 44.1125C267.682 33.187 265.84 22.3042 265.84 11.3148" stroke="#242424" stroke-width="6" stroke-linecap="round"/>
<path d="M208.822 124.16C217.159 124.16 225.496 124.16 233.833 124.16C243.742 124.16 252.315 121.784 262.275 121.784" stroke="#242424" stroke-width="3" stroke-linecap="round"/>
<path d="M256.336 114.657V127.724" stroke="#242424" stroke-width="3" stroke-linecap="round"/>
<path d="M17.5797 226.315C16.0099 226.511 13.5376 230.489 12.3004 231.726C11.8196 232.207 11.5097 234.298 11.7725 233.838C13.0746 231.559 15.4637 229.295 17.5797 227.767C18.9864 226.751 30.7525 221 29.2602 224.731C26.2927 232.15 15.9064 234.214 10.4526 239.381C7.61001 242.074 6.1277 245.122 11.7725 241.493C15.2625 239.249 18.7659 236.852 22.1991 234.564C24.293 233.168 27.71 232.112 29.4582 230.538C30.7875 229.342 31.3219 227.429 33.0217 226.579C33.8714 226.154 36.8093 226.315 35.8593 226.315C33.6617 226.315 30.972 231.2 29.1942 232.518C26.5728 234.461 23.3544 235.691 21.2092 238.193C19.2402 240.49 15.516 243.375 12.5644 244.396C8.6375 245.756 7.27661 248.191 3.98548 250.072C-6.16865 255.874 25.4939 240.052 34.2095 232.254C36.9074 229.84 40.3448 228.362 43.0524 225.655C44.2371 224.47 50.1924 219.505 46.7479 224.863C41.5927 232.882 33.7817 239.809 27.0825 246.508C23.4746 250.116 18.5796 251.411 14.6761 254.757C13.3074 255.93 7.7588 261.652 12.1684 257.331C18.5636 251.063 25.6019 245.685 32.4278 239.909C36.6693 236.32 41.3153 228.09 47.8038 229.944C51.8009 231.086 41.4249 238.107 41.3366 238.193C36.7698 242.633 33.6276 246.071 27.6764 248.818C21.7172 251.568 13.2525 256.692 12.8283 264.326C12.6221 268.038 15.4719 271.305 18.3056 267.163C22.3402 261.267 27.7799 256.31 31.8338 250.336C34.1139 246.976 37.3302 243.644 38.9609 239.975C40.6602 236.152 43.8395 236.803 46.6819 235.224C51.5566 232.515 39.3333 250.168 38.8289 250.996C35.6045 256.287 31.7785 259.498 27.6104 263.666C26.815 264.461 15.0363 274.596 22.3311 273.829C29.21 273.104 33.2854 255.337 37.7731 250.6C38.7685 249.549 42.7218 246.14 44.2402 246.574C45.4755 246.927 40.7922 257.812 39.8848 259.046C36.2992 263.923 28.2703 269.06 28.2703 275.016C28.2703 282.2 37.1661 270.324 37.8391 267.295C38.2534 265.431 44.9001 253.919 44.9001 258.98C44.9001 262.253 42.5244 263.753 42.5244 266.965C42.5244 269.193 42.4726 275.773 38.301 273.565C33.3019 270.918 46.8709 251.341 47.2758 247.696C47.5733 245.019 51.0073 244.645 52.0272 242.351C54.1942 237.475 50.9092 241.352 47.9357 240.503C46.7798 240.173 46.3136 228.077 47.5398 226.579C51.9823 221.149 46.1164 229.718 44.5702 231.264C36.425 239.409 26.7444 244.901 15.7319 247.96C14.0135 248.437 5.83324 249.551 5.83324 251.853C5.83324 253.891 12.3755 258.249 14.0162 259.31C16.0859 260.65 17.0123 263.825 17.6457 266.042C18.7808 270.014 22.4394 261.476 22.5951 261.026C23.6257 258.049 22.1014 251.25 23.7829 249.148C24.5842 248.146 26.85 259.766 27.0825 260.696C28.0008 264.37 28.8931 266.627 30.382 269.605C30.9343 270.71 31.1983 274.405 30.646 273.301C29.0457 270.1 28.658 265.439 28.2703 261.95C27.4885 254.914 25.8946 248.882 25.8946 241.757C25.8946 237.373 28.0178 234.171 28.2703 229.878C28.4417 226.964 29.4582 237.199 29.4582 238.787C29.4582 246.305 31.6512 251.622 33.2857 258.651C34.0023 261.732 34.5996 264.076 36.5192 266.635C39.3138 270.362 36.8568 260.932 36.5852 259.574" stroke="#242424" stroke-width="3" stroke-linecap="round"/>
<path d="M99.541 259.574C102.775 259.574 104.208 263.09 104.292 266.042C104.299 266.28 105.691 275.169 106.602 271.981C107.522 268.76 106.252 253.893 103.764 251.259C101.261 248.609 100.729 247.907 100.729 244.132C100.729 239.278 100.522 242.598 101.983 245.518C104.868 251.288 105.48 259.059 105.48 265.448C105.48 270.356 106.517 271.169 108.78 275.016C111.817 280.18 111.419 263.856 111.419 261.95C111.419 254.279 104.292 247.216 104.292 238.853C104.292 237.617 105.076 232.377 104.028 231.33C103.499 230.801 102.196 230.98 101.983 231.726C101.469 233.525 103.849 235.809 104.16 237.599C105.568 245.694 103.307 257.27 109.704 263.666C111.858 265.82 112.838 265.692 114.389 268.483C115.446 270.386 117.239 274.078 115.907 269.341C113.458 260.634 110.812 252.03 107.856 243.473C106.638 239.948 104.292 237.923 104.292 234.036C104.292 232.1 104.292 230.164 104.292 228.228C104.292 223.656 107.716 236.721 109.044 241.097C111.363 248.738 113.49 257.849 113.795 265.778C113.977 270.496 118.547 276.483 118.547 267.889C118.547 259.51 121.836 251.91 116.435 244.132C114.243 240.977 110.232 232.041 110.232 228.097C110.232 226.763 108.393 223.682 110.496 227.635C114.098 234.407 113.795 242.079 113.795 249.478C113.795 251.8 107.096 268.537 111.419 269.077C112.85 269.256 114.542 271.653 116.171 272.377C118.798 273.544 120.622 267.925 121.45 266.042C125.101 257.744 124.486 248.604 124.486 239.777C124.486 234.66 123.375 229.867 122.374 224.863C122.04 223.191 121.294 213.984 119.074 217.472C113.885 225.627 111.419 236.77 111.419 246.244C111.419 256.553 116.668 243.465 118.019 239.645C119.422 235.674 120.883 231.817 123.232 228.294C126.057 224.056 122.617 238.464 122.176 243.538C122.013 245.417 121.79 255.444 122.374 253.107C124.658 243.97 124.105 233.076 128.313 225.127C128.983 223.861 132.902 223 132.801 225.127C132.495 231.545 129.364 240.847 127.323 246.97C125.292 253.065 110.328 266.781 114.059 273.829C116.112 277.706 125.847 257.957 126.334 256.539C128.303 250.794 128.336 242.538 133.329 238.259C134.982 236.842 131.609 249.937 130.689 251.919C128.794 256.001 125.806 262.014 125.806 266.569C125.806 277.082 132.218 246.314 132.801 235.818C132.843 235.057 133.799 233.934 134.516 234.96C136.534 237.842 135.838 245.006 136.1 248.356C136.167 249.207 136.364 262.098 136.364 257.199C136.364 249.28 136.364 241.361 136.364 233.442C136.364 228.905 138.34 222.16 132.801 226.315" stroke="#242424" stroke-width="3" stroke-linecap="round"/>
<path d="M192.194 225.127C192.194 230.012 191.168 235.085 188.894 239.381C188.382 240.348 188.1 240.569 186.98 240.569C185.775 240.569 189.431 240.033 190.346 239.249C197.051 233.501 205.619 224.672 210.011 216.812C211.086 214.888 215.459 210.404 212.783 215.756C208.14 225.042 198.542 231.841 190.346 237.929C187.694 239.899 185.512 241.051 184.143 244.132C182.619 247.56 184.309 249.749 187.904 247.762C200.644 240.721 205.936 225.914 216.478 216.878C221.431 212.633 207.589 226.631 202.092 230.142C193.458 235.658 188.261 239.468 188.63 249.808C188.665 250.794 189.728 257.16 189.818 254.295C189.964 249.609 193.5 244.136 196.681 240.833C199.005 238.419 213.714 231.333 206.91 238.853C203.368 242.768 198.426 244.683 195.229 248.752C193.257 251.262 193.958 252.524 193.315 255.417C192.816 257.663 191.405 259.095 190.94 261.884C190.343 265.461 188.912 262.196 191.006 260.102C196.293 254.816 203.201 248.451 207.636 242.021C210.093 238.457 211.85 234.302 214.763 231.066C216.906 228.685 220.013 224.636 217.6 230.802C212.287 244.38 203.941 253.491 190.478 258.387C184.359 260.612 184.718 264.342 185.066 270.265C185.461 276.964 193.181 268.278 194.041 266.702C198.064 259.326 202.207 255.14 207.57 248.884C209.748 246.343 217.138 239.865 217.138 236.609C217.138 232.573 215.394 244.556 213.707 248.224C210.986 254.139 207 261.297 200.772 264.128C197.669 265.538 196.09 267.037 194.041 269.671C191.262 273.244 196.597 280.851 199.387 276.666C201.209 273.933 203.943 272.636 205.788 269.737C207.864 266.475 208.713 263.063 210.671 259.838C213.482 255.208 213.575 251.013 213.575 245.848C213.575 241.075 213.575 255.395 213.575 260.168C213.575 264.128 213.575 268.087 213.575 272.047C213.575 276.686 204.444 277.989 204.072 275.016C203.895 273.597 200.394 272.799 199.321 271.189C197.437 268.363 195.796 266.451 193.645 264.062C190.957 261.075 193.441 252.606 198.727 254.955C202.607 256.68 203.02 263.057 207.57 264.194C210.346 264.888 211.199 263.775 211.199 267.163C211.199 272.992 215.95 256.164 215.95 250.336C215.95 249.769 215.95 258.038 215.95 260.762C215.95 266.042 219.514 266.178 219.514 260.762C219.514 253.489 222.183 240.492 215.95 235.818" stroke="#242424" stroke-width="3" stroke-linecap="round"/>
<path d="M271.779 226.315C269.716 228.893 271.583 232.177 269.403 234.63C268.166 236.022 266.013 241.192 267.226 239.777C270.547 235.902 274.818 232.348 277.652 228.097C280.839 223.317 280.394 228.042 278.378 231.066C274.93 236.239 271.258 240.322 269.667 246.508C269.324 247.845 267.119 251.382 267.556 250.072C268.523 247.169 271.263 243.364 272.901 240.635C276.002 235.467 279.622 230.823 283.064 225.853C289.47 216.599 282.899 232.973 281.282 236.082C276.944 244.417 260.577 267.438 266.104 259.838C273.527 249.632 280.921 239.379 286.297 228.031C290.839 218.443 279.298 248.275 273.561 257.199C270.423 262.08 269.357 261.903 273.099 255.879C280.892 243.331 286.768 230.035 292.962 216.614C294.892 212.432 293.193 226.107 291.379 230.34C288.056 238.092 285.326 244.467 280.622 251.523C278.771 254.3 276.719 258.387 272.967 258.387C272.842 258.387 269.715 258.854 270.855 259.31C273.696 260.447 279.167 246.779 279.962 245.056C282.149 240.318 286.162 237.274 288.937 232.914C292.304 227.622 288.888 239.258 288.409 240.569C286.482 245.844 283.182 251.133 280.358 256.011C279.593 257.332 274.594 260.762 278.312 260.762C282.805 260.762 288.948 237.254 292.5 232.518C295.239 228.867 293.715 241.87 293.424 243.209C292.51 247.415 289.904 256.666 287.155 260.102C285.293 262.43 283.649 266.384 284.911 269.539C285.078 269.956 288.583 262.488 288.937 261.62C289.921 259.204 291.424 257.85 293.16 256.011C295.987 253.018 294.348 257.767 294.348 260.828C294.348 264.37 294.348 267.911 294.348 271.453" stroke="#242424" stroke-width="3" stroke-linecap="round"/>
<path d="M66.2817 307.088C66.2817 309.388 65.7162 312.533 66.3476 314.743C66.9275 316.773 70.3536 318.008 71.561 319.561C72.8925 321.273 81.0384 327.099 79.3479 323.718" stroke="#242424" stroke-width="3" stroke-linecap="round"/>
<path d="M67.4688 307.088C73.296 307.088 78.3329 299.201 81.9869 303.261C86.507 308.283 98.5593 308.811 104.82 307.022C104.861 307.01 108.919 298.636 110.165 302.997C111.391 307.286 115.606 305.864 118.282 308.54C120.974 311.232 123.373 324.46 117.886 326.028C115.169 326.804 109.81 326.761 108.449 324.312C107.774 323.097 108.15 320.756 106.932 323.058C105.993 324.831 105.48 325.841 105.48 327.875C105.48 331.47 103.104 334.597 103.104 338.566C103.104 343.859 100.631 342.724 95.977 342.724C93.0886 342.724 89.7755 341.719 86.4743 341.536C82.2457 341.301 79.8377 337.858 76.3116 336.85C68.8807 334.727 76.9715 328.032 76.9715 322.53" stroke="#242424" stroke-width="3" stroke-linecap="round"/>
<path d="M93.6015 309.464C93.6015 306.68 92.3726 298.794 94.7893 297.585" stroke="#242424" stroke-width="3" stroke-linecap="round"/>
<path d="M101.916 296.398C94.8988 296.398 88.1089 297.585 81.1291 297.585C78.5555 297.585 75.9818 297.585 73.4082 297.585C71.9412 297.585 78.163 299.755 79.2814 299.895C84.8254 300.588 92.0971 300.91 97.1651 298.509C102.353 296.052 105.138 292.834 111.419 292.834C121.89 292.834 132.36 292.834 142.831 292.834C147.157 292.834 170.811 290.749 170.811 295.21" stroke="#242424" stroke-width="3" stroke-linecap="round"/>
<path d="M148.243 294.022C148.243 295.454 147.331 302.085 148.243 302.997C150.531 305.285 151.874 297.546 151.807 296.398C151.695 294.498 147.317 291.913 148.507 290.722C149.749 289.48 155.986 290.458 157.746 290.458" stroke="#242424" stroke-width="3" stroke-linecap="round"/>
<path d="M143.491 302.337C143.491 306.585 145.093 305.9 148.902 305.9C151.615 305.9 155.626 306.833 157.481 304.449C157.758 304.092 144.472 303.628 142.303 304.712" stroke="#242424" stroke-width="3" stroke-linecap="round"/>
<path d="M142.304 304.713C137.18 305.851 135.478 314.107 132.801 317.119C127.318 323.287 137.822 323.538 141.116 321.342" stroke="#242424" stroke-width="3" stroke-linecap="round"/>
<path d="M155.369 307.088C158.623 307.495 161.053 313.828 163.156 315.931C166.259 319.034 166.974 328.469 161.309 328.469C157.16 328.469 156.321 325.562 155.303 322.002C154.771 320.139 146.243 323.401 155.897 326.16C157.986 326.756 156.382 335.467 154.181 335.597C148.437 335.934 139.975 337.053 134.648 335.531C133.433 335.183 128.915 326.943 130.689 325.17C133.854 322.004 138.739 324.27 138.739 318.967" stroke="#242424" stroke-width="3" stroke-linecap="round"/>
<path d="M265.838 6.56353C265.838 4.78373 266.208 3.77873 264.65 3" stroke="#242424" stroke-width="6" stroke-linecap="round"/>
</svg>
