<svg width="99" height="87" viewBox="0 0 99 87" fill="none" xmlns="http://www.w3.org/2000/svg">
<path d="M30.9277 76.8694C32.1004 76.7228 40.9682 66.5542 41.6555 65.8668C43.1139 64.5543 48.7115 58.562 50.2044 57.318C51.3762 56.3415 54.0293 54.9745 54.6272 53.845C55.5923 52.022 59.611 44.4701 61.0689 43.0122" stroke="#242424" stroke-width="2.5" stroke-linecap="round" stroke-linejoin="round"/>
<path d="M60.9212 42.8675C60.9212 40.0252 56.816 39.5034 56.6467 36.4558C56.5443 34.6126 55.5781 33.3242 55.5781 31.38C55.5781 29.7268 56.2128 28.4906 56.617 27.0759C56.9176 26.0238 57.5361 24.5835 58.3684 23.7513C58.6291 23.4906 60.845 21.3611 60.8915 21.1985C61.1778 20.1962 66.722 15.9993 67.3328 17.2209" stroke="#242424" stroke-width="2.5" stroke-linecap="round" stroke-linejoin="round"/>
<path d="M67.3315 17.2209C68.1355 18.1255 69.6217 22.3677 71.0716 22.3677L66.9159 26.9571C66.3142 27.7093 64.6113 30.4647 64.6113 31.4286C64.6113 33.4804 65.128 33.9529 65.7583 36.159C65.8758 36.5702 70.3168 38.0747 71.0716 38.4743C75.1078 38.4743 79.0862 34.8474 79.0862 33.7843C79.0862 32.0725 79.3072 28.9756 76.949 28.9756" stroke="#242424" stroke-width="2.5" stroke-linecap="round" stroke-linejoin="round"/>
<path d="M68.9355 47.1418C70.7555 48.0518 71.6464 47.9668 73.8693 47.9668C76.0922 47.9668 79.6498 44.6637 81.3014 43.0121C82.9529 41.3606 84.6045 36.8187 85.2318 34.0513C85.2318 31.8641 81.6439 25.9933 80.4527 26.3337L76.7595 28.8568" stroke="#242424" stroke-width="2.5" stroke-linecap="round" stroke-linejoin="round"/>
<path d="M68.9363 47.9678C68.9363 51.2095 59.2415 60.2192 58.6658 62.8095C57.2889 64.3395 56.1048 65.8455 54.6289 67.3214C51.946 70.0043 49.1815 73.3292 47.0299 76.0187C46.3206 76.9053 44.3026 80.4336 43.2898 80.5602C42.6762 80.6369 40.3644 83.2051 40.084 83.7661" stroke="#242424" stroke-width="2.5" stroke-linecap="round" stroke-linejoin="round"/>
<path d="M40.0831 82.9403C37.9798 80.5741 33.8721 77.063 31 77.063" stroke="#242424" stroke-width="2.5" stroke-linecap="round" stroke-linejoin="round"/>
<path d="M33.405 49.6185C32.4655 50.558 29.2269 54.3915 27.8906 55.0596" stroke="#242424" stroke-width="2.5" stroke-linecap="round" stroke-linejoin="round"/>
<path d="M14 44.9077C15.046 45.4307 15.3204 47.2314 16.434 47.5495C17.3156 47.8014 18.8324 48.051 19.343 48.9447L28.0383 55.399" stroke="#242424" stroke-width="2.5" stroke-linecap="round" stroke-linejoin="round"/>
<path d="M14 44.9079C14.5198 40.7497 18.3287 38.0952 20.2929 34.7561L26.7997 28.561" stroke="#242424" stroke-width="2.5" stroke-linecap="round" stroke-linejoin="round"/>
<path d="M26.8223 28.3445C27.7128 28.3445 28.6033 28.3445 29.4938 28.3445C31.3085 28.3048 35.3452 27.9286 36.974 26.7416L44.5541 20.7161" stroke="#242424" stroke-width="2.5" stroke-linecap="round" stroke-linejoin="round"/>
<path d="M44.9902 20.8644C45.9117 20.9796 49.2647 23.958 49.2647 24.6045" stroke="#242424" stroke-width="2.5" stroke-linecap="round" stroke-linejoin="round"/>
<path d="M49.2636 24.6042C49.2636 26.4219 46.166 28.109 46.0578 29.9473L39.5274 41.5832C38.871 42.3126 37.2774 43.613 36.5645 44.2547" stroke="#242424" stroke-width="2.5" stroke-linecap="round" stroke-linejoin="round"/>
<path d="M36.6035 44.4702C37.1481 45.0829 38.263 45.6128 38.6624 46.2519C38.9725 46.748 42.1487 48.3939 42.4905 48.7927C42.7108 49.0498 46.3456 51.1918 46.6194 51.27C47.2846 51.4601 52.063 55.2729 52.3999 55.8119" stroke="#242424" stroke-width="2.5" stroke-linecap="round" stroke-linejoin="round"/>
<path d="M61.5625 61.0488C62.8918 62.5258 64.7846 63.4294 65.9869 65.0325C66.6001 65.8501 67.3668 66.4838 68.2754 66.9142C69.0214 67.2675 69.371 67.7671 70.1062 68.1347C70.8516 68.5074 71.5392 68.9881 72.2422 69.44C72.5584 69.6433 74.3176 70.8301 74.3611 70.9826C74.6698 72.0629 76.3407 72.6023 76.8191 73.5593" stroke="#242424" stroke-width="2.5" stroke-linecap="round" stroke-linejoin="round"/>
<path d="M76.7605 73.5663C76.0259 74.1376 71.2183 79.5712 70.6482 80.2046C69.9633 80.9656 69.05 81.4686 68.5801 82.4084" stroke="#242424" stroke-width="2.5" stroke-linecap="round" stroke-linejoin="round"/>
<path d="M68.581 82.4082C68.1124 82.291 67.2559 81.0908 67.0554 80.6452C66.5758 79.5795 65.1388 78.6608 64.3092 77.8312C62.7266 76.2486 61.0477 74.7895 59.427 73.2542C58.0822 71.9802 56.275 68.9488 54.5449 68.3721" stroke="#242424" stroke-width="2.5" stroke-linecap="round" stroke-linejoin="round"/>
<path d="M33.1855 49.1488C33.1855 49.8205 33.8614 50.1167 34.4061 50.4371C35.2601 50.9395 35.8592 51.9221 36.542 52.6409L44.9675 61.1795" stroke="#242424" stroke-width="2.5" stroke-linecap="round" stroke-linejoin="round"/>
<path d="M33.0859 49.3859C33.5796 48.8922 33.851 48.4637 34.1295 47.837C34.2692 47.5227 34.9123 47.1029 35.1732 46.7768C35.7335 46.0764 36.289 45.5142 36.664 44.7642" stroke="#242424" stroke-width="3" stroke-linecap="round"/>
<path d="M35.3223 48.7894C35.3223 49.2118 35.3223 49.6342 35.3223 50.0566C35.3223 50.1768 35.8043 49.4386 35.9186 49.0958C36.2111 48.2184 37.5122 47.4376 36.9954 46.404C36.9256 46.2644 36.8626 46.8518 36.8131 47.0003C36.6479 47.4962 36.515 47.899 36.515 48.4249C36.515 48.8466 36.3489 49.6846 36.1422 50.0566C36.0459 50.23 35.9468 51.1367 36.1008 51.2907C36.4328 51.6227 36.961 50.3656 37.0782 50.1311C37.4627 49.3622 37.3247 48.4525 37.5503 47.6629C37.631 47.3806 37.5586 48.2822 37.5586 48.4912C37.5586 48.7142 37.1445 49.3815 36.9954 49.5679C36.4619 50.2348 36.2717 51.2632 37.0285 51.9119C37.1889 52.0494 37.4662 52.7129 37.5917 52.9638C37.7874 53.3552 37.7231 53.6424 38.1549 53.8583" stroke="#242424" stroke-width="3" stroke-linecap="round"/>
<path d="M26.5254 53.8586C26.5254 52.9425 26.9727 52.251 26.9727 51.3241" stroke="#242424" stroke-width="3" stroke-linecap="round"/>
<path d="M26.9746 51.3241C27.4339 50.8649 27.5771 50.1772 28.0182 49.6842C28.461 49.1893 28.8547 48.6677 29.2109 48.0442C29.8873 46.8605 30.8177 46.3426 31.8034 45.576C32.9741 44.6654 33.8852 43.5356 34.9591 42.4617C35.3882 42.0326 35.9863 41.5372 36.5162 41.2525C37.2524 40.8569 37.6998 40.3376 38.3135 39.7699C39.1984 38.9513 39.8871 38.1134 40.6906 37.3099" stroke="#242424" stroke-width="3" stroke-linecap="round"/>
<path d="M46.6523 26.4264C46.6523 27.6575 45.6921 28.8309 45.1614 29.9217C44.4072 31.4721 44.1008 33.3122 42.9251 34.6262C42.5039 35.097 42.0837 36.0763 41.5833 36.3821C41.0651 36.6988 40.5066 37.6245 40.3906 38.2043" stroke="#242424" stroke-width="3" stroke-linecap="round"/>
<path d="M70.3633 23.3922V24.8665" stroke="#242424" stroke-width="3" stroke-linecap="round"/>
<path d="M70.3619 24.8663C69.9824 24.8663 69.072 25.9913 69.0514 26.3407C69.0315 26.6791 68.4403 26.5987 68.3961 26.9959C68.3614 27.3085 68.185 27.7775 67.9047 27.9424C67.7171 28.0528 67.5103 28.5711 67.3769 28.7979C67.1627 29.162 67.1125 29.1341 67.0856 29.6169C67.0509 30.242 66.7961 30.7719 66.758 31.4189C66.7445 31.6476 66.4438 31.8455 66.4304 32.0742C66.4113 32.3992 66.4304 32.7314 66.4304 33.0571C66.4304 33.6471 66.4696 34.1519 66.8854 34.5678C67.2371 34.9195 67.5343 35.1332 67.8683 35.5507C68.1078 35.8501 68.7528 36.4203 68.8876 36.8248" stroke="#242424" stroke-width="3" stroke-linecap="round"/>
<path d="M40.2212 84.0035C40.2212 84.2725 40.1423 84.5374 40.3851 84.6588" stroke="#242424" stroke-width="3" stroke-linecap="round"/>
<path d="M40.3848 84.6587C40.4789 83.9055 41.7015 83.4454 42.0957 82.9386C42.3917 82.5581 42.8346 82.3647 43.3243 82.2015C43.881 82.0159 44.4765 81.0782 44.8078 80.5997C45.0059 80.3135 45.5004 79.7982 45.7906 79.6168C45.9875 79.4938 46.6959 79.0741 46.7644 78.8342C46.8856 78.4099 47.2864 78.0253 47.4652 77.5783C47.5914 77.2628 47.96 77.1343 48.1204 76.7956C48.2467 76.5291 48.4269 76.1609 48.6574 75.9765C48.8298 75.8386 48.6675 75.5751 48.8303 75.4123C48.937 75.3055 49.1752 75.2291 49.2216 75.0664C49.3879 74.4845 49.6665 74.1949 49.9224 73.6831C50.1479 73.2321 50.4047 73.0006 50.787 72.6183C51.1869 72.2184 51.2792 71.6347 51.688 71.2259C52.2573 70.6566 52.7792 69.8025 53.5627 69.5787C53.9304 69.4736 55.2152 68.6684 55.301 68.3682C55.3979 68.0288 55.8503 67.9199 55.9562 67.5492C56.0493 67.2236 56.6293 66.5129 56.8936 66.2751C57.5421 65.6915 57.7366 64.8378 58.4863 64.2547C59.3574 63.5771 59.7109 62.6132 60.3337 61.8521C60.6579 61.4558 61.0951 60.8148 61.1983 60.3504C61.2594 60.0756 62.2055 59.3381 62.4269 59.1036C62.7114 58.8024 62.9586 58.572 63.2824 58.2482C63.5315 57.9991 64.3626 57.3752 64.4564 57.0469C64.686 56.2433 65.402 55.3385 65.867 54.6078C66.0554 54.3118 66.558 53.8267 66.8408 53.6068C67.067 53.4308 67.6921 52.8325 67.7418 52.5511C67.8296 52.0533 68.6949 51.2158 69.0159 50.8219C69.3481 50.4142 69.4236 50.3095 69.5528 49.8572C69.6175 49.6308 70.492 49.0133 70.6904 48.9471" stroke="#242424" stroke-width="3" stroke-linecap="round"/>
<path d="M56.6035 68.9326C56.6816 68.2297 57.5287 67.814 57.7138 67.2217C57.9327 66.5212 58.2971 65.7037 58.8059 65.1649C59.2798 64.6632 60.1738 64.2429 60.4987 63.6906C60.6095 63.5022 61.3921 62.5723 61.2267 62.9443C60.7921 63.9222 60.3157 65.0263 59.7524 65.984C59.5566 66.3169 59.2894 66.1866 59.2154 66.6301C59.1665 66.924 59.0607 67.1204 59.0607 67.4583C59.0607 68.509 58.8969 69.7569 58.8969 70.8984" stroke="#242424" stroke-width="3" stroke-linecap="round"/>
<path d="M39.0673 84.4957C39.018 84.101 38.3567 83.6199 38.1432 83.257C37.9399 82.9114 37.684 82.6402 37.4746 82.2738C37.3154 81.9952 37.0349 81.6737 36.9536 81.389C36.8197 80.9203 36.3096 81.1 36.0982 80.7008C35.9674 80.4536 35.4587 79.8591 35.2134 79.7569C34.719 79.5509 35.0134 78.9249 34.5547 78.8229C33.6807 78.6287 33.4418 77.594 32.5195 77.594" stroke="#242424" stroke-width="3" stroke-linecap="round"/>
</svg>
