<svg width="97" height="97" viewBox="0 0 97 97" fill="none" xmlns="http://www.w3.org/2000/svg">
<circle cx="42.0615" cy="42.0615" r="42.0615" transform="matrix(-0.999996 0.0029965 0.0029965 0.999996 90.5762 6.42627)" fill="#242424"/>
<path d="M14.8248 15.8763C14.8417 15.651 14.9191 15.4576 14.9864 15.3187C15.0677 15.1509 15.1813 14.9688 15.326 14.7672C15.8912 13.9798 17.2062 12.5207 20.1966 9.71761L20.2978 9.6227L20.4211 9.55895C22.391 8.54017 24.1049 7.56404 25.6894 6.66158L25.7833 6.60809C27.3869 5.69479 28.8733 4.85014 30.3344 4.13595C33.2858 2.6933 36.1684 1.76542 39.9249 1.75416L52.181 1.71744C53.1263 1.7146 54.6207 1.78798 56.1382 2.02587C57.5603 2.24882 59.1355 2.63517 60.279 3.32649C60.8924 3.48697 61.4962 3.69754 62.0806 3.97264C62.3164 4.08362 62.4718 4.15256 62.5766 4.19579C62.6283 4.21713 62.6638 4.2306 62.6875 4.239C62.6993 4.24316 62.7074 4.24584 62.7125 4.24745C62.7175 4.24813 62.7252 4.24919 62.7366 4.25073C62.8105 4.26073 62.9072 4.27613 63.0428 4.31482C63.4534 4.43194 64.3187 4.80124 67.1101 6.16413L67.1598 6.1884L67.2065 6.218C68.9016 7.29187 71.3513 8.63838 73.1359 9.50971C75.1864 10.5109 77.4308 12.366 79.4267 14.3376C81.4361 16.3224 83.2644 18.496 84.4797 20.207C86.7632 23.4218 88.4191 26.3201 90.2328 29.4945C90.65 30.2246 91.0754 30.9693 91.5188 31.7358C92.6629 33.7136 93.0772 35.1542 93.4449 36.8991C93.5196 37.2535 93.5921 37.6186 93.6685 38.0031C93.9611 39.4762 94.3102 41.2339 95.0532 43.7645L95.0933 43.901L95.0937 44.0433C95.0993 45.9257 94.9582 47.1667 94.7078 49.1834C94.6918 49.3116 94.6755 49.4431 94.6586 49.5783C94.4118 51.5589 94.0665 54.3304 93.6413 59.0861L93.6282 59.2336L93.5728 59.3709C91.8063 63.7537 91.4362 65.1602 91.1294 66.3257C91.1142 66.3835 91.0992 66.4406 91.0841 66.4975C90.7359 67.8143 90.3832 68.9978 88.5 73.2006C88.0677 74.1653 87.7386 74.9619 87.4482 75.6648C86.6591 77.575 86.1557 78.7935 84.6432 80.815C82.809 83.2667 82.1865 84.0565 79.1308 87.4332L78.9883 87.5906L78.7942 87.6766C76.1641 88.8413 75.1539 89.4853 74.6363 89.864C74.5379 89.936 74.4468 90.0081 74.3562 90.0798C73.9961 90.3648 73.6459 90.642 72.8921 90.8687C72.0647 91.1175 71.2585 91.34 70.4675 91.5582C68.7159 92.0416 67.039 92.5043 65.3715 93.1873C65.0008 93.3391 64.6132 93.5267 64.1798 93.7366C63.8972 93.8733 63.5952 94.0195 63.2658 94.1714C62.5006 94.524 61.6134 94.892 60.7863 95.0108C59.3349 95.2192 57.8192 95.2273 56.3548 95.189C55.8134 95.1749 55.2865 95.1549 54.7701 95.1353C53.856 95.1006 52.9751 95.0672 52.1058 95.0698C51.2053 95.0725 50.165 95.1435 49.0254 95.2304C48.8566 95.2433 48.6857 95.2565 48.5131 95.2699C47.5329 95.3457 46.4964 95.4259 45.4663 95.4725C43.0774 95.5806 40.5266 95.5232 38.543 94.7084C37.9659 94.4713 37.0299 94.3145 36.3146 94.2775C35.403 94.2305 34.6343 93.9351 33.9748 93.6278C33.711 93.5049 33.4813 93.3897 33.2657 93.2816C32.8944 93.0954 32.5647 92.9301 32.1742 92.782C31.3238 92.4595 30.4771 92.0622 29.6712 91.684C29.5428 91.6237 29.4155 91.564 29.2893 91.505C28.3518 91.0674 27.4668 90.671 26.5917 90.3971C25.2626 89.9811 23.7777 88.9892 22.302 87.7889C20.8036 86.5702 19.2227 85.059 17.6952 83.5059C16.1658 81.9509 14.6736 80.3369 13.3563 78.91L13.2668 78.813C11.9786 77.4175 10.8774 76.2246 10.0578 75.423L9.89061 75.2594L9.81327 75.0387C9.06297 72.8975 8.50751 71.4843 7.62986 69.2514C7.11217 67.9344 6.48237 66.3321 5.63435 64.1269C4.19036 60.372 3.71581 58.4128 3.3548 56.4717C3.28696 56.107 3.22363 55.7463 3.15867 55.3763C2.88475 53.8159 2.58204 52.0916 1.79197 49.2183L1.74198 49.0365L1.76163 48.8489C1.84793 48.0254 1.92628 47.2507 2.00045 46.5174C2.34799 43.0813 2.60358 40.5543 3.15406 38.1745C3.83261 35.2411 4.9521 32.5434 7.16817 28.5758L7.18387 28.5477L7.20132 28.5207C8.56009 26.4179 10.5114 23.1793 12.1291 20.4555C12.9366 19.0958 13.6587 17.8684 14.1789 16.9809C14.4389 16.5371 14.6485 16.1784 14.793 15.9308L14.8248 15.8763Z" stroke="#242424" stroke-width="2" stroke-linecap="round"/>
<path d="M72.0758 49.6739C66.9313 50.003 61.7068 48.132 56.5623 48.4612C51.4709 48.7869 44.8238 49.1565 39.7547 49.4808" stroke="#F9F7F2" stroke-width="0.366904" stroke-linecap="round"/>
<path d="M74.6976 48.4434C65.2384 48.4717 55.7792 48.5 46.32 48.5284C36.9586 48.5564 27.5317 48.0192 18.2156 49.529" stroke="#F9F7F2" stroke-width="1.15672" stroke-linecap="round"/>
<path d="M75.8103 48.4229C70.6511 48.1239 66.0093 49.25 60.85 48.951C55.744 48.655 48.5657 49.1039 43.482 48.8092" stroke="#F9F7F2" stroke-width="0.366904" stroke-linecap="round"/>
<path d="M63.7967 40.8307C64.4828 40.8801 65.094 41.2512 65.6838 41.5772C66.8756 42.2358 68.0284 42.9379 69.2603 43.5222C71.2301 44.4562 73.077 45.4633 74.8494 46.7354C75.3401 47.0875 75.853 47.4948 76.2821 47.9213C76.4054 48.0438 76.4922 48.2045 76.6416 48.2786" stroke="#F9F7F2" stroke-width="1.15672" stroke-linecap="round"/>
<path d="M76.4844 48.4385C73.9449 50.4041 71.2701 52.0385 68.349 53.383C66.7436 54.122 64.418 54.7194 63.8456 56.5999" stroke="#F9F7F2" stroke-width="1.15672" stroke-linecap="round"/>
<path d="M77.832 47.782C75.5484 50.0398 73.0905 51.9852 70.3532 53.6725C68.8487 54.5999 66.6122 55.4737 66.271 57.4096" stroke="#F9F7F2" stroke-width="0.57836" stroke-linecap="round"/>
<path d="M74.9863 48.4973C72.6892 46.2532 70.2197 44.3226 67.4723 42.6517C65.9623 41.7334 63.7206 40.873 63.3678 38.9391" stroke="#F9F7F2" stroke-width="0.57836" stroke-linecap="round"/>
<path d="M63.8926 41.0632C63.2435 45.1364 62.7149 49.0257 62.9324 53.1667C62.9725 53.9285 62.8423 54.7303 62.9129 55.4815C62.9613 55.9974 63.1621 56.4082 63.0779 56.9367" stroke="#F9F7F2" stroke-width="1.44942" stroke-linecap="round"/>
<path d="M64.9319 53.374C65.652 53.4888 66.3097 53.1522 66.9451 52.8454C67.3189 52.665 68.2187 52.4748 68.2973 51.9813C68.3705 51.5218 66.0509 51.4004 65.683 51.3504C65.0891 51.2697 64.5437 51.4162 63.9702 51.5379C63.471 51.6439 64.1512 51.7367 64.376 51.682C65.5684 51.3913 66.8585 51.0684 68.0094 50.6495C68.7124 50.3936 69.3167 49.9916 70.0118 49.6905C70.5602 49.453 70.9778 49.4342 71.5666 49.3985C71.7955 49.3846 73.0603 49.4352 72.4778 48.861C71.0923 47.4951 69.0922 46.4645 67.198 46.0272C66.8175 45.9394 65.6333 45.9939 65.3846 45.6509C65.1361 45.3083 65.5422 44.1636 65.6007 43.7961C65.678 43.3114 66.5798 44.3458 66.9054 44.5755C67.8456 45.2388 69.0065 45.6125 70.115 45.9046C70.4308 45.9878 71.4954 46.3636 71.4442 46.3307C69.8485 45.307 67.4794 45.1634 65.6515 44.7727C65.2741 44.692 65.133 44.0413 65.1876 43.6985" stroke="#F9F7F2" stroke-width="1.44942" stroke-linecap="round"/>
<path d="M63.9234 47.5895C62.5946 47.2412 61.4159 47.0734 60.0702 47.1987C57.4428 47.4433 54.8771 46.4519 52.258 46.6417C50.5739 46.7637 48.9165 47.2095 47.2321 47.3426C45.0942 47.5115 42.9972 47.3386 40.8628 47.1179C37.7095 46.7919 34.5638 46.7472 31.4103 46.6011C27.954 46.441 24.4283 46.6061 21.0765 47.5047" stroke="#F9F7F2" stroke-width="1.44942" stroke-linecap="round"/>
<path d="M64.8714 51.5429C64.6959 51.5149 63.6602 51.2297 63.7661 51.5399C63.8986 51.928 64.9782 51.9061 65.2677 51.9522C65.3242 51.9612 66.0003 52.052 65.6428 52.012C65.1338 51.955 64.5045 52.1253 64.0114 52.2328C63.7013 52.3004 62.8042 52.5116 63.1177 52.5615C63.4376 52.6125 63.8429 52.262 64.0933 52.1112C64.5785 51.8191 65.1304 51.5992 65.6658 51.4147C66.173 51.2399 66.7491 51.1412 67.2815 51.0808C67.9017 51.0104 68.494 50.883 69.1041 50.7462C69.71 50.6104 70.2808 50.455 70.8725 50.2684C71.4015 50.1015 72.117 49.744 72.679 49.763C72.9885 49.7734 73.2993 49.6706 73.6101 49.6517C73.8966 49.6343 73.4058 50.2495 73.3651 50.3146C72.9789 50.933 72.5281 51.5777 71.9765 52.0597C71.3342 52.6208 70.7092 52.8083 69.9761 53.1784C69.5976 53.3695 69.2058 53.8472 68.8004 53.9189C68.595 53.9553 68.3819 54.0259 68.1753 54.0405C67.9866 54.0538 67.5841 54.3109 67.6139 54.1241C67.6461 53.9218 68.4074 53.5326 68.5706 53.4304C68.9103 53.2176 69.2658 53.0259 69.6019 52.8111C69.8751 52.6366 70.1214 52.4468 70.3824 52.2576C70.5115 52.164 70.9249 52.0517 70.9541 51.8679C70.9722 51.7546 69.9602 51.4884 69.8164 51.4655" stroke="#F9F7F2" stroke-width="0.91949" stroke-linecap="round"/>
<path d="M63.9878 44.0463C65.1378 44.2296 66.2655 44.4664 67.335 44.9451C68.1309 45.3013 69.1064 45.6901 69.8098 46.2192C70.2742 46.5686 70.7534 46.8146 71.2916 47.0274C71.6151 47.1554 71.7518 47.5333 72.0172 47.7536C72.4477 48.111 72.8293 48.4244 73.2861 48.6914C73.4685 48.798 74.2644 49.5746 74.1665 49.5624C72.0138 49.2951 69.8279 49.3903 67.6905 49.0498C66.7016 48.8922 65.7584 48.6941 64.765 48.824C64.2213 48.8951 63.8015 48.7577 63.3096 48.544C63.1465 48.4732 63.3638 48.5582 63.4386 48.4588C63.5274 48.3407 63.4965 48.1089 63.4913 47.9768C63.4727 47.5049 63.4447 47.0262 63.4344 46.5543C63.4253 46.1391 63.2875 45.8028 63.2146 45.3991C63.2039 45.34 63.1542 44.7798 63.2432 44.9181C63.3353 45.0612 63.3274 45.2943 63.35 45.4543C63.4366 46.0669 63.5475 46.6739 63.5957 47.2915C63.7274 48.9784 63.5481 50.6075 63.2831 52.2705C63.1478 53.1198 63.0546 53.9877 62.6687 54.7688C62.4827 55.1451 62.2726 55.3808 62.3219 55.8289C62.3738 56.3001 62.54 56.7528 62.5808 57.2211C62.5968 57.4046 62.6399 57.3932 62.666 57.2299C62.7935 56.4297 63.1729 55.6775 63.3032 54.8603C63.3914 54.3065 63.7318 54.1061 64.2271 53.9498" stroke="#F9F7F2" stroke-width="0.91949" stroke-linecap="round"/>
<path d="M61.9087 51.5518C60.0355 51.2533 58.1878 51.1252 56.3069 50.9317C54.1415 50.7089 52.0098 51.3976 49.855 51.4871C47.5285 51.5838 45.2703 51.6896 42.9466 51.5795C40.3881 51.4582 37.8514 51.4522 35.3046 51.7464C34.6246 51.8249 33.8604 51.5899 33.1886 51.4829C31.8707 51.2729 30.5594 51.2242 29.2282 51.1464C27.511 51.0461 25.8525 51.2419 24.1522 50.971C22.3723 50.6874 20.562 50.5315 18.7949 50.2499C18.5213 50.2063 18.0268 50.1897 17.7656 50.2848C17.5354 50.3685 17.1154 50.6209 17.1735 50.2567" stroke="#F9F7F2" stroke-width="0.91949" stroke-linecap="round"/>
<path d="M55.4388 49.7255C53.2716 49.3801 51.055 48.7905 48.8594 49.0011C48.183 49.066 47.8684 49.1945 47.2741 49.3819C46.5259 49.618 48.5881 49.7291 48.8773 49.6742C49.4856 49.5588 50.0004 49.6543 50.6105 49.7515C51.5575 49.9024 52.4573 49.9063 53.4119 49.8738C54.0196 49.8532 54.5223 49.713 55.0842 49.6395C56.0964 49.5071 57.2807 49.6052 58.3101 49.5938C59.218 49.5837 61.9304 49.6993 61.0337 49.5564" stroke="#F9F7F2" stroke-width="0.91949" stroke-linecap="round"/>
<path d="M30.411 50.3775C29.2044 50.1852 27.9977 49.993 26.791 49.8007C26.0617 49.6845 25.1017 49.3596 24.3586 49.4426C24.2488 49.4548 23.7383 49.4468 23.9548 49.4813C25.252 49.688 26.5427 49.7559 27.8573 49.7644C29.5898 49.7755 31.5914 50.1064 33.2868 49.7089C33.6211 49.6305 33.9839 49.5701 34.3212 49.5497C34.6811 49.5278 35.4888 49.7587 35.3503 49.1465C35.2183 48.5629 33.6752 48.3833 33.2302 48.3079C31.9366 48.0886 30.587 47.7675 29.2752 47.7071C28.453 47.6693 27.7918 47.9569 27.0473 48.1918C26.8908 48.2412 25.3474 48.6068 25.8642 48.9607C26.3995 49.3272 27.2455 49.0777 27.8268 49.1703C28.6851 49.3071 29.5965 48.983 30.4426 48.9316C30.7933 48.9103 30.1124 48.7391 29.9974 48.7208C28.8891 48.5442 27.9357 48.6851 26.8265 48.7458C24.765 48.8585 22.6819 48.7124 20.6352 48.9597C20.2763 49.0031 21.7273 50.57 22.2077 50.6465C22.7143 50.7272 23.1848 50.0946 23.5005 49.8361C23.5626 49.7852 23.0962 49.7422 22.9879 49.725C22.6757 49.6752 22.4276 49.5031 22.1394 49.4572C21.7091 49.3886 21.2869 49.2657 20.8906 49.3908" stroke="#F9F7F2" stroke-width="0.91949" stroke-linecap="round"/>
<path d="M50.1137 50.1924C49.6113 50.1441 49.0474 50.0154 48.5403 50.065C48.2392 50.0944 47.9739 50.2798 47.6745 50.3275C45.7162 50.6392 43.5383 50.4187 41.5738 50.2299C40.5748 50.1339 41.0111 50.0685 41.7671 50.1412C42.4208 50.204 43.0744 50.2668 43.7281 50.3297C44.3632 50.3907 43.3777 50.296 43.2378 50.2825C41.8717 50.1512 40.5652 50.4887 39.1939 50.4303C38.4731 50.3996 37.7522 50.399 37.0337 50.33C36.7125 50.2991 36.5523 50.3761 36.9328 50.511C36.998 50.5342 37.4771 50.5547 37.466 50.6696C37.4609 50.7225 36.5523 50.6021 36.5015 50.5948C35.8449 50.4992 35.2072 50.369 34.5443 50.3053" stroke="#F9F7F2" stroke-width="3" stroke-linecap="round"/>
<path d="M33.6092 50.0008C33.2497 49.9663 32.942 49.8145 32.5304 49.8137C30.8672 49.8104 29.2037 49.5773 27.5491 49.4183" stroke="#F9F7F2" stroke-width="3" stroke-linecap="round"/>
<path d="M25.319 50.277C25.4181 50.2742 25.3927 50.2493 25.4355 50.1809" stroke="#F9F7F2" stroke-width="3" stroke-linecap="round"/>
<path d="M65.8425 47.3051C65.9446 48.7765 66.3536 51.0602 65.0748 52.1909C64.5701 52.6372 64.8142 51.2851 64.8437 51.0599C64.9928 49.9221 65.2899 48.7352 65.8441 47.7225C65.9152 47.5925 66.3469 48.9593 66.3893 49.1817C66.4712 49.6113 66.3525 50.929 66.3944 50.4937C66.4599 49.8123 66.5183 49.2154 66.8736 48.6083C67.1451 48.1446 68.2533 47.3088 68.8282 47.7471C69.1612 48.0008 69.3008 49.0597 68.9468 48.4976C68.0885 47.1348 69.7721 46.3066 70.5468 47.5427C70.902 48.1095 71.1667 48.7095 71.5064 49.2802C71.7917 49.7594 71.6448 49.4534 71.6929 48.9524C71.7346 48.5188 71.8761 48.0485 72.279 47.8165C72.4294 47.7298 73.2304 47.1981 73.4264 47.4141C73.6392 47.6484 73.4204 48.1358 73.5153 48.4122C73.6024 48.6657 73.2914 48.2479 73.1046 48.1581C72.7654 47.9952 72.437 47.3653 72.3202 47.0157C72.2027 46.6638 71.3633 46.6976 71.0203 46.4615C70.7803 46.2963 70.2379 45.7681 70.1151 45.5221C69.7988 44.8882 69.1644 44.7932 68.5126 44.5812C67.8749 44.3737 66.9044 44.1176 66.24 44.2852C65.8334 44.3878 66.1298 44.7472 66.0512 45.0718C65.9733 45.3933 65.6499 45.5985 65.5241 45.9034C65.297 46.4541 64.7146 46.7411 64.172 46.8226" stroke="#F9F7F2" stroke-width="3" stroke-linecap="round"/>
<path d="M70.9688 50.9094C70.8831 51.8007 69.5399 51.6305 68.867 51.5658" stroke="#F9F7F2" stroke-width="3" stroke-linecap="round"/>
<path d="M71.1953 51.897C71.096 52.2024 70.5157 52.4278 70.271 52.5831C69.8928 52.8229 69.507 53.1584 69.0751 53.3027C68.7227 53.4204 68.4127 53.7812 68.0763 53.9578C67.7229 54.1432 67.3733 54.3057 67.0274 54.5127C65.9927 55.1318 65.0189 55.9152 63.9004 56.3462" stroke="#F9F7F2" stroke-width="3" stroke-linecap="round"/>
<path d="M64.3164 45.3341C64.3982 44.4831 64.5884 43.6205 64.668 42.7927" stroke="#F9F7F2" stroke-width="3" stroke-linecap="round"/>
<path d="M61.9218 50.1471C60.6456 50.0245 59.3884 50.0109 58.1077 49.8878C57.0154 49.7828 56.1021 49.5475 54.9929 49.6719C54.3003 49.7496 53.4213 49.652 52.7241 49.5849C52.0986 49.5248 51.5143 49.6691 50.8963 49.6238C49.9465 49.5543 49.0506 49.661 48.1352 49.573" stroke="#F9F7F2" stroke-width="3" stroke-linecap="round"/>
<path d="M53.7211 48.3931C53.3667 48.359 53.0123 48.325 52.6579 48.2909C51.8409 48.2124 51.1049 48.3929 50.2896 48.4328C49.8126 48.4562 49.3878 48.3945 48.9211 48.4682C48.2217 48.5787 47.3892 48.3248 46.7287 48.5794" stroke="#F9F7F2" stroke-width="3" stroke-linecap="round"/>
<path d="M36.5365 48.5655C35.2125 48.4382 33.9019 48.2049 32.5657 48.0765C32.0258 48.0246 31.459 47.9396 30.923 48.0497C30.1403 48.2105 29.293 47.9075 28.4911 47.9233C26.5987 47.9603 24.7258 47.9667 22.8294 47.7844C22.0175 47.7064 21.188 47.8412 20.4109 47.7665C20.0841 47.7351 19.7573 47.7037 19.4305 47.6723C19.0672 47.6374 17.92 47.258 18.124 47.8686C18.2599 48.2755 18.1904 48.9384 18.4659 49.2725C18.6837 49.5366 19.9192 49.4145 20.2688 49.4935C20.8286 49.62 21.2974 49.5685 21.8422 49.6209" stroke="#F9F7F2" stroke-width="3" stroke-linecap="round"/>
</svg>
