<svg width="603" height="136" viewBox="0 0 603 136" fill="none" xmlns="http://www.w3.org/2000/svg">
<path d="M36.0049 131.439C36.4299 129.101 37.8866 126.889 38.289 124.519C38.8187 121.4 38.4234 117.934 38.4234 114.778C38.4234 109.728 38.4234 104.678 38.4234 99.6287C38.4234 91.8673 37.8188 83.8716 37.8188 76.4177" stroke="#242424" stroke-width="5" stroke-linecap="round"/>
<path d="M63.2125 130.834C65.3144 129.783 64.2002 121.94 63.9514 119.951C63.5167 116.473 62.0444 113.485 61.5329 110.075C60.8702 105.657 60.7939 101.159 60.7939 96.6726C60.7939 90.6016 61.3986 84.4182 61.3986 78.2314" stroke="#242424" stroke-width="5" stroke-linecap="round"/>
<path d="M59.5851 78.8362C55.9125 78.8362 52.24 78.8362 48.5674 78.8362C44.6144 78.8362 41.3005 76.4177 37.2139 76.4177" stroke="#242424" stroke-width="5" stroke-linecap="round"/>
<path d="M61.6503 130.365C61.2443 130.446 60.413 131.553 60.413 131.037C60.413 129.545 60.8199 127.607 61.4912 126.264C62.1312 124.984 60.0491 127.793 59.7766 128.085C58.0163 129.971 59.1892 127.128 59.5998 126.229C60.0612 125.218 61.7371 122.35 59.5998 124.461C59.2703 124.786 56.1529 127.982 58.0089 126.052C59.1312 124.885 60.4212 123.693 61.0493 122.163C61.3085 121.532 61.567 120.417 60.5897 121.173C59.0584 122.357 57.5267 123.514 55.9231 124.602C54.6539 125.464 54.8777 125.035 55.6403 124.107C56.8985 122.577 58.4515 121.322 59.6882 119.777C60.7925 118.396 57.3456 122.426 56.2413 123.807C54.8094 125.597 53.4364 127.544 51.6276 128.951C50.6387 129.72 49.0416 129.41 47.8625 129.41C45.9063 129.41 43.95 129.41 41.9938 129.41C40.397 129.41 37.5093 129.688 39.3777 127.819C41.3681 125.829 43.5499 125.533 46.2893 125.256C49.6327 124.919 59.4144 122.771 56.2943 124.019C52.9779 125.345 48.6382 124.929 45.1403 125.592C44.1882 125.773 38.6788 127.922 40.7388 125.681C43.1931 123.01 46.4779 121.873 49.7716 120.572C51.6286 119.839 54.2429 118.097 56.2766 118.097C59.3014 118.097 50.7385 120.632 47.7918 121.314C47.1733 121.458 42.2931 122.389 42.312 122.34C43.8709 118.286 52.2336 116.89 55.8347 116.701C56.925 116.643 59.8553 115.224 59.0165 115.923C58.4198 116.42 57.1512 116.429 56.4534 116.542C54.457 116.865 52.4783 117.304 50.4786 117.602C48.3196 117.924 46.1353 117.974 43.9736 118.274C42.1014 118.534 41.8351 118.269 43.6201 116.913C47.1194 114.255 51.6308 111.841 55.8877 110.691C57.5131 110.251 56.076 110.441 55.216 110.673C51.8318 111.584 48.6407 112.205 45.1403 112.547C44.9934 112.561 41.0625 113.055 41.11 112.794C41.4703 110.812 46.1522 110.336 47.4029 110.107C50.6512 109.514 54.0434 109.235 57.1251 108.163C57.3352 108.09 54.7301 108.791 54.0317 108.87C50.3463 109.286 46.5998 109.365 42.8953 109.365C42.7046 109.365 39.4943 109.602 40.2438 108.852C42.2481 106.848 46.4415 106.433 49.0645 105.688C51.6527 104.953 59.6388 103.989 56.9483 103.956C53.7361 103.916 50.5533 103.9 47.3675 104.345C46.6116 104.45 39.2883 105.521 42.913 103.638C46.4648 101.792 50.9909 100.624 54.8625 99.572C55.5312 99.3904 60.5067 98.5416 57.3902 98.0872C53.5783 97.5312 49.6002 98.0057 45.759 97.8927C45.2535 97.8779 40.039 97.5057 40.0847 97.3801C40.5458 96.1123 45.0391 95.1717 45.7236 94.9584C50.0022 93.6253 54.4054 92.6135 58.6099 91.0518C60.5373 90.3359 58.8205 90.5931 57.9382 90.6629C53.8959 90.9831 49.8554 90.764 45.812 90.9811C45.4714 90.9994 42.1474 91.4823 42.5595 91.0165C43.3747 90.0949 44.6338 89.8558 45.7766 89.567C48.2649 88.9381 50.7814 88.4219 53.2716 87.7993C53.3924 87.7691 57.7349 86.5146 56.1175 87.0922C54.7486 87.5811 53.1249 87.4786 51.6983 87.5872C49.1692 87.7796 46.65 87.9483 44.115 88.0468C43.665 88.0643 38.5624 88.9608 40.1024 87.87C41.2624 87.0483 42.9212 86.9673 44.2741 86.7741C47.1285 86.3663 50.0031 86.1461 52.865 85.8018C55.3241 85.506 62.713 84.865 60.2362 84.865C57.6908 84.865 55.1453 84.865 52.5999 84.865C50.4002 84.865 48.1856 84.9337 45.9888 84.7943C45.5508 84.7665 44.3936 84.7841 43.9736 84.4761C43.5018 84.1301 44.9576 83.7878 45.5292 83.6629C47.3022 83.2756 49.1437 83.1444 50.9382 82.8852C53.0687 82.5774 55.2104 82.3314 57.3372 82.0013C57.7187 81.9421 58.8213 81.5971 58.4685 81.7539C56.3099 82.7133 53.5468 82.3195 51.2564 82.3195C46.5434 82.3195 41.8582 82.6377 37.1504 82.6377" stroke="#242424" stroke-width="5" stroke-linecap="round"/>
<path d="M551 131.021C551.425 128.684 552.882 126.471 553.284 124.101C553.814 120.982 553.419 117.517 553.419 114.36C553.419 109.311 553.419 104.261 553.419 99.211C553.419 91.4495 552.814 83.4539 552.814 76" stroke="#242424" stroke-width="5" stroke-linecap="round"/>
<path d="M578.208 130.417C580.31 129.366 579.195 121.523 578.947 119.533C578.512 116.055 577.04 113.068 576.528 109.658C575.865 105.24 575.789 100.741 575.789 96.2551C575.789 90.1841 576.394 84.0007 576.394 77.814" stroke="#242424" stroke-width="5" stroke-linecap="round"/>
<path d="M574.58 78.4185C570.908 78.4185 567.235 78.4185 563.563 78.4185C559.61 78.4185 556.296 76 552.209 76" stroke="#242424" stroke-width="5" stroke-linecap="round"/>
<path d="M576.644 129.947C576.238 130.028 575.407 131.135 575.407 130.619C575.407 129.127 575.814 127.189 576.485 125.846C577.125 124.566 575.043 127.375 574.771 127.667C573.01 129.553 574.183 126.71 574.594 125.811C575.055 124.8 576.731 121.932 574.594 124.043C574.264 124.368 571.147 127.564 573.003 125.634C574.125 124.467 575.415 123.275 576.043 121.745C576.303 121.114 576.561 119.999 575.584 120.755C574.053 121.939 572.521 123.096 570.917 124.184C569.648 125.046 569.872 124.617 570.634 123.689C571.893 122.159 573.446 120.904 574.682 119.359C575.787 117.978 572.34 122.008 571.235 123.389C569.804 125.179 568.43 127.126 566.622 128.533C565.633 129.302 564.036 128.992 562.857 128.992C560.9 128.992 558.944 128.992 556.988 128.992C555.391 128.992 552.503 129.27 554.372 127.401C556.362 125.411 558.544 125.115 561.283 124.838C564.627 124.501 574.409 122.353 571.288 123.601C567.972 124.928 563.632 124.511 560.134 125.174C559.182 125.355 553.673 127.504 555.733 125.263C558.187 122.592 561.472 121.455 564.766 120.154C566.623 119.421 569.237 117.679 571.271 117.679C574.296 117.679 565.733 120.214 562.786 120.896C562.167 121.04 557.287 121.971 557.306 121.922C558.865 117.868 567.228 116.472 570.829 116.283C571.919 116.225 574.849 114.806 574.011 115.505C573.414 116.002 572.145 116.011 571.448 116.124C569.451 116.447 567.472 116.886 565.473 117.184C563.314 117.506 561.129 117.556 558.968 117.856C557.096 118.116 556.829 117.851 558.614 116.495C562.114 113.837 566.625 111.423 570.882 110.273C572.507 109.833 571.07 110.023 570.21 110.255C566.826 111.166 563.635 111.787 560.134 112.129C559.988 112.143 556.057 112.637 556.104 112.376C556.464 110.394 561.146 109.918 562.397 109.689C565.645 109.096 569.038 108.817 572.119 107.745C572.329 107.672 569.724 108.373 569.026 108.452C565.34 108.868 561.594 108.947 557.889 108.947C557.699 108.947 554.488 109.184 555.238 108.434C557.242 106.43 561.436 106.015 564.059 105.27C566.647 104.535 574.633 103.571 571.942 103.538C568.73 103.498 565.547 103.482 562.362 103.927C561.606 104.032 554.282 105.103 557.907 103.22C561.459 101.374 565.985 100.206 569.857 99.154C570.525 98.9724 575.501 98.1237 572.384 97.6692C568.572 97.1133 564.594 97.5877 560.753 97.4747C560.248 97.4599 555.033 97.0878 555.079 96.9621C555.54 95.6943 560.033 94.7537 560.718 94.5404C564.996 93.2074 569.4 92.1955 573.604 90.6339C575.531 89.918 573.815 90.1751 572.932 90.245C568.89 90.5651 564.85 90.346 560.806 90.5631C560.466 90.5814 557.142 91.0643 557.554 90.5985C558.369 89.6769 559.628 89.4379 560.771 89.149C563.259 88.5201 565.776 88.0039 568.266 87.3813C568.387 87.3511 572.729 86.0966 571.112 86.6743C569.743 87.1632 568.119 87.0607 566.692 87.1692C564.163 87.3616 561.644 87.5304 559.109 87.6288C558.659 87.6463 553.557 88.5429 555.097 87.452C556.257 86.6304 557.915 86.5493 559.268 86.3561C562.123 85.9483 564.997 85.7282 567.859 85.3839C570.318 85.088 577.707 84.447 575.23 84.447C572.685 84.447 570.139 84.447 567.594 84.447C565.394 84.447 563.18 84.5158 560.983 84.3763C560.545 84.3485 559.388 84.3661 558.968 84.0581C558.496 83.7121 559.952 83.3699 560.523 83.245C562.296 82.8576 564.138 82.7264 565.932 82.4672C568.063 82.1595 570.205 81.9134 572.331 81.5834C572.713 81.5242 573.815 81.1791 573.463 81.3359C571.304 82.2953 568.541 81.9015 566.251 81.9015C561.538 81.9015 556.852 82.2197 552.145 82.2197" stroke="#242424" stroke-width="5" stroke-linecap="round"/>
<path d="M3.17285 90.8257L599.633 90.8257" stroke="#242424" stroke-width="5" stroke-linecap="round"/>
<path d="M143.873 89.3905C151.388 89.3905 158.904 89.3905 166.419 89.3905C172.421 89.3905 178.556 87.4768 184.618 86.8629C189.345 86.3843 194.171 87.1302 198.874 86.4585C202.268 85.9736 205.553 84.5173 208.883 83.7287C216.636 81.8925 222.361 77.6977 229.104 73.9216C237.526 69.2052 246.579 61.3009 257.109 61.1826C273.63 60.9969 290.098 60.2726 306.65 60.2726C318.437 60.2726 334.442 57.7534 345.272 62.9519C350.927 65.6665 357.212 66.4097 362.308 70.2314C367.71 74.283 376.267 75.299 382.478 77.7636C389.282 80.4636 397.964 82.9003 405.327 83.021C410.005 83.0977 413.748 85.0981 418.319 85.8013C423.91 86.6615 428.871 88.107 434.597 88.5311C438.904 88.8502 443.745 88.9517 447.791 90.3005" stroke="#242424" stroke-width="5" stroke-linecap="round"/>
<path d="M203.785 88.5611C206.972 88.0069 215.667 83.5543 212.537 84.3708C211.097 84.7463 209.701 85.4231 208.453 86.2272C207.836 86.6249 211.311 84.8571 211.529 84.7421C216.582 82.0784 221.86 79.9676 227.017 77.5284C228.206 76.9662 227.912 77.3209 227.124 77.8997C224.981 79.4734 222.831 81.0679 220.599 82.5143C220.212 82.7655 216.368 85.5704 215.773 85.2725C215.279 85.0255 216.602 84.5403 217.046 84.2116C218.257 83.3147 219.85 82.2184 221.077 81.4004C223.717 79.6402 226.433 78.0153 229.139 76.3615C229.988 75.8426 231.521 74.6723 229.351 76.1493C225.322 78.8922 221.336 81.6659 217.046 83.9995C215.215 84.9951 211.412 85.8142 209.885 87.3411C209.237 87.9886 211.727 87.2651 212.617 87.0494C216.144 86.1942 219.667 85.2466 223.145 84.2116C228.443 82.6354 243.673 76.3253 238.952 79.1992C232.719 82.9931 225.599 85.5871 218.716 87.9246C212.175 90.146 231.642 82.8348 238.421 81.5065C239.991 81.199 241.74 80.8558 243.354 80.9231C244.74 80.9808 240.719 81.7923 239.429 82.3021C235.21 83.9704 222.421 88.5633 226.805 87.3941C228.882 86.8403 230.855 85.5641 232.958 84.9542C237.446 83.6526 242.115 82.9783 246.749 82.4613C246.882 82.4464 253.936 81.5894 253.963 82.09C254.028 83.3319 244.651 85.5986 243.805 85.8559C243.551 85.9334 234.297 88.2602 237.334 87.9776C246.661 87.11 255.897 84.5643 265.207 83.363C266.136 83.2432 263.48 84.0836 262.608 84.4238C258.855 85.8885 255.133 87.3678 251.231 88.4019C247.487 89.3942 249.878 88.6554 251.921 88.2163C258.425 86.8181 265.006 85.8944 271.572 84.8481C272.511 84.6986 280.058 82.7983 275.869 84.689C272.555 86.1847 262.027 88.9327 265.632 88.455C274.436 87.2881 283.137 84.382 291.728 82.1961C293.458 81.756 294.535 81.4023 292.577 82.8856C289.631 85.1176 286.281 86.3643 282.897 87.7389C278.054 89.7062 292.82 84.4037 297.908 83.2038C299.692 82.783 301.672 82.6639 303.424 82.1165C304.476 81.7878 301.271 82.5966 300.215 82.9121C298.946 83.2914 296.63 83.995 295.335 84.3973C294.657 84.608 292.729 84.6929 293.32 85.0868C294.313 85.7492 301.324 83.6956 302.257 83.5486C306.319 82.9088 310.47 82.1099 314.589 81.9574C317.508 81.8493 312.408 84.2368 311.884 84.5299C310.308 85.4112 308.701 86.2581 306.898 86.5455C306.455 86.6161 305.97 86.6301 305.519 86.6516C305.325 86.6608 305.908 86.66 306.103 86.6516C311.25 86.4278 316.096 84.619 321.326 84.7421C321.579 84.748 322.22 84.9117 322.015 85.0603C321.458 85.4645 319.291 86.2801 318.992 86.3864C316.37 87.3184 313.327 88.4482 310.505 88.5611C307.385 88.6859 316.578 87.1064 319.628 86.4394C326.896 84.8503 334.218 83.4794 341.641 82.8856C343.554 82.7325 340.872 83.4966 340.606 83.6017C337.663 84.7667 334.578 85.4272 331.51 86.1742C329.438 86.6787 323.325 88.4171 325.251 87.5002C328.281 86.0573 332.408 85.9151 335.647 85.4846C338.821 85.0628 344.226 83.503 347.449 84.4238C348.692 84.779 343.678 87.2433 343.63 87.2615C342.148 87.8172 337.485 88.7646 339.042 88.4815C342.588 87.8367 346.123 87.2051 349.703 86.7576C350.931 86.6041 354.587 86.357 353.416 86.7576C350.808 87.65 347.999 88.1847 345.3 88.7202C344.049 88.9684 342.855 88.944 344.77 88.5611C348.233 87.8685 351.746 87.4038 355.219 86.7576C356.546 86.5108 360.44 85.7491 359.25 86.3864C359.093 86.4707 356.28 87.6138 356.28 87.5002C356.28 86.9666 360.084 86.6676 360.205 86.6516C362.121 86.3988 362.435 86.3905 364.342 86.0681C365.376 85.8935 367.651 84.5367 367.445 85.5642C367.317 86.205 365.095 86.5455 365.748 86.5455C368.588 86.5455 371.731 85.586 374.553 85.2725C376.556 85.0499 381.939 83.819 380.6 85.3255C379.462 86.606 377.347 87.3721 375.799 87.9776C371.194 89.7797 378.814 86.3217 379.857 85.9885C380.303 85.8462 385.014 83.8264 385.188 85.2194C385.557 88.1722 405.875 86.316 408.526 86.2007C410.292 86.1239 412.222 86.0324 413.99 86.2007C415.197 86.3157 414.117 86.595 413.618 86.6781C411.47 87.036 409.325 87.4323 407.147 87.5533C395.793 88.1841 383.94 85.0871 372.829 83.2038C369.824 82.6945 375.112 80.8566 375.481 80.7109C377.092 80.0745 378.68 79.4338 380.361 79.0136C382.026 78.5972 376.991 79.6713 375.322 80.0744C371.814 80.9218 361.769 84.8463 364.926 83.0978C367.526 81.6576 370.396 80.5056 373.2 79.544C376.65 78.3612 378.328 77.9176 373.439 79.7031C371.718 80.3317 349.85 87.8467 349.729 87.182C349.41 85.4228 358.974 80.1153 360.444 78.8809C362.811 76.8926 361.751 77.0604 359.197 78.4831C356.303 80.0956 353.73 82.1158 351.056 84.0525C347.238 86.817 351.635 83.2328 352.567 82.5143C353.432 81.8477 363.67 75.1367 363.494 74.3459C363.389 73.8739 350.738 79.0875 349.968 79.3848C347.064 80.5063 344.113 81.5195 341.057 82.143C339.665 82.4272 339.396 82.5569 340.58 81.5065C343.021 79.3402 345.537 77.3051 348.112 75.3006C349.94 73.8773 355.572 70.1834 353.31 70.686C350.873 71.2275 348.258 73.8326 346.255 75.168C343.4 77.0718 340.434 78.7464 337.397 80.3396C336.551 80.7838 334.046 81.9433 334.666 81.2148C336.518 79.0353 339.731 77.433 342.065 75.8841C345.274 73.7549 348.542 71.7655 351.904 69.8904C354.359 68.5213 352.182 69.7015 351.347 70.1821C343.955 74.438 336.06 77.668 328.354 81.2943C327.209 81.8331 330.444 79.8681 331.483 79.1462C336.218 75.8566 341.006 72.7089 345.91 69.6782C347.948 68.4191 353.909 64.404 351.878 65.6736C349.151 67.3779 346.434 69.0985 343.683 70.7656C337.851 74.2984 320.214 84.6373 325.914 80.8965C329.166 78.762 332.304 76.459 335.382 74.0807C337.807 72.2066 341.097 70.1824 342.967 67.6626C348.084 60.7655 313.857 85.7046 320.477 80.2335C326.977 74.8615 335.288 70.4256 340.845 64.0558C340.991 63.8888 341.378 63.4186 341.163 63.4723C340.569 63.621 340.133 64.1373 339.625 64.4801C333.557 68.5735 327.363 72.4828 320.981 76.0697C319.089 77.1332 313.699 80.578 315.146 78.9605C317.497 76.3334 320.391 73.9807 322.97 71.5877C326.097 68.6856 329.489 66.0507 332.544 63.0745C332.743 62.8808 333.266 62.2395 333.048 62.4115C329.488 65.2219 337.146 59.5268 330.237 64.7453C325.211 68.5412 319.658 71.5216 313.979 74.2133C311.702 75.2926 305.064 78.6676 306.951 76.998C310.561 73.8048 314.946 71.2312 318.965 68.6174C319.617 68.1933 329.751 62.8119 329.6 61.4567C329.548 60.9836 328.701 61.7772 328.274 61.9872C326.514 62.852 324.781 63.7697 323.023 64.6392C316.239 67.9956 309.365 71.1678 302.496 74.3459C300.464 75.286 298.435 76.2318 296.396 77.1571C295.912 77.3769 294.691 78.2248 294.911 77.7406C295.706 75.9906 301.906 73.6928 303.291 72.8607C309.196 69.3136 325.909 57.199 319.894 60.555C309.702 66.2409 299.206 71.3053 289.527 77.8732C288.454 78.6012 286.737 79.7695 289.288 77.9527C293.673 74.8305 298.226 71.9539 302.628 68.8561C305.857 66.5843 308.998 64.1924 312.309 62.0402C312.483 61.9265 312.995 61.5681 312.812 61.6689C309.753 63.3571 313.647 61.3504 308.251 64.2149C299.712 68.7481 290.879 72.6486 281.969 76.388C280.205 77.1281 278.52 78.8518 276.638 78.5097C275.314 78.2689 278.866 76.9979 280.006 76.2819C285.262 72.9805 290.593 69.8144 295.919 66.6283C297.745 65.5356 303.216 62.4102 301.17 62.995C299.164 63.568 296.768 65.174 294.858 65.9653C288.45 68.62 282.058 71.2842 275.71 74.0807C273.203 75.1851 266.241 79.3064 268.178 77.3693C270.225 75.3223 274.293 73.7921 276.718 72.3303C281.464 69.4684 295.755 60.9665 290.986 63.7906C280.857 69.788 269.512 74.0403 258.551 78.271C249.225 81.8702 276.262 68.9986 285.151 64.4271C286.429 63.7701 290.209 61.7043 288.917 62.3319C283.936 64.7513 278.719 66.702 273.482 68.4848C266.811 70.7558 260.025 72.6794 253.22 74.505C252.826 74.6106 251.668 74.8214 252 74.5846C253.112 73.7906 256.456 71.9418 257.092 71.5877C262.529 68.5633 268.063 65.7202 273.588 62.8623C278.866 60.1323 270.979 63.9788 270.299 64.268C259.293 68.9497 247.138 73.9872 235.186 75.5658C232.24 75.955 240.692 73.3267 243.407 72.1181C247.928 70.1058 252.505 68.0045 256.774 65.4879C259.068 64.1352 258.367 64.1823 256.403 65.1166C252.153 67.1374 247.846 68.9785 243.46 70.686C242.241 71.1606 239.303 72.2804 237.891 72.7546C237.306 72.9512 236.217 73.7828 236.088 73.179C235.731 71.517 250.589 64.984 251.629 64.4801C254.694 62.9949 257.894 61.7586 260.938 60.2368C262.285 59.5629 258.926 62.4879 257.808 63.4988C252.281 68.4993 245.731 72.3396 239.615 76.5736C238.328 77.4646 236.976 78.2554 235.69 79.1462C234.552 79.9341 238.104 77.7884 239.35 77.1836C243.935 74.9563 248.721 73.2275 253.432 71.296C256.39 70.0832 258.148 69.1976 254.334 71.7468C246.387 77.0588 220.317 89.0877 229.192 85.5377C242.113 80.3695 255.033 73.3844 268.708 70.3678C271.318 69.792 264.31 73.4221 261.972 74.7172C259.051 76.335 254.379 77.8455 252.053 80.3926C251.524 80.9722 253.513 79.8138 254.228 79.4909C257.41 78.0543 259.566 77.0918 262.927 75.778C265.965 74.5904 269.931 73.148 273.111 72.2242C274.132 71.9275 275.166 71.6665 276.214 71.4816C277.485 71.2573 278.29 71.1925 276.93 72.2242C272.396 75.6634 266.919 78.1682 261.998 81.0026C255.645 84.6623 261.831 81.6136 263.908 80.817C268.204 79.169 273.117 76.8899 277.752 76.4145C280.608 76.1216 272.744 79.2356 270.14 80.4457C267.508 81.669 259.544 84.8483 262.423 84.4769C267.179 83.8632 272.185 81.4251 276.771 80.1009C276.982 80.04 285.912 77.8266 285.549 78.1649C282.172 81.3088 277.84 83.3576 274.437 86.4924C272.676 88.1138 279.044 85.1729 281.279 84.3177C287.241 82.0368 293.359 79.6119 299.579 78.1118C300.013 78.007 301.131 78.1869 300.852 78.5362C300.242 79.2976 296.962 82.0111 296.608 82.3021C293.673 84.715 290.448 86.8571 287.591 89.3567C284.687 91.898 294.51 85.9309 298.04 84.3708C304.176 81.6591 311.575 77.2621 318.355 76.4145C322.058 75.9516 312.185 80.6245 308.967 82.5143C305.64 84.4682 295.864 90.6603 299.048 88.4815C306.481 83.3957 316.401 77.989 325.542 77.3693C329.324 77.1129 314.695 87.674 318.064 85.9355C321.828 83.9925 325.705 82.4295 329.706 81.0291C329.947 80.9449 338.532 78.362 338.113 78.9075C337.341 79.9146 332.778 83.647 336.973 82.2756C343.382 80.1805 349.543 77.1562 355.856 74.7702C358.77 73.6689 355.982 77.6117 357.023 79.6501C358.163 81.8837 364.375 79.0717 363.865 78.5362C362.374 76.9701 361.154 77.2107 361.743 79.7561C362.954 84.9792 371.581 81.7564 374.659 80.5252C376.188 79.9136 373.722 79.0136 373.068 79.0136C371.658 79.0136 374.528 80.3738 374.765 80.5518C381.128 85.324 387.414 82.5023 394.258 80.9231" stroke="#242424" stroke-width="5" stroke-linecap="round"/>
<path d="M303.945 59.9366C303.945 53.8194 303.945 47.6432 303.945 41.5" stroke="#242424" stroke-width="6" stroke-linecap="round"/>
<path d="M301.976 42.5845C302.397 39.8023 308.027 39.2534 310.832 38.5478C314.107 37.7238 317.869 37.052 318.412 33.9085C318.71 32.1841 320.238 30.7468 320.344 28.9077C320.492 26.3325 321 23.8725 321 21.2258C321 16.9432 320.439 14.1564 318.376 10.3204C315.916 5.74592 308.28 3 302.778 3C295.381 3 287.992 6.22749 285.576 12.2183" stroke="#242424" stroke-width="6" stroke-linecap="round"/>
<path d="M299.961 42.1562C301.05 43.1565 300.848 45.3959 301.33 46.6715C301.765 47.8227 301.454 49.2954 301.454 50.5123C301.454 52.0037 301.655 53.4488 301.703 54.9132C301.734 55.8642 302.323 56.6976 302.575 57.611C302.901 58.7977 302.518 59.964 303.197 61.086" stroke="#242424" stroke-width="6" stroke-linecap="round"/>
<path d="M36.0049 132.648C41.9996 129.827 46.9668 131.939 53.3375 132.044C56.6276 132.098 59.9222 132.044 63.2131 132.044" stroke="#242424" stroke-width="5" stroke-linecap="round"/>
</svg>
