<svg width="1440" height="26" viewBox="0 0 1440 26" fill="none" xmlns="http://www.w3.org/2000/svg">
<path d="M1443.32 13.3664C1441.08 8.89101 1427.18 13.3664 1423.5 13.3664C1405.3 13.3664 1387.7 14.6397 1369.5 14.6397H1347.5C1342.53 14.6397 1336.91 15.3738 1332 14.6397C1307.69 11.0042 1281.99 11.3277 1257.49 10.8198C1117.13 7.91075 976.635 9.54656 836.246 9.54656C796.618 9.54656 760.102 8.5 720.5 8.5C715.732 7.49059 706.181 9.36639 702.5 9.36639C684.297 9.36639 666.703 10.6397 648.5 10.6397H626.5C621.535 10.6397 615.91 11.3738 611 10.6397C586.688 7.00425 560.992 7.32768 536.488 6.81983C396.125 3.91075 255.635 5.54656 115.246 5.54656C75.6178 5.54656 36.1499 3 -3.45215 3M1442.77 21.0539C1440.53 16.5785 1426.63 21.0539 1422.95 21.0539C1404.75 21.0539 1387.16 22.3272 1368.95 22.3272H1346.95C1341.99 22.3272 1336.36 23.0613 1331.45 22.3272C1307.14 18.6917 1281.44 19.0152 1256.94 18.5073C1116.58 15.5982 976.087 17.2341 835.698 17.2341C796.07 17.2341 760.602 16.5 721 16.5C716.232 16.5 705.634 17.0539 701.952 17.0539C683.749 17.0539 666.155 18.3272 647.952 18.3272H625.952C620.987 18.3272 615.362 19.0613 610.452 18.3272C586.14 14.6917 560.444 15.0152 535.94 14.5073C395.577 11.5982 255.087 13.2341 114.698 13.2341C75.07 13.2341 35.6021 10.6875 -4 10.6875" stroke="#242424" stroke-width="6" stroke-linecap="round"/>
</svg>
