<svg width="161" height="211" viewBox="0 0 161 211" fill="none" xmlns="http://www.w3.org/2000/svg">
<path d="M2 6.89819C11.4047 6.89819 20.8497 8.36059 30.2343 9.04116C42.9815 9.96559 55.5515 10.5719 68.3368 10.5719" stroke="#242424" stroke-width="3" stroke-linecap="round"/>
<path d="M61.7598 2C65.0184 2.33084 68.0453 4.84073 71.0798 6.01381C75.0394 7.54455 79.7466 8.46975 83.872 9.34732C85.8587 9.76993 87.0789 12.8061 84.6639 13.7693C81.4822 15.0384 77.9218 14.0171 74.6129 15.164C72.1372 16.022 68.5667 15.8861 66.9376 18.2253C66.0694 19.4719 64.6812 19.2717 65.5974 19.1438C67.366 18.8969 65.5974 5.7476 65.5974 3.83683" stroke="#242424" stroke-width="3" stroke-linecap="round"/>
<path d="M31.5957 198.08C40.9306 196.936 50.4833 197.239 59.881 196.773C72.646 196.14 85.1964 195.212 97.8867 193.657" stroke="#242424" stroke-width="3" stroke-linecap="round"/>
<path d="M90.3164 185.949C93.5911 185.881 96.9009 188.004 100.056 188.799C104.172 189.837 108.957 190.182 113.158 190.552C115.182 190.729 116.762 193.595 114.482 194.844C111.478 196.491 107.82 195.91 104.675 197.451C102.323 198.604 98.762 198.904 97.4295 201.424C96.7195 202.767 95.3172 202.737 96.2111 202.498C97.9365 202.038 94.5815 189.202 94.349 187.305" stroke="#242424" stroke-width="3" stroke-linecap="round"/>
<path d="M12.584 96.6123C28.8834 94.6147 45.4271 94.0325 61.7728 92.7019C83.9754 90.8945 105.833 88.8148 127.991 86.0992" stroke="#242424" stroke-width="3" stroke-linecap="round"/>
<path d="M115.572 79.1492C121.259 78.7792 126.805 80.5803 132.204 81.078C139.249 81.7276 147.518 81.6286 154.772 81.6069C158.266 81.5965 160.743 84.2938 156.672 85.7447C151.309 87.6563 145.017 87.4181 139.419 89.2377C135.231 90.5991 129.027 91.2251 126.482 93.8491C125.127 95.2473 122.697 95.3472 124.269 95.028C127.305 94.412 122.671 81.9833 122.443 80.1227" stroke="#242424" stroke-width="3" stroke-linecap="round"/>
</svg>
