<svg width="37" height="25" viewBox="0 0 37 25" fill="none" xmlns="http://www.w3.org/2000/svg">
<mask id="path-1-inside-1_664_1447" fill="white">
<path d="M28.3384 22.6897C27.6986 22.6897 27.0851 22.4544 26.6327 22.0356C26.1803 21.6168 25.9262 21.0488 25.9262 20.4566C25.9262 19.8643 26.1803 19.2963 26.6327 18.8775C27.0851 18.4587 27.6986 18.2234 28.3384 18.2234C28.9781 18.2234 29.5917 18.4587 30.0441 18.8775C30.4964 19.2963 30.7506 19.8643 30.7506 20.4566C30.7506 21.0488 30.4964 21.6168 30.0441 22.0356C29.5917 22.4544 28.9781 22.6897 28.3384 22.6897ZM30.7506 9.29092L33.9025 13.0128H26.7302V9.29092M9.0407 22.6897C8.40094 22.6897 7.78739 22.4544 7.33501 22.0356C6.88263 21.6168 6.62849 21.0488 6.62849 20.4566C6.62849 19.8643 6.88263 19.2963 7.33501 18.8775C7.78739 18.4587 8.40094 18.2234 9.0407 18.2234C9.68046 18.2234 10.294 18.4587 10.7464 18.8775C11.1988 19.2963 11.4529 19.8643 11.4529 20.4566C11.4529 21.0488 11.1988 21.6168 10.7464 22.0356C10.294 22.4544 9.68046 22.6897 9.0407 22.6897ZM31.5547 7.05779H26.7302V1.10278H4.21628C2.43124 1.10278 1 2.42777 1 4.08029V20.4566H4.21628C4.21628 21.6411 4.72457 22.7771 5.62932 23.6147C6.53407 24.4523 7.76118 24.9228 9.0407 24.9228C10.3202 24.9228 11.5473 24.4523 12.4521 23.6147C13.3568 22.7771 13.8651 21.6411 13.8651 20.4566H23.514C23.514 21.6411 24.0222 22.7771 24.927 23.6147C25.8318 24.4523 27.0589 24.9228 28.3384 24.9228C29.6179 24.9228 30.845 24.4523 31.7498 23.6147C32.6545 22.7771 33.1628 21.6411 33.1628 20.4566H36.3791V13.0128L31.5547 7.05779Z"/>
</mask>
<path d="M28.3384 22.6897C27.6986 22.6897 27.0851 22.4544 26.6327 22.0356C26.1803 21.6168 25.9262 21.0488 25.9262 20.4566C25.9262 19.8643 26.1803 19.2963 26.6327 18.8775C27.0851 18.4587 27.6986 18.2234 28.3384 18.2234C28.9781 18.2234 29.5917 18.4587 30.0441 18.8775C30.4964 19.2963 30.7506 19.8643 30.7506 20.4566C30.7506 21.0488 30.4964 21.6168 30.0441 22.0356C29.5917 22.4544 28.9781 22.6897 28.3384 22.6897ZM30.7506 9.29092L33.9025 13.0128H26.7302V9.29092M9.0407 22.6897C8.40094 22.6897 7.78739 22.4544 7.33501 22.0356C6.88263 21.6168 6.62849 21.0488 6.62849 20.4566C6.62849 19.8643 6.88263 19.2963 7.33501 18.8775C7.78739 18.4587 8.40094 18.2234 9.0407 18.2234C9.68046 18.2234 10.294 18.4587 10.7464 18.8775C11.1988 19.2963 11.4529 19.8643 11.4529 20.4566C11.4529 21.0488 11.1988 21.6168 10.7464 22.0356C10.294 22.4544 9.68046 22.6897 9.0407 22.6897ZM31.5547 7.05779H26.7302V1.10278H4.21628C2.43124 1.10278 1 2.42777 1 4.08029V20.4566H4.21628C4.21628 21.6411 4.72457 22.7771 5.62932 23.6147C6.53407 24.4523 7.76118 24.9228 9.0407 24.9228C10.3202 24.9228 11.5473 24.4523 12.4521 23.6147C13.3568 22.7771 13.8651 21.6411 13.8651 20.4566H23.514C23.514 21.6411 24.0222 22.7771 24.927 23.6147C25.8318 24.4523 27.0589 24.9228 28.3384 24.9228C29.6179 24.9228 30.845 24.4523 31.7498 23.6147C32.6545 22.7771 33.1628 21.6411 33.1628 20.4566H36.3791V13.0128L31.5547 7.05779Z" fill="#242424"/>
<path d="M28.3384 18.2234V17.3302V18.2234ZM33.9025 13.0128V13.9061H35.8295L34.5842 12.4355L33.9025 13.0128ZM26.7302 13.0128H25.837V13.9061H26.7302V13.0128ZM9.0407 18.2234V17.3302V18.2234ZM31.5547 7.05779L32.2487 6.4955L31.9806 6.16454H31.5547V7.05779ZM26.7302 7.05779H25.837V7.95104H26.7302V7.05779ZM26.7302 1.10278H27.6235V0.209532H26.7302V1.10278ZM1 20.4566H0.106749V21.3498H1V20.4566ZM4.21628 20.4566H5.10953V19.5633H4.21628V20.4566ZM9.0407 24.9228V25.8161V24.9228ZM13.8651 20.4566V19.5633H12.9719V20.4566H13.8651ZM23.514 20.4566H24.4072V19.5633H23.514V20.4566ZM28.3384 24.9228V25.8161V24.9228ZM33.1628 20.4566V19.5633H32.2695V20.4566H33.1628ZM36.3791 20.4566V21.3498H37.2723V20.4566H36.3791ZM36.3791 13.0128H37.2723V12.6964L37.0731 12.4505L36.3791 13.0128ZM28.3384 21.7964C27.9142 21.7964 27.52 21.6398 27.2395 21.3801L26.0259 22.6911C26.6501 23.269 27.483 23.5829 28.3384 23.5829V21.7964ZM27.2395 21.3801C26.9613 21.1226 26.8194 20.7887 26.8194 20.4566H25.0329C25.0329 21.3089 25.3993 22.1111 26.0259 22.6911L27.2395 21.3801ZM26.8194 20.4566C26.8194 20.1244 26.9613 19.7905 27.2395 19.533L26.0259 18.222C25.3993 18.8021 25.0329 19.6042 25.0329 20.4566H26.8194ZM27.2395 19.533C27.52 19.2733 27.9142 19.1167 28.3384 19.1167V17.3302C27.483 17.3302 26.6501 17.6441 26.0259 18.222L27.2395 19.533ZM28.3384 19.1167C28.7625 19.1167 29.1567 19.2733 29.4372 19.533L30.6509 18.222C30.0266 17.6441 29.1938 17.3302 28.3384 17.3302V19.1167ZM29.4372 19.533C29.7154 19.7905 29.8573 20.1244 29.8573 20.4566H31.6438C31.6438 19.6042 31.2775 18.8021 30.6509 18.222L29.4372 19.533ZM29.8573 20.4566C29.8573 20.7887 29.7154 21.1226 29.4372 21.3801L30.6509 22.6911C31.2775 22.1111 31.6438 21.3089 31.6438 20.4566H29.8573ZM29.4372 21.3801C29.1567 21.6398 28.7625 21.7964 28.3384 21.7964V23.5829C29.1938 23.5829 30.0266 23.269 30.6509 22.6911L29.4372 21.3801ZM30.0689 9.86819L33.2209 13.5901L34.5842 12.4355L31.4322 8.71365L30.0689 9.86819ZM33.9025 12.1195H26.7302V13.9061H33.9025V12.1195ZM27.6235 13.0128V9.29092H25.837V13.0128H27.6235ZM9.0407 21.7964C8.61657 21.7964 8.22234 21.6398 7.94183 21.3801L6.72819 22.6911C7.35243 23.269 8.18532 23.5829 9.0407 23.5829V21.7964ZM7.94183 21.3801C7.66364 21.1226 7.52174 20.7887 7.52174 20.4566H5.73524C5.73524 21.3089 6.10162 22.1111 6.72819 22.6911L7.94183 21.3801ZM7.52174 20.4566C7.52174 20.1244 7.66364 19.7905 7.94183 19.533L6.72819 18.222C6.10162 18.8021 5.73524 19.6042 5.73524 20.4566H7.52174ZM7.94183 19.533C8.22234 19.2733 8.61656 19.1167 9.0407 19.1167V17.3302C8.18532 17.3302 7.35243 17.6441 6.72819 18.222L7.94183 19.533ZM9.0407 19.1167C9.46484 19.1167 9.85905 19.2733 10.1396 19.533L11.3532 18.222C10.729 17.6441 9.89608 17.3302 9.0407 17.3302V19.1167ZM10.1396 19.533C10.4178 19.7905 10.5597 20.1244 10.5597 20.4566H12.3462C12.3462 19.6042 11.9798 18.8021 11.3532 18.222L10.1396 19.533ZM10.5597 20.4566C10.5597 20.7887 10.4178 21.1226 10.1396 21.3801L11.3532 22.6911C11.9798 22.1111 12.3462 21.3089 12.3462 20.4566H10.5597ZM10.1396 21.3801C9.85905 21.6398 9.46483 21.7964 9.0407 21.7964V23.5829C9.89608 23.5829 10.729 23.269 11.3532 22.6911L10.1396 21.3801ZM31.5547 6.16454H26.7302V7.95104H31.5547V6.16454ZM27.6235 7.05779V1.10278H25.837V7.05779H27.6235ZM26.7302 0.209532H4.21628V1.99603H26.7302V0.209532ZM4.21628 0.209532C2.00405 0.209532 0.106749 1.87081 0.106749 4.08029H1.89325C1.89325 2.98474 2.85844 1.99603 4.21628 1.99603V0.209532ZM0.106749 4.08029V20.4566H1.89325V4.08029H0.106749ZM1 21.3498H4.21628V19.5633H1V21.3498ZM3.32303 20.4566C3.32303 21.9012 3.94356 23.2713 5.0225 24.2702L6.23614 22.9592C5.50558 22.2829 5.10953 21.381 5.10953 20.4566H3.32303ZM5.0225 24.2702C6.09912 25.2669 7.54556 25.8161 9.0407 25.8161V24.0296C7.97681 24.0296 6.96903 23.6377 6.23614 22.9592L5.0225 24.2702ZM9.0407 25.8161C10.5358 25.8161 11.9823 25.2669 13.0589 24.2702L11.8453 22.9592C11.1124 23.6377 10.1046 24.0296 9.0407 24.0296V25.8161ZM13.0589 24.2702C14.1378 23.2713 14.7584 21.9012 14.7584 20.4566H12.9719C12.9719 21.381 12.5758 22.2829 11.8453 22.9592L13.0589 24.2702ZM13.8651 21.3498H23.514V19.5633H13.8651V21.3498ZM22.6207 20.4566C22.6207 21.9012 23.2412 23.2713 24.3202 24.2702L25.5338 22.9592C24.8033 22.2829 24.4072 21.381 24.4072 20.4566H22.6207ZM24.3202 24.2702C25.3968 25.2669 26.8432 25.8161 28.3384 25.8161V24.0296C27.2745 24.0296 26.2667 23.6377 25.5338 22.9592L24.3202 24.2702ZM28.3384 25.8161C29.8335 25.8161 31.28 25.2669 32.3566 24.2702L31.1429 22.9592C30.41 23.6377 29.4023 24.0296 28.3384 24.0296V25.8161ZM32.3566 24.2702C33.4355 23.2713 34.056 21.9012 34.056 20.4566H32.2695C32.2695 21.381 31.8735 22.2829 31.1429 22.9592L32.3566 24.2702ZM33.1628 21.3498H36.3791V19.5633H33.1628V21.3498ZM37.2723 20.4566V13.0128H35.4858V20.4566H37.2723ZM37.0731 12.4505L32.2487 6.4955L30.8606 7.62008L35.685 13.5751L37.0731 12.4505Z" fill="#242424" mask="url(#path-1-inside-1_664_1447)"/>
<path d="M1.33008 19.3701V19.572" stroke="#242424" stroke-width="0.893251"/>
<path d="M1.3287 19.7739C1.06814 20.0008 1.3287 17.8153 1.3287 17.4527C1.3287 16.4722 1.34498 15.5577 1.13715 14.6269C0.759725 12.9367 1.53151 11.0253 1.53151 9.37904C1.53151 8.71005 1.78333 7.32065 1.37377 6.81115C1.12898 6.50664 0.891064 4.62509 1.17095 4.27691C1.59124 3.75408 1.40318 2.65074 2.18504 2.37062C2.70652 2.18379 4.11677 2.51505 4.37096 3.02101" stroke="#242424" stroke-width="0.893251"/>
<path d="M4.41883 19.1683C4.38032 18.8617 3.94514 20.6758 4.41789 21.0521C4.62128 21.2141 4.62022 21.3028 4.77773 21.4988C5.00078 21.7763 5.00536 22.2759 5.18445 22.4987C5.46569 22.8485 6.56911 22.5313 6.96474 22.8463C7.42242 23.2106 8.07637 23.5762 8.63234 23.6088C10.071 23.693 11.0593 22.5996 12.3845 22.5996C13.8789 22.5996 13.0943 19.9615 13.0943 19.1683" stroke="#242424" stroke-width="0.893251"/>
<path d="M26.2764 9.27783C26.2764 10.4506 25.9635 12.0736 26.2877 13.2025C26.5721 14.1932 28.4817 13.1381 28.913 13.1128C29.693 13.0672 31.1445 13.2252 31.8539 13.6174C32.2508 13.8369 34.5285 12.8355 34.1863 13.5165" stroke="#242424" stroke-width="0.893251"/>
<path d="M28.5646 17.4792C28.5422 17.3008 30.4758 18.2792 30.8084 19.2657C31.3733 20.5123 30.9419 21.1655 30.9419 21.9941" stroke="#242424" stroke-width="0.893251"/>
<path d="M26.2779 8.87433C26.5825 11.2997 27.4511 3.29151 25.7145 1.56316C25.0575 0.90931 22.4363 1.79203 21.7032 2.00048C20.4071 2.36904 18.7086 1.80985 17.3539 1.80985C16.1168 1.80985 14.4804 0.882408 13.3877 1.19311C11.8374 1.63391 10.4343 1.00249 8.83555 1.00249C8.08066 1.00249 5.03651 0.934669 4.57638 1.50709C4.20945 1.96356 3.56054 1.80168 3.15667 2.50509C2.91968 2.91783 2.50456 4.25368 2.14258 4.4338" stroke="#242424" stroke-width="0.893251"/>
<path d="M35.4013 19.7737C34.7447 19.692 34.7529 14.9994 34.7928 14.324C34.8395 13.5334 35.6188 13.1137 35.4125 12.3953C35.1446 11.4621 34.8414 11.0928 34.0829 10.489C32.9765 9.60806 31.6309 8.675 30.7365 7.56226C30.0915 6.75987 29.4889 6.85581 28.5055 6.85581C27.9414 6.85581 25.9004 6.59108 25.666 7.05766" stroke="#242424" stroke-width="0.893251"/>
<path d="M35.8093 20.3792C35.6957 19.4741 33.9521 19.3783 33.3755 19.1233C33.0026 18.9584 31.0521 18.4982 31.3474 18.8654C31.5772 19.1513 33.3189 19.8188 32.8685 20.1774C32.6175 20.3773 32.4003 20.7116 32.1135 20.9399C31.7464 21.2322 31.4121 21.0578 31.1445 21.5903" stroke="#242424" stroke-width="0.893251"/>
</svg>
