<svg width="34" height="25" viewBox="0 0 34 25" fill="none" xmlns="http://www.w3.org/2000/svg">
<path d="M3.48971 2.23488C3.09603 2.18567 2.46748 1.04697 2.42646 1.70326C2.37093 2.59176 2.83296 3.23895 3.07622 4.06606C4.68744 9.54429 12.4654 14.1764 16.1307 18.4791C16.7645 19.2232 17.2107 19.4499 16.7804 20.3103" stroke="#242424" stroke-width="1.5" stroke-linecap="round"/>
<path d="M16.779 5.42456C14.3603 5.42456 12.7357 8.0488 11.3445 9.61853C8.04776 13.3384 3.4099 17.3362 1.15496 21.846C0.874853 22.4062 0.830078 22.891 0.830078 23.5" stroke="#242424" stroke-width="1.5" stroke-linecap="round"/>
<path d="M19.9696 3.29799C19.9696 -2.00847 19.9696 13.9109 19.9696 19.2174C19.9696 20.6586 19.6783 21.3734 21.2987 21.3734C25.1929 21.3734 29.3366 19.7374 33.2603 19.2469" stroke="#242424" stroke-width="1.5" stroke-linecap="round"/>
</svg>
