<svg width="41" height="37" viewBox="0 0 41 37" fill="none" xmlns="http://www.w3.org/2000/svg">
<path d="M24.4149 1.04721C20.8701 0.653363 16.4464 2.79242 13.3847 4.9078C6.85689 9.41792 4.82863 18.1402 8.19124 25.3138C10.1034 29.3929 14.5973 33.4294 18.7466 35.195C24.246 37.5352 29.2939 34.4181 32.9021 30.4C36.6584 26.2168 38.1899 20.6539 36.824 15.264C35.3192 9.32617 30.7079 2.70952 23.8328 2.53323C16.0266 2.33307 9.53506 9.87671 7.50186 16.6734C5.02261 24.9612 9.05468 32.8611 17.8121 34.4597C26.5885 36.0617 36.8476 30.2986 38.9074 21.3459C40.8762 12.7894 34.5738 4.39608 26.2533 2.67111C15.3895 0.418874 4.35594 9.21503 1.55778 19.4003C-2.02498 32.4416 14.3769 37.5266 23.8787 32.8358C29.0193 30.298 33.7777 26.0146 36.1805 20.7485C38.0652 16.6178 38.2712 10.6527 35.2307 6.96066C31.9864 3.02111 25.8416 1.97026 21.0446 1.72128C16.9554 1.50904 13.685 2.11751 11.1786 5.45932" stroke="#242424" stroke-width="1.5" stroke-linecap="round"/>
</svg>
