<svg width="35" height="41" viewBox="0 0 35 41" fill="none" xmlns="http://www.w3.org/2000/svg">
<path d="M3.52235 10.8596C3.49481 11.3542 3.8245 11.6906 3.9171 12.1654C4.00936 12.6384 3.87485 13.1642 3.84853 13.637C3.79797 14.5453 4.54308 15.5502 4.05489 16.4077C3.08213 18.1163 4.8229 19.8851 4.72309 21.6782C4.72309 21.6782 4.95388 23.2605 5.09024 23.9596C5.27782 24.9214 5.13813 25.8273 5.1592 26.7993C5.18049 27.7809 5.32603 29.0999 5.57757 30.08C5.81735 31.0144 5.57229 32.1519 6.06621 33.058C6.78876 34.3836 5.25352 36.0098 6.38626 37.1453C7.97874 38.7416 10.6561 38.3314 13.1638 38.471C15.2807 38.5889 17.3977 38.7067 19.5147 38.8246C21.3115 38.9246 23.241 38.8595 25.1162 38.9639C26.2655 39.0279 27.3107 38.7412 28.4106 38.8024C29.0829 38.8398 30.0205 38.3005 30.8454 38.2482C31.743 38.1912 30.5147 36.5934 31.2449 36.3406C31.5128 36.2478 31.6504 35.1439 31.8327 34.8979C32.1989 34.4038 32.4817 33.795 32.5131 33.2304C32.5789 32.0489 32.4059 30.8381 32.4702 29.6832C32.5354 28.511 31.559 27.2837 31.4814 26.0929C31.3616 24.2531 31.188 22.4867 31.2903 20.6501C31.4021 18.6409 33.5057 16.4601 32.459 14.5398C32.1423 13.9589 32.2371 13.248 32.2714 12.6324C32.2805 12.4692 32.4465 11.8338 32.1722 11.7742C31.1835 11.5597 30.2623 11.4859 29.2266 11.4282C26.4713 11.2749 23.9784 11.6534 21.1828 11.4978C17.7433 11.3063 14.3038 11.1149 10.8643 10.9234C9.46185 10.8453 8.05943 10.7673 6.657 10.6892C6.05483 10.6557 4.04889 10.6663 3.75243 11.0449" stroke="#242424" stroke-width="3" stroke-linecap="round"/>
<path d="M5.43022 11.1386C5.36896 12.239 5.11731 13.4242 5.42947 14.5109C5.59968 15.1034 8.06695 10.0609 6.39808 13.1852C5.77841 14.3453 5.19841 15.3027 5.12823 16.5635C5.12801 16.5673 7.07634 14.6196 7.43399 14.0093C7.57909 13.7617 9.01733 12.1928 8.5507 13.1422C8.14538 13.9667 7.36338 14.6474 6.89943 15.455C6.28605 16.5226 6.01642 17.6513 5.60667 18.7649C5.51278 19.0201 5.07398 19.7451 5.20519 19.4995C5.51711 18.9155 6.05201 18.3913 6.5503 17.8881C8.04548 16.3783 9.94422 15.1138 11.3068 13.5351C11.3356 13.5016 12.0057 12.9758 11.9943 13.1806C11.954 13.9043 10.8047 15.0868 10.294 15.6535C8.57241 17.5642 6.81033 19.4547 5.25756 21.4376C3.98536 23.0623 8.82326 18.7426 10.5594 17.364C12.0979 16.1424 13.6617 14.9024 14.8099 13.4618C14.8734 13.3823 15.6114 12.1616 15.3488 12.4188C14.5609 13.1906 14.003 14.074 13.3407 14.9034C11.8031 16.829 10.0373 18.6503 8.44541 20.5517C8.0625 21.009 5.53307 24.1877 7.38149 22.1499C9.83174 19.4486 12.5617 16.9074 15.0348 14.2216C15.5454 13.6671 16.9785 11.9691 16.6217 12.5855C15.9927 13.6718 14.9853 14.6499 14.1668 15.6583C11.3626 19.1132 8.35184 22.8364 6.35938 26.5958C6.11836 27.0506 5.66751 28.4683 5.69487 27.9768C5.72819 27.3783 6.25764 26.6944 6.57024 26.1669C8.10562 23.576 9.38955 20.8945 10.6452 18.2215C10.8138 17.8627 10.9456 17.5079 10.7847 18.1143C10.446 19.3914 9.88953 20.5984 9.62569 21.9012C8.98279 25.0758 7.80816 28.2081 6.52704 31.2613C6.35976 31.66 6.14165 32.9064 6.16501 32.4867C6.20081 31.8436 6.23661 31.2005 6.27241 30.5574C6.35455 29.0818 6.38382 27.5974 6.54574 26.1272C6.66456 25.0483 7.11868 23.9921 7.17866 22.9146C7.27572 21.171 6.76632 26.3862 6.52835 28.119C6.47916 28.4771 5.64675 33.5883 6.82124 33.6537C7.22216 33.676 7.83072 28.4037 7.85709 28.0013C7.92025 27.0373 7.96449 26.072 8.01818 25.1074C8.02406 25.0019 8.12405 23.8812 8.19915 24.0157C8.65279 24.8283 8.47068 26.0647 8.63826 26.9239C8.93058 28.4227 9.12625 29.9168 9.09561 31.4235C9.05854 33.2467 8.52863 36.8627 11.3399 38.0513" stroke="#242424" stroke-width="3" stroke-linecap="round"/>
<path d="M11.1861 18.8375C11.0741 20.8491 11.5096 22.6967 11.905 24.6951C12.437 27.3832 12.1519 30.043 12.0026 32.7248C11.9765 33.1939 12.1568 36.2245 11.7803 34.3384C11.3304 32.0842 12.0169 29.6934 12.0027 27.4351C11.9917 25.6771 11.6243 23.943 11.7945 22.1866C12.0228 19.8302 12.5585 26.9124 12.8715 29.2784C13.2131 31.8598 13.1042 34.9964 14.5356 37.4587C14.8731 38.0393 14.6972 36.6704 14.7016 36.5916C14.804 34.7532 15.0136 32.9023 14.8332 31.0558C14.5312 27.9652 14.2864 25.0134 14.4584 21.9232C14.482 21.4995 14.3505 19.5642 15.0852 20.9761C17.2227 25.0841 18.1406 29.5169 19.8809 33.7124C20.5146 35.2404 21.3186 36.7293 21.9684 38.2526C22.2442 38.8992 21.4404 38.0137 22.0095 38.5716C22.2985 38.855 23.7968 38.6827 23.7996 38.6712C24.3684 36.2778 24.4215 33.7963 24.5155 31.3625C24.6122 28.8596 24.4371 26.395 24.2102 23.8914C24.1198 22.8938 23.636 21.2476 24.2193 20.2915C24.349 20.0789 24.7458 21.3296 24.7617 21.3881C25.0924 22.6074 25.2039 23.8687 25.4088 25.0984C25.8936 28.0086 25.5675 30.9119 26.3663 33.8095C26.438 34.0699 26.4209 34.3306 26.4849 34.5869C26.5128 34.6987 27.1167 32.9916 27.1562 32.8399C27.854 30.1561 28.1965 27.3715 28.3492 24.6286C28.4816 22.2492 28.8571 29.4076 28.7454 31.788C28.7376 31.9542 28.4725 34.9022 28.8431 34.792C29.053 34.7297 30.4812 34.0629 30.4677 34.1645C30.3501 35.0439 29.354 35.722 28.1988 35.7909C24.6164 36.0046 20.7479 35.1024 17.119 34.9418C16.7401 34.9251 11.1568 35.0143 12.4144 35.9047C13.4514 36.639 16.6699 34.8419 17.3807 34.4707C20.0791 33.0614 23.6165 32.6737 26.3003 31.293C27.5845 30.6323 25.8106 30.4636 25.0542 30.6746C20.9247 31.8261 17.1256 33.3815 12.8673 34.3778C12.4444 34.4768 11.2473 34.7796 11.5479 34.5472C12.5868 33.7443 14.2723 33.2218 15.594 32.7242C18.7713 31.5278 22.1511 30.6491 25.3963 29.5533C27.1805 28.9508 29.3379 28.274 30.6366 27.1632C31.0016 26.851 31.7609 25.4849 30.7849 25.2921C27.2698 24.5976 23.8846 26.6842 21.1081 27.7942C19.3555 28.4949 17.575 29.1891 15.6888 29.6992C15.144 29.8465 13.6626 30.4952 14.1135 30.2345C17.7203 28.1489 22.0641 27.0641 26.1483 25.5619C26.3296 25.4952 29.6583 23.951 27.9359 23.592C26.7123 23.3369 25.1345 23.6602 24.0036 23.901C20.9178 24.5581 17.9518 25.4872 15.0182 26.4099C13.9262 26.7534 12.1764 27.0712 11.3384 27.736C11.2009 27.8451 11.6936 27.5829 11.8384 27.4788C14.7764 25.3662 18.7643 24.1543 21.6552 21.9331C22.7619 21.0828 23.0213 20.3943 23.0841 19.2675C23.1595 17.9121 19.3631 19.1145 18.6059 19.335C16.1939 20.0372 13.9361 20.959 11.5426 21.6869C9.81389 22.2127 7.89469 22.4962 6.21066 23.0795C5.56235 23.304 6.38065 23.2074 6.62092 23.1128C7.74254 22.6716 8.61084 21.9951 9.65569 21.4763C12.1918 20.217 15.0436 19.3309 17.9421 18.5695C20.0075 18.0269 22.4763 17.6567 24.3128 16.7597C25.8818 15.9934 23.8391 15.9431 23.0591 16.0142C18.4754 16.4319 13.8092 17.9319 10.1004 19.8329C9.66697 20.055 9.32957 20.2706 9.96485 19.8887C10.8613 19.3497 11.6659 18.8871 12.7625 18.5451C17.3194 17.1239 22.6928 16.2366 26.6561 14.0605C26.8809 13.9371 28.2807 12.5184 27.1267 13.0098C25.209 13.8264 23.7746 14.4974 21.4855 14.9341C20.2977 15.1607 19.1045 15.4274 17.8531 15.4076C17.4417 15.4011 17.1575 15.3735 16.9282 15.6306C16.851 15.7172 16.4045 15.7811 16.5115 15.713C16.8566 15.4935 17.641 15.3535 18.0556 15.2077C19.7787 14.602 21.9467 13.5488 23.897 13.3896C24.6015 13.332 24.5238 13.6822 24.6976 14.0782C25.1312 15.0662 26.0467 15.8993 26.7843 16.7811C28.5654 18.9104 28.2938 20.8645 28.1642 23.1929C28.1437 23.5606 28.2824 25.5343 28.3222 25.1128C28.4932 23.3053 28.2604 21.4807 27.8886 19.6828C27.6454 18.5069 27.0044 15.3043 28.3905 14.3682C28.6635 14.1839 28.7489 15.4315 28.7562 15.4655C28.9888 16.5533 29.3163 17.6265 29.5318 18.7184C30.1164 21.6798 31.9919 24.402 32.1092 27.4141C32.2051 29.876 31.7409 32.1575 32.563 34.5979C32.8655 35.496 31.4949 38.4432 31.5457 37.5293C31.5631 37.2182 33.1017 36.7326 32.7181 36.5704" stroke="#242424" stroke-width="3" stroke-linecap="round"/>
<path d="M30.2129 38.7942C29.7387 39.0889 28.6443 39.1057 28.0742 39.1431C27.0757 39.2086 26.0883 39.34 25.0927 39.4038C23.8355 39.4842 22.7439 39.1457 21.5017 39.0525C20.8642 39.0047 20.212 39.0169 19.5772 38.9385C17.2137 38.6464 14.8362 38.5576 12.4552 38.425C11.2299 38.3568 10.3879 38.2199 9.31246 38.6217" stroke="#242424" stroke-width="3" stroke-linecap="round"/>
<path d="M2.64262 6.22566C4.82901 6.05029 7.02013 5.73734 9.23164 5.55996C10.5952 5.45059 11.7535 4.53446 13.117 4.42509C14.6287 4.30384 16.0715 4.73694 17.5349 4.61956C19.8525 4.43367 22.1701 4.24778 24.4877 4.06188C25.2885 3.99765 26.4696 4.0323 27.2006 3.77568C28.0224 3.4872 29.1826 3.13649 30.0898 3.06372" stroke="#242424" stroke-width="3" stroke-linecap="round"/>
<path d="M2.12903 5.71812C2.23264 4.9402 6.78101 4.93338 7.84668 4.8479C9.41935 4.72176 10.992 4.59562 12.5647 4.46948C13.145 4.42293 14.7676 4.45883 15.2153 4.22639C16.0465 3.79479 17.5314 4.16397 18.4294 3.79327C19.4903 3.35531 21.9306 3.44384 23.1942 3.34249C25.2575 3.17699 27.5653 3.10718 29.3301 2.43872" stroke="#242424" stroke-width="3" stroke-linecap="round"/>
<path d="M7.27022 4.89381C7.70202 4.82751 7.3045 4.58176 7.60335 4.45547C7.86762 4.34379 8.14945 4.25199 8.33707 4.09172C8.6501 3.82432 8.97932 3.30145 9.37384 3.07862C10.2783 2.56778 10.4126 2.44648 11.6956 2.34357C12.718 2.26156 13.6638 2.32291 14.6341 2.24508C16.9567 2.05879 19.2042 1.74131 21.5367 1.55422C22.3309 1.49052 23.1037 2.06719 23.6591 2.26821C24.5854 2.60343 25.1744 2.77314 25.8437 3.26685" stroke="#242424" stroke-width="3" stroke-linecap="round"/>
<path d="M20.8056 2.43598C20.6841 2.03264 11.9407 3.97024 10.7556 4.0653" stroke="#242424" stroke-width="3" stroke-linecap="round"/>
<path d="M28.8989 13.29C28.2358 13.29 28.1844 16.364 28.4584 16.9356C28.7462 17.5357 28.7209 18.3629 28.9968 19.0168C29.1721 19.4323 29.4023 19.8589 29.4023 20.3292" stroke="#242424" stroke-width="3" stroke-linecap="round"/>
<path d="M21.2227 15.0798C21.0254 14.7058 20.96 14.2431 20.5235 14.0657C20.1913 13.9308 19.8801 13.8017 19.5865 13.6216C19.3014 13.4467 19.0561 13.0913 18.7685 12.8793C18.5722 12.7346 18.3126 12.6646 18.2021 12.4551" stroke="#242424" stroke-width="3" stroke-linecap="round"/>
<path d="M17.6982 25.5788C17.6982 24.7833 17.7581 23.9737 17.5724 23.1927C17.4469 22.6648 17.4005 22.2177 17.6004 21.6947C17.9131 20.8765 18.2611 20.4758 18.803 19.852C19.0991 19.5111 19.9405 18.7785 20.3412 19.3483C20.9035 20.1478 20.8475 21.6156 20.4042 22.4238C20.1348 22.9149 19.8378 23.1992 19.8378 23.7759C19.8378 24.3109 19.9524 24.0518 20.2224 23.7958C21.3589 22.7184 23.1687 21.9248 23.9561 20.5811C24.1713 20.214 24.2465 19.5859 24.6273 19.3152C25.2141 18.898 24.9397 17.9431 25.8789 17.9431" stroke="#242424" stroke-width="3" stroke-linecap="round"/>
</svg>
