<svg width="45" height="23" viewBox="0 0 45 23" fill="none" xmlns="http://www.w3.org/2000/svg">
<path d="M3.51951 6.1409C3.09236 6.10118 2.67007 6.02209 2.25835 5.90469C1.71015 5.72496 1.23657 5.37783 0.908384 4.91519C0.580203 4.45254 0.415042 3.89922 0.437582 3.33791C0.502428 2.78117 0.740543 2.25684 1.12018 1.83483C1.49982 1.41282 2.00295 1.11317 2.56249 0.975847C3.09619 0.872186 3.64079 0.831212 4.18456 0.853807L8.84395 0.975847L13.3999 0.853807H22.6153L31.6312 0.975847L41.0461 0.853807C41.3178 0.853807 41.5895 0.853807 41.8571 0.853807C42.5389 0.87623 43.1886 1.14002 43.6839 1.59543C44.1791 2.05085 44.4857 2.66642 44.5457 3.3261C44.6957 4.64886 44.0144 5.56219 42.4938 6.04642C42.1856 6.14484 41.8571 6.19601 41.3461 6.31018C40.9244 9.15253 40.5013 11.991 40.0769 14.8254C39.8295 16.4789 39.7362 18.1717 39.2658 19.7661C38.7954 21.3605 37.7654 22.1715 36.0825 22.1518C27.2425 21.3913 18.3898 22.0927 9.5455 22.0927C7.1935 22.0927 6.40274 21.514 5.96478 19.274C5.26729 15.7309 4.66713 12.1878 4.0183 8.64469C3.88042 7.88883 3.71416 7.13297 3.51951 6.1409ZM32.8789 14.6128C32.8789 15.2388 32.8789 15.6285 32.8789 16.0222C32.864 16.1867 32.883 16.3525 32.935 16.5097C32.9869 16.667 33.0706 16.8126 33.1813 16.938C33.292 17.0634 33.4274 17.1661 33.5795 17.2401C33.7316 17.314 33.8974 17.3577 34.0671 17.3686C34.8011 17.4788 35.1985 17.0418 35.3891 16.4238C35.5545 15.9288 35.6726 15.4201 35.7419 14.9042C35.9771 12.7547 36.2082 10.6091 36.3704 8.45573C36.4217 7.87836 36.3183 7.29794 36.0704 6.77078C35.9552 6.58261 35.7946 6.42445 35.6024 6.30992C35.4103 6.19539 35.1923 6.12793 34.9674 6.11334C34.721 6.15997 34.4867 6.25357 34.2778 6.38872C34.069 6.52387 33.8899 6.69789 33.7508 6.9007C33.4953 7.29438 33.5278 7.8967 33.4791 8.41242C33.3899 9.31394 33.3493 10.2194 33.2642 11.1209C33.1304 12.3846 32.9844 13.6208 32.8789 14.6128ZM9.48061 13.7704L9.3914 13.794C9.3914 14.6443 9.33868 15.4947 9.3914 16.3411C9.39599 16.5075 9.43675 16.671 9.51101 16.821C9.58527 16.9711 9.69135 17.1041 9.8223 17.2116C9.95325 17.319 10.1061 17.3983 10.2709 17.4444C10.4356 17.4904 10.6085 17.5022 10.7783 17.4788C10.9485 17.4857 11.1184 17.4593 11.278 17.4012C11.4375 17.3432 11.5835 17.2546 11.7071 17.1408C11.8308 17.027 11.9296 16.8903 11.9979 16.7387C12.0661 16.5871 12.1023 16.4238 12.1043 16.2584C12.1327 15.8018 12.1043 15.3451 12.1043 14.8884C12.1814 12.3453 10.981 9.92021 11.3744 7.34949C11.3867 7.28429 11.3737 7.21695 11.3379 7.16052C10.9324 6.7944 10.5268 6.23538 10.0605 6.14484C9.69959 6.07397 9.02643 6.51883 8.84395 6.89676C8.63679 7.43733 8.58356 8.02212 8.68986 8.58958C8.95344 10.3218 9.22108 12.0461 9.48061 13.7704ZM16.9948 11.8571H16.9097C16.9097 12.9082 16.9097 13.9554 16.9097 15.0065C16.8994 15.4023 16.9306 15.798 17.003 16.1876C17.1773 16.9749 17.6842 17.4788 18.5723 17.3686C19.3306 17.2702 19.4401 16.7033 19.4685 16.0576C19.5131 15.0774 19.7159 14.0893 19.7078 13.1247C19.7078 11.239 19.6226 9.34544 19.4523 7.46366C19.3961 7.23409 19.2806 7.02219 19.1167 6.84794C18.9528 6.67368 18.7459 6.54281 18.5155 6.46765C18.11 6.44797 17.5626 6.86133 17.2422 7.22745C17.0551 7.55919 16.9733 7.93722 17.007 8.314C16.9786 9.49504 16.9948 10.6761 16.9948 11.8571ZM28.0411 8.10535C28.0411 6.83377 27.4896 6.0976 26.6299 6.10547C25.6891 6.10547 25.1336 6.98337 25.2187 8.29432C25.2187 8.42423 25.2471 8.55415 25.2552 8.688C25.3525 10.0462 25.4864 11.4044 25.535 12.7665C25.5756 13.9475 25.535 15.1089 25.4945 16.282C25.456 16.5433 25.5251 16.8088 25.6868 17.021C25.8484 17.2332 26.0896 17.375 26.3582 17.4158C26.6519 17.504 26.9694 17.4767 27.2425 17.3397C27.5156 17.2027 27.7223 16.9671 27.8181 16.6836C27.9447 16.3162 27.9984 15.9288 27.9762 15.5419C27.9762 14.3018 27.9762 13.0657 27.9762 11.8256H28.0371" fill="#F9F7F2"/>
</svg>
