<svg width="110" height="110" viewBox="0 0 110 110" fill="none" xmlns="http://www.w3.org/2000/svg">
<path d="M31.9361 43.7541C31.9361 48.9664 32.2738 54.1104 32.2738 59.2852C32.2738 61.6809 31.2393 63.319 30.9045 65.6627C30.8316 66.1731 30.2691 66.1966 30.248 66.7882C30.2208 67.5489 30.248 68.3151 30.248 69.0766C30.248 70.177 30.248 71.2774 30.248 72.3779C30.248 73.3895 29.9533 74.905 30.323 75.8292C30.6462 76.6371 31.329 77.6448 31.561 78.399C31.7571 79.0363 31.5187 79.602 31.8611 80.2184C32.1663 80.7677 32.7413 80.9269 32.949 81.5502C33.1729 82.2219 35.7122 83.4027 36.2503 83.5197C37.9399 83.887 40.0452 84.8567 41.7275 84.9453C43.2934 85.0277 44.8865 84.9453 46.4543 84.9453C50.6672 84.9453 54.8094 84.9323 58.9843 84.5326C60.9971 84.3399 63.8293 84.8434 65.7744 84.195C67.2911 83.6894 68.899 82.8911 70.445 82.5819C73.255 82.0199 76.2492 81.06 77.8542 78.6053C80.6725 74.2948 77.4795 69.5841 75.7533 65.7002C75.3586 64.8121 74.8155 64.6831 74.8155 63.6744C74.8155 62.792 74.6439 61.6986 74.8342 60.8421C74.9989 60.1012 75.4907 59.7509 75.4907 58.7788C75.4907 57.6471 75.4907 56.5154 75.4907 55.3837C75.4907 54.1457 75.4907 52.9077 75.4907 51.6697C75.4907 50.3537 74.8155 49.2008 74.8155 47.9745C74.8155 46.2167 73.4649 44.6731 73.4649 42.7412" stroke="#242424" stroke-width="3" stroke-linecap="round"/>
<path d="M40.7168 64.3498C42.8927 64.3498 45.0685 64.3498 47.2444 64.3498C49.2291 64.3498 52.3042 64.9675 54.0345 64.181C55.856 63.3531 59.6033 65.046 60.9747 63.6746" stroke="#242424" stroke-width="3" stroke-linecap="round"/>
<path d="M27.5475 31.5996C25.4827 31.7287 23.4959 37.3453 23.4959 39.065C23.4959 40.6454 22.8206 41.9551 22.8206 43.5668C22.8206 45.0924 22.8206 46.618 22.8206 48.1436C22.8206 49.6765 22.4961 50.8257 22.2204 52.3077C21.8259 54.4278 21.9542 56.9264 21.32 58.9478C20.0654 62.9469 20.7948 67.8879 20.7948 72.1155C20.7948 75.0417 20.7948 77.9678 20.7948 80.894C20.7948 83.19 20.316 85.1795 21.9578 86.8213C23.3618 88.2253 26.4457 87.6466 28.3728 87.6466C30.211 87.6466 32.0492 87.6466 33.8874 87.6466C36.2457 87.6466 37.3388 87.5616 37.3388 84.9455" stroke="#242424" stroke-width="3" stroke-linecap="round"/>
<path d="M80.22 33.2874C80.22 35.3299 81.5384 37.873 82.5834 39.5898C83.6362 41.3194 84.0456 44.2947 84.6092 46.2675C85.1036 47.998 85.4516 49.4839 85.6971 51.2569C86.0145 53.5491 86.9208 56.0682 86.9726 58.3472C87.042 61.3988 87.6479 64.5171 87.6479 67.5571C87.6479 70.5881 88.3231 73.5692 88.3231 76.5419C88.3231 79.3464 88.9984 82.099 88.9984 84.9452C88.9984 87.2659 85.3788 86.971 83.7276 86.971C81.2343 86.971 78.1082 87.5094 75.8307 86.3707C74.2738 85.5923 74.1426 83.1151 74.1426 81.5688" stroke="#242424" stroke-width="3" stroke-linecap="round"/>
<path d="M76.5059 81.5691C80.1705 81.5691 84.418 82.1233 87.9854 81.2314" stroke="#242424" stroke-width="3" stroke-linecap="round"/>
<path d="M20.1211 82.582H32.9511" stroke="#242424" stroke-width="3" stroke-linecap="round"/>
<path d="M32.2754 68.7393C33.5537 72.4321 37.0196 76.9261 34.6388 80.894" stroke="#242424" stroke-width="3" stroke-linecap="round"/>
<path d="M74.4785 68.7393C74.4785 71.8412 75.4224 75.2157 76.1667 78.193" stroke="#242424" stroke-width="3" stroke-linecap="round"/>
<path d="M38.3555 86.6337C39.5556 86.6337 40.9159 87.741 42.0694 88.153C43.9691 88.8315 45.7027 88.9467 47.6591 89.2597C51.6397 89.8966 56.203 89.3347 60.2453 89.3347C63.1089 89.3347 66.1123 89.6003 68.9112 88.9783C70.3477 88.6591 71.3384 86.8571 72.5314 86.3711C73.8283 85.8427 74.708 85.1132 75.495 83.9326" stroke="#242424" stroke-width="3" stroke-linecap="round"/>
<path d="M27.8867 29.9115C30.7525 29.9115 33.5942 29.5739 36.4964 29.5739C39.5816 29.5739 40.6533 32.4547 43.3428 33.5505C48.5944 35.69 54.494 34.976 60.1306 34.976C61.2119 34.976 62.1138 34.3413 63.0193 33.8131C63.4748 33.5473 65.0196 32.422 65.2889 31.9373C65.6468 31.2932 66.1187 29.963 66.8645 29.6489C67.8484 29.2347 69.509 29.5739 70.5972 29.5739C71.4087 29.5739 72.509 29.3725 73.2796 29.5927C73.9372 29.7805 74.6504 30.5583 75.3053 30.8494C76.5891 31.4199 78.4557 31.9373 79.8821 31.9373" stroke="#242424" stroke-width="3" stroke-linecap="round"/>
<path d="M43.7578 27.5481C48.9397 27.5481 64.4708 28.2234 59.2889 28.2234" stroke="#242424" stroke-width="3" stroke-linecap="round"/>
<path d="M36.6618 27.8857C35.2374 27.8857 35.6489 25.0414 35.6489 24.0029C35.6489 22.4137 38.8753 22.4835 40.1132 22.4835C42.1633 22.4835 43.5744 21.1996 45.309 20.8141C47.2556 20.3816 48.7984 20.1201 50.8612 20.1201C52.6556 20.1201 54.4501 20.1201 56.2445 20.1201C58.2445 20.1201 59.665 21.2105 61.4778 21.4894C63.7173 21.8339 67.724 24.4768 67.724 26.8728" stroke="#242424" stroke-width="3" stroke-linecap="round"/>
<path d="M44.8909 23.1512C43.4742 24.4105 48.2741 22.843 46.328 23.9635C44.6993 24.9012 46.2607 24.7885 47.2528 24.6008C47.9755 24.4641 50.1253 24.0509 49.3897 24.0509C48.722 24.0509 50.7462 23.9663 51.3642 23.7135C51.366 23.7128 51.9511 23.4362 51.6891 23.3886C51.4842 23.3513 50.856 23.3761 51.0643 23.3761C51.3421 23.3761 55.4115 22.1572 55.5132 23.2761C55.5358 23.5255 55.0202 23.9578 55.2882 24.2259C55.58 24.5177 57.1029 24.3853 57.5127 24.4508C58.37 24.588 56.6305 24.5346 56.9128 24.6758C57.2484 24.8436 58.3892 24.8396 58.7374 24.6758C60.1726 24.0004 55.4907 24.6789 54.0136 24.1009C52.7623 23.6113 51.1491 24.2625 49.8396 23.826" stroke="#242424" stroke-width="3" stroke-linecap="round"/>
<path d="M46.2404 22.4761C47.6775 22.4761 49.1146 22.4761 50.5518 22.4761C51.8931 22.4761 53.2344 22.4761 54.5757 22.4761C55.1253 22.4761 56.5356 22.7549 56.9876 22.4261C57.2742 22.2177 57.5253 22.3572 57.8374 22.2012C57.9985 22.1207 57.8246 22.0061 57.7124 22.0762C57.4332 22.2507 57.4875 22.75 57.4875 23.026C57.4875 23.5005 57.7322 25.3678 57.1626 25.4004C54.0508 25.5782 50.4445 26.1053 47.3651 25.2254C46.628 25.0148 46.2583 24.918 45.6905 24.5506C45.3288 24.3165 45.0794 23.9511 44.6408 23.8258C44.2505 23.7143 41.6993 23.6836 41.7915 23.7758C43.7091 25.6934 46.4316 27.2642 48.9897 28.1497C50.5891 28.7033 53.0472 28.5496 54.7507 28.5496C56.1535 28.5496 57.7058 28.7514 59.0621 28.3746C59.8624 28.1523 61.677 27.2508 61.9863 26.4001C62.4563 25.1079 61.9129 25.1428 60.8616 24.6756C60.2133 24.3874 57.9229 23.0016 58.2123 24.7381C58.3624 25.6389 59.5535 26.5351 60.0743 27.2874C60.3369 27.6667 61.2209 27.9267 60.4617 28.2746C60.053 28.462 60.2179 28.9601 59.6869 28.9995C59.1515 29.0391 58.7215 29.332 58.2498 29.4369C56.7915 29.7609 55.3688 30.2857 53.8884 30.624C51.3569 31.2027 48.2557 31.4818 45.8905 30.2991C44.4132 29.5605 42.6413 27.9106 42.6413 26.0752C42.6413 24.2252 44.8361 27.4173 45.1156 27.8748C45.8554 29.0853 47.5908 30.1943 48.8147 30.899C51.287 32.3224 54.1968 34.7851 57.0876 32.8235C57.8344 32.3167 60.2974 31.9237 58.1248 31.9237C55.2131 31.9237 52.3013 31.9237 49.3896 31.9237C48.8837 31.9237 46.094 32.0207 46.4778 32.1487C49.1927 33.0536 52.2096 32.8235 55.0381 32.8235C56.8253 32.8235 57.5696 32.8687 59.0496 32.0362C59.7472 31.6438 60.1762 30.9168 60.8616 30.5741" stroke="#242424" stroke-width="3" stroke-linecap="round"/>
</svg>
