<svg width="102" height="110" viewBox="0 0 102 110" fill="none" xmlns="http://www.w3.org/2000/svg">
<path d="M52.7076 52.4062C53.807 52.4062 54.5458 53.3694 54.6097 54.5197C54.6369 55.0095 55.1071 57.5158 55.4551 57.6898" stroke="#242424" stroke-width="2.42813" stroke-linecap="round"/>
<path d="M52.7076 53.0403C51.6086 53.0403 50.2099 52.8363 49.2205 53.3691C48.6274 53.6885 47.7961 53.99 47.5885 54.5667C47.466 54.9071 46.9549 55.6874 46.7431 55.9521C46.2121 56.616 45.8962 57.8556 45.7217 58.6408C45.4683 59.781 45.0994 60.5824 45.0994 61.8227C45.0994 62.5811 44.709 64.3322 45.7334 64.4527C46.8354 64.5824 48.1392 64.6348 49.3262 64.7697C50.3977 64.8915 52.3659 65.2276 53.3417 64.711C53.5446 64.6036 53.5017 64.3013 53.6704 64.2531C53.9044 64.1863 54.1715 64.3078 54.3984 64.1944C54.7977 63.9947 55.0765 63.5853 55.4551 63.396" stroke="#242424" stroke-width="2.42813" stroke-linecap="round"/>
<path d="M48.0599 65.2979C48.0599 67.7493 47.6372 70.2633 47.6372 72.6948C47.6372 75.6183 47.6372 78.5419 47.6372 81.4654C47.6372 82.7517 48.0609 83.0505 49.281 83.0505C50.3925 83.0505 51.504 83.0505 52.6155 83.0505C53.6104 83.0505 54.9642 83.2929 55.8795 82.8861C56.8447 82.4571 57.5017 81.9938 58.627 81.9938" stroke="#242424" stroke-width="2.42813" stroke-linecap="round"/>
<path d="M58.8359 83.2617C58.8359 85.2051 54.9764 85.3751 53.6463 85.3751C52.6684 85.3751 51.7975 85.1019 50.8754 84.7411C49.938 84.3743 48.8111 83.6844 47.8462 83.6844" stroke="#242424" stroke-width="2.42813" stroke-linecap="round"/>
<path d="M48.6934 83.4733C48.669 83.2786 48.6248 83.3333 48.482 83.262" stroke="#242424" stroke-width="2.42813" stroke-linecap="round"/>
<path d="M55.2433 53.2517C56.1156 53.2517 56.087 54.0971 56.7227 54.0971" stroke="#242424" stroke-width="2.42813" stroke-linecap="round"/>
<path d="M55.4543 51.9836C54.3527 50.7442 53.7636 49.7853 53.7636 48.0855C53.7636 45.9677 53.798 44.0313 54.2919 41.9567C54.5808 40.7436 55.0188 38.8915 56.7106 40.0546C57.9488 40.9059 57.5677 43.4739 57.5677 44.798" stroke="#242424" stroke-width="2.42813" stroke-linecap="round"/>
<path d="M50.3828 49.8699C50.3828 51.2609 49.7176 52.8286 48.0581 52.8286C47.6025 52.8286 46.9005 52.9139 46.5787 52.5116C46.3577 52.2354 45.739 52.4831 45.428 52.3942C44.7398 52.1976 44.3057 51.2415 44.0426 50.7152" stroke="#242424" stroke-width="2.42813" stroke-linecap="round"/>
<path d="M44.2545 49.87C46.3985 49.87 48.451 49.6587 50.5947 49.6587C51.5382 49.6587 52.0704 50.0725 52.8255 50.5041C53.3454 50.8011 54.1875 51.472 54.1875 52.1948" stroke="#242424" stroke-width="2.42813" stroke-linecap="round"/>
<path d="M44.041 50.7156C42.8235 50.7156 41.261 51.1995 40.8826 52.5237C40.5947 53.5316 39.7636 54.5395 39.3446 55.4825C38.9163 56.4461 38.2409 57.2612 37.7008 58.2064C37.3686 58.7877 37.3483 59.3547 36.9024 59.8502C36.5889 60.1985 36.4327 61.2464 36.4327 61.7053" stroke="#242424" stroke-width="2.42813" stroke-linecap="round"/>
<path d="M44.8867 60.0146L44.6754 60.226" stroke="#242424" stroke-width="2.42813" stroke-linecap="round"/>
<path d="M44.2539 62.5505C44.0537 64.553 41.5898 64.2413 40.1562 64.2413C39.4087 64.2413 38.6612 64.2413 37.9137 64.2413C37.2518 64.2413 36.8567 63.6071 36.4343 63.3959" stroke="#242424" stroke-width="2.42813" stroke-linecap="round"/>
<path d="M42.1396 65.0864C42.1396 66.1893 41.7169 67.3074 41.7169 68.4679C41.7169 69.8941 41.2942 71.1875 41.2942 72.589C41.2942 74.6306 41.0829 76.8196 41.0829 78.9292C41.0829 79.6761 40.5542 83.4047 41.7169 83.4731C43.5573 83.5813 45.0212 82.6277 46.7891 82.6277" stroke="#242424" stroke-width="2.42813" stroke-linecap="round"/>
<path d="M42.9861 84.3186C43.6448 84.3186 45.8315 84.9681 46.1562 84.3186" stroke="#242424" stroke-width="2.42813" stroke-linecap="round"/>
<path d="M38.338 64.4526C39.21 64.4526 39.6737 65.2522 40.4514 65.298C41.0475 65.3331 41.6342 65.7207 42.3535 65.7207" stroke="#242424" stroke-width="2.42813" stroke-linecap="round"/>
<path d="M47.2115 51.1381C47.2115 49.0529 46.3661 46.9709 46.3661 44.9036C46.3661 43.2183 46.2033 41.5399 46.7418 39.9841C46.9776 39.3029 47.2853 39.0917 48.1507 39.0917C48.7681 39.0917 49.9514 38.8246 50.2759 39.4087C51.034 40.7733 51.0156 42.3082 51.0156 43.9526" stroke="#242424" stroke-width="2.42813" stroke-linecap="round"/>
<path d="M48.6934 51.3494H46.1573" stroke="#242424" stroke-width="2.42813" stroke-linecap="round"/>
<path d="M39.7891 50.0361C37.3594 50.0361 35.0615 50.2056 32.6696 50.2056" stroke="#242424" stroke-width="2.42813" stroke-linecap="round"/>
<path d="M40.1286 50.2058C40.1286 50.6845 40.4763 50.6637 40.8066 50.8839" stroke="#242424" stroke-width="2.42813" stroke-linecap="round"/>
<path d="M40.9766 52.2397C40.5082 52.2397 40.1662 52.6679 39.7052 52.7388C39.2881 52.803 38.81 52.8542 38.4716 53.1249C38.0012 53.5013 36.6803 53.28 36.2208 53.0119C35.916 52.8341 35.3026 52.8876 35.0813 52.7106C34.7545 52.4491 34.5528 52.2397 34.1114 52.2397C33.3704 52.2397 32.9025 51.6033 32.3315 51.2227" stroke="#242424" stroke-width="2.42813" stroke-linecap="round"/>
<path d="M31.9922 51.3921C31.9669 51.6197 31.1984 52.7415 31.1446 52.7482C30.6525 52.8097 30.6498 53.5305 30.1276 53.5957C29.7165 53.6471 29.4241 54.7136 29.1482 54.9895C28.6914 55.4463 28.7481 55.9981 28.3948 56.4398C28.005 56.927 27.6576 57.6127 27.3777 58.1725C27.2337 58.4606 27.3409 58.8616 27.1517 59.1048C26.9175 59.406 26.76 59.6517 26.7373 60.0372C26.6757 61.0849 25.825 61.8618 25.3812 62.7493" stroke="#242424" stroke-width="2.42813" stroke-linecap="round"/>
<path d="M25.8892 63.5972C25.9593 64.1582 28.3201 64.7613 28.9027 64.7837C30.3594 64.8398 31.8514 64.9533 33.3477 64.9533" stroke="#242424" stroke-width="2.42813" stroke-linecap="round"/>
<path d="M33.3477 64.9532C33.0839 64.8872 32.817 62.4178 32.7073 62.0338C32.5074 61.3342 32.9984 60.0271 32.5001 59.5288" stroke="#242424" stroke-width="2.42813" stroke-linecap="round"/>
<path d="M28.9416 65.97C28.9416 66.4861 28.6841 66.9904 28.612 67.4956C28.5301 68.0684 28.6026 68.6957 28.6026 69.2754C28.6026 70.503 28.2635 71.8519 28.2635 73.0894C28.2635 74.7297 27.5016 77.2224 28.5649 78.5515C29.0526 79.1611 29.8556 79.1919 30.7214 79.1919C31.7137 79.1919 32.8127 79.3614 33.8574 79.3614C36.0018 79.3614 38.1575 78.8528 40.2988 78.8528" stroke="#242424" stroke-width="2.42813" stroke-linecap="round"/>
<path d="M36.3998 52.2396C36.3998 51.4615 36.2185 50.4016 36.5317 49.697C36.7504 49.2049 36.8432 47.7509 36.7294 47.239C36.6606 46.9293 36.3022 46.643 36.1361 46.3821C35.7969 45.849 35.693 45.3987 35.5146 44.8188C35.2141 43.8423 34.9543 42.968 34.8836 41.9089C34.8377 41.2202 34.7978 40.4109 34.8836 39.724C34.9189 39.4422 35.5164 39.0015 35.7124 38.7729C36.0695 38.3563 38.3255 38.6679 38.8672 38.6787C40.2144 38.7057 40.9895 40.5375 41.1461 41.6734C41.3035 42.814 41.8125 45.4767 41.1461 46.4762" stroke="#242424" stroke-width="2.42813" stroke-linecap="round"/>
<path d="M39.6211 51.7312H34.8748" stroke="#242424" stroke-width="2.42813" stroke-linecap="round"/>
<path d="M29.4502 79.7007C31.275 79.7007 32.7559 80.8873 34.6297 80.8873C36.802 80.8873 38.9742 80.8873 41.1465 80.8873" stroke="#242424" stroke-width="2.42813" stroke-linecap="round"/>
<path d="M26.5664 59.8677C25.8613 59.9383 25.3456 60.3763 24.5699 60.3763C23.9932 60.3763 23.4135 60.3932 22.8372 60.3763C22.1611 60.3564 20.464 59.9015 20.464 59.1897" stroke="#242424" stroke-width="2.42813" stroke-linecap="round"/>
<path d="M20.4637 58.5117C20.4637 56.3946 20.9239 54.6543 21.7821 52.8425C22.8388 50.6118 24.8789 50.0361 27.2441 50.0361" stroke="#242424" stroke-width="2.42813" stroke-linecap="round"/>
<path d="M27.2448 50.2056C28.6814 50.2056 28.827 51.863 29.957 52.2397" stroke="#242424" stroke-width="2.42813" stroke-linecap="round"/>
<path d="M28.7721 50.2055C28.7721 48.9017 28.6512 47.5602 28.6026 46.3444C28.5902 46.0354 27.7019 45.5697 27.5949 45.1955C27.4081 44.5417 27.2465 44.0481 27.2465 43.3497C27.2465 43.0325 27.0523 41.8299 27.2842 41.5981C27.4701 41.4122 28.4226 41.5604 28.6873 41.5604C29.9513 41.5604 30.6367 42.4408 30.6367 43.5945" stroke="#242424" stroke-width="2.42813" stroke-linecap="round"/>
<path d="M23.6866 61.7324C23.4838 63.3552 22.5 64.9669 22.5 66.6482C22.5 68.2698 22.7363 70.0708 22.4906 71.6677C22.1877 73.6365 21.822 75.4919 21.822 77.4876C21.822 79.0694 21.483 80.4928 21.483 82.0738C21.483 82.9486 21.8991 82.7518 22.6695 82.7518C23.4115 82.7518 24.1042 82.9213 24.8732 82.9213C26.6711 82.9213 28.4531 83.0908 30.2222 83.0908C31.9738 83.0908 33.7255 83.0908 35.4771 83.0908C36.2837 83.0908 37.2672 82.897 37.9915 82.507C38.3899 82.2924 39.4512 82.2354 39.4512 81.7348" stroke="#242424" stroke-width="2.42813" stroke-linecap="round"/>
<path d="M25.2106 84.2772C26.1125 84.3775 26.971 84.7858 27.9228 84.7858C28.9333 84.7858 30.143 85.4197 31.1435 85.0306C32.079 84.6668 33.0825 84.738 34.0252 84.3714C34.5933 84.1505 35.1821 84.1661 35.758 84.0041C36.8262 83.7037 37.6523 83.4297 38.7715 83.4297" stroke="#242424" stroke-width="2.42813" stroke-linecap="round"/>
<path d="M83.4238 67.9924C79.588 67.9924 74.8486 68.7801 71.5764 66.5986" stroke="#242424" stroke-width="2.42813" stroke-linecap="round"/>
<path d="M84.1211 67.2955C84.1211 62.8972 82.5055 59.883 80.6366 56.145" stroke="#242424" stroke-width="2.42813" stroke-linecap="round"/>
<path d="M72.2733 66.5987C72.2733 63.4492 70.9152 55.5778 72.8154 53.2026C74.3932 51.2303 74.3776 49.3392 77.1517 49.176C79.1131 49.0607 81.1229 47.7822 83.4238 47.7822" stroke="#242424" stroke-width="2.42813" stroke-linecap="round"/>
<path d="M79.2445 67.9922C79.2445 71.0739 80.4772 73.6162 80.6383 76.355C80.7821 78.7994 79.3135 84.7179 82.3805 84.7179C85.7659 84.7179 88.9236 84.7738 92.1372 84.0597C93.3873 83.7819 98.3608 81.3304 98.7578 80.5365" stroke="#242424" stroke-width="2.42813" stroke-linecap="round"/>
<path d="M98.7551 81.2334C98.7551 72.8153 99.4965 64.4335 96.1224 56.8417C95.5801 55.6217 95.345 52.5309 95.2706 51.2665C95.2107 50.2478 91.6526 51.9634 90.3923 51.9634C86.4311 51.9634 82.0294 52.5757 82.0294 47.782" stroke="#242424" stroke-width="2.42813" stroke-linecap="round"/>
<path d="M88.3001 48.479C90.511 48.479 94.5723 49.1545 94.5723 51.9635" stroke="#242424" stroke-width="2.42813" stroke-linecap="round"/>
<path d="M89.6952 49.8727C86.805 49.5114 87.4825 44.2805 87.6044 42.2067C87.7388 39.9227 93.1797 42.1534 93.1797 44.9943" stroke="#242424" stroke-width="2.42813" stroke-linecap="round"/>
<path d="M89 49.8726H84.1217" stroke="#242424" stroke-width="2.42813" stroke-linecap="round"/>
<path d="M98.7555 61.7203C102.99 61.7203 95.3948 52.2112 94.5741 50.5698" stroke="#242424" stroke-width="2.42813" stroke-linecap="round"/>
<path d="M74.0625 49.7807C71.5641 49.6617 67.993 48.8865 66.5061 51.4887C66.207 52.0121 65.9412 52.4915 65.6978 53.0595C65.5734 53.3498 65.1916 53.7507 65.1488 54.0507C65.0202 54.9506 64.8667 55.9455 64.8667 56.8491C64.8667 57.6144 64.7294 58.3416 64.7294 59.1138C64.7294 59.5731 64.7498 59.612 64.9734 59.9373C65.1612 60.2104 66.0382 60.6141 66.3764 60.6235C67.4842 60.6543 68.5051 61.152 69.5942 61.1725C69.898 61.1783 71.3258 61.1892 71.4547 61.447" stroke="#242424" stroke-width="2.42813" stroke-linecap="round"/>
<path d="M67.4769 61.8589C67.4769 62.4328 67.6005 63.0571 67.6142 63.6737C67.6433 64.9838 67.7514 66.2954 67.7514 67.6234C67.7514 68.7623 68.1265 69.7601 68.2699 70.8717C68.3757 71.691 68.3239 72.375 68.6054 73.1745C68.8474 73.8617 69.1105 74.5606 69.3222 75.2561C69.5295 75.9373 69.6716 76.5533 69.9322 77.2234C70.0794 77.6019 70.4252 78.0425 70.5041 78.3977C70.5922 78.7943 71.7388 78.7408 72.0672 78.7408C73.7404 78.7408 75.4015 78.7475 77.0693 78.5959C78.0321 78.5084 78.9635 78.1918 79.9668 78.1918" stroke="#242424" stroke-width="2.42813" stroke-linecap="round"/>
<path d="M71.8677 79.8386C73.2947 79.8386 74.6271 80.1131 76.0539 80.1131C77.6323 80.1131 79.2107 80.1131 80.7891 80.1131" stroke="#242424" stroke-width="2.42813" stroke-linecap="round"/>
<path d="M76.1223 47.859C76.1223 46.1367 75.8478 44.4712 75.8478 42.7273C75.8478 42.219 75.8478 41.7107 75.8478 41.2023C75.8478 40.8122 76.5672 40.8007 76.8086 40.5847C77.1557 40.2742 79.0327 40.035 79.3477 40.4551C79.8348 41.1045 79.8281 42.1345 79.8281 42.918" stroke="#242424" stroke-width="2.42813" stroke-linecap="round"/>
<path d="M65.8301 50.7415C65.7012 52.0305 64.5479 52.9844 63.7408 53.7915C63.3271 54.2052 62.7449 54.7633 62.6733 55.408C62.6231 55.8597 62.0863 56.3682 61.9794 56.8491C61.903 57.193 61.7125 57.3711 61.7125 57.7489C61.7125 58.0895 61.7125 58.4301 61.7125 58.7707C61.7125 59.1376 61.9091 60.4657 62.1853 60.6235C62.3115 60.6957 62.2361 60.8434 62.2692 60.959C62.2978 61.0594 62.5192 61.0564 62.6047 61.1039C62.8372 61.2331 63.1759 61.1725 63.4358 61.1725C64.2339 61.1725 65.032 61.1725 65.8301 61.1725" stroke="#242424" stroke-width="2.42813" stroke-linecap="round"/>
<path d="M63.7702 62.5449C63.7702 64.2885 63.7702 66.0321 63.7702 67.7757C63.7702 69.6012 63.9042 71.5245 63.4957 73.3115C63.0925 75.0756 63.2518 77.3391 63.3585 79.1523C63.3736 79.4087 64.2702 79.5641 64.5251 79.5641C64.9827 79.5641 65.6385 79.4515 65.9968 79.1828C66.7441 78.6223 68.233 78.4661 69.123 78.4661" stroke="#242424" stroke-width="2.42813" stroke-linecap="round"/>
<path d="M65.6932 80.3874C66.6622 80.3874 67.6381 80.4246 68.606 80.3874C69.3493 80.3588 69.9598 79.8384 70.7715 79.8384" stroke="#242424" stroke-width="2.42813" stroke-linecap="round"/>
<path d="M68.5753 49.0942C68.5753 46.1443 68.3008 43.2855 68.3008 40.3406C68.3008 39.5781 70.1229 39.8142 70.5578 40.2491C71.2195 40.9109 71.0458 42.3508 71.0458 43.1924" stroke="#242424" stroke-width="2.42813" stroke-linecap="round"/>
<path d="M62.8938 52.7972C61.6752 52.7972 58.1655 50.4332 57.334 51.8587C56.994 52.4415 56.5195 54.3665 56.5195 55.0282C56.5195 56.079 55.882 56.8027 55.882 57.9675C55.882 59.2885 55.5633 60.6527 55.5633 61.8806C55.5633 63.1547 55.2079 63.9523 56.6788 63.9523C58.963 63.9523 61.2471 63.9523 63.5312 63.9523" stroke="#242424" stroke-width="2.42813" stroke-linecap="round"/>
<path d="M57.7962 65.2271C57.7962 69.2758 58.115 73.3715 58.115 77.4977C58.115 80.0613 57.7308 81.8004 60.8064 81.8004C62.8839 81.8004 64.9615 81.8004 67.0391 81.8004" stroke="#242424" stroke-width="2.42813" stroke-linecap="round"/>
<path d="M60.9829 83.0753C61.708 83.7199 64.9502 83.6492 65.9053 83.3763C67.4528 82.9342 67.3971 81.4817 69.2695 81.4817" stroke="#242424" stroke-width="2.42813" stroke-linecap="round"/>
<path d="M62.577 51.5221C62.6585 50.8699 63.2144 50.7015 63.2144 49.8576C63.2144 48.9782 63.2144 48.0988 63.2144 47.2194C63.2144 45.4664 63.2144 43.7135 63.2144 41.9605C63.2144 40.0319 65.0582 40.5978 66.5432 41.0221C67.0229 41.1591 66.7203 45.1428 66.7203 45.7851" stroke="#242424" stroke-width="2.42813" stroke-linecap="round"/>
<path d="M5.62795 78.1799C5.62795 79.7491 3.35895 80.1037 3.72811 79.8083C4.31099 79.342 5.67752 77.3345 5.50733 77.6371C5.09057 78.378 3.19851 81.376 4.54233 79.0243C5.178 77.9119 8.50602 78.1799 9.69903 78.1799C12.9731 78.1799 15.0764 80.7154 18.1126 80.894C18.7594 80.932 18.9821 81.8417 19.4696 82.2208C20.0426 82.6665 20.9356 82.2515 21.3694 82.7938C21.947 83.5158 23.9964 84.5654 24.8676 84.7238C25.7643 84.8868 28.7016 86.434 29.391 86.9855C29.9604 87.441 32.3194 88.2439 30.3258 87.1363C27.2822 85.4454 24.2503 83.8422 21.3694 82.4018C18.5312 80.9826 15.7476 79.9635 12.9559 78.7227C11.6318 78.1343 8.78711 78.1799 11.9004 78.1799C14.3838 78.1799 16.7861 77.9391 18.6554 79.8083" stroke="#242424" stroke-width="2.42813" stroke-linecap="round"/>
<path d="M29.5145 86.3218C29.5145 86.9198 29.2744 88.0838 29.7859 88.493C30.2445 88.8598 31.6254 89.1544 31.6254 89.8199C31.6254 90.3685 26.6262 90.1214 32.2286 90.1214C35.5305 90.1214 34.3508 90.1214 31.927 90.1214C29.8563 90.1214 27.7856 90.1214 25.7148 90.1214" stroke="#242424" stroke-width="2.42813" stroke-linecap="round"/>
<path d="M1.28711 80.3511H6.1724" stroke="#242424" stroke-width="2.42813" stroke-linecap="round"/>
<path d="M19.7433 81.9796C19.7433 70.7615 19.7433 59.5435 19.7433 48.3254C19.7433 47.3479 19.7433 42.3935 19.7433 45.6113C19.7433 48.0906 19.2005 50.2766 19.2005 52.6679C19.2005 56.4932 17.5721 60.4204 17.5721 64.3383C17.5721 68.4749 15.896 73.8064 17.0595 77.8784C17.5002 79.4211 18.6577 81.7849 18.6577 78.9941C18.6577 76.1896 18.6577 73.3851 18.6577 70.5806C18.6577 68.515 19.7433 66.5779 19.7433 64.5795C19.7433 61.7046 19.7433 58.8298 19.7433 55.9549C19.7433 53.9787 18.7423 44.7548 20.2862 43.9829" stroke="#242424" stroke-width="2.42813" stroke-linecap="round"/>
<path d="M19.1992 45.611C19.6432 42.0592 26.4253 43.4398 28.9698 43.4398C33.267 43.4398 37.2506 42.897 41.575 42.897C47.1386 42.897 52.6329 42.3542 58.2815 42.3542C61.4674 42.3542 65.6487 41.5661 68.7155 42.4748C71.3408 43.2526 74.4041 43.4398 77.1593 43.4398C83.4741 43.4398 89.675 43.9826 95.9767 43.9826" stroke="#242424" stroke-width="2.42813" stroke-linecap="round"/>
</svg>
